<?xml version="1.0" encoding="utf-8"?>
<!-- Generator: Adobe Illustrator 22.0.1, SVG Export Plug-In . SVG Version: 6.00 Build 0)  -->
<svg version="1.1" id="圖層_1" xmlns="http://www.w3.org/2000/svg" xmlns:xlink="http://www.w3.org/1999/xlink" x="0px" y="0px"
	 width="44px" height="54.5px" viewBox="0 0 44 54.5" style="enable-background:new 0 0 44 54.5;" xml:space="preserve">
<style type="text/css">
	.st0{fill:#00A83C;}
	.st1{fill:#333333;}
</style>
<g>
	<g>
		<g>
			<path class="st0" d="M24.1,3.6c-10.8,0-19.6,8.6-19.6,19.2c0,4.2,1.4,8.2,3.9,11.5l0,0l14.2,18.9c0.6,0.8,1.8,1,2.6,0.4
				c0.1-0.1,0.3-0.2,0.4-0.4l14.2-18.9l0,0c2.6-3.3,3.9-7.3,3.9-11.5C43.8,12.2,35,3.6,24.1,3.6z M24.1,31.9c-5,0-9.1-4.1-9.1-9.1
				c0-5,4.1-9.1,9.1-9.1c5,0,9.1,4.1,9.1,9.1l0,0C33.2,27.8,29.1,31.9,24.1,31.9z"/>
		</g>
	</g>
	<g>
		<g>
			<path class="st1" d="M20.7,52.6c-0.1,0-0.3,0-0.4,0c-0.7-0.1-1.3-0.5-1.8-1.1L4.4,32.6c-2.6-3.4-4.1-7.7-4.1-12
				c0-11,9.2-20,20.5-20s20.5,9,20.5,20c0,4.3-1.5,8.6-4.1,12L22.9,51.5c-0.2,0.2-0.3,0.4-0.5,0.5C21.9,52.4,21.3,52.6,20.7,52.6z
				 M20.7,2.3c-10.4,0-18.8,8.2-18.8,18.3c0,4,1.3,7.9,3.8,11l14.2,18.9c0.2,0.2,0.4,0.4,0.7,0.4c0.3,0,0.5,0,0.7-0.2
				c0.1-0.1,0.1-0.1,0.2-0.2l14.2-18.9c2.4-3.1,3.8-7,3.8-11C39.5,10.5,31.1,2.3,20.7,2.3z M20.7,30.5c-5.5,0-9.9-4.4-9.9-9.9
				c0-5.5,4.4-9.9,9.9-9.9c5.5,0,9.9,4.4,9.9,9.9C30.6,26.1,26.2,30.5,20.7,30.5z M20.7,12.4c-4.5,0-8.2,3.7-8.2,8.2
				c0,4.5,3.7,8.2,8.2,8.2c4.5,0,8.2-3.7,8.2-8.2C28.9,16.1,25.2,12.4,20.7,12.4z"/>
		</g>
	</g>
</g>
</svg>
