<?xml version="1.0" encoding="utf-8"?>
<!-- Generator: Adobe Illustrator 22.0.1, SVG Export Plug-In . SVG Version: 6.00 Build 0)  -->
<svg version="1.1" id="圖層_1" xmlns="http://www.w3.org/2000/svg" xmlns:xlink="http://www.w3.org/1999/xlink" x="0px" y="0px"
	 width="35px" height="70px" viewBox="0 0 35 70" enable-background="new 0 0 35 70" xml:space="preserve">
<g>
	<polygon fill="#FFFFFF" points="34.5,35 31.4,32 31.4,38 	"/>
	<polygon fill="#FFFFFF" points="26.6,27 23.5,24 23.5,30 	"/>
	<polygon fill="#FFFFFF" points="26.6,43 23.5,40 23.5,46 	"/>
	<polygon fill="#FFFFFF" points="11.6,27.3 8.5,24.3 8.5,30.3 	"/>
	<polygon fill="#FFFFFF" points="11.6,12 8.5,9 8.5,15 	"/>
	<polygon fill="#FFFFFF" points="3.6,4 0.5,1 0.5,7 	"/>
	<polygon fill="#FFFFFF" points="18.6,19 15.5,16 15.5,22 	"/>
	<polygon fill="#FFFFFF" points="18.6,51 15.5,48 15.5,54 	"/>
	<polygon fill="#FFFFFF" points="3.6,19.5 0.5,16.5 0.5,22.5 	"/>
	<polygon fill="#FFFFFF" points="3.6,50.5 0.5,47.5 0.5,53.5 	"/>
	<polygon fill="#FFFFFF" points="11.6,42.7 8.5,39.7 8.5,45.7 	"/>
	<polygon fill="#FFFFFF" points="11.6,58 8.5,55 8.5,61 	"/>
	<polygon fill="#FFFFFF" points="3.6,66 0.5,63 0.5,69 	"/>
	<polygon fill="#FFFFFF" points="18.6,35 15.5,32 15.5,38 	"/>
	<polygon fill="#FFFFFF" points="3.6,35 0.5,32 0.5,38 	"/>
</g>
</svg>
