<?xml version="1.0" encoding="utf-8"?>
<!-- Generator: Adobe Illustrator 22.0.1, SVG Export Plug-In . SVG Version: 6.00 Build 0)  -->
<svg version="1.1" id="圖層_1" xmlns="http://www.w3.org/2000/svg" xmlns:xlink="http://www.w3.org/1999/xlink" x="0px" y="0px"
	 width="35px" height="35px" viewBox="0 0 35 35" enable-background="new 0 0 35 35" xml:space="preserve">
<g>
	<g>
		<path fill="#01883F" d="M17.5,0C7.8,0,0,7.8,0,17.5S7.8,35,17.5,35S35,27.2,35,17.5S27.2,0,17.5,0z M20.6,17.5h-2.1V25h-3.1v-7.5
			h-1.5v-2.6h1.5v-1.6c0-1.6,0.6-2.6,1.6-3.1c0.5-0.2,1-0.3,1.5-0.3h2.4v2.6h-1.4c-0.4,0-0.7,0.1-0.8,0.3c-0.1,0.2-0.1,0.4-0.1,0.8
			v1.2H21L20.6,17.5z"/>
	</g>
</g>
</svg>
