<?xml version="1.0" encoding="utf-8"?>
<!-- Generator: Adobe Illustrator 16.0.0, SVG Export Plug-In . SVG Version: 6.00 Build 0)  -->
<!DOCTYPE svg PUBLIC "-//W3C//DTD SVG 1.1//EN" "http://www.w3.org/Graphics/SVG/1.1/DTD/svg11.dtd">
<svg version="1.1" id="圖層_1" xmlns="http://www.w3.org/2000/svg" xmlns:xlink="http://www.w3.org/1999/xlink" x="0px" y="0px"
	 width="8px" height="15px" viewBox="0 0 8 15" enable-background="new 0 0 8 15" xml:space="preserve">
<g>
	<path fill="#FFFFFF" d="M7.456,0.59L5.663,0.587c-2.014,0-3.315,1.336-3.315,3.403v1.568H0.544c-0.155,0-0.281,0.126-0.281,0.282
		v2.273c0,0.156,0.126,0.283,0.281,0.283h1.804v5.734c0,0.156,0.126,0.281,0.281,0.281h2.353c0.156,0,0.281-0.125,0.281-0.281V8.397
		h2.108c0.156,0,0.282-0.127,0.282-0.283V5.841c0-0.075-0.029-0.146-0.082-0.199S7.446,5.559,7.372,5.559H5.263V4.229
		c0-0.64,0.152-0.964,0.986-0.964h1.207c0.156,0,0.281-0.127,0.281-0.283v-2.11C7.737,0.717,7.612,0.59,7.456,0.59z"/>
</g>
</svg>
