<?xml version="1.0" encoding="utf-8"?>
<!-- Generator: Adobe Illustrator 22.0.1, SVG Export Plug-In . SVG Version: 6.00 Build 0)  -->
<svg version="1.1" id="圖層_1" xmlns="http://www.w3.org/2000/svg" xmlns:xlink="http://www.w3.org/1999/xlink" x="0px" y="0px"
	 width="20px" height="20px" viewBox="0 0 20 20" enable-background="new 0 0 20 20" xml:space="preserve">
<g>
	<path d="M10,0.2c-4.2,0-7.6,3.3-7.6,7.5c0,1.6,0.5,3.2,1.5,4.5l0,0l5.5,7.3c0.2,0.3,0.7,0.4,1,0.1c0.1,0,0.1-0.1,0.1-0.1l5.5-7.3
		l0,0c1-1.3,1.5-2.9,1.5-4.5C17.6,3.6,14.2,0.2,10,0.2z M10,11.2c-1.9,0-3.5-1.6-3.5-3.5c0-1.9,1.6-3.5,3.5-3.5
		c1.9,0,3.5,1.6,3.5,3.5l0,0C13.5,9.6,11.9,11.2,10,11.2z"/>
</g>
</svg>
