<?xml version="1.0" encoding="utf-8"?>
<!-- Generator: Adobe Illustrator 22.0.1, SVG Export Plug-In . SVG Version: 6.00 Build 0)  -->
<svg version="1.1" id="圖層_1" xmlns="http://www.w3.org/2000/svg" xmlns:xlink="http://www.w3.org/1999/xlink" x="0px" y="0px"
	 width="20px" height="20px" viewBox="0 0 20 20" enable-background="new 0 0 20 20" xml:space="preserve">
<path d="M18.1,19.1c-0.4,0.6-1.1,1-1.8,0.9c-0.7,0-1.7-0.1-2.3-0.3C11,18.9,8,17.1,5.4,14.6C2.9,12,1.1,9,0.3,6.1
	C0.2,5.4,0.1,4.5,0,3.8C0,3.1,0.3,2.4,0.9,2l2.6-1.7C4.2-0.2,5.1,0,5.4,0.7l2.1,4.1c0.3,0.6,0.1,1.3-0.4,1.7L5.3,8
	c0.8,1.4,1.5,2.5,2.9,3.9c1.3,1.3,2.4,2,3.9,2.8l1.5-1.9c0.4-0.5,1.1-0.7,1.7-0.4l4.1,2.1c0.7,0.4,0.9,1.3,0.5,1.9L18.1,19.1z"/>
</svg>
