<?xml version="1.0" encoding="utf-8"?>
<!-- Generator: Adobe Illustrator 22.0.1, SVG Export Plug-In . SVG Version: 6.00 Build 0)  -->
<svg version="1.1" id="圖層_1" xmlns="http://www.w3.org/2000/svg" xmlns:xlink="http://www.w3.org/1999/xlink" x="0px" y="0px"
	 width="40px" height="40px" viewBox="0 0 40 40" enable-background="new 0 0 40 40" xml:space="preserve">
<g>
	<circle fill="#FFF43C" cx="20" cy="20" r="20"/>
</g>
<g>
	<path fill="#01AA4F" d="M11.2,17.1c1.7,0,3.3,0.7,4.5,1.9l0.2,0.2l1.6-1.7l-0.1-0.1c-1.6-1.7-3.9-2.7-6.2-2.7
		c-0.7,0-1.2,0.5-1.2,1.2C10,16.6,10.5,17.1,11.2,17.1z"/>
	<path fill="#01AA4F" d="M29.7,23.6L26.2,21c-0.4-0.3-1.1,0-1.1,0.5v1.3c-1.6,0-3.2-0.7-4.3-1.9l-0.2-0.2L19,22.4l0.1,0.1
		c1.6,1.6,3.7,2.6,6,2.6v1.4c0,0.5,0.6,0.9,1.1,0.5l3.5-2.5C30.1,24.4,30.1,23.8,29.7,23.6z"/>
	<path fill="#01AA4F" d="M25.2,17.1v1.3c0,0.5,0.6,0.9,1.1,0.5l3.5-2.5c0.4-0.3,0.4-0.8,0-1.1l-3.5-2.5c-0.4-0.3-1.1,0-1.1,0.5v1.4
		c-2.3,0-4.4,1-6,2.6L15.7,21c-1.2,1.2-2.8,1.9-4.5,1.9c-0.7,0-1.2,0.5-1.2,1.2s0.5,1.2,1.2,1.2c2.3,0,4.6-1,6.2-2.7l3.5-3.7
		C22,17.8,23.5,17.1,25.2,17.1z"/>
</g>
</svg>
