<?xml version="1.0" encoding="utf-8"?>
<!-- Generator: Adobe Illustrator 22.0.1, SVG Export Plug-In . SVG Version: 6.00 Build 0)  -->
<svg version="1.1" id="圖層_1" xmlns="http://www.w3.org/2000/svg" xmlns:xlink="http://www.w3.org/1999/xlink" x="0px" y="0px"
	 width="20px" height="20px" viewBox="0 0 20 20" enable-background="new 0 0 20 20" xml:space="preserve">
<path d="M9,17.7c1.8,0,3.5-0.6,4.9-1.5l3.2,3.3c0.6,0.7,1.7,0.7,2.3,0s0.6-1.7,0-2.3l-3.2-3.3c1-1.4,1.6-3.2,1.6-5
	C17.8,4,13.9,0,9,0C4.1,0,0.1,4,0.1,8.9C0.1,13.8,4.1,17.7,9,17.7z M9,2c3.8,0,6.9,3.1,6.9,6.9c0,3.8-3.1,6.9-6.9,6.9
	s-6.9-3.1-6.9-6.9C2.1,5.1,5.2,2,9,2z"/>
</svg>
