<?xml version="1.0" encoding="utf-8"?>
<!-- Generator: Adobe Illustrator 22.0.1, SVG Export Plug-In . SVG Version: 6.00 Build 0)  -->
<svg version="1.1" id="圖層_1" xmlns="http://www.w3.org/2000/svg" xmlns:xlink="http://www.w3.org/1999/xlink" x="0px" y="0px"
	 width="20px" height="20px" viewBox="0 0 20 20" enable-background="new 0 0 20 20" xml:space="preserve">
<g>
	<path d="M10,0C4.5,0,0,4.5,0,10c0,5.5,4.5,10,10,10s10-4.5,10-10C20,4.5,15.5,0,10,0z M14.4,11.8L14.4,11.8l-6.1,0V9.3h0V5
		c0,0,0,0,0,0c0,0,0,0,0,0V5h0c0-0.6,0.6-1.2,1.2-1.2s1.2,0.5,1.2,1.2h0v4.4h3.7v0c0.6,0,1.2,0.6,1.2,1.2
		C15.6,11.2,15,11.7,14.4,11.8z"/>
</g>
</svg>
