<?xml version="1.0" encoding="utf-8"?>
<!-- Generator: Adobe Illustrator 22.0.1, SVG Export Plug-In . SVG Version: 6.00 Build 0)  -->
<svg version="1.1" id="圖層_1" xmlns="http://www.w3.org/2000/svg" xmlns:xlink="http://www.w3.org/1999/xlink" x="0px" y="0px"
	 width="80px" height="80px" viewBox="0 0 80 80" enable-background="new 0 0 80 80" xml:space="preserve">
<g>
	<g>
		<path fill="#FFFFFF" d="M41,9.5c-0.3,0-0.5-0.2-0.5-0.5V1c0-0.3,0.2-0.5,0.5-0.5s0.5,0.2,0.5,0.5v8C41.5,9.3,41.3,9.5,41,9.5z"/>
	</g>
	<g>
		<path fill="#FFFFFF" d="M32.9,10.3c-0.2,0-0.4-0.1-0.5-0.4l-2.1-7.7c-0.1-0.3,0.1-0.5,0.4-0.6c0.3-0.1,0.5,0.1,0.6,0.4l2.1,7.7
			c0.1,0.3-0.1,0.5-0.4,0.6C33,10.3,33,10.3,32.9,10.3z"/>
	</g>
	<g>
		<path fill="#FFFFFF" d="M25.4,13.2c-0.2,0-0.3-0.1-0.4-0.2l-4-6.9c-0.1-0.2-0.1-0.5,0.2-0.7c0.2-0.1,0.5-0.1,0.7,0.2l4,6.9
			c0.1,0.2,0.1,0.5-0.2,0.7C25.5,13.1,25.5,13.2,25.4,13.2z"/>
	</g>
	<g>
		<path fill="#FFFFFF" d="M18.8,17.9c-0.1,0-0.3,0-0.4-0.1l-5.7-5.7c-0.2-0.2-0.2-0.5,0-0.7s0.5-0.2,0.7,0l5.7,5.7
			c0.2,0.2,0.2,0.5,0,0.7C19,17.8,18.9,17.9,18.8,17.9z"/>
	</g>
	<g>
		<path fill="#FFFFFF" d="M13.7,24.1c-0.1,0-0.2,0-0.2-0.1l-6.9-4c-0.2-0.1-0.3-0.4-0.2-0.7c0.1-0.2,0.4-0.3,0.7-0.2l6.9,4
			c0.2,0.1,0.3,0.4,0.2,0.7C14,24,13.8,24.1,13.7,24.1z"/>
	</g>
	<g>
		<path fill="#FFFFFF" d="M10.3,31.5c0,0-0.1,0-0.1,0l-7.7-2.1c-0.3-0.1-0.4-0.3-0.4-0.6c0.1-0.3,0.3-0.4,0.6-0.4l7.7,2.1
			c0.3,0.1,0.4,0.3,0.4,0.6C10.7,31.4,10.5,31.5,10.3,31.5z"/>
	</g>
	<g>
		<path fill="#FFFFFF" d="M9,39.5H1c-0.3,0-0.5-0.2-0.5-0.5s0.2-0.5,0.5-0.5h8c0.3,0,0.5,0.2,0.5,0.5S9.3,39.5,9,39.5z"/>
	</g>
	<g>
		<path fill="#FFFFFF" d="M2.1,49.6c-0.2,0-0.4-0.1-0.5-0.4c-0.1-0.3,0.1-0.5,0.4-0.6l7.7-2.1c0.3-0.1,0.5,0.1,0.6,0.4
			c0.1,0.3-0.1,0.5-0.4,0.6l-7.7,2.1C2.2,49.6,2.1,49.6,2.1,49.6z"/>
	</g>
	<g>
		<path fill="#FFFFFF" d="M5.7,59.1c-0.2,0-0.3-0.1-0.4-0.2c-0.1-0.2-0.1-0.5,0.2-0.7l6.9-4c0.2-0.1,0.5-0.1,0.7,0.2
			c0.1,0.2,0.1,0.5-0.2,0.7l-6.9,4C5.9,59.1,5.8,59.1,5.7,59.1z"/>
	</g>
	<g>
		<path fill="#FFFFFF" d="M11.7,67.4c-0.1,0-0.3,0-0.4-0.1c-0.2-0.2-0.2-0.5,0-0.7l5.7-5.7c0.2-0.2,0.5-0.2,0.7,0s0.2,0.5,0,0.7
			l-5.7,5.7C12,67.3,11.8,67.4,11.7,67.4z"/>
	</g>
	<g>
		<path fill="#FFFFFF" d="M19.6,73.8c-0.1,0-0.2,0-0.2-0.1c-0.2-0.1-0.3-0.4-0.2-0.7l4-6.9c0.1-0.2,0.4-0.3,0.7-0.2
			c0.2,0.1,0.3,0.4,0.2,0.7l-4,6.9C20,73.7,19.8,73.8,19.6,73.8z"/>
	</g>
	<g>
		<path fill="#FFFFFF" d="M28.9,77.9c0,0-0.1,0-0.1,0c-0.3-0.1-0.4-0.3-0.4-0.6l2.1-7.7c0.1-0.3,0.3-0.4,0.6-0.4
			c0.3,0.1,0.4,0.3,0.4,0.6l-2.1,7.7C29.4,77.8,29.2,77.9,28.9,77.9z"/>
	</g>
	<g>
		<path fill="#FFFFFF" d="M39,79.5c-0.3,0-0.5-0.2-0.5-0.5v-8c0-0.3,0.2-0.5,0.5-0.5s0.5,0.2,0.5,0.5v8C39.5,79.3,39.3,79.5,39,79.5
			z"/>
	</g>
	<g>
		<path fill="#FFFFFF" d="M49.1,78.4c-0.2,0-0.4-0.1-0.5-0.4l-2.1-7.7c-0.1-0.3,0.1-0.5,0.4-0.6c0.3-0.1,0.5,0.1,0.6,0.4l2.1,7.7
			c0.1,0.3-0.1,0.5-0.4,0.6C49.2,78.4,49.2,78.4,49.1,78.4z"/>
	</g>
	<g>
		<path fill="#FFFFFF" d="M58.6,74.8c-0.2,0-0.3-0.1-0.4-0.2l-4-6.9c-0.1-0.2-0.1-0.5,0.2-0.7c0.2-0.1,0.5-0.1,0.7,0.2l4,6.9
			c0.1,0.2,0.1,0.5-0.2,0.7C58.8,74.8,58.7,74.8,58.6,74.8z"/>
	</g>
	<g>
		<path fill="#FFFFFF" d="M66.9,68.8c-0.1,0-0.3,0-0.4-0.1L60.9,63c-0.2-0.2-0.2-0.5,0-0.7s0.5-0.2,0.7,0l5.7,5.7
			c0.2,0.2,0.2,0.5,0,0.7C67.1,68.7,67,68.8,66.9,68.8z"/>
	</g>
	<g>
		<path fill="#FFFFFF" d="M73.3,60.9c-0.1,0-0.2,0-0.2-0.1l-6.9-4c-0.2-0.1-0.3-0.4-0.2-0.7c0.1-0.2,0.4-0.3,0.7-0.2l6.9,4
			c0.2,0.1,0.3,0.4,0.2,0.7C73.6,60.8,73.4,60.9,73.3,60.9z"/>
	</g>
	<g>
		<path fill="#FFFFFF" d="M77.4,51.6c0,0-0.1,0-0.1,0l-7.7-2.1c-0.3-0.1-0.4-0.3-0.4-0.6c0.1-0.3,0.3-0.4,0.6-0.4l7.7,2.1
			c0.3,0.1,0.4,0.3,0.4,0.6C77.8,51.4,77.6,51.6,77.4,51.6z"/>
	</g>
	<g>
		<path fill="#FFFFFF" d="M79,41.5h-8c-0.3,0-0.5-0.2-0.5-0.5s0.2-0.5,0.5-0.5h8c0.3,0,0.5,0.2,0.5,0.5S79.3,41.5,79,41.5z"/>
	</g>
	<g>
		<path fill="#FFFFFF" d="M70.2,33.4c-0.2,0-0.4-0.1-0.5-0.4c-0.1-0.3,0.1-0.5,0.4-0.6l7.7-2.1c0.3-0.1,0.5,0.1,0.6,0.4
			c0.1,0.3-0.1,0.5-0.4,0.6l-7.7,2.1C70.3,33.4,70.2,33.4,70.2,33.4z"/>
	</g>
	<g>
		<path fill="#FFFFFF" d="M67.3,25.9c-0.2,0-0.3-0.1-0.4-0.2c-0.1-0.2-0.1-0.5,0.2-0.7l6.9-4c0.2-0.1,0.5-0.1,0.7,0.2
			c0.1,0.2,0.1,0.5-0.2,0.7l-6.9,4C67.5,25.8,67.4,25.9,67.3,25.9z"/>
	</g>
	<g>
		<path fill="#FFFFFF" d="M62.6,19.3c-0.1,0-0.3,0-0.4-0.1c-0.2-0.2-0.2-0.5,0-0.7l5.7-5.7c0.2-0.2,0.5-0.2,0.7,0s0.2,0.5,0,0.7
			L63,19.1C62.9,19.2,62.8,19.3,62.6,19.3z"/>
	</g>
	<g>
		<path fill="#FFFFFF" d="M56.4,14.2c-0.1,0-0.2,0-0.2-0.1c-0.2-0.1-0.3-0.4-0.2-0.7l4-6.9c0.1-0.2,0.4-0.3,0.7-0.2
			c0.2,0.1,0.3,0.4,0.2,0.7l-4,6.9C56.7,14.1,56.5,14.2,56.4,14.2z"/>
	</g>
	<g>
		<path fill="#FFFFFF" d="M49,10.8c0,0-0.1,0-0.1,0c-0.3-0.1-0.4-0.3-0.4-0.6l2.1-7.7c0.1-0.3,0.4-0.4,0.6-0.4
			c0.3,0.1,0.4,0.3,0.4,0.6l-2.1,7.7C49.4,10.7,49.2,10.8,49,10.8z"/>
	</g>
</g>
</svg>
