<?xml version="1.0" encoding="utf-8"?>
<!-- Generator: Adobe Illustrator 22.0.1, SVG Export Plug-In . SVG Version: 6.00 Build 0)  -->
<svg version="1.1" id="圖層_1" xmlns="http://www.w3.org/2000/svg" xmlns:xlink="http://www.w3.org/1999/xlink" x="0px" y="0px"
	 width="270px" height="65px" viewBox="0 0 270 65" enable-background="new 0 0 270 65" xml:space="preserve">
<path fill="#FFF43C" d="M255.3,37h-47.5c0.6-1.8,1-3.8,1-5.8c0-0.5,0-1.1-0.1-1.6H225c7.8,0,14-6.3,14-14c0-7.8-6.3-14-14-14H68.1
	c-7.1,0-12.9,5.2-13.9,12h-35c-9.8,0-17.7,7.9-17.7,17.7C1.5,41,9.4,49,19.2,49h92.4c0,0.5-0.1,0.9-0.1,1.4
	c0,7.3,5.9,13.2,13.2,13.2h130.5c7.3,0,13.2-5.9,13.2-13.2S262.6,37,255.3,37z"/>
</svg>
