<?xml version="1.0" encoding="utf-8"?>
<!-- Generator: Adobe Illustrator 22.0.1, SVG Export Plug-In . SVG Version: 6.00 Build 0)  -->
<svg version="1.1" id="圖層_1" xmlns="http://www.w3.org/2000/svg" xmlns:xlink="http://www.w3.org/1999/xlink" x="0px" y="0px"
	 width="45px" height="42.9px" viewBox="0 0 45 42.9" style="enable-background:new 0 0 45 42.9;" xml:space="preserve">
<style type="text/css">
	.st0{clip-path:url(#SVGID_2_);}
	.st1{fill:#00A83C;}
</style>
<g>
	<g>
		<g>
			<g>
				<defs>
					<rect id="SVGID_1_" x="0.1" y="14.8" width="8.9" height="23.5"/>
				</defs>
				<clipPath id="SVGID_2_">
					<use xlink:href="#SVGID_1_"  style="overflow:visible;"/>
				</clipPath>
				<g class="st0">
					<polygon class="st1" points="9,14.8 9,38.3 3.1,38.3 0.1,14.8 					"/>
				</g>
			</g>
		</g>
	</g>
	<g>
		<path d="M35,42.8c-0.5,0-1,0-1.5-0.1H18.4c-1.5,0-2.9-0.7-3.8-1.9l-1.5-1.3h-0.9c-0.5,0-0.9-0.4-0.9-0.9s0.4-0.9,0.9-0.9h1.2
			c0.2,0,0.4,0.1,0.6,0.2l1.9,1.6c0.1,0,0.1,0.1,0.1,0.2c0.6,0.8,1.5,1.3,2.4,1.3h15.2c5.2,0.4,5.9-1.3,5.9-1.4c0-0.1,0-0.1,0-0.1
			c0.3-0.6,0.3-1.1,0.2-1.5c-0.3-0.8-1.4-1.1-1.4-1.1c-0.4-0.1-0.6-0.5-0.6-0.9s0.4-0.7,0.8-0.8c2-0.2,2.7-1.7,2.8-2
			c0.5-2.4-1.4-2.9-1.7-2.9c-0.4-0.1-0.7-0.5-0.7-1c0.1-0.4,0.5-0.8,0.9-0.7c2.2,0.1,2.6-1.6,2.7-1.9c0.2-2.4-1.9-2.7-2.3-2.8
			c-0.5,0-0.8-0.4-0.8-0.9s0.4-0.8,0.8-0.9c0.6,0,1.1-0.1,1.6-0.3c0.9-0.4,1.4-1.3,1.2-2.2c-0.3-1.2-1.6-1.5-1.9-1.5h-16
			c-0.3,0-0.5-0.1-0.7-0.3c-0.2-0.2-0.2-0.5-0.2-0.7l1.6-7c0.2-3.3-0.4-5.6-1.9-6.9C22.7,2.1,21.2,2,20.3,2l-0.1,2.5
			c-0.1,3.6-1,7.1-2.7,10.3l-3,5.7c-0.2,0.3-0.4,0.5-0.8,0.5H12c-0.5,0-0.9-0.4-0.9-0.9s0.4-0.9,0.9-0.9h1.2l2.7-5.2
			c1.5-2.9,2.4-6.2,2.5-9.5l0.1-3.2c0-0.4,0.3-0.8,0.7-0.8c0.1,0,3.3-0.6,5.8,1.5c1.9,1.7,2.7,4.5,2.5,8.4v0.1l-1.4,6h15h0.1
			c0.1,0,2.8,0.4,3.4,2.9c0.4,1.6-0.4,3.2-1.8,4c0.9,0.7,1.5,1.9,1.3,3.6v0.1c-0.2,0.9-0.8,2.2-2.2,2.9c0.7,0.8,1.2,2,0.8,3.8v0.1
			c0,0.1-0.6,1.7-2.4,2.6c0.3,0.3,0.5,0.6,0.7,1c0.3,0.6,0.4,1.6-0.2,2.9C40.9,40.7,39.9,42.8,35,42.8z"/>
	</g>
	<g>
		<path d="M11.8,42.2H5.6c-0.4,0-0.8-0.3-0.9-0.8L1.9,16.8c0-0.2,0-0.5,0.2-0.7c0.2-0.2,0.4-0.3,0.6-0.3l9-0.1
			c0.2,0,0.5,0.1,0.6,0.3c0.2,0.2,0.3,0.4,0.3,0.6v24.7C12.6,41.8,12.3,42.2,11.8,42.2z M6.3,40.5h4.6v-23l-7.2,0.1L6.3,40.5z"/>
	</g>
</g>
</svg>
