<?xml version="1.0" encoding="utf-8"?>
<!-- Generator: Adobe Illustrator 22.0.1, SVG Export Plug-In . SVG Version: 6.00 Build 0)  -->
<svg version="1.1" id="圖層_1" xmlns="http://www.w3.org/2000/svg" xmlns:xlink="http://www.w3.org/1999/xlink" x="0px" y="0px"
	 width="60px" height="52px" viewBox="0 0 60 52" enable-background="new 0 0 60 52" xml:space="preserve">
<g>
	<g>
		<path fill="#FFDB00" d="M31.7,11.4c0.3-0.1,0.7,0,0.9,0.3l10.4,11.9l6.6,2.7c2.8,1.1,4,4.7,2.7,7.9l-0.1,0.2
			c-1.3,3.1-4.3,4.7-7.1,3.8L41.6,47c-0.3,0.6-1.7,2.4-2.2,2.2l-1.9-0.8c-0.5-0.2-0.8-0.9-0.5-1.5l4.4-10.1l-3.3-1.4l-15.7,1.2
			c-0.6,0-1-0.5-1-1.1c0-0.2,0.1-0.3,0.1-0.5l9.4-22.9C31.1,11.8,31.3,11.5,31.7,11.4"/>
	</g>
	<g>
		<line fill="#FFFFFF" x1="44.3" y1="23.5" x2="40.9" y2="31.8"/>
	</g>
	<g>
		<path fill="#231815" d="M40.6,32.4c0.4,0.1,0.8,0,0.9-0.4l3.4-8.3c0.1-0.4,0-0.8-0.4-0.9c-0.4-0.1-0.8,0-0.9,0.4l-3.4,8.3
			C40.1,31.9,40.3,32.3,40.6,32.4z"/>
	</g>
	<path fill="#231815" d="M54.6,23.1l-8.9-3.6l-14.6-15c-0.6-0.6-1.4-0.9-2.3-0.6c-0.8,0.2-1.4,0.7-1.7,1.5l-3.3,8.1
		c-3.3-1.1-6.9,0.5-8.2,3.8c-1.3,3.2,0.1,6.9,3.2,8.4l-3.3,8.1c-0.1,0.2-0.2,0.5-0.2,1c0,1.3,1.1,2.4,2.4,2.4l20.8-0.4l1.3,0.6
		l-3.8,9.3c-0.5,1.3,0.1,2.7,1.3,3.2l4.6,1.9c1.3,0.5,2.7-0.1,3.2-1.3l3.9-9.5c4,0.8,8-1.3,9.6-5.1l0.6-1.5
		C61.1,29.8,59,24.8,54.6,23.1z M17.6,17.9c0.9-2.2,3.3-3.3,5.5-2.6l-3.4,8.4C17.7,22.6,16.8,20.1,17.6,17.9z M57.4,33.4l-0.6,1.5
		c-1.3,3.1-4.8,4.7-8,3.6c-0.2-0.1-0.4-0.1-0.6,0L45,37.2c-0.4-0.1-0.8,0-0.9,0.4c-0.1,0.4,0,0.8,0.4,0.9l2.8,1.2l-4,9.8
		c-0.1,0.2-0.3,0.3-0.5,0.2l-4.6-1.9c-0.2-0.1-0.3-0.3-0.2-0.5L42.2,37c0.2-0.5,0-1.1-0.6-1.3l-2.5-1c-0.1-0.1-0.3-0.1-0.4-0.1
		L17.8,35c-0.2,0-0.4-0.2-0.4-0.3c0,0,0-0.1,0-0.1c0,0,0,0,0.1-0.1L29.2,6.1c0.1-0.2,0.2-0.2,0.3-0.2c0.1,0,0.2,0,0.3,0.1L44.4,21
		c0.1,0.1,0.2,0.2,0.3,0.2l9.1,3.7C57.1,26.3,58.7,30.1,57.4,33.4z"/>
	<g>
		<path d="M15,9.3c-0.3,0-0.6-0.1-0.8-0.3l-6-7C7.9,1.5,8,0.9,8.4,0.5s1.1-0.3,1.4,0.1l6,7c0.4,0.4,0.3,1-0.1,1.4
			C15.5,9.2,15.3,9.3,15,9.3z"/>
	</g>
	<g>
		<path d="M10,15.3c-0.1,0-0.2,0-0.4-0.1l-8-3c-0.5-0.2-0.8-0.8-0.6-1.3c0.2-0.5,0.8-0.8,1.3-0.6l8,3c0.5,0.2,0.8,0.8,0.6,1.3
			C10.8,15,10.4,15.3,10,15.3z"/>
	</g>
	<g>
		<path d="M1,26.2c-0.4,0-0.8-0.3-0.9-0.6c-0.2-0.5,0.1-1,0.6-1.2l9-3c0.5-0.2,1,0.1,1.2,0.6c0.2,0.5-0.1,1-0.6,1.2l-9,3
			C1.2,26.2,1.1,26.2,1,26.2z"/>
	</g>
</g>
</svg>
