<?xml version="1.0" encoding="utf-8"?>
<!-- Generator: Adobe Illustrator 22.0.1, SVG Export Plug-In . SVG Version: 6.00 Build 0)  -->
<svg version="1.1" id="圖層_2_1_" xmlns="http://www.w3.org/2000/svg" xmlns:xlink="http://www.w3.org/1999/xlink" x="0px"
	 y="0px" width="212px" height="200.1px" viewBox="0 0 212 200.1" style="enable-background:new 0 0 212 200.1;"
	 xml:space="preserve">
<style type="text/css">
	.st0{fill:#717071;}
	.st1{fill:#00A83C;}
	.st2{fill:#231815;}
	.st3{fill:#FFDB00;}
	.st4{fill:#FFFFFF;}
</style>
<g>
	<path class="st0" d="M150.4,33.5c0,0,1.6-10.9-2.4-14.1l-12-4.2c0,0-18.9-6.9-16.2,11.3L119,30c0,0,6.2,2.4,9.5,0s-0.5,1.1-0.5,1.1
		s3.3,1.4,7.1-0.8c0,0,4.6,2.2,11.1-5.4C146.1,24.8,147.2,32.9,150.4,33.5"/>
	<path class="st1" d="M150.8,76.2l-5.8,58.9v48.3h7.3l11.6-9.7l-0.8-2.1l4-7.4l2.9-44.9l19.4,16.7l-20.7,26.6l-3.5,7.7l3.7,5.3
		l1.3,0.8l38.2-31.1l1.1-8.5l-37.6-54.3c-0.8-1.1-1.9-1.9-3.2-2.4C160.9,76.7,150.8,76.2,150.8,76.2"/>
	<path class="st2" d="M134.2,32.5c6.8,0,10.4-3.5,12.2-6.3c2-3.2,2.4-6.5,2.4-7.2c0-0.6-0.5-1.1-1.1-1.1s-1.1,0.5-1.1,1.1
		c0,0.1-0.7,11.3-12.4,11.3c-0.6,0-1.1,0.5-1.1,1.1C133.1,32.1,133.6,32.5,134.2,32.5"/>
	<path class="st2" d="M156.3,36.5c-0.9-0.5-2.2-0.4-3.4-0.1c0-0.1,0.1-0.2,0.1-0.4c0.1-0.2,0.2-0.4,0.2-0.7c0-0.1,0-0.1,0-0.2
		c0.4-1.6,0.5-2.7,0.5-2.8c0.1-0.6,2.2-15.9-5.8-17.9c-1.5-0.4-3.3-1-5.2-1.7c-7.1-2.5-16.9-5.9-23.2-0.2c-7,6.4-3.4,12.9-2.2,14.6
		c-0.2,1.2-0.4,2.4-0.5,3.6c-1.2-0.8-2.7-1.6-3.9-1.2c-0.6,0.2-1,0.6-1.2,1.2l-0.1,0.2c-2.4,7.5,1.5,11.3,5.5,13.3
		c0.8,4.3,2.4,8,4.7,10.8c3.9,4.8,8.4,5.7,8.6,5.7c0.1,0,0.1,0,0.2,0c0.1,0,0.2,0,0.1-0.1c6.7-1.2,12.3-5,16.5-11.3c0,0,0,0,0,0
		c4.6-0.5,9.9-2.9,9.9-11.2V38C157.1,37.4,156.8,36.8,156.3,36.5z M113.7,31.8c0.6,0.2,1.8,0.8,2.8,1.6c0,0,0.1,0,0.1,0
		c-0.2,2.9-0.2,5.6,0.1,8.1C112.3,38.7,112.8,34.7,113.7,31.8z M130.6,58.6c-1.3-0.3-9.1-2.7-11.3-14.5c0.1-0.4,0.1-0.9-0.2-1.2
		c-0.5-3.2-0.6-7-0.1-11.6l3.3,0.6C123,32,123.5,32,124,32c0.8,0,1.5-0.1,2.2-0.3c0.2,0.3,0.5,0.5,0.8,0.5l2.4,0.2
		c0.6,0.1,1.1,0.1,1.5,0.1c5,0,7.6-3.7,9.1-5.8c0.3-0.5,0.7-1,0.9-1.2c0.5-0.4,0.5-1.1,0.1-1.6c-0.4-0.5-1.1-0.5-1.6-0.1
		c-0.4,0.4-0.8,0.9-1.3,1.6c-1.5,2.2-3.8,5.4-8.5,4.8l-0.1,0c1.7-1.2,2.8-2.9,3.6-4c0.3-0.5,0.7-1,0.9-1.2c0.5-0.4,0.5-1.1,0.1-1.6
		c-0.4-0.5-1.1-0.5-1.6-0.1c-0.4,0.4-0.8,0.9-1.3,1.6c-1.5,2.2-3.8,5.4-8.5,4.8l-3.4-0.6c0.1-0.6,0.2-1.3,0.3-1.9
		c0.1-0.3,0-0.6-0.2-0.9c-0.2-0.3-4.9-6.1,1.7-12c2-1.9,4.6-2.6,7.4-2.6c4.4,0,9.3,1.7,13.5,3.3c1.9,0.6,3.8,1.3,5.4,1.7
		c5,1.3,4.7,11.6,4.1,15.5c0,0-0.1,0.7-0.3,1.7c-2.7-1.3-3.5-7.5-3.6-9.8c0-0.6-0.5-1.1-1.1-1.1c-0.6,0-1.1,0.5-1.1,1.1
		c0,1.3,0.5,10.3,5.2,12.1C148.8,43,143.6,56.2,130.6,58.6z M148.7,46.9c0.3-0.5,0.6-1.1,0.9-1.7c1.1-2.3,1.9-4.4,2.6-6.4
		c1-0.3,2.1-0.5,2.6-0.5C154.8,41.5,154.1,45.5,148.7,46.9z"/>
	<path class="st2" d="M141.3,53.6c0-0.6,0.5-1.1,1.1-1.1s1.1,0.5,1.1,1.1l-0.3,15.2l15.1,5.2c0,0.8-2.1,0.9-2,1.7l-14.5-5
		c-0.5-0.2-0.8-0.6-0.8-1.1L141.3,53.6z"/>
	<path class="st2" d="M144.9,135.8c0.3,0,0.6-0.1,0.9-0.4l6-7.5c0.4-0.5,0.3-1.2-0.2-1.6s-1.2-0.3-1.6,0.2l-6,7.5
		c-0.4,0.5-0.3,1.2,0.2,1.6C144.4,135.7,144.6,135.8,144.9,135.8"/>
	<path class="st2" d="M131.1,83.2c9.7,0,17.3-2.8,17.7-3c0.6-0.2,0.9-0.9,0.6-1.4c-0.2-0.6-0.9-0.9-1.4-0.6
		c-0.2,0.1-17.2,6.3-32.6-0.2c-0.6-0.2-1.2,0-1.5,0.6c-0.2,0.6,0,1.2,0.6,1.5C120.2,82.4,125.9,83.2,131.1,83.2"/>
	<path class="st2" d="M91.9,117.7c0.3,0,0.5-0.1,0.7-0.3l2.5-2.1c0.5-0.4,0.5-1.1,0.1-1.6s-1.1-0.5-1.6-0.1l-2.5,2.1
		c-0.5,0.4-0.5,1.1-0.1,1.6C91.2,117.5,91.6,117.7,91.9,117.7"/>
	<path class="st2" d="M138.7,37.5c0,1.2,0.7,2.3,1.5,2.3s1.5-1,1.5-2.3c0-1.2-0.7-2.3-1.5-2.3C139.4,35.3,138.7,36.3,138.7,37.5"/>
	<path class="st2" d="M126.8,36c0,1.2,0.7,2.3,1.5,2.3s1.5-1,1.5-2.3c0-1.2-0.7-2.3-1.5-2.3S126.8,34.8,126.8,36"/>
	<path class="st2" d="M134.4,43.5c0.2,0,0.4-0.1,0.6-0.2c0.3-0.2,0.5-0.5,0.5-0.8l0.7-8.4c0.1-0.6-0.4-1.2-1-1.2s-1.2,0.4-1.2,1
		l-0.6,6.9l-0.9-0.4c-0.6-0.2-1.2,0.1-1.4,0.6c-0.2,0.6,0.1,1.2,0.6,1.4l2.3,0.9C134.1,43.5,134.2,43.5,134.4,43.5"/>
	<path class="st2" d="M133.2,52.1c-0.4,0-0.8,0-1.1-0.1c-6.9-1-8.2-6.7-8.2-6.9c-0.1-0.4,0-0.7,0.3-1s0.6-0.4,1-0.3l13,2.7
		c0.3,0.1,0.6,0.3,0.7,0.5c0.2,0.3,0.2,0.6,0.1,0.9C138.1,50.6,136,52.1,133.2,52.1 M126.8,46.4c0.8,1.3,2.5,3,5.6,3.4
		c1.3,0.2,2.9,0,3.9-1.5L126.8,46.4z"/>
	<path class="st1" d="M111.1,73.9l6,58.6l-8.4,49.4l-16.1,1.3l1.3-12.1l0.7-7.3l-3-45.9L71.7,135l-6.6,3.3l-4.1-1.2l-1.9-0.4
		L25.6,95.2l11.2-3.9l26.8,26.4l25.9-37.4c0.8-1.1,2-1.9,3.2-2.5C100.8,74.4,111.1,73.9,111.1,73.9"/>
	<polygon class="st3" points="146.1,111.2 118.9,111.2 118,103.5 146.8,103.5 	"/>
	<polygon class="st3" points="144,151.9 119.5,151.9 120.8,144.2 144.2,144.2 	"/>
	<polygon class="st3" points="144.7,125.5 144.6,131.6 121.3,131.6 120.4,123.8 144.9,123.8 	"/>
	<polygon class="st3" points="143.7,162.1 117.9,162.1 119.1,154.4 144,154.4 	"/>
	<polygon class="st3" points="143.7,165.1 143.9,171.5 143.8,172.3 116.2,172.3 117.5,164.5 143.7,164.5 	"/>
	<polygon class="st3" points="145.1,121.4 120.1,121.4 119.2,113.7 145.9,113.7 	"/>
	<polygon class="st3" points="144.3,141.7 121.2,141.7 122,136.9 121.6,134 144.5,134 	"/>
	<path class="st3" d="M115.4,82.3c15.5,8.5,33.4,0.4,33.4,0.4l-0.8,8.1h-31.6L115.4,82.3z"/>
	<polygon class="st3" points="147.8,93.3 147.1,101 117.7,101 116.8,93.3 	"/>
	<path class="st4" d="M170,177.1c0,0-2.4,10.4-4.5,10.4s-8,3.1-8,3.1s-6.6-5.6-5.2-7.3c1.4-1.7,11.1-8.7,11.1-8.7l-0.7-2.4l1.4-4.2
		L170,177.1z"/>
	<g>
		<path class="st2" d="M210.9,131.9c-1-5.3-28.1-41.8-35.6-50.3c-1.7-1.9-3.2-3-5.2-4.1c-3.3-1.8-4.8-2.1-9.2-3
			c-1.6-0.3-3.6-0.8-6.2-1.4c-0.6-0.1-1.2,0.2-1.4,0.8c-0.1,0.6,0.2,1.2,0.8,1.4c0.1,0,0.2,0,0.3,0.1l0.8,27.1l-4.1,5
			c-0.2,0.2-0.2,0.4-0.3,0.7l-0.3,18.3c0,0.7,0.5,1.2,1.1,1.3c0.6,0,1.1-0.5,1.1-1.1l0.3-17.9l4.1-5.1c0.2-0.2,0.3-0.5,0.3-0.7
			l-0.8-27.1c1.4,0.3,2.7,0.6,3.7,0.8c4.4,0.9,5.6,1.2,8.6,2.8c1.8,1,3.1,1.9,4.6,3.6c8.6,9.9,34.2,45,35,49.3
			c0.9,4.6-0.5,10.6-0.9,12L173,173l-2.8,2.3l-4.7-7.3l25.1-31.3c0.4-0.5,0.3-1.2-0.1-1.6l-20-17.7c-0.3-0.3-0.8-0.4-1.2-0.2
			c-0.4,0.2-0.7,0.5-0.7,1l-1.4,21.6c0,0.1,0,0.1,0,0.2l-1.5,23.6c0,0.1,0,0.3,0.1,0.4l-2.6,3.2c-0.2,0.2-0.3,0.5-0.2,0.8l-1.3,3.8
			c-0.1,0.2-0.1,0.5,0,0.7l0.5,1.6c-2.3,1.7-9.4,6.9-10.7,8.4c-0.3,0.3-0.4,0.7-0.4,1c-0.9-0.2-1.7-0.4-2.5-0.6
			c-2.2-0.6-4.7-1.3-10.7-1.5l-22.8-1.8l7.6-41.5v-0.3l0-0.1c0-0.1,0-0.1,0-0.2l-7.4-66.6c1.5-0.2,2.9-0.3,4.3-0.4
			c0.6,0,1-0.5,1-1.1l0.7-19c0-0.6-0.5-1.1-1.1-1.2s-1.1,0.5-1.2,1.1l-0.7,18c-10.3,0.8-23.1,3.4-27.5,5.8c-2.2,1.2-4.1,2.7-5.8,4.6
			c-3.7,4.3-7.3,9.5-11.1,15c-4.6,6.6-9.3,13.5-14.2,18.5c-2.6-2-13-12.4-22.1-21.9c-0.3-0.3-0.8-0.4-1.2-0.3l-16.4,6
			c-0.3,0.1-0.6,0.4-0.7,0.8c-0.1,0.3,0,0.7,0.2,1L48,133c2,2.5,15.9,8.6,20.9,5l2.8-2c0,0,0.1,0,0.1-0.1l18.7-16.6L92,139
			c0,0.1,0,0.2,0.1,0.3l1.6,24.1c-0.1,0.6,0.4,1,1,1c0.7,0,1.2-0.6,1.1-1.2l-1.7-25.8c0-0.1,0-0.2-0.1-0.3l-1.4-20.3
			c0-0.4-0.3-0.8-0.7-1c-0.4-0.2-0.8-0.1-1.2,0.2l-20.3,18.1l-2.7,2c-3.8,2.7-16.4-2.7-17.9-4.6L22.2,97.7l14.2-5.2
			c21.3,22.3,22.8,22.3,23.3,22.3c0.3,0,0.7-0.1,0.9-0.3c5.2-5.2,10.2-12.4,15-19.3c3.8-5.5,7.4-10.7,11-14.8
			c1.5-1.7,3.2-3.1,5.2-4.1c2.6-1.4,8.7-2.9,15.4-4.1l-1.5,30.4c0,0.4,0.2,0.7,0.5,1l6.4,4.7l-1.4,15.6c0,0.2,0,0.5,0.2,0.7
			l8.8,13.6l-7.7,42l-4.8,3.9l-16.7,1l1.5-7.8c0.1-0.6-0.3-1.2-0.9-1.3c-0.6-0.1-1.2,0.3-1.3,0.9l-1.8,9.2c0,0.3,0.1,0.6,0.4,1
			c0.2,0.3,0.5,0.4,0.8,0.4c0.1,0,0.1,0,0.1,0l18.5-1.1c0.2-0.1,0.4-0.1,0.6-0.3l5-4.2l22.2,1.7c0.1,0.1,0.3,0.1,0.4,0.1
			c0.8,0,1.5,0.1,2.2,0.1l2.9,0.2c3,0.3,4.6,0.8,6.1,1.2c1,0.3,1.9,0.5,3.1,0.7c0.3,0,0.5,0.1,0.8,0.1c1.1,1.8,3.1,3.8,5,5.4
			c0.2,0.2,0.5,0.3,0.7,0.3c0.2,0,0.4,0,0.5-0.1c1.3-0.7,2.7-1.3,4-1.9c1.3-0.6,2.7-0.9,4.1-1.4c1.2-0.4,2.6-0.2,3.9-0.3
			c0.4-0.1,0.9-0.2,1.3-0.3c0.5-0.2,0.9-0.4,1.2-0.8c0.5-0.6,0.3-1.2,0.1-1.8c-0.2-0.9-0.3-1.7-0.5-2.6c-0.3-1.7-0.6-3.4-0.9-5.1
			l3.2-2.6l35.1-28.9c0.2-0.1,0.3-0.3,0.4-0.6C210,145,212.1,137.7,210.9,131.9z M169.5,138.6c0-0.1,0-0.1,0-0.1l1.1-17.7l17.5,15.4
			l-20,24.9L169.5,138.6z M113.4,123.6l1.4-15.8c0-0.4-0.1-0.8-0.4-1l-6.4-4.7l1.5-30.3c1.1-0.2,2.3-0.3,3.4-0.5l6.9,62.1
			L113.4,123.6z M165.7,185.7c-0.3,0.2-0.6,0.4-1,0.5c-1.3,0.5-2.7,1-3.9,1.6c-0.6,0.3-1.1,0.5-1.7,0.8c-0.1,0.1-1.3,0.7-1.4,0.7
			c-0.8-0.7-1.5-1.5-2.3-2.2c-0.8-0.7-1.5-1.4-2-2.3c-0.1-0.1-0.2-0.3-0.2-0.5c-0.1-0.6,1.6-1.7,2-2.1c2.9-2.3,5.9-4.5,8.9-6.7
			c0.4-0.3,0.6-0.8,0.4-1.2l-0.6-2.1l0.5-1.5c0,0,4.4,6.7,4.4,6.7c-0.5,1.9-1,3.7-1.7,5.6c-0.3,0.7-0.5,1.4-0.8,2
			C166.1,185.3,165.9,185.5,165.7,185.7z M170.1,185.7c-0.6,0.1-1.2,0.1-1.7,0.1c0.5-0.9,0.9-2.1,1.4-3.5c0.2,1.1,0.4,2.2,0.7,3.2
			c0,0,0,0,0,0.1c0,0,0,0-0.1,0C170.3,185.6,170.2,185.6,170.1,185.7z"/>
		<path class="st2" d="M143.4,167.5c0.6,0,1.1-0.5,1.1-1.1l0.7-30.2l5.7-63.2c0.1-0.6-0.4-1.2-1-1.2c-0.6,0-1.2,0.4-1.2,1L143,136
			l-0.7,30.3C142.3,166.9,142.8,167.5,143.4,167.5z"/>
	</g>
	<path class="st4" d="M32.7,80.5c-2.8-1.4-7.4-3.6-10.6-2.5c0.7,1.8,1.4,3.5,1.9,5.3c-3.5,0-9.6-1-12.6-1.2c-3-0.3-7.8-3.3-9.1-0.4
		c-1.3,3,4.6,9.7,6,12.7c4.7,1.5,9.5,4.1,14.4,3.5s9.5-4.8,14-6.6C35.6,87.5,34.3,84.1,32.7,80.5"/>
	<path class="st2" d="M21.2,99.2c-3.4,0-6.6-1.2-9.7-2.4c-1.2-0.5-2.4-0.9-3.5-1.2c-0.3-0.1-0.6-0.3-0.7-0.6
		c-0.4-0.8-1.2-2.1-2.1-3.4c-2.4-3.5-5-7.6-3.9-10.2c1.3-3,4.8-1.9,7.4-1.1c1,0.3,2.1,0.7,2.9,0.7c1,0.1,2.3,0.2,3.7,0.4
		c2.3,0.3,5,0.6,7.1,0.7c-0.3-0.9-0.6-1.7-1-2.6L21,78.4c-0.1-0.3-0.1-0.6,0-0.9s0.4-0.5,0.7-0.6c3.8-1.4,9,1.3,11.5,2.5
		c0.2,0.1,0.4,0.3,0.5,0.6c1.7,3.9,2.9,7.3,4.1,10.9c0.2,0.6-0.1,1.2-0.7,1.4C35.4,93,33.8,94,32,95c-2.9,1.8-5.9,3.6-9.2,4
		C22.3,99.2,21.8,99.2,21.2,99.2 M35.3,90.7c-1-3-2.1-6-3.5-9.3c-1.9-1-5.4-2.6-8.1-2.5c0.5,1.4,1.1,2.8,1.4,4.2
		c0.1,0.4,0,0.7-0.2,1s-0.6,0.5-0.9,0.5c-2.5,0-5.9-0.4-9-0.8c-1.4-0.2-2.7-0.3-3.7-0.4s-2.2-0.5-3.4-0.8c-2.8-0.9-4.1-1.1-4.6-0.2
		c-0.6,1.5,2.1,5.5,3.7,7.9c0.8,1.3,1.6,2.4,2.1,3.3c1.1,0.3,2.1,0.7,3.2,1.1c3.4,1.3,6.9,2.6,10.3,2.2c2.8-0.3,5.6-2,8.3-3.6
		C32.3,92.2,33.8,91.4,35.3,90.7"/>
</g>
</svg>
