<?xml version="1.0" encoding="utf-8"?>
<!-- Generator: Adobe Illustrator 22.0.1, SVG Export Plug-In . SVG Version: 6.00 Build 0)  -->
<svg version="1.1" id="圖層_2_1_" xmlns="http://www.w3.org/2000/svg" xmlns:xlink="http://www.w3.org/1999/xlink" x="0px"
	 y="0px" width="175.7px" height="231.7px" viewBox="0 0 175.7 231.7" style="enable-background:new 0 0 175.7 231.7;"
	 xml:space="preserve">
<style type="text/css">
	.st0{fill:#FFFFFF;}
	.st1{clip-path:url(#SVGID_2_);fill:#717071;}
	.st2{clip-path:url(#SVGID_4_);fill:#717071;}
	.st3{clip-path:url(#SVGID_6_);fill:#00A83C;}
	.st4{clip-path:url(#SVGID_8_);fill:#00A83C;}
	.st5{clip-path:url(#SVGID_10_);fill:#00A83C;}
	.st6{clip-path:url(#SVGID_12_);fill:#FFDB00;}
	.st7{clip-path:url(#SVGID_14_);fill:#FFDB00;}
	.st8{fill:none;stroke:#231815;stroke-width:2;stroke-linecap:round;stroke-linejoin:round;stroke-miterlimit:10;}
	.st9{fill:#231815;}
	.st10{fill:none;stroke:#231815;stroke-width:2.5;stroke-linecap:round;stroke-linejoin:round;stroke-miterlimit:10;}
	.st11{fill:none;stroke:#231815;stroke-width:3;stroke-linecap:round;stroke-linejoin:round;stroke-miterlimit:10;}
	.st12{clip-path:url(#SVGID_16_);fill:#00A83C;}
</style>
<g>
	<g>
		<path class="st0" d="M139,118.1c0,0,26.8-18.6-3.8-49.6l4.7-12.9l1.2-13.7l0.7-13.2L133,18.1l-5.6-2.3l-10.9-1.1l-12.3,0.4
			L95,19.6l-8.2,12.1l-2.1,15l-4.1,4.9l-12.5,5.9l-9.3,4.1c0,0-7.3,4.2-7.8,5.4s-5.8,10.7-5.8,10.7l-1.8,7.6l2.5,6.6l-2.6,26.9
			l1.1,9.8L39,139l-24.8,32.2l6.7,3.8l-2.6,5.5l-9,4.2L0,200.2l78.4,31.7l4.9-16.6l3-6.4l4.1,1.7l6.6-24.9l9.3,5.9l15.3,1.5l6.2-5.7
			l3-5.6l7-62.4L139,118.1z"/>
		<g>
			<g>
				<g>
					<g>
						<g>
							<defs>
								
									<rect id="SVGID_1_" x="48.3" y="22.6" transform="matrix(0.385 -0.9229 0.9229 0.385 6.4501 122.7169)" width="94.1" height="67.9"/>
							</defs>
							<clipPath id="SVGID_2_">
								<use xlink:href="#SVGID_1_"  style="overflow:visible;"/>
							</clipPath>
							<path class="st1" d="M141.3,34.1c0,0,0.1-12.7-17.6-15.8c0,0-23.1-6.5-32.3,14.7c-1.3,3-2.1,6.2-2.5,9.5
								c-0.5,4-2.6,13-12,14.4c0,0-31.5,9.7-28.5,31.1l14.8-9.7L75,78.7l20.7,0.1l3.4-5.2c0,0-2.7-8.9-2.4-9.6
								c0.3-0.7,2.4-11.1,2.4-11.1l2.7-2.8c0,0-0.8-8.8,5-10l3.5,1.6c0,0,11.5-3.7,15.3-18.4C125.5,23.2,133.6,18.2,141.3,34.1"/>
						</g>
					</g>
				</g>
			</g>
		</g>
		<g>
			<g>
				<g>
					<g>
						<g>
							<defs>
								
									<rect id="SVGID_3_" x="110.6" y="73.4" transform="matrix(0.385 -0.9229 0.9229 0.385 -4.7023 178.7489)" width="42.4" height="39"/>
							</defs>
							<clipPath id="SVGID_4_">
								<use xlink:href="#SVGID_3_"  style="overflow:visible;"/>
							</clipPath>
							<path class="st2" d="M133.4,70.6c0,0-0.9,2.7-1.7,2.9c-0.8,0.2-12.5-1.1-12.5-1.1L113,87.3c0,0,20.8,14.1,24.9,31.1l8.2-9
								C146.1,109.3,151.7,87.8,133.4,70.6"/>
						</g>
					</g>
				</g>
			</g>
		</g>
		<path class="st0" d="M57,161.8c0,0-6.9-2.4-8.2-3.5c-4-3.3-7.7-10.1-6.8-9.4c0,0-1.5-5.8,4.3-12.3l9.9,12.1"/>
		<g>
			<g>
				<g>
					<g>
						<g>
							<defs>
								
									<rect id="SVGID_5_" x="16" y="137.8" transform="matrix(0.385 -0.9229 0.9229 0.385 -118.3023 135.2404)" width="52.6" height="37.1"/>
							</defs>
							<clipPath id="SVGID_6_">
								<use xlink:href="#SVGID_5_"  style="overflow:visible;"/>
							</clipPath>
							<path class="st3" d="M59.3,163.9l-14.6,21.9l-29.2-13.2l21.9-29.5l6.6-14.6c0,0,1.5,4.5,1.5,5.8v1.3l-0.2,1.2l-3.9,5.1
								l1.1,9.8l6.1,6.4l6,3.6L59.3,163.9z"/>
						</g>
					</g>
				</g>
			</g>
		</g>
		<g>
			<g>
				<g>
					<g>
						<g>
							<defs>
								
									<rect id="SVGID_7_" x="67.4" y="118.4" transform="matrix(0.385 -0.9229 0.9229 0.385 -61.6336 194.0511)" width="94.8" height="49.7"/>
							</defs>
							<clipPath id="SVGID_8_">
								<use xlink:href="#SVGID_7_"  style="overflow:visible;"/>
							</clipPath>
							<path class="st4" d="M121.1,94.5c0,0,9.5,8.9,12.8,20.4l-7.2,60.2c0,0-0.2,19.9-17.5,17.1l-33.3-20.1l6.4-11.6l7.4,1.5
								l5.4-7.9c0,0,14.2-18.5,11.7-33L121.1,94.5z"/>
						</g>
					</g>
				</g>
			</g>
		</g>
		<g>
			<g>
				<g>
					<g>
						<g>
							<defs>
								
									<rect id="SVGID_9_" x="70.6" y="183.7" transform="matrix(0.385 -0.9229 0.9229 0.385 -125.6211 195.5966)" width="26.8" height="16.7"/>
							</defs>
							<clipPath id="SVGID_10_">
								<use xlink:href="#SVGID_9_"  style="overflow:visible;"/>
							</clipPath>
							<path class="st5" d="M93.7,184.5c-0.3,0.7-7,23-7,23l-15.6-6.2l11-24.5L93.7,184.5z"/>
						</g>
					</g>
				</g>
			</g>
		</g>
		<g>
			<g>
				<g>
					<g>
						<g>
							<defs>
								
									<rect id="SVGID_11_" x="64.9" y="122" transform="matrix(0.385 -0.9229 0.9229 0.385 -65.9933 167.3291)" width="55.4" height="22.3"/>
							</defs>
							<clipPath id="SVGID_12_">
								<use xlink:href="#SVGID_11_"  style="overflow:visible;"/>
							</clipPath>
							<path class="st6" d="M110.6,110.8c-2.5-0.7-12.6-0.4-12.6-0.4l-3.4,8.2l-0.9-1.1l-16.8,30.3l-4.4,4.7l2.4,1.7l4,0.3
								c0,0,2.4,3.4,3.3,3.8c0.9,0.4,7.5,3.7,7.5,3.7l10.9-18.8l4.6-13.6l2.6-9.6L110.6,110.8z"/>
						</g>
					</g>
				</g>
			</g>
		</g>
		<g>
			<g>
				<g>
					<g>
						<g>
							<defs>
								
									<rect id="SVGID_13_" x="37.2" y="146.8" transform="matrix(0.385 -0.9229 0.9229 0.385 -133.85 164.0401)" width="38" height="71.3"/>
							</defs>
							<clipPath id="SVGID_14_">
								<use xlink:href="#SVGID_13_"  style="overflow:visible;"/>
							</clipPath>
							<path class="st7" d="M83.9,208.6l-2.1,5.1L18,181.4l2.9-4l27.7,11.3l14.7-24c0,0,3.8,1.6,3.5,2.2c-0.3,0.7-1.2,3.4-1.2,3.4
								l3.7,2.3l5.3,0.4l7.5,3.7c0,0-12.5,23.8-11,24.5c1.5,0.6,13.2,6.3,13.2,6.3"/>
						</g>
					</g>
				</g>
			</g>
		</g>
		<path class="st8" d="M107.2,46.8c0,0,1.5,1.4,1.2,4.3"/>
		<path class="st9" d="M126.1,45.2c-0.1,1.6-1.1,2.9-2.1,2.8c-1-0.1-1.7-1.5-1.6-3.1s1.1-2.9,2.1-2.8
			C125.6,42.2,126.3,43.6,126.1,45.2"/>
		<path class="st9" d="M135.7,44.2c0.1,1.5-0.5,2.7-1.4,2.8s-1.7-1.1-1.8-2.6s0.5-2.7,1.4-2.8C134.8,41.5,135.6,42.7,135.7,44.2"/>
		<path class="st10" d="M129.2,43.5c0.2,0.9,4.2,10.2,3.7,10.3c-0.4,0.2-4,1.3-4,1.3"/>
		<path class="st10" d="M120.2,58c0,0,4.7-0.3,5.8,4.2"/>
		<path class="st11" d="M118.4,119l4.1,18.5c0,0,5,18.6-17.9,30.9"/>
		<path class="st11" d="M20.3,175.4l-3.1,5.5l65.6,33.9c0,0,1-2.3,2.4-5.6"/>
		<path class="st11" d="M57,161.8c0,0-6.9-2.4-8.2-3.5c-4-3.3-7.7-10.1-6.8-9.4c0,0-1.5-5.8,4.3-12.3l9.9,12.1"/>
		<path class="st11" d="M136.6,68.6c1.7,0.7,27.4,31.8,1.8,49.5"/>
		<line class="st11" x1="68.5" y1="118.4" x2="66.3" y2="108.3"/>
		<polyline class="st11" points="61.7,166.9 47.9,189.2 13.8,171.8 39,140.7 44,129.1 		"/>
		<path class="st11" d="M96.4,185.6c-0.4,1-4.2,16.9-4.2,16.9l-1.8,7.6l-19.7-9.3l10.6-23.7"/>
		<path class="st11" d="M120.1,94.2l-13.2,26.4c0,0-2.5,14.6-4.8,20.9s-12.5,20.2-12.5,20.2"/>
		<path class="st0" d="M90.5,89.1l6.7,20c0,0-2.4,7.4-2.8,8.3c-0.4,1-12.6-16.1-12-17.4s1.8-6.1,3-7.1C86.6,92,90.5,89.1,90.5,89.1"
			/>
		<path class="st11" d="M90.5,89.1l6.7,20c0,0-2.4,7.4-2.8,8.3c-0.4,1-12.6-16.1-12-17.4s1.8-6.1,3-7.1C86.6,92,90.5,89.1,90.5,89.1
			z"/>
		<path class="st0" d="M81.7,158.6c-0.7,1.6-5.4,14.5-8.6,14.6c-3.1,0.2-6.4-2-6.4-2l8-16c0,0,2.6-0.8,3.9-0.2
			C79.9,155.6,81.7,158.6,81.7,158.6"/>
		<path class="st11" d="M81.7,158.6c-0.7,1.6-5.4,14.5-8.6,14.6c-3.1,0.2-6.4-2-6.4-2l8-16c0,0,2.6-0.8,3.9-0.2
			C79.9,155.6,81.7,158.6,81.7,158.6z"/>
		<path class="st11" d="M125.4,98.7l-4.9,18.5l-8.8,4.6c0,0-1.6,16.1-2,17.1s-7.2,12.2-15.6,17.7"/>
		<path class="st11" d="M113.9,105.5c0,0-9.2,2.7-16.5-0.2"/>
		<line class="st11" x1="84.5" y1="80" x2="80.2" y2="103.1"/>
		<polyline class="st11" points="75.9,79.8 72.5,95.8 74,103.6 71.5,115.4 		"/>
		<path class="st11" d="M1.4,196.3c3.8-7.4,8.5-13.3,15.8-15.4"/>
		<line class="st11" x1="82.7" y1="214.8" x2="78.2" y2="229.7"/>
		<g>
			<g>
				<g>
					<g>
						<g>
							<defs>
								
									<rect id="SVGID_15_" x="22.9" y="91" transform="matrix(0.385 -0.9229 0.9229 0.385 -67.9209 129.2126)" width="80.2" height="49.1"/>
							</defs>
							<clipPath id="SVGID_16_">
								<use xlink:href="#SVGID_15_"  style="overflow:visible;"/>
							</clipPath>
							<path class="st12" d="M81.6,79.9l-4.9,28l4.6-4.8l9.1,10.5c0,0-18.5,32.5-18.8,33.1c-0.3,0.7-9.9,10.1-19.3,7.8l-9.6-35.4
								l1.2-21.5l4.3-8.3l12.6-9.8c0,0,9.5-1,10.1-0.7c0.7,0.3,5,1.6,5,1.6L81.6,79.9z"/>
						</g>
					</g>
				</g>
			</g>
		</g>
		<g>
			<path class="st9" d="M68.7,166.9c-6.5-3.8-10.9-6.4-11-6.4c-0.7-0.4-1.6-0.2-2.1,0.5s-0.2,1.6,0.5,2.1c0.1,0.1,4.6,2.7,11.2,6.5
				C67.6,168.7,68.3,167.6,68.7,166.9z"/>
			<path class="st9" d="M129.8,74.7c2.2,0.2,4.5-2.8,4.5-2.9c6.1-8,7.6-18.3,7.8-25.7c2.9-9.6,2.2-17.5-2.1-23.3
				c-7.3-10-22.3-10.4-23.9-10.4c-8.6-1.2-15.9,0.6-21.6,5.4C86.3,24.6,83,36.4,82.7,45.1c-0.2,4.1-4.8,6-12.4,8.9
				c-6.4,2.4-13.6,5.1-19.2,10.6c-7.9,7.8-9.6,15.1-9.6,19.8c0,5.2,2,8.6,2,8.7c0.2,0.4,0.7,0.7,1.2,0.7c0.5,0,1-0.2,1.3-0.5
				c3.4-4.1,13.7-14.4,21.1-13.5c9.4,1.2,16.4,1.7,20.6,1.5c18.4-0.6,20-25.1,20-25.3c0-0.5-0.2-0.9-0.5-1.2
				c-3.9-3.6-5.1-7.7-3.1-11.1c0.5-0.8,1-1.3,1.7-1.4c1.2-0.2,2.8,0.7,3.2,1.1c0.3,0.3,0.8,0.4,1.2,0.3
				c10.2-1.9,15.4-14.8,16.7-18.8c2.8,0.2,10.2,1.6,11.4,12.2c0,0.1,0.6,3.6,0.5,8.6l0,0.2c-0.1,0.3-0.1,0.7,0,1
				c-0.2,6.9-1.7,16-7.1,23.1c-0.6,0.8-1.5,1.6-1.9,1.7L119.4,70c-0.7-0.1-1.3,0.3-1.6,0.9l-7,15.9c-0.3,0.7-0.1,1.4,0.5,1.8
				c0.1,0,6.6,4.5,12.9,10.5c8.1,7.8,12.2,14.7,11.7,20c-1.1,12.1-5.9,57.7-5.9,58.2c0,0.1,0,0.1,0,0.2c0,0.1,0,7.2-6.2,13.3
				c-1.3,1.1-10.9,2.5-18.7-2.2c-9.1-5.5-20.1-12-29.3-17.4c0,0,0,0,0,0c0.2,0.3,0.2,0.7,0,1.1c-0.4,0.6-0.9,1-1.6,1.1
				c-0.1,0.1-0.2,0.1-0.3,0.2c9.2,5.4,20.4,12.1,29.6,17.6c4.6,2.8,9.7,3.7,13.9,3.7c4.1,0,7.4-0.9,8.4-2c6.7-6.7,7-14.4,7-15.4
				c0.2-2.1,4.8-46.3,5.9-58.2c1.1-13.2-19.9-29-24.9-32.6l6-13.7L129.8,74.7z M125.9,21.9c-0.6,0-1.2,0.5-1.3,1.1
				c0,0.2-4.6,15.3-14.1,17.6c-1-0.6-2.9-1.6-5-1.2c-1.1,0.2-2.6,0.9-3.8,2.9c-2.6,4.6-1.4,9.9,3.2,14.3
				c-0.4,3.8-2.9,21.3-17.1,21.8c-4.1,0.1-11-0.4-20.1-1.5c-8.4-1.1-18.3,8.5-22.1,12.7c-1.2-3.9-2.3-12.8,7.9-22.8
				c5.1-5,12-7.6,18.1-9.9c7.6-2.8,14.1-5.3,14.3-11.6c0.3-8.1,3.3-19,10.8-25.2c4-3.4,8.9-5,14.7-5c1.5,0,3,0.1,4.6,0.3
				c0.1,0,0.1,0,0.2,0c0.1,0,14.9,0.1,21.6,9.2c1.7,2.3,2.7,4.9,3.1,8C137.1,21.3,126,21.9,125.9,21.9z"/>
		</g>
		<path class="st0" d="M87.7,94.2C101,75,100.2,77,100.2,77l-3.4-12.4l2.9-11.3c0,0,3.3-2.9,6.4-5.5c3.2-2.6,4.4,1.2,4.4,1.2
			l-3.6,11c0,0,4.8,4.3,6.2,7.8c1.4,3.5-3.6,11-3.6,11s-8.5,23.1-13.1,30.7"/>
		<path class="st11" d="M66.7,123.1C80,103.9,100.2,77,100.2,77l-3.4-12.4l2.9-11.3c0,0,3.3-2.9,6.4-5.5c3.2-2.6,4.4,1.2,4.4,1.2
			l-3.6,11c0,0,4.8,4.3,6.2,7.8c1.4,3.5-3.6,11-3.6,11s-27.4,59.9-32,67.5c-4.3,7.2-13.7,11.1-17.4,12c0,0-3.4,0.2-7.7-3.1
			c-4.3-3.4-17-55-3.7-66.5"/>
		<g>
			<path class="st9" d="M75.1,154.8c0.4-0.2,0.8-0.4,1.3-0.4l-3.5-1.7c-0.7,0.9-1.6,1.6-2.6,2.1l3.4,1.6
				C74,155.7,74.5,155.2,75.1,154.8z"/>
			<path class="st9" d="M111.8,171.1l-30.6-14.6c0.2,0.4,0.3,0.9,0.3,1.4c0,0.4-0.1,0.9,0,1.3c0,0,0,0,0,0c0,0.2,0,0.5,0,0.7
				l29.1,13.8c0.2,0.1,0.4,0.1,0.6,0.1c0.6,0,1.1-0.3,1.4-0.9C112.9,172.4,112.6,171.5,111.8,171.1z"/>
		</g>
	</g>
	<g>
		<path d="M159.8,46.1L156,43l2.9-3.6l3.8,3.1L159.8,46.1z M164,40.1l-0.6,0.7l-3.1-2.5l0.7-0.9c1.2-1.6,2.9-2.3,5.1-2.2
			c2.1,0,3.5-0.4,4.1-1.3c0.8-1.2,0.6-2.3-0.4-3.2c-1.5-1.2-3.1-0.9-5,0.6l-3-3.5c3.5-3.1,7.2-3,11,0.2c3.1,2.7,3.7,5.6,1.8,8.6
			c-1.3,1.8-3.4,2.6-6.5,2.4C165.9,38.6,164.5,39.1,164,40.1z"/>
	</g>
	<g>
		<path d="M148.4,20.1l-3.5-0.5l0.5-3.3l3.5,0.5L148.4,20.1z M148.8,14.8l-0.1,0.7l-2.9-0.4l0.1-0.9c0.2-1.5,1-2.5,2.4-3.3
			c1.3-0.7,2.1-1.5,2.1-2.3c0.1-1-0.4-1.7-1.4-1.9c-1.3-0.2-2.3,0.5-2.9,2.2L143,7.7c1.1-3.2,3.4-4.5,7-3.9c3,0.6,4.4,2.2,4.2,4.8
			c-0.1,1.6-1.2,2.9-3.2,3.9C149.5,13.2,148.8,13.9,148.8,14.8z"/>
	</g>
</g>
</svg>
