<?xml version="1.0" encoding="utf-8"?>
<!-- Generator: Adobe Illustrator 22.0.1, SVG Export Plug-In . SVG Version: 6.00 Build 0)  -->
<svg version="1.1" id="分離模式" xmlns="http://www.w3.org/2000/svg" xmlns:xlink="http://www.w3.org/1999/xlink" x="0px"
	 y="0px" width="212px" height="200.1px" viewBox="0 0 212 200.1" enable-background="new 0 0 212 200.1" xml:space="preserve">
<g>
	<g>
		<path fill="#FFFFFF" d="M156.3,129.6l1.7-5.8l0.1-5l-3.2-5.3l-12.3-20.1l-17-23.5l-7.3-4.2l-19.1-7.6L98.3,56l-7.1-5.8l-0.9-1.3
			l2.1-1.1l9.9-1l2.1-6.7l0.7-11.3L101.2,14l1.1-1.3c0,0-0.6-1.8,1.6-4s0-6.8,0-6.8S94,5.7,92.5,5.7S75.1,8.3,75.1,8.3l-7.6,3.8
			l-3,8.7l3.8,31.5l-8,8.7L24.6,77.4l-3.4,14.8L0.4,152.1L25,184.4l23.3-2.5l-19.4-33.7l11.6-22.8l1.8,49l46,24.4l6.2-6.1l2.1,4
			l21.1-8.8c2.7-10.3-4.6-46.3-4.6-46.3l5.9-34.5l13.6,16.6"/>
	</g>
	<g>
		<path fill="#231815" d="M85.6,67c-0.2,0-0.4,0-0.5-0.1l-14.5-7.1C70.3,59.7,70,59.4,70,59l-6.4-31.8c-1.5-6.5-0.6-11.7,2.9-15.5
			C72.4,5.3,84.4,5,89.9,5.8c4.4,0.6,11.4-3.8,13.8-5.6c0.3-0.2,0.6-0.3,0.9-0.2c0.3,0,0.6,0.2,0.8,0.5c4,5.6-0.9,11.8-2.6,13.7
			c1.3,3.8,6.8,21,1.5,32.2c-0.5,1.1-1.7,1.9-2.9,2L92,49.1l1.5,11.2c0.1,0.4-0.1,0.8-0.4,1.1l-6.6,5.4C86.1,66.9,85.9,67,85.6,67z
			 M72.2,58l13.2,6.5l5.5-4.5l-1.6-11.8c0-0.3,0-0.7,0.3-0.9s0.5-0.4,0.8-0.4l10.6-0.7c0.4,0,0.7-0.3,0.9-0.6
			c5.5-11.5-1.7-30.9-1.8-31.1c-0.2-0.4-0.1-0.9,0.3-1.3c0.1-0.1,5.6-5.5,3.5-10.2c-2.6,1.8-9.4,6-14.5,5.3
			c-4.1-0.6-15.9-0.8-21.3,5.1c-2.9,3.1-3.6,7.6-2.3,13.4L72.2,58z"/>
	</g>
	<g>
		<g>
			<g>
				<defs>
					<rect id="SVGID_1_" x="66.4" y="2.2" width="37.6" height="43.2"/>
				</defs>
				<clipPath id="SVGID_2_">
					<use xlink:href="#SVGID_1_"  overflow="visible"/>
				</clipPath>
				<g clip-path="url(#SVGID_2_)">
					<path fill="#717071" d="M68.4,43.6l-1.8-18.4c0,0-2.4-9.9,8.2-14.8c2-0.9,4.1-1.4,6.3-1.6l11.1-1.2c0,0,10-1.3,11.8-5.4
						c0,0-1.1,6.7-4.7,9.8c0,0-7.3,6-15.1,6c0,0,0,6.5-3.7,7.1c0,0-3.8-1.5-5.2,1.1c0,0-2.5,3.8,2.3,8.9l-3,9.5l-5.4,0.9L68.4,43.6z
						"/>
				</g>
			</g>
		</g>
	</g>
	<g>
		<path fill="#231815" d="M74.9,44.9c-0.1,0-0.1,0-0.2,0c-0.4-0.1-0.7-0.6-0.6-1l2.5-9c0.1-0.4,0.6-0.7,1-0.6c0.4,0.1,0.7,0.6,0.6,1
			l-2.5,9C75.6,44.7,75.3,44.9,74.9,44.9z"/>
	</g>
	<g>
		<path fill="#231815" d="M71.3,45.1C71.2,45.1,71.2,45,71.3,45.1c-0.5,0-0.8-0.4-0.8-0.9l0.4-4.2c0-0.4,0.4-0.8,0.9-0.7
			c0.4,0,0.8,0.4,0.7,0.9l-0.4,4.2C72,44.7,71.7,45.1,71.3,45.1z"/>
	</g>
	<g>
		<path fill="#231815" d="M79.7,37c-0.2,0-0.3,0-0.5-0.1c-4.6-2.6-6.5-6.6-5.2-10.6c0.5-1.7,1.5-2.4,2.3-2.7
			c1.6-0.7,3.3-0.1,4.1,0.2c2.8-1.1,2.5-6.9,2.5-7c0-0.5,0.4-1,0.9-1.1c0.6,0,1,0.4,1.1,0.9c0,0.3,0.5,7.9-4.3,9.1
			c-0.2,0.1-0.5,0-0.7-0.1C79.4,25.5,78,25,77,25.4c-0.5,0.2-0.9,0.7-1.2,1.5c-1,3.1,0.6,6.2,4.3,8.3c0.5,0.3,0.6,0.9,0.4,1.4
			C80.4,36.9,80,37,79.7,37z"/>
	</g>
	<g>
		<path fill="#231815" d="M78,25c-0.4,0-0.7-0.2-0.9-0.6c-0.2-0.5,0-1.1,0.5-1.3c1.6-0.7,1.3-3.9,1.3-4c-0.1-0.5,0.3-1,0.9-1.1
			s1,0.3,1.1,0.9c0,0.2,0.5,4.7-2.4,6C78.3,25,78.2,25,78,25z"/>
	</g>
	<g>
		<path fill="#231815" d="M84,19.3c-0.5,0-1-0.4-1-1c0-0.5,0.4-1,1-1c0.1,0,10.8-0.2,14.2-6.3c0.3-0.5,0.9-0.7,1.3-0.4
			c0.5,0.3,0.7,0.9,0.4,1.3C96,19.1,84.5,19.3,84,19.3L84,19.3z"/>
	</g>
	<g>
		<path fill="#231815" d="M80.3,32.7c-0.4,0-0.7-0.3-0.8-0.7c-0.3-1.8-1.3-2.5-1.3-2.6c-0.4-0.2-0.5-0.7-0.2-1.1
			c0.2-0.4,0.7-0.5,1.1-0.3c0.1,0,1.7,1.1,2,3.7C81.2,32.1,80.9,32.5,80.3,32.7C80.4,32.7,80.3,32.7,80.3,32.7z"/>
	</g>
	<g>
		<path fill="#231815" d="M93,24.5c0.2,1.3-0.4,2.4-1.2,2.5c-0.8,0.1-1.6-0.8-1.8-2.1c-0.2-1.3,0.4-2.4,1.2-2.5
			C92,22.3,92.8,23.2,93,24.5"/>
	</g>
	<g>
		<path fill="#231815" d="M100.2,22.1c0.3,1.1,0,2.2-0.6,2.4c-0.7,0.2-1.5-0.6-1.8-1.7s0-2.2,0.6-2.4C99.1,20.2,99.9,21,100.2,22.1"
			/>
	</g>
	<g>
		<g>
			<g>
				<defs>
					<rect id="SVGID_3_" x="6" y="51.6" width="180.7" height="147.3"/>
				</defs>
				<clipPath id="SVGID_4_">
					<use xlink:href="#SVGID_3_"  overflow="visible"/>
				</clipPath>
				<g clip-path="url(#SVGID_4_)">
					<path fill="#717071" d="M116.6,104.1c0,0-3.2,31.9-5.6,37.4c0,0,6.3,38.8,5.6,46.6l-21.2,8.7l-2-4l-6,6.1l-23-5.2l-7.4-10
						c0,0-11.1-7.9-11.3-15.3l0.7-34.5l-5.1-10.6l-11.2,24.3l20.6,40.5l-18.7,1L7,154.7c0,0-2.2-1.8-0.7-4.6L31,82.5
						c0,0,1.5-5.6,8-7.6l23.3-11.6l7.5-7.6l21.6,75l1,1.5l2.2-13.2l2.2-28.4l-1.5-21l-3.6-13.4l-0.2-4.6l5.8,5.1l0.5,4.6l15.1,6.1
						c0,0,7.9,4.3,11.4,10.9l20.9,32.1c0,0,44.7-30,37.8-19.6l3.9,4.7L157,122.1c-0.8,0.9-1.7,1.7-2.6,2.4l-6.7,4.7
						c-1.3,0.9-2.8,1.6-4.3,2.1l-5,1.4l-8.6-7.8L116.6,104.1z"/>
				</g>
			</g>
		</g>
	</g>
	<g>
		<path fill="#231815" d="M96.7,32.7c-0.3,0-0.7-0.2-0.9-0.5c-0.3-0.5-0.1-1.1,0.4-1.4c0.8-0.4,1.6-0.9,2.1-1.2
			c-0.6-1.1-2.1-3.2-2.8-4.4c-0.9-1.4-1.3-1.9-1.4-2.2c-0.2-0.5,0-1.1,0.4-1.3c0.5-0.2,1.1,0,1.3,0.4c0.1,0.2,0.7,1.1,1.3,1.9
			c3.6,5.4,4,6,3,6.7c-0.3,0.2-2.5,1.5-3,1.7C97,32.6,96.9,32.7,96.7,32.7z M98.7,30.2L98.7,30.2L98.7,30.2z"/>
	</g>
	<g>
		<path fill="#231815" d="M50.9,189.2c-0.4,0-0.8-0.2-1-0.6l-21.2-39c-0.2-0.3-0.2-0.7,0-1l14.6-34c0.3-0.6,0.9-0.9,1.5-0.6
			s0.9,0.9,0.6,1.5L31,149l20.9,38.5c0.3,0.6,0.1,1.3-0.5,1.6C51.3,189.2,51.1,189.2,50.9,189.2z"/>
	</g>
	<g>
		<path fill="#231815" d="M27.9,189.2c-0.3,0-0.7-0.2-0.9-0.5c-0.2-0.3-22.3-28.8-24.6-31.5c-2.7-3.1-2.2-8.4-2.1-8.6
			c0-0.1,0-0.2,0.1-0.3l21.5-57.9c0,0,2.1-6.5,2.8-10.3c0.8-4.4,8-8.5,9.4-9.3c3.9-2.1,34.5-15.3,35.8-15.9c0.6-0.3,1.3,0,1.5,0.6
			c0.3,0.6,0,1.3-0.6,1.5C70.5,57.1,39,70.7,35.2,72.8c-2.6,1.4-7.7,4.9-8.3,7.7c-0.8,4-2.9,10.5-3,10.8L2.5,149
			c-0.1,0.8-0.2,4.6,1.6,6.7c2.4,2.8,23.8,30.4,24.7,31.6c0.4,0.5,0.3,1.2-0.2,1.6C28.4,189.2,28.1,189.2,27.9,189.2z"/>
	</g>
	<g>
		<path fill="#231815" d="M87.5,200.1c-0.1,0-0.1,0-0.2,0L45.9,194c-0.6-0.1-1.1-0.7-1-1.3s0.7-1.1,1.3-1l40.8,6l5.5-5.7
			c0.3-0.3,0.6-0.4,1-0.3c0.4,0.1,0.7,0.3,0.9,0.6l1.5,3l19.3-8c0.7-10.8-5.3-44.9-5.3-45.2c0-0.2,0-0.3,0-0.5
			c3.7-14.5,6.1-38.1,5.8-57.3c0-0.6,0.5-1.2,1.1-1.2c0.7,0,1.2,0.5,1.2,1.1c0.3,19.3-2.1,42.9-5.8,57.6c0.6,3.5,6.3,36.4,5.3,46.3
			c0,0.4-0.3,0.8-0.7,1l-20.9,8.7c-0.6,0.2-1.2,0-1.5-0.6l-1.3-2.5l-4.8,4.9C88.1,200,87.8,200.1,87.5,200.1z M116.4,188.1
			L116.4,188.1L116.4,188.1z"/>
	</g>
	<g>
		<path fill="#231815" d="M45.9,103.1L45.9,103.1c-0.7-0.1-1.2-0.7-1.1-1.3c2-15.7-10.3-19.1-10.8-19.2c-0.6-0.2-1-0.8-0.8-1.4
			s0.8-1,1.4-0.8c0.1,0,14.7,4.1,12.5,21.8C47,102.7,46.5,103.1,45.9,103.1z"/>
	</g>
	<g>
		<path fill="#231815" d="M41.6,171.3L41.6,171.3c-0.7,0-1.2-0.5-1.2-1.2l0.6-35l-2.8-7.8c-0.2-0.6,0.1-1.3,0.7-1.5
			c0.6-0.2,1.3,0.1,1.5,0.7l2.9,8c0,0.1,0.1,0.3,0.1,0.4l-0.6,35.2C42.8,170.8,42.2,171.3,41.6,171.3z"/>
	</g>
	<g>
		<path fill="#231815" d="M144.5,134.8c-2.9,0-6.5-0.8-10.6-3.8c-0.1,0-0.1-0.1-0.2-0.2l-5-5.5l-0.1-0.1l-13-18.6
			c-0.4-0.5-0.2-1.3,0.3-1.6c0.5-0.4,1.3-0.2,1.6,0.3l12.9,18.5l4.8,5.3c7.7,5.5,13.6,2.4,13.9,2.2c0.2-0.1,0.5-0.2,0.7-0.1
			c3-0.6,22.8-17.4,40.6-33.4c-2.5-1.3-7.1-4.1-8.1-6.8c-0.2-0.4-0.2-0.9-0.2-1.3c-4.5,1.4-20.1,10.2-34.2,18.8
			c-0.5,0.3-1.2,0.2-1.6-0.4c-0.2-0.3-18.4-28.4-22-34.1c-3.5-5.3-10.9-8.2-10.9-8.3c-5.5-2.5-22.6-9.2-22.8-9.2
			c-0.6-0.2-0.9-0.9-0.7-1.5c0.2-0.6,0.9-0.9,1.5-0.7c0.2,0.1,17.3,6.8,22.9,9.3c0.3,0.1,8.1,3.2,12,9.1
			c3.3,5.1,18.2,28.2,21.4,33.2c2.5-1.5,9.4-5.7,16.4-9.6c18.4-10.4,19.3-9.5,20.2-8.7c0.3,0.2,0.8,0.9,0.2,2
			c-0.1,0.1-0.1,0.3,0,0.6c0.7,2,5.5,4.9,8.4,6.3c0.4,0.2,0.6,0.5,0.7,0.9c0.1,0.4-0.1,0.8-0.4,1c-0.1,0.1-10.1,9.1-20.3,17.8
			c-17.9,15.4-21.7,17.3-23.1,17.3C149.2,134,147.2,134.8,144.5,134.8z"/>
	</g>
	<g>
		<path fill="#231815" d="M93.5,188.9c-0.6,0-1.2-0.5-1.2-1.1l-0.8-54.2c0-0.6,0.5-1.2,1.1-1.2c0.6-0.1,1.2,0.5,1.2,1.1l0.8,54.2
			C94.6,188.4,94.1,188.9,93.5,188.9L93.5,188.9z"/>
	</g>
	<g>
		<path fill="#FFFFFF" d="M92.7,133.5c-8.7-9.8-21.3-36.1-22.3-38.8C69.4,92,67,70.8,67,70.8s-7.2-9.8-5.2-11.6
			c2-1.9,7.3-7.8,7.3-7.8l1.8,6.7l0.2,0.7L92.7,133.5z"/>
	</g>
	<g>
		<path fill="#231815" d="M92.7,134.7c-0.3,0-0.6-0.1-0.9-0.4c-8.9-10-21.5-36.6-22.5-39.2c-1-2.7-3-20.6-3.4-23.8
			c-6.6-9-5.9-12-4.9-12.9c1.9-1.8,7.2-7.6,7.2-7.7c0.3-0.3,0.7-0.4,1.1-0.4c0.4,0.1,0.7,0.4,0.9,0.8l2,7.4l21.6,74.7
			c0.2,0.5-0.1,1.1-0.6,1.3C93.1,134.7,92.9,134.7,92.7,134.7z M68.5,53.8c-1.7,1.9-4.6,5-5.9,6.2c-0.4,0.9,2.1,5.7,5.4,10.1
			c0.1,0.2,0.2,0.4,0.2,0.6c1,8.5,2.6,21.7,3.3,23.6c0.8,2.2,10.2,22.1,18.4,33.8L70,59.1l-0.2-0.7L68.5,53.8z"/>
	</g>
	<g>
		<path fill="#FFFFFF" d="M90.3,50.9c0,0,7.4,4.7,7.4,6.1c0,0,1.5,6.6,0.8,12.6c0,0,5.3,19.8,4.4,25.7c-0.9,6-10.2,37.4-10.2,37.4
			s8.2-60.5-1.3-76.5l-0.8-2.1L90.3,50.9z"/>
	</g>
	<g>
		<path fill="#231815" d="M92.7,133.9c-0.1,0-0.2,0-0.2,0c-0.6-0.1-1-0.7-0.9-1.3s8.1-60.3-1.2-75.8c0-0.1-0.1-0.1-0.1-0.2l-0.8-2.1
			c0-0.1-0.1-0.2-0.1-0.3L89.1,51c0-0.4,0.2-0.9,0.6-1.1c0.4-0.2,0.9-0.2,1.2,0c7.4,4.7,7.9,6.3,8,6.9c0.2,0.9,1.4,7,0.8,12.6
			c0.6,2.3,5.3,20.2,4.3,26c-0.9,6-9.9,36.2-10.2,37.5C93.6,133.5,93.2,133.9,92.7,133.9z M92.4,55.7c6.8,11.6,4.8,44.6,3,63.5
			c2.7-9.3,5.8-20.8,6.3-24c0.9-5.6-4.3-25.1-4.3-25.3c0-0.1,0-0.3,0-0.4c0.6-5.7-0.8-12.2-0.8-12.2v-0.1c-0.4-0.7-2.5-2.4-4.9-4
			l0.1,0.6L92.4,55.7z M96.6,57.2L96.6,57.2L96.6,57.2z"/>
	</g>
	<g>
		<path fill="#231815" d="M96.6,75.2c-0.2,0-0.5-0.1-0.7-0.2l-10.2-7.6c-8,7.5-8.7,7.5-9.2,7.5c-0.7,0-1.2-0.5-1.2-1.2
			c0-0.6,0.4-1,0.9-1.2c0.9-0.5,5-4.2,8.6-7.6c0.4-0.4,1.1-0.4,1.5-0.1l11,8.1c0.5,0.4,0.6,1.1,0.2,1.7C97.3,75,97,75.2,96.6,75.2z
			 M76.5,72.5L76.5,72.5L76.5,72.5z"/>
	</g>
	<g>
		<path fill="#231815" d="M85.4,77.2c-0.4,0-0.8-0.2-1-0.5l-3.5-5.2c-0.4-0.5-0.2-1.3,0.3-1.7c0.5-0.4,1.3-0.2,1.7,0.3l3.1,4.6
			l1.5-0.2l1.6-4.1c0.2-0.6,0.9-0.9,1.5-0.7c0.6,0.2,0.9,0.9,0.7,1.5L89.4,76c-0.2,0.4-0.5,0.7-0.9,0.7l-2.9,0.4
			C85.5,77.2,85.4,77.2,85.4,77.2z"/>
	</g>
	<g>
		<path fill="#231815" d="M84.5,105.2c-0.6,0-1.2-0.5-1.2-1.1c0-0.9-0.4-22.4,0.2-28.2c0.1-0.6,0.6-1.1,1.3-1c0.6,0.1,1.1,0.6,1,1.3
			c-0.6,5.7-0.2,27.7-0.2,27.9C85.7,104.7,85.2,105.2,84.5,105.2L84.5,105.2z"/>
	</g>
	<g>
		<path fill="#231815" d="M95.5,105c-0.5,0-1-0.3-1.1-0.8l-8-28.2c-0.2-0.6,0.2-1.3,0.8-1.4c0.6-0.2,1.3,0.2,1.4,0.8l8,28.2
			c0.2,0.6-0.2,1.3-0.8,1.4C95.7,105,95.6,105,95.5,105z"/>
	</g>
	<g>
		<path fill="#231815" d="M30.4,151.6c-0.3,0-0.7-0.2-0.9-0.4c-1.2-1.6-3.8-5.7-3.9-5.9c-0.3-0.5-0.2-1.3,0.4-1.6
			c0.5-0.3,1.3-0.2,1.6,0.4c0,0,2.6,4.3,3.8,5.7c0.4,0.5,0.3,1.2-0.2,1.6C30.9,151.5,30.6,151.6,30.4,151.6z"/>
	</g>
	<g>
		<g>
			<g>
				<defs>
					<rect id="SVGID_5_" x="83.6" y="66.2" width="6.7" height="9.2"/>
				</defs>
				<clipPath id="SVGID_6_">
					<use xlink:href="#SVGID_5_"  overflow="visible"/>
				</clipPath>
				<g clip-path="url(#SVGID_6_)">
					<polygon fill="#00A83C" points="83.6,68.5 87,75.4 88.8,74.6 90.3,69.4 86.2,66.2 					"/>
				</g>
			</g>
		</g>
	</g>
	<g>
		<g>
			<g>
				<defs>
					<rect id="SVGID_7_" x="86.5" y="76.3" width="8.4" height="53.9"/>
				</defs>
				<clipPath id="SVGID_8_">
					<use xlink:href="#SVGID_7_"  overflow="visible"/>
				</clipPath>
				<g clip-path="url(#SVGID_8_)">
					<polygon fill="#00A83C" points="86.5,76.4 87.5,111.7 91.9,130.1 94.9,102.3 90.9,88.5 88.3,76.3 					"/>
				</g>
			</g>
		</g>
	</g>
	<g>
		<g>
			<g>
				<defs>
					<rect id="SVGID_9_" x="82.8" y="46.8" width="8" height="5.5"/>
				</defs>
				<clipPath id="SVGID_10_">
					<use xlink:href="#SVGID_9_"  overflow="visible"/>
				</clipPath>
				<g clip-path="url(#SVGID_10_)">
					<path fill="#B7B8B8" d="M89.8,47.2l-6.7-0.3c-0.3,0-0.4,0.4-0.2,0.6l7.9,4.9L89.8,47.2z"/>
				</g>
			</g>
		</g>
	</g>
	<g>
		<path fill="#231815" d="M95.1,37.2c-1.6,0-3.5-0.6-5-2.4c-0.4-0.4-0.3-1,0.1-1.4s1-0.3,1.4,0.1c2.5,2.9,5.4,1.3,5.6,1.3
			c0.5-0.3,1.1-0.1,1.3,0.4c0.3,0.5,0.1,1.1-0.4,1.3C97.4,36.9,96.4,37.2,95.1,37.2z"/>
	</g>
	<g>
		<path fill="#FFFFFF" d="M180.1,80.8c2.8-1.5,8.7-5.4,11.9-4.2c-0.7,1.8-2.7,5.3-3.2,7.1c3.5,0,9.6-1,12.6-1.3s7.8-3.5,9.1-0.4
			s-4.6,10.1-6,13.2c-4.7,1.5-9.5,4.3-14.4,3.6s-9.4-5-14-6.9C177.3,88.1,178.6,84.5,180.1,80.8"/>
	</g>
	<g>
		<path fill="#231815" d="M191.6,100.3c-0.5,0-1.1,0-1.6-0.1c-3.3-0.4-6.3-2.3-9.2-4.1c-1.8-1.1-3.4-2.2-5.1-2.8
			c-0.6-0.2-0.9-0.9-0.7-1.4c1.1-3.8,2.4-7.4,4-11.4c0.1-0.3,0.3-0.5,0.5-0.6c0.4-0.2,0.9-0.5,1.5-0.8c3.5-2,8.2-4.6,11.4-3.4
			c0.6,0.2,0.9,0.9,0.7,1.5c-0.3,0.8-0.8,1.9-1.4,3c-0.4,0.8-0.8,1.6-1.2,2.4c2.1-0.1,4.8-0.5,7-0.8c1.5-0.2,2.8-0.4,3.8-0.4
			c0.8-0.1,1.8-0.4,2.9-0.8c2.6-0.9,6.1-2,7.5,1.1c1.1,2.7-1.5,6.9-3.9,10.6c-0.9,1.4-1.7,2.7-2.1,3.6c-0.1,0.3-0.4,0.6-0.7,0.7
			c-1.2,0.4-2.3,0.8-3.5,1.3C198.2,99,195,100.3,191.6,100.3z M177.6,91.4c1.5,0.7,3,1.7,4.5,2.6c2.7,1.7,5.5,3.4,8.3,3.8
			c3.4,0.4,6.8-0.9,10.2-2.3c1-0.4,2.1-0.8,3.1-1.2c0.5-1,1.2-2.1,2.1-3.4c1.6-2.5,4.3-6.8,3.7-8.4c-0.4-0.9-1.7-0.7-4.5,0.2
			c-1.2,0.4-2.3,0.8-3.4,0.9c-1,0.1-2.3,0.3-3.7,0.4c-3.1,0.4-6.5,0.8-9,0.9l0,0c-0.4,0-0.7-0.2-0.9-0.5s-0.3-0.7-0.2-1
			c0.3-1.2,1.1-2.9,1.9-4.5c0.2-0.5,0.5-1,0.7-1.4c-2.4,0.2-6,2.2-8.1,3.4c-0.4,0.2-0.8,0.5-1.1,0.6
			C179.7,85.1,178.5,88.2,177.6,91.4z"/>
	</g>
	<g>
		<path fill="#231815" d="M103.5,107.9c-0.2,0-0.4-0.1-0.5-0.2c-0.2-0.2-0.3-0.4-0.3-0.6l-0.2-4.4c0-0.4,0.3-0.8,0.7-0.9l9.9-2.3
			c0.2-0.1,0.5,0,0.7,0.1s0.3,0.3,0.4,0.6l0.8,4.4c0.1,0.4-0.2,0.9-0.7,1l-10.5,2.3C103.6,107.9,103.5,107.9,103.5,107.9z
			 M104.2,103.3l0.1,2.6l8.7-1.9l-0.5-2.7L104.2,103.3z"/>
	</g>
</g>
</svg>
