<?xml version="1.0" encoding="utf-8"?>
<!-- Generator: Adobe Illustrator 22.0.1, SVG Export Plug-In . SVG Version: 6.00 Build 0)  -->
<svg version="1.1" id="圖層_1" xmlns="http://www.w3.org/2000/svg" xmlns:xlink="http://www.w3.org/1999/xlink" x="0px" y="0px"
	 width="180px" height="356.3px" viewBox="0 0 180 356.3" style="enable-background:new 0 0 180 356.3;" xml:space="preserve">
<style type="text/css">
	.st0{fill:#717071;}
	.st1{clip-path:url(#SVGID_2_);}
	.st2{fill:#333333;}
	.st3{clip-path:url(#SVGID_4_);}
	.st4{fill:#FFFFFF;}
	.st5{fill:#231815;}
	.st6{clip-path:url(#SVGID_6_);}
	.st7{clip-path:url(#SVGID_8_);}
	.st8{fill:#00A83C;}
	.st9{clip-path:url(#SVGID_10_);}
	.st10{clip-path:url(#SVGID_12_);}
	.st11{fill:#FFDB00;}
	.st12{clip-path:url(#SVGID_14_);}
	.st13{clip-path:url(#SVGID_16_);}
	.st14{clip-path:url(#SVGID_18_);}
	.st15{clip-path:url(#SVGID_20_);}
	.st16{clip-path:url(#SVGID_22_);}
	.st17{clip-path:url(#SVGID_24_);}
	.st18{clip-path:url(#SVGID_26_);}
	.st19{clip-path:url(#SVGID_28_);}
	.st20{clip-path:url(#SVGID_30_);}
	.st21{fill:none;}
</style>
<g>
	<g>
		<polygon class="st0" points="79.3,174.9 70.3,336 92.7,336.1 106.3,192 114.6,189.9 134.4,336 155.4,336 146.8,187.6 128.4,186 
			122.5,181.4 		"/>
	</g>
	<g>
		<g>
			<g>
				<defs>
					
						<rect id="SVGID_1_" x="142.2" y="326.8" transform="matrix(0.659 -0.7521 0.7521 0.659 -208.3797 235.3388)" width="26.3" height="41.4"/>
				</defs>
				<clipPath id="SVGID_2_">
					<use xlink:href="#SVGID_1_"  style="overflow:visible;"/>
				</clipPath>
				<g class="st1">
					<path class="st2" d="M136.9,337.1c0,0-2.4,8.7,1.3,12.8l23.9,4.8l13.2-0.4l2.1-0.6l0.4-4.1l-5.5-2l-15.2-3.7l-6.6-5.3
						L136.9,337.1z"/>
				</g>
			</g>
		</g>
	</g>
	<g>
		<g>
			<g>
				<defs>
					
						<rect id="SVGID_3_" x="49.6" y="334.3" transform="matrix(0.7521 -0.659 0.659 0.7521 -211.5606 132.4301)" width="41.4" height="26.3"/>
				</defs>
				<clipPath id="SVGID_4_">
					<use xlink:href="#SVGID_3_"  style="overflow:visible;"/>
				</clipPath>
				<g class="st3">
					<path class="st2" d="M88.7,337.1c0,0,2.4,8.7-1.3,12.8l-23.9,4.8l-13.2-0.4l-2.1-0.6l-0.4-4.1l5.5-2l15.2-3.7l6.6-5.3
						L88.7,337.1z"/>
				</g>
			</g>
		</g>
	</g>
	<g>
		<g>
			<path class="st4" d="M72.5,46.7l0.6-0.2l21-7l4.2,18.7c0,0,9.6-0.9,17.5,0.2c7.9,1.1,17.2,3.2,17.2,3.2l22.2,56.4l1.7,51.8
				l-9.1,4.8l-27,4.6l-38.1,1L59,103l-8.1,14.5l-20.3,11.9c0,0-10.8-0.1-13-6.8S1.7,73.3,1.7,73.3l1.2-11.6l-0.2-13l14.4-7.1
				l6.7,5.2L20.7,58l-5.2,2.4L15,68.9l15.8,34.3L40.5,91c0,0,2.7-10.7,4.7-11.5c2-0.7,21.2-11.6,21.2-11.6l8.7-6.2"/>
		</g>
		<g>
			<path class="st4" d="M60.8,32.7c0,0-4.9-0.9-4.6,0.8c0.3,1.8,1.3,9.3,10.7,8.6"/>
		</g>
		<g>
			<path class="st4" d="M93.8,21c0,0,3.3-3.7,4.2-2.1c0.8,1.6,4.6,8.2-3.2,13.4"/>
		</g>
		<g>
			<path class="st4" d="M91.3,15.8c10.4,28.5-6,34.8-6,34.8c-19.3,0.3-27-23.2-27-23.2s-4.9-14.5,1.9-17.5S78.4-2.7,87.1,2.6
				C95.7,8,91.3,15.8,91.3,15.8"/>
		</g>
		<g>
			<path class="st5" d="M58,114.4c-0.5,0-0.9-0.3-1.1-0.8l-5.3-15.4c-0.2-0.6,0.1-1.2,0.7-1.4c0.6-0.2,1.2,0.1,1.4,0.7l5.3,15.4
				c0.2,0.6-0.1,1.2-0.7,1.4C58.2,114.4,58.1,114.4,58,114.4z"/>
		</g>
		<g>
			<path class="st5" d="M84.9,128.9c-0.3,0-0.5-0.1-0.7-0.3l-7.4-6.3c-0.5-0.4-0.5-1.1-0.1-1.6s1.1-0.5,1.6-0.1l7.4,6.3
				c0.5,0.4,0.5,1.1,0.1,1.6C85.5,128.8,85.2,128.9,84.9,128.9z"/>
		</g>
		<g>
			<path class="st5" d="M73.2,30c0.2,1.2-0.3,2.4-1.1,2.5c-0.8,0.2-1.7-0.7-1.9-2c-0.2-1.2,0.3-2.4,1.1-2.5
				C72.1,27.9,73,28.8,73.2,30"/>
		</g>
		<g>
			<path class="st5" d="M84.8,26.3c0.2,1.2-0.3,2.4-1.1,2.5c-0.8,0.2-1.7-0.7-1.9-2c-0.2-1.2,0.3-2.4,1.1-2.5
				C83.7,24.2,84.5,25,84.8,26.3"/>
		</g>
		<g>
			<path class="st5" d="M78.4,35.2c-0.1,0-0.3,0-0.4-0.1c-0.3-0.1-0.6-0.4-0.7-0.7l-2.2-8.2c-0.2-0.6,0.2-1.2,0.8-1.4
				c0.6-0.2,1.2,0.2,1.4,0.8l1.8,6.7l0.9-0.5c0.5-0.3,1.2-0.2,1.5,0.4c0.3,0.5,0.2,1.2-0.4,1.5L79,35C78.8,35.1,78.6,35.2,78.4,35.2
				z"/>
		</g>
		<g>
			<path class="st5" d="M80.1,43.6c-2.2,0-4.1-1.1-5.2-3.3c-0.2-0.3-0.2-0.6-0.1-0.9c0.1-0.3,0.3-0.5,0.6-0.7l12.4-5
				c0.3-0.1,0.7-0.1,1.1,0.1c0.3,0.2,0.5,0.6,0.5,1c0,0.2-0.2,6.1-6.9,8.4C81.6,43.5,80.8,43.6,80.1,43.6z M77.5,40.3
				c1.3,1.3,2.9,1.2,4.2,0.7c3-1,4.4-3,4.9-4.4L77.5,40.3z"/>
		</g>
		<g>
			<g>
				<g>
					<defs>
						
							<rect id="SVGID_5_" x="58.4" y="5.6" transform="matrix(0.9835 -0.181 0.181 0.9835 -1.5742 13.7406)" width="32.2" height="19.8"/>
					</defs>
					<clipPath id="SVGID_6_">
						<use xlink:href="#SVGID_5_"  style="overflow:visible;"/>
					</clipPath>
					<g class="st6">
						<path class="st0" d="M60.8,28.1c0,0-3.6-10.5-0.2-14.5l11.2-6.4c0,0,17.6-10.4,18.2,8.2l1.5,3.4c0,0-5.8,3.6-9.5,1.7
							c-3.7-1.8,0.7,1,0.7,1s-3,1.9-7.2,0.5c0,0-4.2,3-12.1-3.4C63.5,18.7,63.9,27,60.8,28.1"/>
					</g>
				</g>
			</g>
		</g>
		<g>
			<g>
				<g>
					<defs>
						
							<rect id="SVGID_7_" x="112.3" y="57.7" transform="matrix(0.9835 -0.1811 0.1811 0.9835 -19.4986 25.822)" width="38.7" height="124"/>
					</defs>
					<clipPath id="SVGID_8_">
						<use xlink:href="#SVGID_7_"  style="overflow:visible;"/>
					</clipPath>
					<g class="st7">
						<path class="st8" d="M137.2,179.9l-1.9,2.2l-6.5-3.4l-16.6-58.1l-4.8-59.4c0,0,10.4-1.3,19,0.5c1.4,0.3,2.7,0.9,3.7,1.8
							l21,54.3l2.4,56.9"/>
					</g>
				</g>
			</g>
		</g>
		<g>
			<g>
				<g>
					<defs>
						<polygon id="SVGID_9_" points="25,180.1 96.8,179.9 73.3,58.6 4.9,71.2 						"/>
					</defs>
					<clipPath id="SVGID_10_">
						<use xlink:href="#SVGID_9_"  style="overflow:visible;"/>
					</clipPath>
					<g class="st9">
						<path class="st8" d="M68.3,70.6l17.5,57l11.9,52.3l-20.3,0.5l-19.7-67.3L31,124.2c-2.7,1.1-5.9-0.2-6.9-3L5.2,72.7l10.4-3.5
							l15.1,35.3l13.6-10.1c0,0,0.3-9.9,15.8-19.5L68.3,70.6z"/>
					</g>
				</g>
			</g>
		</g>
		<g>
			<g>
				<g>
					<defs>
						
							<rect id="SVGID_11_" x="77.6" y="94.4" transform="matrix(0.9835 -0.181 0.181 0.9835 -16.2719 18.3112)" width="29.2" height="7.8"/>
					</defs>
					<clipPath id="SVGID_12_">
						<use xlink:href="#SVGID_11_"  style="overflow:visible;"/>
					</clipPath>
					<g class="st10">
						<polygon class="st11" points="79.3,104.7 106.4,99.7 105.9,91.8 77.2,97.1 						"/>
					</g>
				</g>
			</g>
		</g>
		<g>
			<g>
				<g>
					<defs>
						
							<rect id="SVGID_13_" x="83.3" y="114.7" transform="matrix(0.9835 -0.1811 0.1811 0.9835 -19.8967 19.2925)" width="24.8" height="7.8"/>
					</defs>
					<clipPath id="SVGID_14_">
						<use xlink:href="#SVGID_13_"  style="overflow:visible;"/>
					</clipPath>
					<g class="st12">
						<polygon class="st11" points="83.3,118.6 84.6,124.6 107.7,120.4 107.2,112.5 82.8,117 						"/>
					</g>
				</g>
			</g>
		</g>
		<g>
			<g>
				<g>
					<defs>
						
							<rect id="SVGID_15_" x="87.7" y="134.9" transform="matrix(0.9835 -0.181 0.181 0.9835 -23.4817 20.3095)" width="23.7" height="7.8"/>
					</defs>
					<clipPath id="SVGID_16_">
						<use xlink:href="#SVGID_15_"  style="overflow:visible;"/>
					</clipPath>
					<g class="st13">
						<polygon class="st11" points="88.8,144.8 111.5,140.6 110.6,132.8 87.2,137.1 						"/>
					</g>
				</g>
			</g>
		</g>
		<g>
			<g>
				<g>
					<defs>
						
							<rect id="SVGID_17_" x="89.6" y="145.3" transform="matrix(0.9835 -0.1811 0.1811 0.9835 -25.3445 20.8404)" width="23.7" height="7.8"/>
					</defs>
					<clipPath id="SVGID_18_">
						<use xlink:href="#SVGID_17_"  style="overflow:visible;"/>
					</clipPath>
					<g class="st14">
						<polygon class="st11" points="90.8,155.2 113.4,151 112.5,143.2 89.1,147.5 						"/>
					</g>
				</g>
			</g>
		</g>
		<g>
			<g>
				<g>
					<defs>
						
							<rect id="SVGID_19_" x="93" y="155.2" transform="matrix(0.9835 -0.1811 0.1811 0.9835 -27.0916 21.4828)" width="22.2" height="7.8"/>
					</defs>
					<clipPath id="SVGID_20_">
						<use xlink:href="#SVGID_19_"  style="overflow:visible;"/>
					</clipPath>
					<g class="st15">
						<polygon class="st11" points="94.1,165 115.3,161 114.3,153.3 92.5,157.3 						"/>
					</g>
				</g>
			</g>
		</g>
		<g>
			<g>
				<g>
					<defs>
						
							<rect id="SVGID_21_" x="95.1" y="165.9" transform="matrix(0.9835 -0.1811 0.1811 0.9835 -28.996 22.0321)" width="22.1" height="7.8"/>
					</defs>
					<clipPath id="SVGID_22_">
						<use xlink:href="#SVGID_21_"  style="overflow:visible;"/>
					</clipPath>
					<g class="st16">
						<polygon class="st11" points="96.2,175.6 117.3,171.7 116.3,163.9 94.6,167.9 						"/>
					</g>
				</g>
			</g>
		</g>
		<g>
			<g>
				<g>
					<defs>
						
							<rect id="SVGID_23_" x="80.5" y="104.5" transform="matrix(0.9835 -0.1811 0.1811 0.9835 -18.0759 18.8144)" width="27" height="7.8"/>
					</defs>
					<clipPath id="SVGID_24_">
						<use xlink:href="#SVGID_23_"  style="overflow:visible;"/>
					</clipPath>
					<g class="st17">
						<polygon class="st11" points="82.1,114.6 107.1,110 106.6,102.2 80,107.1 						"/>
					</g>
				</g>
			</g>
		</g>
		<g>
			<g>
				<g>
					<defs>
						
							<rect id="SVGID_25_" x="85.6" y="124.9" transform="matrix(0.9835 -0.1811 0.1811 0.9835 -21.7143 19.7706)" width="23.6" height="7.8"/>
					</defs>
					<clipPath id="SVGID_26_">
						<use xlink:href="#SVGID_25_"  style="overflow:visible;"/>
					</clipPath>
					<g class="st18">
						<polygon class="st11" points="86.7,134.7 109.7,130.5 108.1,125.8 107.9,122.9 85.1,127.1 						"/>
					</g>
				</g>
			</g>
		</g>
		<g>
			<g>
				<g>
					<defs>
						
							<rect id="SVGID_27_" x="71.8" y="73.3" transform="matrix(0.9835 -0.1811 0.1811 0.9835 -12.5864 17.347)" width="33.8" height="8.6"/>
					</defs>
					<clipPath id="SVGID_28_">
						<use xlink:href="#SVGID_27_"  style="overflow:visible;"/>
					</clipPath>
					<g class="st19">
						<path class="st11" d="M104.5,70.3c-13.8,11.3-33.1,6.5-33.1,6.5l2.3,8l31.4-5.8L104.5,70.3z"/>
					</g>
				</g>
			</g>
		</g>
		<g>
			<g>
				<g>
					<defs>
						
							<rect id="SVGID_29_" x="74.8" y="84.3" transform="matrix(0.9835 -0.181 0.181 0.9835 -14.4703 17.838)" width="31.4" height="7.8"/>
					</defs>
					<clipPath id="SVGID_30_">
						<use xlink:href="#SVGID_29_"  style="overflow:visible;"/>
					</clipPath>
					<g class="st20">
						<polygon class="st11" points="74.3,87.2 76.5,94.7 105.7,89.3 105.2,81.5 						"/>
					</g>
				</g>
			</g>
		</g>
		<g>
			<line class="st21" x1="131.7" y1="123.1" x2="137.4" y2="118.3"/>
		</g>
		<g>
			<path class="st5" d="M2.9,74.2c-0.6,0-1.1-0.5-1.1-1.1L1.5,48.6c0-0.4,0.2-0.8,0.6-1l14.4-7.1c0.4-0.2,0.9-0.1,1.2,0.2l6.8,6.1
				c0.3,0.3,0.5,0.7,0.3,1.2l-3,10.2c-0.1,0.3-0.3,0.5-0.5,0.7l-5.2,2.8l-1,6.5c-0.1,0.6-0.7,1-1.3,0.9s-1-0.7-0.9-1.3l1.1-7.1
				c0.1-0.3,0.3-0.6,0.6-0.8L20,57l2.6-9.1l-5.7-5.1L3.8,49.2L4.1,73C4.1,73.6,3.6,74.2,2.9,74.2L2.9,74.2z"/>
		</g>
		<g>
			<path class="st5" d="M156,117c0-0.2-0.1-0.3-0.1-0.4l-21.4-54.7c0-0.2-0.1-0.4-0.3-0.5c-2-1.6-4.2-2.7-6.6-3.5
				c-4.8-1.5-18.1-1.8-28.4-0.7l-4-17.8c-0.1-0.7-0.7-1-1.3-0.9c-0.7,0.1-1,0.7-0.9,1.3l4.1,18.6c0.1,0.6,0.6,1,1.2,0.9
				c1.4-0.2,3-0.3,4.5-0.4l0.5,7.4c-14.1,9-31.9,5.9-32.1,5.9c0,0-0.1,0-0.1,0l-1.4-5l6.6-3.7c0.4-0.2,0.6-0.7,0.5-1.2l-3.3-15.9
				c-0.1-0.6-0.7-1-1.3-0.9c-0.6,0.1-1,0.7-0.9,1.3l3.1,15.1L54.1,73.4c-1.4,0.4-11.2,3.6-13,13.9c-0.3,1.5-7,10.5-9.8,14.2
				c-0.9-2.3-2.9-6.8-6.9-15.9c-3.9-8.7-7.8-17.4-7.8-17.4c-0.3-0.5-0.9-0.8-1.4-0.6l-14,4.5c-0.6,0.2-0.9,0.8-0.7,1.4l15.9,48.8
				c1.2,3.5,4,6.2,7.4,7.6c3.4,1.4,7.3,1.2,10.6-0.5c0-0.1,0.1-0.1,0.1-0.1l23-14.5l17.3,55.1c-0.2,1.2-0.6,5-0.3,6.4
				c0.3,1.5,1.8,4.4,2,4.7c0.2,0.4,0.6,0.6,1,0.6l39.2-1l0.2,1.5c0.1,0.5,0.6,0.9,1.1,0.9c0.1,0,0.2,0,0.2,0c0.6-0.1,1-0.7,0.9-1.3
				l-0.2-1.1l9.9-0.3l5.9,3.3c0.1,0.1,0.3,0.1,0.5,0.1c0,0,0,0,0.1,0l18.6-2.3c0.6-0.1,1.1-0.7,1-1.3c-0.1-0.6-0.7-1.1-1.3-1
				l-18.2,2.3l-5.8-3.3c-0.2-0.1-0.4-0.1-0.6-0.1l-10.5,0.3l-8.6-51.6l6.5-15.6c0.1-0.2,0.1-0.5,0-0.7l-4.2-15.2l5.5-5.8
				c0.3-0.2,0.4-0.6,0.3-1l-7.1-29.9c6.8-0.1,13.1,0.3,15.9,1.3c2.1,0.7,4,1.7,5.7,3l21.2,54.2l2,52.9c0,0.6,0.5,1.1,1.1,1.1
				c0.7,0,1.2-0.5,1.2-0.9L156,117z M78,179.3c-0.6-1.2-1.4-2.7-1.5-3.5c-0.2-0.9,0.1-4.1,0.3-5.9c0.1-0.2,0-0.3,0-0.5L59,112.7
				c-0.1-0.3-0.4-0.6-0.7-0.7s-0.7-0.1-1,0.1l-24.2,15.2c-2.7,1.4-5.9,1.5-8.7,0.4c-2.8-1.1-5.1-3.4-6.1-6.2L3,73.9l12.1-3.7
				c5.9,13,14.3,32,14.9,33.9c0,0.2,0.1,0.4,0.2,0.6c0.3,0.3,0.8,0.5,1.2,0.4c0.1-0.1,0.3-0.1,0.7-0.6c0.7-0.8,2.1-2.6,5.4-7.2
				c5.6-7.8,5.8-9,5.9-9.5c1.7-9.4,11.1-12.1,11.5-12.2c0.1,0,0.2-0.1,0.3-0.1l7.2-4.1l4.2,27.2c0.1,0.3,0.2,0.5,0.4,0.7l5,4.3
				l3.5,17.7c0.1,0.5,0.6,0.9,1.1,0.9c0,0,0.1,0,0.3-0.1c0.6-0.1,1-0.7,0.9-1.3l-3.6-18.1c-0.1-0.2-0.2-0.4-0.4-0.6l-5-4.3
				l-4.3-27.6l3.3-1.8l17,60.9l6.2,30c0.1,0.5,0.6,0.9,1.1,0.9c0,0,0.1,0,0.3-0.1c0.6-0.1,1-0.7,0.9-1.3l-6.3-30L71.9,74.6
				c1.3,0.2,3.9,0.4,7.1,0.4c6.5,0,16-1.2,24.6-6.1l4.1,57.9v0.1l8.6,51.4L78,179.3z M115.6,88.4l-5.5,5.9c-0.3,0.3-0.4,0.7-0.3,1.1
				l4.3,15.5l-4.5,11l-4.5-63.2c1.2-0.1,2.4-0.1,3.5-0.2L115.6,88.4z"/>
			<path class="st5" d="M130.8,123.8c0.3,0.3,0.6,0.4,0.9,0.4c0.2,0,0.5-0.1,0.7-0.3l0,0l6.4,50.2c0.1,0.6,0.5,1,1.1,1
				c0.1,0,0.1,0,0.1,0c0.6-0.1,1.1-0.7,1-1.3l-6.5-51.2c-0.1,0-0.1-0.1-0.1-0.2l-0.1-0.1l3.8-3.2c0.4-0.4,0.5-1.1,0.1-1.6
				c-0.4-0.4-1.1-0.5-1.6-0.1l-3.1,2.6l-10.6-28.9c-0.2-0.6-0.8-0.9-1.4-0.7c-0.6,0.2-0.9,0.8-0.7,1.4l10.9,29.7l-0.8,0.7
				C130.5,122.6,130.4,123.3,130.8,123.8z"/>
		</g>
		<path class="st5" d="M99,18.5l-0.1-0.2c-0.3-0.6-0.8-0.9-1.4-1c-1.2-0.2-2.8,1.1-3.8,2.1c-0.4-1.2-0.7-2.4-1.2-3.6
			c0.8-1.9,3.3-9-4.9-14.1c-7.3-4.6-16.4,0.6-23,4.4c-1.8,1-3.5,2-4.9,2.6c-7.6,3.5-2.7,18.3-2.4,19c0,0.1,0.4,1.1,1.1,2.8
			c0,0,0,0,0,0c0,0.1,0.1,0.3,0.2,0.4c0.1,0.2,0.1,0.3,0.2,0.5c-1.2-0.1-2.5,0.1-3.2,0.8c-0.4,0.4-0.6,1-0.5,1.6V34
			c1.3,7.6,6.3,9.4,10.7,9.4c0.3,0,0.6-0.1,1,0c5.2,5.5,11.4,8.3,18.2,8.3c0.1,0,0.2,0,0.2-0.1c0.1,0,0.3-0.1,0.4-0.1
			c0.2,0,4.5-1.8,7.5-7.2c1.8-3.3,2.7-7.1,2.8-11.5C99.5,30.1,102.7,25.6,99,18.5z M60.7,10.7C62.2,10,64,9.1,65.8,8
			c4.7-2.7,10.3-5.9,15.4-5.9c1.8,0,3.6,0.5,5.3,1.5c7.6,4.7,4.1,11.3,3.9,11.6c-0.2,0.2-0.2,0.6-0.1,0.9c0.3,0.7,0.5,1.4,0.7,2
			l-3.5,1.3c-4.5,1.5-7.4-1.3-9.3-3.2c-0.6-0.6-1.1-1.1-1.6-1.4s-1.2-0.1-1.5,0.4c-0.3,0.5-0.1,1.2,0.4,1.5c0.2,0.1,0.7,0.6,1.1,1
			c1,1,2.5,2.5,4.5,3.4l-0.3,0.1c-4.5,1.5-7.4-1.3-9.3-3.2c-0.6-0.6-1.1-1.1-1.6-1.4c-0.5-0.3-1.2-0.1-1.5,0.4s-0.1,1.2,0.4,1.5
			c0.2,0.1,0.7,0.6,1.1,1c0.8,0.8,1.9,1.9,3.3,2.7c-3.3-0.1-6-1.3-8.2-3.6c-2.1-2.4-3-5.1-3.1-5.6c-0.1-0.6-0.7-1-1.3-0.9
			c-0.6,0.1-1,0.7-0.9,1.3c0.1,0.5,0.7,2.5,2.1,4.7c0,0.1,0,0.2,0,0.3c0.4,2.3,0.7,8.6-1.7,10.4c-0.4-1.1-0.7-1.7-0.7-1.8
			C58.1,23.2,55.9,13,60.7,10.7z M57.4,33.8c0.5-0.2,1.6-0.1,2.6,0c1,1.8,2.2,3.8,3.7,5.9c0.4,0.5,0.8,1,1.1,1.5
			C59.4,40.8,57.9,36.8,57.4,33.8z M85.1,49.4L85.1,49.4c-12.4,0-19.7-10.2-23.2-16.8c0-0.2-0.1-0.3-0.2-0.5
			c-0.2-0.4-0.4-0.8-0.6-1.2c1.5-0.9,2.9-2.8,3.2-7c0.1-1.1,0.1-2.1,0-3c2,1.8,5,3.6,9.3,3.6c1,0,2.1-0.1,3.2-0.3
			c0.3,0,0.5-0.2,0.7-0.5c0.3,0,0.6,0.1,0.9,0.1c0.9,0,2-0.2,3.2-0.4l2.3-0.7c0.4-0.1,0.6-0.4,0.8-0.7c0.1,0,0.3,0,0.4,0
			c1,0,2.1-0.2,3.1-0.5l3.6-1.3c1.3,4.6,2,8.4,2,11.7c-0.1,0.2-0.1,0.4,0,0.6C93.7,45,86.4,48.8,85.1,49.4z M95.8,30
			c-0.2-2.5-0.7-5.2-1.4-8.1c0.1-0.1,0.2-0.1,0.2-0.2c0.9-1,1.9-1.8,2.5-2.1C98.5,22.5,99.8,26.3,95.8,30z"/>
	</g>
	<path class="st5" d="M179.1,349.1c-1.6-2.1-4.9-2.3-5.6-2.3c-6.1-1.2-12.9-2.9-14.6-4c-1.6-1-4.9-3.7-7.2-5.7h3.6
		c0.3,0,0.6-0.1,0.8-0.3s0.3-0.5,0.3-0.8l-4.3-97.9c-1.3-24.4-4.2-50.3-4.2-50.6c-0.1-0.6-0.6-1.1-1.2-1c-0.6,0.1-1.1,0.6-1,1.2
		c0,0.3,2.9,26.2,4.2,50.5l4.3,96.7h-5.1c-0.3-0.1-0.6-0.2-1-0.2l-2.4,0.2h-13.2c-0.1-0.5-0.2-1.2-0.4-2.2c-0.8-4.3-2.4-12.4-4-24
		c-0.9-6.6-1.4-13.7-2.1-21.9c-1.3-16.3-2.9-36.7-8.2-62c-0.9-4.1-1.3-8.3-1.7-12.4c-0.6-5.9-1.2-12-3.2-17.9
		c2.4-0.3,5.2-0.3,7.2-0.3c0.6,0,1.1-0.5,1.1-1.1c0-0.6-0.5-1.1-1.1-1.1c-2.2,0-5.3,0-8,0.4c-0.2-0.5-0.4-1-0.6-1.5
		c-0.2-0.4-0.7-0.7-1.2-0.6l-4.2,0.7c-0.5,0.1-0.9,0.5-0.9,1l-0.2,2.2c-1.1-0.3-2.2-1-3.3-1.6c-1.1-0.7-2.4-1.4-3.7-1.8
		c-0.6-0.2-1.2,0.1-1.4,0.7c-0.2,0.6,0.1,1.2,0.7,1.4c1,0.3,2.1,0.9,3.2,1.6c1.4,0.7,2.7,1.5,4.3,1.9c0,0,0,0,0,0l-0.1,0.7
		c-0.1,0-0.1,0-0.1,0c-1,0.4-1.9,0.8-2.8,1.2c-1.4,0.6-2.7,1.2-4,1.4c-0.6,0.1-1,0.7-0.9,1.3c0.1,0.5,0.6,0.9,1.1,0.9
		c0,0,0.1,0,0.1,0c1.6-0.3,3.1-0.9,4.6-1.6c0.6-0.3,1.2-0.6,1.8-0.8L93.8,320.6l-2,14.5h-8.2l-5.9-0.5c-0.5-0.1-0.9,0.1-1.3,0.4
		c0,0-0.1,0.1-0.1,0.1h-7v-9.4l5.2-107.5c0.1-1.3,1.1-32.3,1.1-34.4s0.3-8.3,0.3-8.4c0.1-0.6-0.4-1.2-1-1.2c-0.6-0.1-1.2,0.4-1.2,1
		c-0.1,0.3-0.4,6.4-0.4,8.5c0,2-1.1,34-1.1,34.3L67,325.6v10.5c0,0.6,0.5,1.1,1.1,1.1h5.7c-2.3,1.9-5.4,4.5-6.9,5.5
		c-1.7,1.1-8.5,2.8-14.6,4c-0.7,0-3.9,0.2-5.6,2.3c-0.9,1.2-1.2,2.7-0.8,4.5c0.3,1.5,1.8,2.8,8.4,2.8c3.4,0,8.1-0.3,14.7-1.3
		c9.8-1.3,19.7-3.2,20.9-3.4c0.5,0,1.6-0.1,2.6-1.2c2-2.1,2.3-6.5,1-13.2c0-0.1-0.1-0.2-0.1-0.3c0.2-0.2,0.4-0.4,0.4-0.6l2.1-15.5
		l11.4-127.9l2.5-0.4c2.8,6.5,3.4,13,4.1,20c0.4,4.2,0.8,8.4,1.7,12.7c5.3,25.2,6.9,45.5,8.2,61.8c0.6,8.3,1.2,15.4,2.1,22
		c1.6,11.6,3.2,20.1,4,24.1c0.2,1.2,0.4,2.2,0.5,2.7c-0.1,0.3,0,0.6,0.1,0.8c0.3,0.4,0.8,0.6,1.3,0.5h0.6c0,0.1-0.1,0.1-0.1,0.2
		c-1.3,6.7-1,11.1,1,13.2c1,1.1,2.1,1.2,2.6,1.2c1.2,0.3,11,2.1,20.9,3.4c6.5,0.9,11.2,1.2,14.6,1.2c6.6,0,8.1-1.3,8.5-2.7
		C180.3,351.8,180,350.3,179.1,349.1z M90.8,349c-0.5,0.6-1,0.6-1,0.6c-0.1,0-0.2,0-0.3,0S79,351.7,68.6,353
		c-19.9,2.6-20.7,0.1-20.7,0.1c-0.2-1.2-0.1-2.1,0.4-2.7c0.9-1.2,2.9-1.5,4-1.5c0.1,0,0.2,0,0.3,0c3-0.6,12.8-2.6,15.4-4.3
		c2.2-1.4,7.3-5.7,9.2-7.4h5l9.1,0.8C92.7,345.5,91.6,348.1,90.8,349z M177.7,353.1c0,0-0.8,2.4-20.7-0.1
		c-10.4-1.3-20.8-3.4-20.9-3.4c0,0-0.1,0-0.2,0c-0.2,0-0.7,0-1.2-0.6c-0.8-0.9-1.9-3.5-0.5-11l10.4-0.9h3.8c1.8,1.6,7,6,9.3,7.5
		c2.6,1.7,12.4,3.7,15.4,4.3c0.1,0,0.2,0,0.3,0c1,0,3.1,0.4,4,1.5C177.8,351.1,178,352,177.7,353.1z"/>
</g>
</svg>
