<?xml version="1.0" encoding="utf-8"?>
<!-- Generator: Adobe Illustrator 22.0.1, SVG Export Plug-In . SVG Version: 6.00 Build 0)  -->
<svg version="1.1" id="圖層_1" xmlns="http://www.w3.org/2000/svg" xmlns:xlink="http://www.w3.org/1999/xlink" x="0px" y="0px"
	 viewBox="0 0 140 247.1" style="enable-background:new 0 0 140 247.1;" xml:space="preserve">
<style type="text/css">
	.st0{fill:#FFFFFF;}
	.st1{clip-path:url(#SVGID_2_);}
	.st2{fill:#505051;}
	.st3{fill:#231815;}
	.st4{clip-path:url(#SVGID_4_);}
	.st5{fill:#717071;}
	.st6{fill:#00A83C;}
</style>
<polygon class="st0" points="43.9,43.7 46.7,43.4 48.7,35.3 58.4,21.3 68.4,20.5 83.6,38.6 85.1,41.9 90.1,40.6 90.4,48 86.2,54.1 
	83,56.8 78.6,60.1 77.6,77.6 83.8,77.4 95.7,79 105.5,85.5 138.8,132.2 137.3,141.1 134,146.7 126.7,146.7 114,122 100.6,109.3 
	85.1,141.1 53.7,132 47,85.9 56.5,80.2 56.8,63.1 48.7,54.1 42.2,50.6 41.7,43.1 "/>
<path class="st0" d="M53.9,11.4c1-5.4,5-8.2,6-9c1.8-1.3,5-2.3,7.3-1.4c3.5,1.4,4.2,8.6,1.1,14.2c-2.5,4.6-8.3,8.6-11.8,6.8
	C53.3,20.4,53.3,14.5,53.9,11.4z"/>
<g>
	<g>
		<g>
			<g>
				<g>
					<defs>
						<rect id="SVGID_1_" x="7.4" y="80.1" width="128.8" height="160.7"/>
					</defs>
					<clipPath id="SVGID_2_">
						<use xlink:href="#SVGID_1_"  style="overflow:visible;"/>
					</clipPath>
					<g class="st1">
						<path class="st2" d="M8.5,127.8l24.9-40.7l14.3-4.6l8.8-2.3l8.2,49.3l12-48.7l4.4-0.6c8.2,2,14.7,4.5,17.9,6.5l30.5,41.3
							c9.4,7,6.2,16.7,6.2,16.7L110.4,174l-6.5-9.4l12.3-29.9l-16.4-18.8l-6.5,35.8l1.8,13.5l2.3,4.7l-7,7.6l-3.5,0.6l3.5,5.3
							l11.7,1.2l-0.6,13.5v16.4l1.2,25.8l-73.3,0.6c-2.1-20.8,6.4-62.3,8.4-71.5c0.3-1.2,0.4-1.8,0.4-1.8l1.9-29.6l-3-2l-5.9-5.9
							l-0.6-5.9l-1.5-1.3l-6,10.7l14.7,35.9l-6.7,5.2l-21.6-37C9.5,137.7,5.5,132.6,8.5,127.8"/>
					</g>
				</g>
			</g>
		</g>
	</g>
	<g>
		<path class="st3" d="M35.9,119.8c-0.3,0-0.7-0.1-0.9-0.4s-0.3-0.6-0.3-1l0.6-4.7c0.1-0.6,0.6-1,1.2-1l0,0l11.7,0.1
			c0.3,0,0.6,0.1,0.9,0.4c0.2,0.2,0.3,0.6,0.3,0.9l-0.3,4.4c0,0.6-0.6,1.1-1.2,1.1L35.9,119.8L35.9,119.8z M37.6,115.1l-0.3,2.3
			l9.6-0.1l0.1-2L37.6,115.1z"/>
	</g>
	<g>
		<path class="st3" d="M65,53.3c-0.3,0-0.6-0.1-0.8-0.3c-0.3-0.3-0.4-0.6-0.4-1l0.9-9c0.1-0.7,0.7-1.2,1.3-1.1
			c0.7,0.1,1.1,0.7,1.1,1.3l-0.7,7.4l1.1-0.2c0.7-0.1,1.3,0.3,1.4,1s-0.3,1.3-1,1.4l-2.6,0.5C65.1,53.3,65,53.3,65,53.3z"/>
	</g>
	<g>
		<path class="st3" d="M66,59.2c-0.3,0-0.6,0-0.6,0c-0.7-0.1-1.2-0.6-1.1-1.3s0.6-1.1,1.3-1.1l0,0c0,0,3.8,0.3,6.3-2.1
			c0.5-0.5,1.2-0.4,1.7,0.1s0.4,1.2-0.1,1.7C70.9,58.9,67.4,59.2,66,59.2z"/>
	</g>
	<g>
		<g>
			<g>
				<g>
					<defs>
						<rect id="SVGID_3_" x="47.7" y="0.1" width="37.4" height="40.9"/>
					</defs>
					<clipPath id="SVGID_4_">
						<use xlink:href="#SVGID_3_"  style="overflow:visible;"/>
					</clipPath>
					<g class="st4">
						<path class="st5" d="M60.9,19.5c0,0-4-15.8,7.5-19.4l7.6,4l3.8,4.8c0.1,0.2,0.2,0.4,0.7,2.4l-2.3,11.3l4.7,4l2.2,7.5v4.8
							c0,0-20.2,4.4-17.2-12.3l-3.5-2.2h-2.6l-3.1,7.9c0,0-4.8,9.2-10.6,8.8l-1.6-9.6l7.1-9.1L60.9,19.5z"/>
					</g>
				</g>
			</g>
		</g>
	</g>
	<g>
		<path class="st0" d="M102.9,165.9c-2.6-1.2-7.1-1.1-7.7,0.1l3.4,3.9l-7,5.9c0,0-5.4-0.3-5.4,1.3s4.3,6.5,4.3,6.5s10.8,0,12.1-0.5
			c1.3-0.5,6.5-8.6,6.5-8.6L102.9,165.9z"/>
	</g>
	<g>
		<path class="st3" d="M61.2,45.7c0,1.3-0.8,2.3-1.7,2.3s-1.7-1-1.7-2.3s0.8-2.3,1.7-2.3S61.2,44.4,61.2,45.7"/>
	</g>
	<g>
		<path class="st3" d="M73.4,45.7c0,1.3-0.8,2.3-1.7,2.3c-0.9,0-1.7-1-1.7-2.3s0.8-2.3,1.7-2.3S73.4,44.4,73.4,45.7"/>
	</g>
	<g>
		<path class="st3" d="M57.5,40.2c-0.4,0-0.8-0.2-1-0.5c-0.4-0.6-0.2-1.3,0.3-1.7c0.1-0.1,2.8-1.8,5.5,0c0.5,0.4,0.7,1.1,0.3,1.7
			c-0.4,0.5-1.1,0.7-1.7,0.3c-1.4-0.9-2.9,0-2.9,0C57.9,40.1,57.7,40.2,57.5,40.2z"/>
	</g>
	<g>
		<polygon class="st0" points="29.2,179.3 33,188.2 43.4,193.7 48.2,185.3 38.7,173.2 37.9,169.7 		"/>
	</g>
	<g>
		<path class="st3" d="M136.3,127.4c-6.2-8.9-27-36.5-28.5-38.4c-0.7-1.6-7.3-13.9-29.7-13.7c0,0,0,0-0.1,0l2.9-14.7
			c0.2-0.6-0.2-1.3-0.9-1.4c-0.6-0.2-1.3,0.2-1.4,0.9L75.4,76l-9,5L58,75.3v-11c0-0.7-0.5-1.2-1.2-1.2s-1.2,0.5-1.2,1.2V75
			c-4.2,0.8-20,4.3-25.5,9.8c-4.4,4.5-26.7,41.2-28.4,44c-0.6,0.7-2.9,3.7-0.1,9.1c0.1,0,0.1,0.1,0.1,0.1l26,41.6
			c0.1,0.2,0.3,0.4,0.4,0.5l3.8,8.6c0.1,0.3,0.3,0.5,0.5,0.6l0.3,0.2c-2.9,15.3-5.9,37-4.7,56.4c0,0.6,0.6,1.1,1.2,1.1h73.1
			c0.4,0,0.7-0.1,1-0.2c0.2-0.3,0.3-0.6,0.3-0.9l-0.8-47.2c0.3-1.1,1.7-6.2,1.8-12.5c0-1.2,0-2.3-0.1-3.4c1.5-1.7,3.4-4.5,5-7
			c1.1-0.3,3.6-2.8,14.4-15.4c6.6-7.6,13-15.3,13.1-15.4c0.1-0.1,1.6-2,2.3-5.1C139.9,137,139.9,132.5,136.3,127.4z M77.6,77.6
			c0.9,0,1.7,0,2.5,0c-0.1,2.3-0.5,16.3-0.5,17.2c-0.1,0.4-1.1,1.8-2.1,3c-0.2,0.2-0.3,0.5-0.3,0.8c0,0.2-0.6,14.9-10.4,28.4
			L77.6,77.6z M74.9,79l-1.7,7.9l-4.8-4.2L74.9,79z M67.4,85.1l5.1,4.5c0,0,0,0,0.1,0L65.5,122L67.4,85.1z M64.1,82.4l-4.9,3.1
			l-0.8-7L64.1,82.4z M65.1,84.7l-1.9,36.4l-3.7-33c0.1,0,0.2,0,0.2-0.1L65.1,84.7z M53.2,78c1.1-0.2,2-0.4,2.6-0.6l5.2,47.1
			c-3.2-7.6-6.6-15.8-6.9-17.5c-0.6-3-0.3-10.4-0.3-10.5s-0.1-0.3-0.1-0.4c0,0-1.5-4.7-1.8-7.5C51.8,86.4,52.8,80.5,53.2,78z
			 M3.7,136.8c-2.3-4.4-0.4-6.2-0.3-6.3c0.1-0.1,0.1-0.2,0.2-0.3c8.3-13.6,24.8-40.2,28.2-43.6c3.6-3.7,12.6-6.4,18.8-8
			c-0.5,2.5-1.3,7.8-1.1,10.2c0.3,2.8,1.6,6.9,1.9,7.9c0,1.3-0.2,7.8,0.3,10.8c0.5,3.2,9,22.8,10,25c0.1,0.1,0.2,0.3,0.3,0.4
			l0.4,3.5l-0.2,19.5l0,0c0.1,0.9,0.1,1.8,0,2.6l0,0l-0.1,4.9c-0.6,1.1-2.2,4.2-2.9,5.7c-1.8,0.3-9-0.1-16.4-0.7l0,0
			c-0.2,0-0.3,0-0.5,0c-0.5,0-1,0-1.5,0c-0.1,0-0.2,0-0.3-0.1h-0.1c-0.6-0.1-0.8-0.5-0.8-1l0,0l1.8-30.2c0.1-0.5-0.3-1-0.8-1.2
			c-10-3.2-9.3-12.5-9-14.8c0.1,0,0.1-0.1,0.1-0.1l7.6-18.8c0.2-0.7-0.1-1.4-0.7-1.6c-0.7-0.2-1.4,0.1-1.6,0.7l-7.3,18.3
			c-0.1,0.2-0.2,0.3-0.3,0.5c0,0,0,0,0,0.1L22.2,133c-0.2,0.3-0.2,0.7-0.1,1l14.4,35.3l-2.7,3L29,177L3.7,136.8z M39,137.9L37.4,165
			l-12.8-31.3l4.7-8.4C29.7,129.5,31.8,135.2,39,137.9z M30.7,179.5l4.5-5c0.4-0.3,0.8-0.8,1.2-1c0.3-0.2,0.7-0.1,0.9,0.1l0.9,0.9
			l8.5,10.9L43,192l-7.6-4l0,0c-0.6-0.3-1.1-0.8-1.5-1.5c-0.3-0.4-0.6-0.8-0.7-1.3L30.7,179.5z M101.1,244.6H30.3
			c-1-18.6,1.8-39.1,4.6-54l7.9,4.2c0.2,0.1,0.4,0.1,0.6,0.1c0.4,0,0.8-0.2,0.9-0.7l4.8-8.4c0.2-0.4,0.2-0.9-0.1-1.3l-9.3-11.9
			l-0.4-2l0,0c21.3,2,21.7,0.9,22-0.1c0.2-0.6,1.3-2.7,2.3-4.5l3.3,4.1c0.3,0.3,0.7,0.4,1.1,0.4l26.7-3.1l2.1,2.4l-5.7,4.8
			c-1.5,0-4.3,0.1-5.5,1.2c-0.4,0.4-0.6,0.9-0.6,1.4c0,1.9,3.2,5.7,4.6,7.3c0.2,0.3,0.6,0.4,0.9,0.4c2.9,0,9.3-0.1,11.6-0.5
			c0.2,7.3-1.7,13.6-1.7,13.7c-0.1,0.1-0.1,0.3-0.1,0.4L101.1,244.6z M95,153.4l6-35.7l15.6,19.4l-14.2,27.4
			c-1.8-0.6-4.3-0.8-6.1-0.4L95,153.4z M105.2,178.1c-0.3,0.6-0.6,1.1-1.1,1.6c-0.2,0.4-0.4,0.9-0.7,1.2c-0.4,0.5-0.9,0.8-1.5,1l0,0
			c0,0-0.1,0-0.2,0c-0.3,0.1-0.6,0.1-0.8,0.1c-2,0.2-6.1,0.3-9.9,0.3c-1.8-2-3.3-4.1-3.6-5c0.6-0.2,2.4-0.4,4.1-0.4
			c0.3,0,0.6-0.1,0.8-0.3l5.9-5c0.7-0.7,1.4-1.4,1.7-2.3c-0.8-1.1-1.7-2.2-2.7-3.1c1.2-0.1,3.1,0,4.6,0.5l0,0
			c0.3,0.4,0.6,0.7,0.9,1.1l4.7,6.6C106.8,175.7,106,177,105.2,178.1z M135.3,143.2c-8.5,10.1-22,26-25.8,29.5
			c-1.2-2.1-3.8-5.3-5.2-7l14.7-28.4c0.3-0.4,0.2-0.9-0.1-1.3l-17.8-22.1c-0.3-0.4-0.7-0.5-1.2-0.4c-0.5,0.2-0.8,0.5-0.9,1L92.5,153
			v0.3c0.3,3,0.7,5.9,1,8.9c0.1,0.8,0.4,1.5,0.4,2.4c0,0.1,0,0.2,0,0.2c-0.1,0.1-0.2,0.1-0.3,0.1c-3.9,0.6-7.8,1-11.7,1.4
			c-3.6,0.4-7.2,0.8-10.9,1.3c-0.9,0.1-1.9,0.2-2.8,0.3l-3.7-4.6c-0.1-0.1,0-0.5,0-0.6c0-0.5,0-1,0-1.5c0-0.6,0.1-1.2,0.1-1.7
			c0-1,0-2.1,0-3.1c0-0.9,0-1.8,0-2.7c0-3.5,0.1-7.1,0.1-10.6c0-2.2,0-4.4,0.1-6.5c0-0.1,0-0.1,0-0.1l0.9-4.2
			c12.2-13.8,13.7-30,13.9-33c1-1.1,2.4-3,2.4-4.2c0-0.9,0.4-11.3,0.5-17.2c18.2,1.3,23.1,11.8,23.3,12.2c0,0,0,0.1,0.1,0.2
			c0.2,0.3,22.1,29.2,28.5,38.4C140.3,136.9,135.5,143,135.3,143.2z"/>
		<path class="st3" d="M98.7,86.1c-0.2,0.2-5.4,4.1-4.5,14.3c0.1,0.6,0.6,1.1,1.2,1.1c0,0,0,0,0.1,0c0.7-0.1,1.2-0.6,1.1-1.3
			c-0.8-8.8,3.3-12,3.5-12.1c0.6-0.4,0.7-1.2,0.3-1.7C100,85.8,99.2,85.7,98.7,86.1z"/>
	</g>
	<g>
		<path class="st6" d="M90.4,117.7c0.4-1-0.7-1.1-0.7-1.1c-0.2,0-0.4-0.2-0.5-0.4c0-0.1,0-0.2,0-0.4c0-0.1,0.1-0.2,0.1-0.3
			c0.1-0.2,0.3-0.2,0.5-0.2c1.1,0,2.3,0,3.4,0c0.5,0,0.9-0.1,1.4-0.4c0.8-0.5,1.2-1.5,1-2.4c-0.1-0.5-0.3-0.9-0.7-1.2
			c-0.2-0.2-0.4-0.5-0.5-0.8c0-0.1,0-0.3-0.1-0.4c0,0,0,0,0-0.1c-0.2-0.8-0.8-1.3-1.6-1.5c-0.3-0.2-0.5-0.4-0.7-0.7
			c-0.5-0.8-1.2-1.1-2.1-1c-0.4,0-0.8,0-1.1-0.3c-0.2-0.2-0.5-0.3-0.8-0.3c-0.1,0-0.2,0-0.2,0l0,0h-0.1h-0.2l0,0h-0.1l0,0
			c-0.3,0-0.7,0.1-0.9,0.3c-0.2,0.1-0.4,0.2-0.7,0.3h-0.1c-0.2,0-0.4,0-0.6,0s-0.4,0-0.6,0.1c-0.3,0.1-0.6,0.2-0.9,0.4
			c0,0,0,0-0.1,0c-0.2,0.2-0.4,0.4-0.5,0.6c-0.2,0.3-0.4,0.5-0.7,0.6c-0.1,0-0.1,0-0.2,0.1c-0.1,0-0.2,0.1-0.4,0.2
			c-0.2,0.1-0.4,0.3-0.6,0.6c-0.2,0.3-0.3,0.6-0.4,0.9v0.1c0,0,0,0,0,0.1c0,0.2-0.1,0.3-0.1,0.4c-0.1,0.2-0.2,0.3-0.4,0.5l-0.1,0.1
			c-0.1,0.1-0.2,0.3-0.3,0.5c-0.1,0.1-0.1,0.2-0.1,0.3v0.1l0,0v0.1c0,0.1,0,0.2,0,0.2l0,0v0.1l0,0l0,0v0.1v0.1l0,0v0.2l0,0
			c0,0.1,0,0.3,0.1,0.4c0.2,0.7,0.7,1.3,1.5,1.6c0.2,0.1,0.4,0.1,0.6,0.1c0,0,0.1,0,0.2,0c0.6,0,1.3,0,1.9,0c0.5,0,1.1,0,1.6,0
			c0.3,0,0.6,0.2,0.6,0.5c0,0.1,0,0.2,0,0.3c0,0.2-0.1,0.4-0.3,0.5c-0.1,0.1-0.3,0.1-0.4,0.1c0,0-1,0.1-0.7,1.1L90.4,117.7z"/>
	</g>
	<g>
		<path d="M84.6,118.7c-0.4,0-0.8-0.3-0.9-0.7c-0.2-0.7,0-1.3,0.2-1.6c0.1-0.1,0.1-0.2,0.2-0.3h-2.2c-0.1,0-0.2,0-0.3,0
			c-0.3,0-0.5-0.1-0.8-0.2c-1-0.4-1.7-1.1-2-2.2c0-0.2-0.1-0.3-0.1-0.5c0-0.1,0-0.2,0-0.3v-0.3l0,0l0,0v-0.1c0-0.1,0-0.2,0-0.3
			c0-0.1,0-0.1,0-0.2s0-0.1,0-0.2l0,0c0-0.1,0-0.2,0.1-0.2c0.1-0.2,0.1-0.3,0.2-0.4c0.1-0.2,0.2-0.4,0.4-0.6c0-0.1,0.1-0.1,0.2-0.2
			s0.2-0.2,0.2-0.3V110c0-0.1,0-0.2,0-0.3c0.1-0.5,0.3-0.9,0.6-1.3c0.2-0.3,0.5-0.6,0.9-0.8c0.2-0.1,0.3-0.2,0.5-0.2
			c0.1,0,0.2-0.1,0.2-0.1c0.2-0.1,0.2-0.1,0.3-0.2c0.1-0.3,0.4-0.6,0.7-0.8l0.1-0.1c0.3-0.3,0.7-0.5,1.2-0.6
			c0.3-0.1,0.6-0.1,0.9-0.1c0.1,0,0.2,0,0.3,0c0.1,0,0.1,0,0.2,0h0.1c0.1,0,0.2-0.1,0.3-0.1c0.4-0.2,0.8-0.4,1.2-0.4
			c0.1,0,0.2,0,0.2,0h0.3c0.1,0,0.3,0,0.4,0.1h0.1c0.4,0.1,0.8,0.2,1.1,0.5c0.1,0.1,0.2,0.1,0.5,0.1c1.3-0.1,2.3,0.4,3,1.4
			c0.1,0.2,0.2,0.3,0.3,0.4c1.1,0.4,1.8,1.1,2.1,2.1c0,0,0,0.1,0,0.2s0,0.2,0.1,0.3v0.1c0,0.1,0.1,0.2,0.2,0.4
			c0.5,0.5,0.8,1.1,0.9,1.7c0.3,1.3-0.3,2.7-1.5,3.4c-0.6,0.4-1.2,0.5-1.9,0.5h-2.2c0.1,0.1,0.1,0.1,0.2,0.2
			c0.2,0.3,0.4,0.9,0.1,1.6c-0.1,0.4-0.5,0.6-0.9,0.6L84.6,118.7L84.6,118.7z M90.4,117.7L90.4,117.7L90.4,117.7z M83.8,114.3h1.6
			c0.8,0,1.4,0.5,1.6,1.3c0,0.2,0,0.4,0,0.5c0,0.3-0.1,0.5-0.2,0.7h1.6c-0.1-0.1-0.1-0.2-0.1-0.3c-0.1-0.3-0.1-0.5-0.1-0.7
			c0-0.3,0.2-0.7,0.4-0.9c0.2-0.2,0.6-0.5,1.2-0.5h3.4c0.3,0,0.6-0.1,0.8-0.2c0.5-0.3,0.7-0.9,0.6-1.4c-0.1-0.3-0.2-0.5-0.4-0.7
			c-0.4-0.4-0.7-0.8-0.7-1.3c0-0.1,0-0.2,0-0.2v-0.1v-0.1c-0.1-0.4-0.4-0.7-0.9-0.8c0,0-0.1,0-0.1-0.1c-0.6-0.3-0.9-0.7-1.1-1.1
			c-0.3-0.4-0.7-0.6-1.2-0.6c-0.7,0.1-1.2-0.1-1.7-0.4c-0.1-0.1-0.3-0.1-0.4-0.2c0,0-0.1,0-0.2,0h-0.2c0,0,0,0-0.1,0
			c-0.2,0-0.4,0.1-0.5,0.2c-0.3,0.2-0.7,0.4-1.1,0.4h-0.1c-0.2,0-0.4,0-0.6,0c-0.1,0-0.1,0-0.2,0s-0.2,0-0.3,0
			c-0.2,0.1-0.4,0.1-0.5,0.2c0,0,0,0-0.1,0c-0.1,0.1-0.2,0.2-0.3,0.3c-0.3,0.5-0.7,0.8-1.2,1h-0.1c-0.1,0,0,0-0.1,0
			c0,0-0.1,0-0.1,0.1c-0.2,0.1-0.3,0.2-0.3,0.3c-0.1,0.2-0.2,0.3-0.2,0.5l0,0v0.1l0,0c0,0.3-0.1,0.5-0.2,0.7
			c-0.2,0.3-0.3,0.6-0.6,0.8l-0.1,0.1c-0.1,0.1-0.1,0.2-0.2,0.2c0,0.1-0.1,0.1-0.1,0.2l0,0v0.1v0.1v0.1l0,0v0.1v0.1c0,0,0,0,0,0.1
			s0,0.1,0,0.2c0.1,0.5,0.4,0.8,0.9,0.9c0.1,0,0.2,0.1,0.3,0.1H82L83.8,114.3z M78.7,112.3L78.7,112.3L78.7,112.3z"/>
	</g>
	<path class="st3" d="M91.2,42.2V42c-0.1-0.6-0.5-1.1-1.1-1.4c-1.1-0.6-2.9,0.1-4.2,0.7c0-0.8,0-1.7,0-2.5c1.5-11-4.6-16.1-5.9-17
		c-0.1-0.1-0.1-0.2-0.2-0.3c0.7-1.7,1.2-3.5,1.3-5.4c0.3-4-0.9-7.9-3.3-10.9S72,0.4,68.3,0.1C64.6-0.1,61,1.2,58.2,3.9
		c-2.8,2.6-4.4,6.3-4.7,10.3c-0.2,2.1,0.1,4.2,0.8,6.1c-9,4.4-8.2,16.1-8.1,17.5c0,0.4-0.1,1.9,0.1,4.1c-1.2-0.5-2.5-0.8-3.5-0.4
		c-0.6,0.2-1,0.7-1.1,1.4v0.2C40,52,45.3,55.6,50,57c0,0,0,0,0.1,0c2.7,5.5,7.1,10.7,14.6,13.4c0.1,0.1,0.3,0.1,0.4,0.1
		c0.2,0,12.6-0.7,18.2-14.5C87.9,54.4,92.9,50.9,91.2,42.2z M55.9,14.2c0.2-3.3,1.7-6.5,4-8.7c2.2-2,4.8-3.1,7.6-3.1
		c0.2,0,0.5,0.1,0.7,0.1c3,0.2,5.8,1.7,7.8,4.2s3,5.8,2.8,9c-0.1,1.3-0.4,2.6-0.8,3.8c-6.4-5.4-17.8-1.5-21.4-0.1
		C56,17.7,55.8,16,55.9,14.2z M56.5,22.1c0.1-0.1,6.5-2.9,12.6-2.9c3.6,0,7.1,1,9.1,4.1c0.1,0.2,0.3,0.3,0.4,0.4
		c0,0.1,6.5,4.4,5,14.9l0,0c-3.8,0.7-8.9,0.3-12.1-2.2c-2-1.6-3-3.8-3-6.6c0-3.5-1-5.9-2.8-6.9c-2.6-1.5-5.8,0.3-5.9,0.4
		c-0.2,0.1-0.4,0.4-0.5,0.7c-1.2,4.5-5.4,15.6-10.6,16.2c0-1.4,0-2.2,0-2.3c0,0,0-0.1,0-0.2C48.7,37.5,47.3,25.6,56.5,22.1z
		 M43.9,43.7c0.6,0.1,1.7,0.5,2.6,1.1c0.3,2.7,1,6,2.2,9.3C43.2,51.6,43.3,47.1,43.9,43.7z M65.3,68.1C53,63.5,49.8,51.2,48.9,43.8
		l0,0c0-0.4-0.1-0.8-0.1-1.2c3.4-0.3,6.4-3.3,9-9c1.9-3.6,3-7.2,3.4-8.5c0.8-0.3,2.2-0.7,3.1-0.2c1.1,0.6,1.6,2.2,1.6,4.8
		c0.1,3.5,1.4,6.5,4,8.5c3.7,2.9,9.3,3.5,13.7,2.8C83.3,65.7,67.4,67.9,65.3,68.1z M84.3,53c0.7-2.6,1.3-5.5,1.5-8.8l0,0
		c1.2-0.7,2.5-1.3,3.2-1.4C89.6,46.1,89.6,50.6,84.3,53z"/>
</g>
</svg>
