<?xml version="1.0" encoding="utf-8"?>
<!-- Generator: Adobe Illustrator 22.0.1, SVG Export Plug-In . SVG Version: 6.00 Build 0)  -->
<svg version="1.1" id="圖層_1" xmlns="http://www.w3.org/2000/svg" xmlns:xlink="http://www.w3.org/1999/xlink" x="0px" y="0px"
	 width="295px" height="344.4px" viewBox="0 0 295 344.4" style="enable-background:new 0 0 295 344.4;" xml:space="preserve">
<style type="text/css">
	.st0{fill:#FFFFFF;}
	.st1{fill:#231815;}
	.st2{clip-path:url(#SVGID_2_);}
	.st3{fill:#717071;}
	.st4{clip-path:url(#SVGID_4_);}
	.st5{fill:#00A83C;}
	.st6{clip-path:url(#SVGID_6_);}
	.st7{clip-path:url(#SVGID_8_);}
	.st8{clip-path:url(#SVGID_10_);}
	.st9{fill:#333333;}
	.st10{clip-path:url(#SVGID_12_);}
	.st11{clip-path:url(#SVGID_14_);}
	.st12{clip-path:url(#SVGID_16_);}
	.st13{fill:#FFDB00;}
</style>
<g>
	<g>
		<path class="st0" d="M161.7,273.2c0,0,6.5,7.8,8.7,9.1c2.2,1.3,10,3.9,11.3,4.8s-2.6,7.8-6.1,7.8s-31.3-15.6-31.3-15.6
			s-8.3-2.6,0-12.6L161.7,273.2z"/>
	</g>
	<g>
		<path class="st1" d="M175.6,295.9c-3.5,0-26.8-13-31.7-15.7c-0.6-0.2-3.2-1.3-4-4.1c-0.8-2.8,0.4-6.2,3.7-10.1
			c0.3-0.3,0.7-0.5,1.1-0.3l17.4,6.5c0.2,0.1,0.3,0.2,0.4,0.3c1.8,2.1,6.8,7.9,8.4,8.9c1.1,0.6,3.8,1.7,6.2,2.6
			c2.7,1,4.4,1.7,5.1,2.2c0.5,0.3,1,1.1,0.5,2.7C182,291.3,178.9,295.9,175.6,295.9z M144.7,267.8c-2.4,3.1-3.4,5.7-2.8,7.6
			c0.6,2,2.8,2.8,2.8,2.8c0.1,0,0.1,0,0.2,0.1c10.7,6,28.4,15.5,30.8,15.5c0.9,0,2.2-0.8,3.3-2.2c1.3-1.6,2-3.2,2-3.8
			c-0.7-0.4-2.7-1.2-4.5-1.8c-2.6-1-5.3-2.1-6.6-2.8c-2.1-1.3-7.6-7.7-8.8-9.1L144.7,267.8z"/>
	</g>
	<g>
		<path class="st0" d="M20.5,310.2c0.1,0.1,0.2,0.3,0.2,0.5c0,1.5,0,9.2,0.4,11.9c0.4,2.9,6,12.6,6.5,13.4c0,0,0,0.1,0.1,0.1
			c0.4,0.5,4.1,4.9-0.5,7.3C22.4,346,2,310.8,2,310.8s-3.8-3.4,7.8-10.2c0.3-0.1,0.6-0.1,0.8,0.1L20.5,310.2z"/>
	</g>
	<g>
		<path class="st0" d="M140.5,203.7c0,0-42.2,47-44.3,50.1c-3.9,5.8-65.6,53.4-68.3,55.6c-0.1,0-4.7,6.1-4.9,6.1l-12.2-14.7
			c-0.2-0.2-0.3-0.6-0.1-0.8l2.3-3.8c0.1-0.1,0.1-0.2,0.2-0.2c0.4-0.3,1.8-1.2,2.5-2.1C42,260,71,241.6,71,241.6l20-58.3l40.8,11.3
			L140.5,203.7z"/>
	</g>
	<g>
		<path class="st1" d="M265.3,33.8c-0.3,0-0.7-0.2-0.9-0.5l-6.5-11.1c-0.3-0.5-0.1-1.1,0.4-1.4s1.1-0.1,1.4,0.4l6.5,11.1
			c0.3,0.5,0.1,1.1-0.4,1.4C265.7,33.7,265.5,33.8,265.3,33.8z"/>
	</g>
	<g>
		<path class="st0" d="M268.4,16.5l4.3-3.7l1.5-7.2c0,0,1.1-3.9,5.4-2.8c0,0,6.5-2.2,7.2-1.7c0.7,0.4,6.7,10.6,6.7,13.9
			s-6.5,5.9-6.5,5.9c-0.9,0-6.7,1.7-6.7,1.7l-5.4,3.5"/>
	</g>
	<g>
		<path class="st1" d="M274.9,27.1c-0.3,0-0.7-0.2-0.9-0.5c-0.3-0.5-0.2-1.1,0.3-1.4l5.4-3.5c0.1-0.1,0.2-0.1,0.3-0.1
			c1.7-0.5,5.5-1.6,6.8-1.8c2.3-0.9,5.7-3,5.7-4.9c0-2.6-4.9-11.3-6.2-12.9c-1,0.1-3.9,0.9-6.3,1.7c-0.2,0.1-0.4,0.1-0.6,0
			c-3.2-0.8-4.1,1.8-4.2,2.1l-1.5,7.1c0,0.2-0.2,0.4-0.3,0.6l-4.3,3.7c-0.4,0.4-1.1,0.3-1.4-0.1c-0.4-0.4-0.3-1.1,0.1-1.4l4.1-3.5
			l1.4-6.8c0.5-1.7,2.4-4.5,6.4-3.7c6.7-2.2,7.4-1.8,7.8-1.5c1.1,0.7,7.2,11.2,7.2,14.7c0,3.8-6.4,6.5-7.2,6.8
			c-0.1,0-0.2,0.1-0.4,0.1c-0.5,0-3.6,0.9-6.3,1.7l-5.3,3.4C275.2,27,275.1,27.1,274.9,27.1z M286.2,1.8L286.2,1.8L286.2,1.8z"/>
	</g>
	<g>
		<path class="st1" d="M280.5,13.4c-0.9,0-2.1-0.1-3.6-0.3c-0.6-0.1-1-0.6-0.9-1.1c0.1-0.6,0.6-1,1.1-0.9c1.6,0.2,2.6,0.2,3.3,0.2
			l-2.6-2.6c-0.4-0.4-0.4-1,0-1.4s1-0.4,1.4,0l3.2,3.2c0.8,0.5,1.1,1.2,0.9,1.8C283.1,13,282.5,13.4,280.5,13.4z M281.5,12.3
			L281.5,12.3L281.5,12.3z"/>
	</g>
	<g>
		<path class="st0" d="M87.5,195.8c0,0,9.1,24.8,40,18.7l49.1-14.8c-7.6,14.9-17.4,33.7-27.8,57.8l-6.5,9.1l3.9,1.3l15.6,5.2
			l1.3-4.3l1.3-3.5c0,0,49.8-71.2,50.4-77.7c0.9-9.1,3.5-17.8-10-20.4c-7.8-1.5-93.4,4.8-93.4,4.8L91,182
			C90.9,182,85.7,187.6,87.5,195.8"/>
	</g>
	<g>
		<path class="st1" d="M176.5,200.8c-0.2,0-0.4,0-0.5-0.1c-0.5-0.3-0.6-0.9-0.3-1.4c0.1-0.1,6.9-11.2,10.6-16.4
			c0.3-0.5,1-0.6,1.4-0.2c0.5,0.3,0.6,1,0.2,1.4c-3.7,5.1-10.5,16.2-10.5,16.3C177.2,200.6,176.8,200.8,176.5,200.8z"/>
	</g>
	<g>
		<path class="st1" d="M176.9,198.6L176.9,198.6c-0.6,0-1.1-0.5-1-1.1c0.3-4.2,3.4-11.1,3.6-11.4c0.2-0.5,0.8-0.7,1.3-0.5
			s0.7,0.8,0.5,1.3c0,0.1-3.1,6.8-3.4,10.7C177.9,198.2,177.5,198.6,176.9,198.6z"/>
	</g>
	<g>
		<path class="st0" d="M201.3,64.5l65.4-48.6l11.5,15.4l-3.5,1.1l-0.7,4.3c0,0-64.9,56.9-66.9,57.5l-5,6.1
			c-6.5,15.3-22.6,41.4-31.9,53c0,0-0.8,5.1-0.8,15.1l-57.6,6.4l-14.5-0.9l3.2-73.8l35-37.6l32.4-0.9l22.7,2.5"/>
	</g>
	<g>
		<path class="st1" d="M200.8,65.7L200.8,65.7L190.5,65c-0.6,0-1-0.5-0.9-1.1c0-0.6,0.5-1,1.1-1l10.2,0.7c0.6,0,1,0.5,0.9,1.1
			C201.8,65.3,201.4,65.7,200.8,65.7z"/>
	</g>
	<g>
		<path class="st1" d="M149.4,171.1c-0.1,0-0.1,0-0.2,0c-0.6-0.1-0.9-0.6-0.8-1.2l2.6-14.5v-0.1l5.1-16.5c0.2-0.5,0.7-0.8,1.3-0.7
			c0.5,0.2,0.8,0.7,0.7,1.3l-5.1,16.4l-2.6,14.4C150.3,170.8,149.9,171.1,149.4,171.1z"/>
	</g>
	<g>
		<path class="st0" d="M190.4,63c0,0,3.6,4.3,3,5.4c0,0-1.5,9.8-4.3,14.5c0,0-5.7,23.3-8.8,28c-3,4.7-22.9,27.5-22.9,27.5
			s31.9-51.9,29.5-69.2C186.9,69.3,188.9,65.6,190.4,63"/>
	</g>
	<g>
		<path class="st1" d="M184.5,83.3c-0.3,0-0.6-0.1-0.8-0.3l-5.4-6.2c-13,6.1-13.6,5.8-14,5.6c-0.5-0.2-0.7-0.8-0.5-1.3
			c0.2-0.4,0.6-0.6,1-0.6c1.1-0.2,7.6-3.1,13.4-5.8c0.4-0.2,0.9-0.1,1.2,0.3l5.9,6.7c0.4,0.4,0.3,1.1-0.1,1.4
			C185,83.2,184.8,83.3,184.5,83.3z"/>
	</g>
	<g>
		<path class="st1" d="M160.9,112.1c-0.2,0-0.3,0-0.4-0.1c-0.5-0.2-0.7-0.9-0.5-1.4l12.7-25.8c0.2-0.5,0.9-0.7,1.4-0.5
			s0.7,0.9,0.5,1.4l-12.7,25.8C161.7,111.9,161.3,112.1,160.9,112.1z"/>
	</g>
	<g>
		<path class="st1" d="M96,130.1c-0.4,0-0.9-0.3-1-0.7c-0.5-1.8-1.2-6.3-1.2-6.5c-0.1-0.6,0.3-1.1,0.8-1.2c0.6-0.1,1.1,0.3,1.2,0.8
			c0,0,0.7,4.6,1.2,6.3c0.1,0.5-0.2,1.1-0.7,1.3C96.2,130.1,96.1,130.1,96,130.1z"/>
	</g>
	<g>
		<path class="st1" d="M180.3,37.2c-0.3,0-0.7-0.2-0.8-0.5c-0.2-0.4,0.1-0.9,0.5-1.1c1.5-0.6,1.5-3.6,1.5-3.6c0-0.5,0.3-0.9,0.8-0.9
			s0.9,0.3,0.9,0.8c0,0.2,0.1,4.3-2.6,5.3C180.5,37.2,180.4,37.2,180.3,37.2z"/>
	</g>
	<g>
		<path class="st0" d="M103.5,121.3c-1.4-0.2-2.3-1.4-2.1-2.7l1.2-8.5c0.2-1.2-0.7-2.3-2-2.5l-9.4-1.4c-1.3-0.2-2.5,0.6-2.6,1.8
			l-1.2,8.5c-0.2,1.3-1.5,2.2-2.8,2c-1.4-0.2-2.3-1.4-2.1-2.7l1.2-8.5c0.6-3.8,4.3-6.4,8.3-5.8l9.4,1.4c4,0.6,6.8,4.1,6.3,7.9
			l-1.2,8.5C106.1,120.6,104.9,121.5,103.5,121.3"/>
	</g>
	<g>
		<path class="st1" d="M103.9,122.4c-0.2,0-0.4,0-0.5,0l0,0c-0.9-0.1-1.7-0.6-2.3-1.3c-0.6-0.7-0.8-1.6-0.7-2.5l1.2-8.5
			c0.1-0.6-0.4-1.3-1.1-1.4l-9.4-1.4c-0.7-0.1-1.4,0.3-1.5,1l-1.2,8.5c-0.3,1.8-2,3.1-4,2.8c-1.9-0.3-3.3-2-3-3.9l1.2-8.5
			c0.3-2.1,1.5-4,3.3-5.2s4-1.8,6.2-1.4l9.4,1.4c2.2,0.3,4.1,1.4,5.5,3.1s1.9,3.8,1.6,5.9l-1.2,8.5
			C107.1,121.2,105.6,122.4,103.9,122.4z M90.8,105.2c0.2,0,0.3,0,0.5,0l9.4,1.4c1.8,0.3,3.1,1.9,2.9,3.7l-1.2,8.5
			c-0.1,0.3,0,0.7,0.3,1c0.2,0.3,0.6,0.5,1,0.6l0,0c0.8,0.1,1.6-0.4,1.7-1.1l1.2-8.5c0.2-1.6-0.2-3.1-1.2-4.4s-2.5-2.1-4.2-2.4
			l-9.4-1.4c-1.7-0.2-3.3,0.1-4.7,1.1c-1.3,0.9-2.2,2.3-2.4,3.9l-1.2,8.5c-0.1,0.7,0.5,1.4,1.3,1.6c0.8,0.1,1.6-0.4,1.7-1.1l1.2-8.5
			C87.8,106.3,89.2,105.2,90.8,105.2z"/>
	</g>
	<g>
		<path class="st0" d="M129.4,176.9l-79.1-11.5c-2.4-0.4-4.1-2.6-3.7-5l7.2-49.8c0.4-2.4,2.6-4.1,5-3.7l79.1,11.5
			c2.4,0.4,4.1,2.6,3.7,5l-7.2,49.8C134,175.6,131.8,177.3,129.4,176.9"/>
	</g>
	<g>
		<path class="st1" d="M122,172.9L122,172.9c-0.7-0.1-1-0.6-1-1.2l7.3-50.2c0.6-4,3.3-4.8,4.6-4.7c0.6,0,1,0.5,0.9,1.1
			c0,0.6-0.5,1-1.1,0.9c-0.2,0-2,0-2.5,3L123,172C122.9,172.5,122.5,172.9,122,172.9z"/>
	</g>
	<g>
		<path class="st1" d="M124.9,147.8L124.9,147.8l-70.6-10.3c-0.6-0.1-0.9-0.6-0.9-1.2c0.1-0.6,0.6-0.9,1.2-0.9l70.5,10.3
			c0.6,0.1,0.9,0.6,0.9,1.2C125.8,147.4,125.4,147.8,124.9,147.8z"/>
	</g>
	<g>
		<path class="st1" d="M95.4,147.7L95.4,147.7l-19.6-2.8c-0.3,0-0.5-0.2-0.7-0.4s-0.2-0.5-0.2-0.8l0.6-3.9c0.1-0.6,0.6-0.9,1.2-0.9
			c0.6,0.1,0.9,0.6,0.9,1.2L77,143l17.5,2.5l0.4-2.9c0.1-0.6,0.6-0.9,1.2-0.9c0.6,0.1,0.9,0.6,0.9,1.2l-0.6,3.9
			C96.3,147.3,95.9,147.7,95.4,147.7z"/>
	</g>
	<g>
		<path class="st0" d="M165.9,62.1c-33.3-0.8-30.7,0.2-36.8,0.6c-2.3,0.2-9.3,2.9-11.2,5.6c-2.1,3-6.4,7.8-6.4,7.8l-40.4,40.4
			c0,0-2.3,4-1.3,7.3c1.1,3.3,14.4,45.9,14.4,45.9s-0.9,0.4-0.6,1.5c0.2,1.1,0.9,2.2,0.9,2.2l15.6-4.4L96,127.7l25.5-23"/>
	</g>
	<g>
		<path class="st1" d="M127.7,95.3c-0.2,0-0.4,0-0.5-0.1c-0.5-0.3-0.6-0.9-0.3-1.4c7.6-12.5-2-20.1-2.4-20.5c-0.4-0.3-0.5-1-0.2-1.4
			s1-0.5,1.4-0.2c0.1,0.1,11.4,9.1,2.9,23.1C128.4,95.2,128.1,95.3,127.7,95.3z"/>
	</g>
	<g>
		<path class="st0" d="M157.1,139.1c-4.1-11.6-5.3-38.7-5.1-41.4c0.1-2.7,5.9-21.4,5.9-21.4s-0.5-12.7,1.4-14.5
			c2.3-2.3,8.4-3.2,8.4-3.2l-1.6,8.5l-0.1,0.6L157.1,139.1z"/>
	</g>
	<g>
		<path class="st1" d="M145.6,107.5c-0.1,0-0.1,0-0.2,0l-12.9-3.4c-0.2-0.1-0.4-0.2-0.5-0.4c-0.1-0.2-0.1-0.5,0-0.7l1.4-3.8
			c0.2-0.4,0.6-0.6,1-0.5l12.2,3.1c0.4,0.1,0.7,0.5,0.6,1l-0.7,4.1c0,0.2-0.2,0.4-0.4,0.6C145.9,107.4,145.7,107.5,145.6,107.5z
			 M133.8,102.6l11.1,2.9l0.4-2.4l-10.7-2.7L133.8,102.6z"/>
	</g>
	<g>
		<path class="st1" d="M87.9,164.1c-0.4,0-0.7-0.3-0.8-0.6c-0.1-0.5,0.2-0.9,0.6-1l10.4-2.6c0.5-0.1,0.9,0.2,1,0.6
			c0.1,0.5-0.2,0.9-0.6,1l-10.4,2.6C88,164.1,88,164.1,87.9,164.1z"/>
	</g>
	<g>
		<g>
			<g>
				<defs>
					<rect id="SVGID_1_" x="13.2" y="19.1" width="264.5" height="295.3"/>
				</defs>
				<clipPath id="SVGID_2_">
					<use xlink:href="#SVGID_1_"  style="overflow:visible;"/>
				</clipPath>
				<g class="st2">
					<path class="st3" d="M193,66.9l7.8,1.1l67.8-48.9l9.1,11.9l-2.2,1.3l-1.3,4.6l-66.7,56.7l-5,6.1l-5.6,10.4l-12.2,23L171,152.2
						l-1.5,16.3l33.9-1.5c0,0,10,2.8,6.7,14.3l-0.1,3.6c-0.1,1.5-0.5,2.9-1.3,4.2l-48.3,77.1l-2.2,4.8l-15.9-4.3l6.3-7.2l27.8-59.9
						l-46,13.7l-2.8,3.8l-25.5,29.5l-11.7,12.3l-62.3,49.7l-4.8,5.9l-10.2-12.8c19.6-24.2,38.7-42.1,60.4-56.8l14-40.5l-1-7.5
						l1.3-8.7l6.3-1.3l5.9-0.4l2.6-0.4l2-4.3l1.3-2l0.4-5.9c0,0,20.8,2.6,21.2,2.6c0.4,0,4.2-0.3,4.2-0.3l3-3.3l7.2-48.8l-1.6-4.1
						l-2.2-1c0,0-7.7-1.3-8.3-1.3s-17.7-3.6-17.7-3.6L96,127.4l4.1,41.5l-14.6,3.9l-1.6-2.2l0.7-0.7l2.2-1.9l-11.9-43
						c0,0-1.4-5.1,2.5-8.3L120,73.4c0,0,2.6-6.1,11.6-7.2l26.8-1.2c0,0,4.9-2.8,9.1-3.1l-0.8,2l-9.1,73.7l9-14.5l8.4-14.8l10.9-26.6
						c0,0,1.4-11.6,1.6-12.6c0.1-1,3.5-5.6,3.5-5.6l1.7,1.6l0.9,2.5"/>
				</g>
			</g>
		</g>
	</g>
	<g>
		<g>
			<g>
				<defs>
					<rect id="SVGID_3_" x="158.5" y="75.8" width="22.6" height="57.9"/>
				</defs>
				<clipPath id="SVGID_4_">
					<use xlink:href="#SVGID_3_"  style="overflow:visible;"/>
				</clipPath>
				<g class="st4">
					<polyline class="st5" points="175.5,77.9 176.1,85.2 160.9,116.4 158.5,133.7 173,111.3 178.2,86.8 181.1,79.9 178.4,75.8 
						176.1,77.6 					"/>
				</g>
			</g>
		</g>
	</g>
	<g>
		<g>
			<g>
				<defs>
					<rect id="SVGID_5_" x="96" y="114.6" width="42.3" height="58.3"/>
				</defs>
				<clipPath id="SVGID_6_">
					<use xlink:href="#SVGID_5_"  style="overflow:visible;"/>
				</clipPath>
				<g class="st6">
					<path class="st5" d="M110.8,114.6l27.5,4.2l-7.2,52.3c0,0-0.9,1.9-3,1.9l-27.5-3.3L96,127.4L110.8,114.6z"/>
				</g>
			</g>
		</g>
	</g>
	<g>
		<g>
			<g>
				<defs>
					<rect id="SVGID_7_" x="49.5" y="108" width="33.4" height="59.1"/>
				</defs>
				<clipPath id="SVGID_8_">
					<use xlink:href="#SVGID_7_"  style="overflow:visible;"/>
				</clipPath>
				<g class="st7">
					<path class="st5" d="M77.5,110.1L60.8,108c0,0-4.2,0.4-4.2,5.4L49.5,160c0,0-0.2,2.7,5.9,3l27.6,4l-12.6-42l-1-6.1l2-3.5
						L77.5,110.1z"/>
				</g>
			</g>
		</g>
	</g>
	<g>
		<g>
			<g>
				<defs>
					<rect id="SVGID_9_" x="141.6" y="267.1" width="39.1" height="27.2"/>
				</defs>
				<clipPath id="SVGID_10_">
					<use xlink:href="#SVGID_9_"  style="overflow:visible;"/>
				</clipPath>
				<g class="st8">
					<polygon class="st9" points="143.6,267.1 141.6,273.2 142.8,277.5 148.8,280.7 174.9,294.3 179,292.3 180.7,288.8 168.5,285 
						157.8,272.9 					"/>
				</g>
			</g>
		</g>
	</g>
	<g>
		<g>
			<g>
				<defs>
					<rect id="SVGID_11_" x="4.1" y="303" width="25.2" height="39.7"/>
				</defs>
				<clipPath id="SVGID_12_">
					<use xlink:href="#SVGID_11_"  style="overflow:visible;"/>
				</clipPath>
				<g class="st10">
					<path class="st9" d="M12.5,303c0,0-7.8,3.8-8.4,9l11.6,20.3l8.7,9.3l1.7,1.2l3.2-2.3l-2-5.2L20.4,322l-0.3-8.1L12.5,303z"/>
				</g>
			</g>
		</g>
	</g>
	<g>
		<path class="st1" d="M78.9,253.1c-2,0-5.5-2.6-6.6-3.4c-0.4-0.3-0.5-1-0.2-1.4s1-0.5,1.4-0.2c1.5,1.1,3.4,2.3,4.5,2.8
			c-0.6-1.5-2.4-4.3-4.1-6.6c-0.3-0.5-0.2-1.1,0.2-1.4c0.5-0.3,1.1-0.2,1.4,0.2c5.4,7.5,4.8,8.8,4.6,9.2c-0.2,0.4-0.6,0.7-1.1,0.8
			C79.1,253.1,79,253.1,78.9,253.1z M78.3,251.7L78.3,251.7L78.3,251.7z"/>
	</g>
	<g>
		<path class="st1" d="M157.1,140.1c-0.4,0-0.8-0.3-1-0.7c-4.1-11.9-5.3-39.2-5.2-41.8c0.1-2.6,5.1-18.9,5.9-21.5
			c-0.1-3.3-0.3-13.2,1.7-15.1c2.5-2.5,8.7-3.4,9-3.5s0.7,0.1,0.9,0.3s0.3,0.6,0.3,0.9l-1.7,9.1l-8.8,71.3c-0.1,0.5-0.4,0.8-0.9,0.9
			C157.2,140.1,157.2,140.1,157.1,140.1z M166.4,59.9c-2,0.4-5.1,1.3-6.4,2.6c-0.9,0.9-1.3,7.8-1.1,13.8c0,0.1,0,0.2,0,0.3
			c-2.3,7.5-5.8,19.3-5.9,21.2c-0.1,2.2,0.8,23.2,3.7,36.2l8.2-66.4l0.1-0.7L166.4,59.9z"/>
	</g>
	<g>
		<path class="st1" d="M178.7,87.2c-0.1,0-0.1,0-0.2,0l-5-0.9c-0.4-0.1-0.8-0.4-0.8-0.9l-0.7-6.1c-0.1-0.6,0.3-1.1,0.9-1.1
			c0.6-0.1,1.1,0.3,1.1,0.9l0.6,5.3l3.5,0.6l2.7-6c0.2-0.5,0.8-0.7,1.3-0.5s0.7,0.8,0.5,1.3l-3,6.7C179.4,87,179.1,87.2,178.7,87.2z
			"/>
	</g>
	<g>
		<path class="st1" d="M172.6,113c-0.1,0-0.1,0-0.2,0c-0.5-0.1-0.9-0.7-0.8-1.2L177,86c0.1-0.6,0.7-0.9,1.2-0.8s0.9,0.7,0.8,1.2
			l-5.4,25.8C173.5,112.7,173.1,113,172.6,113z"/>
	</g>
	<g>
		<path class="st1" d="M157.4,139.4c-0.2,0-0.4-0.1-0.6-0.2c-0.4-0.3-0.5-0.9-0.3-1.4c0.3-0.5,31.7-51.8,29.3-68.5
			c0-0.2,0-0.4,0.1-0.6c0,0,2-3.7,3.5-6.3c0.2-0.3,0.5-0.5,0.8-0.5s0.7,0.1,0.9,0.4c2.5,3,3.6,5.1,3.3,6.3c-0.2,1-1.7,10-4.4,14.7
			c-0.5,2.1-5.9,23.5-8.9,28.1c-3,4.7-22.2,26.7-23,27.6C158,139.3,157.7,139.4,157.4,139.4z M188,69.4
			c1.5,13.1-14.8,43.8-23.9,59.7c6-7,13.6-16.1,15.4-18.8c2.9-4.5,8.6-27.4,8.6-27.7c0-0.1,0.1-0.2,0.1-0.3
			c2.7-4.5,4.2-14.1,4.2-14.2s0-0.1,0-0.2c0-0.5-0.9-1.9-1.9-3.3C189.5,66.7,188.4,68.7,188,69.4z M192.5,68L192.5,68L192.5,68z"/>
	</g>
	<g>
		<path class="st1" d="M278.9,30.6l-11.5-15.4c-0.3-0.4-1-0.5-1.4-0.2l-65.2,48.7c-0.4,0.3-0.5,0.9-0.2,1.4c0.3,0.4,0.9,0.5,1.4,0.2
			l64.5-48l10,13.5l-2.1,0.7c-0.4,0.1-0.6,0.4-0.7,0.8l-0.6,4c-25.5,22.3-63.9,55.7-66.3,57.1c-0.2,0.1-0.3,0.2-0.4,0.3l-5,6.1
			c-0.1,0-0.2,0.1-0.2,0.2c-6.5,15.5-22.7,41.5-31.7,52.7c-0.1,0.2-0.2,0.3-0.2,0.5c-0.1,0.2-0.9,4.9-0.9,14.3l-1.7,0.2
			c0.3,0,0.7,0,1,0.1c0.9-0.1,1.8-0.1,2.7-0.2c0-8,0.6-12.8,0.8-13.8c9.1-11.4,25.2-37.3,31.8-52.9l4.8-5.9
			c5.1-3.5,52.1-44.6,66.8-57.5c0.1-0.1,0.3-0.4,0.3-0.6l0.6-3.7l2.9-0.9c0.4-0.1,0.6-0.4,0.7-0.7C279.2,31.2,279.1,30.9,278.9,30.6
			z"/>
	</g>
	<g>
		<path class="st0" d="M187.4,68.6l4.7-9.6h9.8c0.8,0,1.5-0.4,1.8-1.1c6-10.8,0.4-29.5,0.4-29.5s7-5.9,3.6-11.5
			c0,0-8.5,5.6-13.8,4.4c-5.3-1.1-27.4-3.1-24.1,16.8l-0.1,15.5l-3.5,13.5l12.4,8L187.4,68.6z"/>
	</g>
	<g>
		<path class="st1" d="M266.4,31.9c-0.3,0-0.6-0.1-0.7-0.4l-6.1-9.6c-0.3-0.4-0.1-0.9,0.3-1.2c0.4-0.3,0.9-0.1,1.2,0.3l6.1,9.6
			c0.3,0.4,0.1,0.9-0.3,1.2C266.7,31.8,266.6,31.9,266.4,31.9z"/>
	</g>
	<g>
		<path class="st1" d="M181.9,44.5c-0.4,0-0.7-0.3-0.7-0.6c-0.1-1.7-1-2.4-1.1-2.5c-0.3-0.2-0.4-0.6-0.1-0.9
			c0.2-0.3,0.6-0.4,0.9-0.2c0.1,0,1.5,1.1,1.6,3.5C182.6,44.1,182.3,44.4,181.9,44.5C182,44.5,181.9,44.5,181.9,44.5z"/>
	</g>
	<g>
		<path class="st1" d="M195.8,37.6c0.1,1.2-0.5,2.2-1.2,2.2c-0.8,0-1.4-0.9-1.5-2.1c-0.1-1.2,0.5-2.2,1.2-2.2S195.7,36.4,195.8,37.6
			"/>
	</g>
	<g>
		<path class="st1" d="M202.6,35.8c0.2,1.1-0.1,2-0.7,2.2c-0.6,0.1-1.3-0.6-1.5-1.7c-0.2-1.1,0.1-2,0.7-2.2
			C201.7,34,202.3,34.8,202.6,35.8"/>
	</g>
	<g>
		<path class="st1" d="M198.8,45.3c-0.3,0-0.6-0.2-0.8-0.5c-0.2-0.4,0-0.9,0.4-1.1c0.8-0.4,1.6-0.7,2.1-1c-0.5-1-1.7-3-2.3-4.2
			c-0.8-1.3-1.1-1.8-1.1-2.1c-0.2-0.4,0-0.9,0.5-1.1c0.4-0.2,0.9,0,1.1,0.5c0.1,0.2,0.6,1.1,1.1,1.9c3,5.2,3.3,5.7,2.3,6.2
			c-0.3,0.2-2.4,1.2-2.8,1.4C199,45.3,198.9,45.3,198.8,45.3z M200.7,43.2L200.7,43.2L200.7,43.2z"/>
	</g>
	<g>
		<g>
			<g>
				<defs>
					<rect id="SVGID_13_" x="170.3" y="16.9" width="37.4" height="37.1"/>
				</defs>
				<clipPath id="SVGID_14_">
					<use xlink:href="#SVGID_13_"  style="overflow:visible;"/>
				</clipPath>
				<g class="st11">
					<path class="st3" d="M170.3,54l1.7-14.3c0,0-3.3-14.9,11.6-16.4c0,0,9.5-1.2,11.7-1.2c0,0,6.3-2.4,12.3-5.2
						c0,0-2.6,9.9-7.9,10.5l-6.4,3.9l-7.5,1c0,0-0.6,4-3.4,5c-2.8,1.1-0.2,0.5-0.2,0.5s-5.2-2.9-5.1,3.2c0,0-0.3,3.6,2.5,5.4
						c0,0-2.9,8.1-2.9,7.7C176.6,53.5,170.3,54,170.3,54"/>
				</g>
			</g>
		</g>
	</g>
	<g>
		<g>
			<g>
				<defs>
					<rect id="SVGID_15_" x="189.1" y="47.8" width="9" height="4.4"/>
				</defs>
				<clipPath id="SVGID_16_">
					<use xlink:href="#SVGID_15_"  style="overflow:visible;"/>
				</clipPath>
				<g class="st12">
					<path class="st13" d="M190.3,47.8c0,0,7.7,0.9,7.8,2.5c0.1,1.7-0.9,1-3.6,1.8C191.8,52.9,186.8,48.5,190.3,47.8"/>
				</g>
			</g>
		</g>
	</g>
	<g>
		<path class="st1" d="M173.6,50.1c-0.4,0-0.7,0.2-0.8,0.6l-0.6,3.8c0,0.4,0.2,0.7,0.6,0.8h0.1c0.3,0,0.6-0.3,0.7-0.6l0.6-3.8
			C174.2,50.5,174,50.2,173.6,50.1z"/>
		<path class="st1" d="M200.9,25.2c-0.5-0.3-1.1-0.2-1.4,0.3c-2.9,4.6-10.5,4.9-12.7,4.9c0-0.2,0-0.4,0-0.4c0-0.4-0.3-0.8-0.8-0.8
			c-0.4,0-0.8,0.4-0.8,0.9c0,0-0.1,5.5-2.8,6.3c-0.6-0.3-2.2-0.9-3.7-0.4c-1,0.4-1.7,1.1-2.2,2.3c-1.1,2.7-0.5,5.5,1.6,7.8l-2.8,8.2
			c-0.2,0.5,0.1,1.1,0.6,1.3c0.1,0.1,0.2,0.1,0.3,0.1c0.4,0,0.8-0.2,1-0.7l2.5-7.4c0.3,0.2,0.6,0.4,0.9,0.7c0.2,0.1,0.3,0.1,0.5,0.1
			c0.3,0,0.5-0.1,0.6-0.3c0.3-0.4,0.2-0.9-0.2-1.2c-3.3-2.2-4.6-5.2-3.5-8c0.3-0.7,0.7-1.1,1.2-1.3c0.9-0.4,2.2,0.2,2.6,0.4
			c0.2,0.1,0.4,0.1,0.6,0.1c2.7-0.6,3.8-3.4,4.2-5.6c0.1,0,0.3,0,0.4,0c2.8,0,10.8-0.4,14.2-5.9C201.5,26.1,201.4,25.5,200.9,25.2z"
			/>
	</g>
	<g>
		<path class="st1" d="M193.8,52.7c-1.5,0-3.2-1.1-4.3-2.2c-0.5-0.5-2.2-2.4-1.8-4c0.1-0.4,0.5-1.2,1.7-1.4c0.1,0,0.2,0,0.3,0
			c9.9,1.2,10,3,10,3.6c0.1,2.4-2.6,3.2-5.1,4C194.3,52.6,194.1,52.7,193.8,52.7z M189.7,46.7c-0.1,0-0.3,0.1-0.3,0.2
			c-0.1,0.3,0.3,1.3,1.3,2.3c1.2,1.2,2.7,1.9,3.4,1.7c2.6-0.8,3.9-1.3,3.9-2.2C197.4,48.1,193.7,47.2,189.7,46.7z"/>
	</g>
	<g>
		<path class="st1" d="M178.5,76.1c-0.2,0-0.4-0.1-0.6-0.2l-12.4-8c-0.4-0.2-0.5-0.7-0.4-1.1l3.5-13.4l0.1-15.3
			c-1-6,0.2-10.7,3.6-13.9c5.8-5.5,16.8-5,21.8-4c4,0.8,10.8-2.8,13.1-4.3c0.2-0.1,0.5-0.2,0.8-0.1c0.3,0.1,0.5,0.2,0.6,0.5
			c3.3,5.4-1.6,10.8-3.3,12.4c1,3.4,5,19.7-0.6,29.7c-0.6,1-1.6,1.6-2.7,1.6h-9.2l-4.4,9c-0.1,0.1-0.2,0.3-0.3,0.4l-8.9,6.5
			C178.9,76.1,178.7,76.1,178.5,76.1z M167.2,66.6l11.2,7.2l8.1-6l4.6-9.3c0.2-0.3,0.5-0.6,0.9-0.6h9.8c0.4,0,0.8-0.2,0.9-0.6
			c5.8-10.3,0.3-28.6,0.3-28.7c-0.1-0.4,0-0.8,0.3-1.1c0.1-0.1,5.6-4.8,3.8-9.3c-2.5,1.5-9,5-13.6,4c-3.7-0.8-14.6-1.7-20,3.4
			c-2.8,2.7-3.8,6.8-2.9,12.2c0,0.1,0,0.1,0,0.2l-0.1,15.5c0,0.1,0,0.2,0,0.2L167.2,66.6z M187.4,68.6L187.4,68.6L187.4,68.6z"/>
	</g>
	<g>
		<path class="st1" d="M141.6,119.4c-0.9-1.1-2.2-1.9-3.6-2.1l-26.1-3.8c-0.5,0.8-1,1.4-1.6,2l27.4,4c0.9,0.1,1.7,0.6,2.2,1.3
			c0.5,0.7,0.7,1.6,0.6,2.5l-7.2,49.8c-0.1,0.9-0.6,1.7-1.3,2.2s-1.6,0.7-2.5,0.6l-36-5.1c-1,0.6-2,1.1-3.1,1.5l38.8,5.6
			c0.3,0.1,0.5,0.1,0.8,0.1c1.2,0,2.3-0.4,3.3-1.2c1.1-0.9,1.9-2.2,2.1-3.6l7.2-49.8C142.8,122,142.5,120.6,141.6,119.4z"/>
		<path class="st1" d="M83.9,169.4l-33.5-4.8c-1.9-0.3-3.2-2-2.9-3.9l7.2-49.8c0.3-1.9,2-3.2,3.9-2.9l18.1,2.6
			c0.1-0.1,0.1-0.2,0.2-0.2c0,0,0,0,0,0c0.1-0.1,0.2-0.1,0.3-0.2c0.6-0.6,1.2-1.1,1.8-1.4l-20.1-2.9c-3-0.4-5.8,1.6-6.2,4.6
			l-7.2,49.8c-0.4,3,1.6,5.8,4.6,6.2l34.3,5C84.1,170.8,83.9,170.2,83.9,169.4z"/>
	</g>
	<g>
		<path class="st1" d="M159.3,61.8c0.3-0.3,0.6-0.6,0.9-0.9c-21.3-0.4-25,0.1-28.2,0.4c-0.9,0.1-1.8,0.2-3,0.3
			c-2.4,0.1-9.8,2.9-12,6c-2,2.9-6.3,7.6-6.3,7.6l-40.4,40.4c-0.1,0.1-0.2,0.1-0.2,0.2c-0.1,0.2-2.5,4.4-1.3,8.1
			c1,3,12.5,40,14.1,45.3c-0.4,0.4-0.7,1.1-0.5,2c0.3,1.2,1,2.4,1,2.5c0.2,0.3,0.5,0.5,0.9,0.5c0.1,0,0.2,0,0.4-0.1l15.6-4.4
			c0.4-0.2,0.7-0.6,0.7-1.1L97,128.1l25.1-22.8c0.4-0.3,0.5-1,0.1-1.4c-0.3-0.4-1-0.5-1.4-0.1l-25.5,23c-0.2,0.3-0.3,0.6-0.3,0.9
			l4,40.3l-14,4c-0.2-0.4-0.3-0.8-0.4-1.2c0-0.1-0.1-0.3,0.1-0.4c0.4-0.2,0.6-0.7,0.5-1.2c-0.2-0.4-13.3-42.7-14.4-45.9
			c-0.8-2.5,0.8-5.7,1.1-6.3l40.6-40.2c0.2-0.2,4.4-4.9,6.5-7.9c1.6-2.4,8.1-5,10.4-5.2c1.3-0.1,2.2-0.2,3.1-0.3
			c3.1-0.4,6.5-0.9,26.3-0.5C158.9,62.5,159.1,62.2,159.3,61.8z"/>
	</g>
	<g>
		<path class="st1" d="M205,166.3c-5.2-1-43.4,1.3-69.4,3.1c0,0.6-0.2,1.3-0.7,2c0,0,0,0,0,0c25.9-1.7,64.5-4.1,69.5-3.1
			c11.2,2.2,10.4,8.5,9.5,16.5c-0.1,0.9-0.2,1.8-0.3,2.8c-0.4,4.7-30.3,48.8-50.2,77.3c0,0-0.1,0.1-0.1,0.2l-1.3,3.5l-1,3.3
			l-17.2-5.7l5.7-8c0-0.1,0.1-0.1,0.1-0.2c9.4-21.9,18.4-39.5,25.7-53.7l2-4c0.2-0.3,0.2-0.8-0.1-1.1s-0.7-0.4-1.1-0.3l-49,14.8
			c-29,5.7-38.1-16.3-38.7-18c-1.4-6.9,2.4-11.9,3.1-12.8l17.3-8.5c-0.9-0.1-1.7-0.2-2.6-0.2c-0.3,0-0.6-0.1-0.9-0.1l-14.7,7.2
			c-0.1,0-0.2,0.1-0.3,0.2c-0.2,0.2-5.5,6.1-3.7,14.8v0.1c0.1,0.2,2.4,6.5,8.7,12c5.8,5.1,16.1,10.5,32.4,7.3h0.1l46.8-14.1
			l-0.9,1.8c-7.3,14.2-16.3,31.8-25.8,53.8l-6.5,9c-0.1,0.3-0.2,0.6-0.1,0.9c0.1,0.3,0.3,0.5,0.6,0.6l19.5,6.5
			c0.1,0.1,0.2,0.1,0.3,0.1c0.2,0,0.4-0.1,0.5,0c0.2-0.1,0.4-0.3,0.5-0.6l1.3-4.3l1.3-3.4c5.5-7.8,49.9-71.5,50.5-78.1
			c0.1-0.9,0.2-1.9,0.3-2.8C217,177,218,168.8,205,166.3z"/>
	</g>
	<g>
		<path class="st0" d="M100.1,168.8c0,0,0.9,4.4,1.6,4.4s4.9,0.3,4.9,0.3s0.2,6.7-1.3,6.7c0,0-2.6,5.9-3.9,5.6
			c-1.3-0.2-6.5,0.7-6.5,0.7s-5.6,2.2-6.7,0.2s-3.3-2.6-3.3-3.7c0-1.1,0.9-9.6,0.9-9.6L100.1,168.8z"/>
	</g>
	<g>
		<path class="st1" d="M90.2,188.6c-1.3,0-2.4-0.3-3-1.3c-0.4-0.8-1.2-1.4-1.8-1.9c-0.8-0.6-1.6-1.3-1.6-2.3c0-1.1,0.8-8.8,0.9-9.7
			c0-0.4,0.3-0.7,0.7-0.9l14.3-4.6c0.3-0.1,0.6-0.1,0.8,0.1c0.2,0.1,0.4,0.4,0.5,0.7c0.3,1.5,0.8,3,1,3.6c1.2,0.1,4.2,0.3,4.5,0.3
			c0.5,0,0.9,0.5,0.9,1c0.1,1.7,0.1,5.9-1.2,7.2c-0.1,0.1-0.3,0.2-0.4,0.3c-2.8,6.2-4.3,5.9-4.8,5.8c-0.8-0.1-4,0.3-6.1,0.6
			C94.2,187.9,92,188.6,90.2,188.6z M86.7,174.2c-0.3,3.4-0.8,8.1-0.8,8.8c0.1,0.1,0.5,0.5,0.8,0.7c0.7,0.6,1.6,1.3,2.3,2.5
			c0.3,0.6,3,0.3,5.5-0.7c0.1,0,0.1,0,0.2-0.1c0.9-0.1,5.1-0.8,6.7-0.7c0.6-0.4,2-2.7,3-5c0.1-0.3,0.4-0.5,0.7-0.6
			c0.3-0.6,0.6-2.6,0.6-4.7c-1.6-0.1-3.5-0.2-3.9-0.2c-0.6,0-1.3,0-2.3-4.1L86.7,174.2z M102.2,172.5L102.2,172.5L102.2,172.5z"/>
	</g>
	<g>
		<path class="st1" d="M26.7,344.5c-2.1,0-5.9-2.9-14.6-15.9c-5.3-7.9-10.2-16.2-10.8-17.2c-0.3-0.3-0.9-1.2-0.8-2.6
			c0.3-2.7,3.3-5.8,8.9-9.1c0.6-0.4,1.5-0.3,2,0.2l9.9,9.4c0.3,0.3,0.5,0.7,0.5,1.2c0,1.5,0,9.1,0.4,11.7c0.3,2.2,4.1,9.2,6.3,13
			c0.5,0.5,2.4,3,1.9,5.5c-0.3,1.4-1.2,2.5-2.7,3.4C27.4,344.4,27.1,344.5,26.7,344.5z M10.2,301.6c-6.4,3.8-7.6,6.2-7.7,7.4
			c-0.1,0.7,0.2,1,0.2,1c0.1,0.1,0.1,0.2,0.2,0.2c0.1,0.1,5.2,8.9,10.8,17.2c10.7,16,13,15,13.1,15c1-0.5,1.5-1.2,1.7-2
			c0.2-1.4-0.8-3.1-1.5-3.8c-0.1-0.1-0.1-0.1-0.2-0.2c-1.5-2.5-6.2-10.9-6.6-13.8c-0.4-2.7-0.4-10-0.4-11.9L10.2,301.6z M19.8,310.9
			L19.8,310.9L19.8,310.9z M19.7,310.6L19.7,310.6L19.7,310.6z M10,301.4C10,301.5,10,301.5,10,301.4L10,301.4z"/>
	</g>
	<g>
		<path class="st1" d="M129.6,214.5c-12.7,14.2-32.8,36.7-34.2,38.8c-1.5,2.2-14,13.2-64.5,52.5c-2,1.5-3.3,2.5-3.6,2.8
			c-0.2,0-0.2,0-0.9,1c-0.7,0.9-2.4,3.1-3.4,4.3l-11.4-13.7l2.2-3.4c0.6-0.4,1.9-1.3,2.7-2.3c26.1-33.3,54.9-51.8,55.2-52
			c0.2-0.1,0.3-0.3,0.4-0.5l15.5-45.3c-0.7-0.7-0.2-3.1-0.5-4l-17,48.2c-3.2,2.1-30.5,20.5-55.4,52.3c-0.5,0.7-1.4,1.4-2.2,1.9
			c-0.2,0.1-0.4,0.3-0.5,0.5l-2.3,3.8c-0.4,0.6-0.3,1.5,0.2,2L22.1,316c0.2,0.3,0.5,0.4,0.8,0.4c0.6,0,0.7,0,5.1-5.5
			c0.3-0.4,0.5-0.7,0.6-0.8c0.4-0.4,1.6-1.4,3.5-2.8c41.3-32.2,62.5-49.5,64.9-53c1.3-2,20.5-23.6,35.4-40.2
			C131.5,214.3,130.6,214.4,129.6,214.5C129.7,214.5,129.6,214.5,129.6,214.5z"/>
		<path class="st1" d="M13.7,296.7L13.7,296.7L13.7,296.7z"/>
	</g>
</g>
</svg>
