<?xml version="1.0" encoding="utf-8"?>
<!-- Generator: Adobe Illustrator 22.0.1, SVG Export Plug-In . SVG Version: 6.00 Build 0)  -->
<svg version="1.1" id="圖層_1" xmlns="http://www.w3.org/2000/svg" xmlns:xlink="http://www.w3.org/1999/xlink" x="0px" y="0px"
	 width="175px" height="344px" viewBox="0 0 175 344" style="enable-background:new 0 0 175 344;" xml:space="preserve">
<style type="text/css">
	.st0{fill:#FFFFFF;}
	.st1{fill:#717071;}
	.st2{fill:#231815;}
	.st3{clip-path:url(#SVGID_2_);}
	.st4{fill:#333333;}
	.st5{clip-path:url(#SVGID_4_);}
	.st6{clip-path:url(#SVGID_6_);}
	.st7{clip-path:url(#SVGID_8_);}
	.st8{fill:#00A83C;}
	.st9{clip-path:url(#SVGID_10_);}
	.st10{clip-path:url(#SVGID_12_);}
	.st11{fill:#FFDB00;}
	.st12{clip-path:url(#SVGID_14_);}
	.st13{clip-path:url(#SVGID_16_);}
	.st14{clip-path:url(#SVGID_18_);}
	.st15{clip-path:url(#SVGID_20_);}
	.st16{clip-path:url(#SVGID_22_);}
	.st17{clip-path:url(#SVGID_24_);}
	.st18{clip-path:url(#SVGID_26_);}
	.st19{clip-path:url(#SVGID_28_);}
	.st20{clip-path:url(#SVGID_30_);}
	.st21{clip-path:url(#SVGID_32_);}
	.st22{fill:#7F7F7F;}
	.st23{clip-path:url(#SVGID_34_);}
</style>
<g>
	<g>
		<path class="st0" d="M151.5,87.4c-17.6-26-25.5-24-25.5-24L116,62l-10.6-2.7l-0.9-17.9h-1.3l-13.5,0.8l-7.2,2.2l0.1,14.9L81,60.9
			l-14,4.8L53.8,71l-9.9,12l-3.7,24.5l13.6,21.4l9.3,47.5c1.5-0.2,2.9-0.4,4.4-0.6c0.5-1.3,1.6-2.4,3.4-2.9
			c5.8-1.7,11.9-2.3,17.9-3.2c2.3-0.3,4.5,0.3,5.8,2c1.2-0.2,2.5-0.4,3.8-0.6c9.4-1.4,19.9-1.6,29.1,1.3c1.5,0.5,2.5,1.3,3.1,2.4
			l4.1,0.7l-2.9-10.7l-4.8-3.1l-5.1-20.1l5.1-46.7l27,20.6l11,18.4l7.3,0.1l1.1-13C173.1,120.9,169.1,113.4,151.5,87.4z"/>
	</g>
	<g>
		<polygon class="st1" points="64.5,179.6 54.6,323 77,323.1 90.6,179 98.9,176.8 118.7,323 139.7,323 131.1,174.6 112.7,173 
			106.7,169.9 82.3,172.1 		"/>
	</g>
	<g>
		<path class="st2" d="M155.7,343.3c-3.4,0-8.1-0.3-14.6-1.2c-9.9-1.3-19.7-3.1-20.9-3.4c-0.5,0-1.6-0.1-2.6-1.2
			c-2-2.1-2.3-6.5-1-13.2c0.1-0.8,0.8-1.4,1.6-1.4l14.2-1.2c0.5,0,0.9,0.1,1.3,0.4c1.2,1,7.1,6.2,9.5,7.7c1.7,1.1,8.5,2.8,14.6,4
			c0.7,0,4,0.2,5.6,2.3c0.9,1.2,1.2,2.7,0.8,4.5C163.8,342,162.3,343.3,155.7,343.3z M120.2,336.6c0.1,0,0.2,0,0.2,0
			c0.1,0,10.5,2.1,20.9,3.4c19.9,2.5,20.7,0.1,20.7,0.1c0.3-1.1,0.1-2-0.4-2.7c-0.9-1.1-3-1.5-4-1.5c-0.1,0-0.2,0-0.3,0
			c-3-0.6-12.8-2.6-15.4-4.3c-2.4-1.6-8.2-6.6-9.6-7.8l-13.8,1.2c-1.4,7.5-0.3,10.1,0.5,11C119.5,336.6,120,336.6,120.2,336.6
			C120.1,336.6,120.1,336.6,120.2,336.6z M157.7,333.8L157.7,333.8L157.7,333.8z M118.6,324.8L118.6,324.8L118.6,324.8z
			 M132.2,323.7L132.2,323.7L132.2,323.7z M132.4,322.8L132.4,322.8L132.4,322.8z"/>
	</g>
	<g>
		<g>
			<g>
				<g>
					<defs>
						
							<rect id="SVGID_1_" x="126.5" y="313.8" transform="matrix(0.659 -0.7521 0.7521 0.659 -203.9737 219.0931)" width="26.3" height="41.4"/>
					</defs>
					<clipPath id="SVGID_2_">
						<use xlink:href="#SVGID_1_"  style="overflow:visible;"/>
					</clipPath>
					<g class="st3">
						<path class="st4" d="M121.2,324.1c0,0-2.4,8.7,1.3,12.8l23.9,4.8l13.2-0.4l2.1-0.6l0.4-4.1l-5.5-2l-15.2-3.7l-6.6-5.3
							L121.2,324.1z"/>
					</g>
				</g>
			</g>
		</g>
	</g>
	<g>
		<path class="st2" d="M38.6,343.3c-6.6,0-8.1-1.3-8.4-2.8c-0.4-1.8-0.1-3.3,0.8-4.5c1.7-2.1,4.9-2.3,5.6-2.3
			c6.1-1.2,12.9-2.9,14.6-4c2.4-1.5,8.3-6.7,9.5-7.7c0.4-0.3,0.8-0.5,1.3-0.4l14.2,1.2c0.8,0.1,1.4,0.7,1.6,1.4
			c1.3,6.7,1,11.1-1,13.2c-1,1.1-2.1,1.2-2.6,1.2c-1.2,0.2-11.1,2.1-20.9,3.4C46.7,343,42,343.3,38.6,343.3z M61.9,323.8
			c-1.4,1.3-7.2,6.3-9.6,7.8c-2.6,1.7-12.4,3.7-15.4,4.3c-0.1,0-0.2,0-0.3,0c-1.1,0-3.1,0.3-4,1.5c-0.5,0.6-0.6,1.5-0.4,2.7
			c0,0,0.8,2.5,20.7-0.1c10.4-1.3,20.8-3.4,20.9-3.4c0.1,0,0.2,0,0.3,0c0,0,0.5,0,1-0.6c0.8-0.9,1.9-3.5,0.5-11L61.9,323.8z
			 M76,325.1L76,325.1L76,325.1z M75.6,324.8L75.6,324.8L75.6,324.8z M62.1,323.7L62.1,323.7L62.1,323.7z"/>
	</g>
	<g>
		<g>
			<g>
				<g>
					<defs>
						
							<rect id="SVGID_3_" x="33.9" y="321.3" transform="matrix(0.7521 -0.659 0.659 0.7521 -206.8601 118.8661)" width="41.4" height="26.3"/>
					</defs>
					<clipPath id="SVGID_4_">
						<use xlink:href="#SVGID_3_"  style="overflow:visible;"/>
					</clipPath>
					<g class="st5">
						<path class="st4" d="M73,324.1c0,0,2.4,8.7-1.3,12.8l-23.9,4.8l-13.2-0.4l-2.1-0.6l-0.4-4.1l5.5-2l15.2-3.7l6.6-5.3L73,324.1z
							"/>
					</g>
				</g>
			</g>
		</g>
	</g>
	<g>
		<path class="st2" d="M77,324.2L77,324.2H52.4c-0.6,0-1.1-0.5-1.1-1.1v-10.5L56.5,205c0-0.3,1.1-32.3,1.1-34.3
			c0-2.1,0.3-8.2,0.4-8.5c0-0.6,0.6-1.1,1.2-1c0.6,0,1.1,0.6,1,1.2c0,0.1-0.3,6.3-0.3,8.4c0,2.1-1,33.1-1.1,34.4l-5.2,107.5v9.4
			h22.5l2-14.5L89.5,179c0-0.5,0.4-0.9,0.9-1l4.2-0.7c0.5-0.1,1,0.2,1.2,0.6c3.2,7,3.9,14.4,4.6,21.5c0.4,4.1,0.8,8.3,1.7,12.4
			c5.3,25.3,6.9,45.7,8.2,62c0.7,8.2,1.2,15.3,2.1,21.9c1.6,11.6,3.2,19.7,4,24c0.2,1,0.3,1.7,0.4,2.2h21.7l-4.3-96.7
			c-1.3-24.3-4.2-50.2-4.2-50.5c-0.1-0.6,0.4-1.1,1-1.2c0.6-0.1,1.1,0.4,1.2,1c0,0.3,2.9,26.2,4.2,50.6l4.3,97.9
			c0,0.3-0.1,0.6-0.3,0.8c-0.2,0.2-0.5,0.3-0.8,0.3h-23.5c-0.5,0.1-1-0.1-1.3-0.5c-0.1-0.2-0.2-0.5-0.1-0.8
			c-0.1-0.5-0.3-1.5-0.5-2.7c-0.8-4-2.4-12.5-4-24.1c-0.9-6.6-1.5-13.8-2.1-22c-1.3-16.3-2.9-36.6-8.2-61.8
			c-0.9-4.3-1.3-8.5-1.7-12.7c-0.7-7-1.3-13.5-4.1-20l-2.5,0.4L80.2,307.8l-2.1,15.5C78,323.8,77.5,324.2,77,324.2z M53.5,323
			L53.5,323L53.5,323z"/>
	</g>
	<g>
		<path class="st2" d="M89.3,183.4c-0.1,0-0.2,0-0.2,0c-1.6-0.4-2.9-1.2-4.3-1.9c-1.1-0.7-2.2-1.3-3.2-1.6c-0.6-0.2-0.9-0.8-0.7-1.4
			c0.2-0.6,0.8-0.9,1.4-0.7c1.3,0.4,2.6,1.1,3.7,1.8c1.2,0.7,2.4,1.4,3.7,1.7c0.6,0.1,1,0.7,0.8,1.3
			C90.3,183.1,89.8,183.4,89.3,183.4z"/>
	</g>
	<g>
		<path class="st2" d="M82.3,188.9c-0.5,0-1-0.4-1.1-0.9c-0.1-0.6,0.3-1.2,0.9-1.3c1.3-0.2,2.6-0.8,4-1.4c0.9-0.4,1.8-0.8,2.8-1.2
			c0.6-0.2,1.2,0.1,1.4,0.7c0.2,0.6-0.1,1.2-0.7,1.4c-0.9,0.3-1.8,0.7-2.6,1.1c-1.5,0.7-3,1.3-4.6,1.6
			C82.4,188.9,82.3,188.9,82.3,188.9z"/>
	</g>
	<g>
		<path class="st2" d="M95.9,181.7c-0.5,0-1-0.4-1.1-0.9c-0.1-0.6,0.3-1.2,0.9-1.3c2.8-0.5,6.3-0.6,8.7-0.5c0.6,0,1.1,0.5,1.1,1.1
			s-0.5,1.1-1.1,1.1c-0.1,0-0.3,0-0.4,0c-2.3,0-5.4,0.1-7.9,0.5C96,181.7,95.9,181.7,95.9,181.7z"/>
	</g>
</g>
<g>
	<path class="st0" d="M73.7,29c0,0-4.6-1.8-4.6,0s-0.4,9.1,8.8,10.2"/>
</g>
<g>
	<path class="st2" d="M77.9,40.3L77.9,40.3c-4.6-0.5-9.9-2.9-9.8-11.1V29c0-0.6,0.3-1.1,0.8-1.5c1.3-0.9,4.1,0,5.3,0.5
		c0.6,0.2,0.8,0.9,0.6,1.4c-0.2,0.6-0.9,0.8-1.4,0.6c-1.1-0.4-2.5-0.7-3.1-0.7c0,3.4,0.8,8,7.8,8.8c0.6,0.1,1,0.6,1,1.2
		C79,39.8,78.5,40.3,77.9,40.3z M70.3,29L70.3,29L70.3,29z"/>
</g>
<g>
	<path class="st0" d="M107.5,23.6c0,0,3.9-3,4.4-1.3s3,8.6-5.5,12.3"/>
</g>
<g>
	<path class="st2" d="M106.4,35.7c-0.4,0-0.8-0.2-1-0.7c-0.2-0.6,0-1.2,0.6-1.4c6.4-2.8,5.9-7.4,5-10.6c-0.6,0.2-1.8,0.8-2.7,1.6
		c-0.5,0.4-1.2,0.3-1.5-0.2c-0.4-0.5-0.3-1.2,0.2-1.5c1-0.8,3.4-2.5,4.9-2c0.6,0.2,1,0.6,1.2,1.2l0.1,0.2c2.4,7.9-2,11.6-6.2,13.4
		C106.7,35.6,106.5,35.7,106.4,35.7z M110.8,22.6L110.8,22.6L110.8,22.6z"/>
</g>
<g>
	<path class="st0" d="M106,18.1c4.9,29.1-11.9,32.3-11.9,32.3c-18.6-3.2-21.8-27-21.8-27S70.2,8.6,77.2,6.9c7-1.8,19.7-8.8,27-2.1
		C111.6,11.4,106,18.1,106,18.1"/>
</g>
<g>
	<g>
		<g>
			<g>
				<defs>
					<rect id="SVGID_5_" x="74.2" y="5.2" width="31.4" height="19.4"/>
				</defs>
				<clipPath id="SVGID_6_">
					<use xlink:href="#SVGID_5_"  style="overflow:visible;"/>
				</clipPath>
				<g class="st6">
					<path class="st1" d="M74.5,24.6c0,0-1.6-10.7,2.4-13.9l11.8-4.2c0,0,18.7-6.8,16,11.1l0.8,3.5c0,0-6.2,2.4-9.4,0
						c-3.2-2.4,0.5,1.1,0.5,1.1s-3.2,1.3-7-0.8c0,0-4.6,2.1-11-5.4C78.8,16,77.8,24,74.5,24.6"/>
				</g>
			</g>
		</g>
	</g>
</g>
<g>
	<path class="st2" d="M94.1,51.5c-0.1,0-0.1,0-0.2,0c-19.2-3.3-22.6-27.7-22.7-28c0-0.6-2.1-15.7,5.8-17.7c1.5-0.4,3.3-1,5.2-1.7
		c7-2.5,16.6-5.8,22.9-0.2c7,6.3,3.3,12.7,2.2,14.4c4.8,29.4-12.7,33.1-12.9,33.1C94.2,51.5,94.2,51.5,94.1,51.5z M96.2,3
		c-4.3,0-9.1,1.7-13.3,3.2c-1.9,0.7-3.8,1.3-5.4,1.7c-5,1.2-4.6,11.4-4.1,15.3c0,0.2,3.3,22.9,20.6,26.1c1.8-0.4,15.3-4.6,10.9-31
		c-0.1-0.3,0-0.6,0.2-0.9c0.2-0.2,4.8-6-1.6-11.8C101.5,3.7,98.9,3,96.2,3z"/>
</g>
<g>
	<path class="st2" d="M90.6,23.6c-13.6,0-14.4-13.2-14.4-13.4c0-0.6,0.5-1.1,1.1-1.1s1.1,0.5,1.1,1.1c0,0.1,0.7,11.2,12.2,11.2
		c0.6,0,1.1,0.5,1.1,1.1S91.2,23.6,90.6,23.6z"/>
</g>
<g>
	<path class="st2" d="M93.8,23.6c-4.9,0-7.5-3.7-9-5.7c-0.3-0.5-0.7-1-0.9-1.2c-0.5-0.4-0.5-1.1-0.1-1.5c0.4-0.5,1.1-0.5,1.5-0.1
		c0.4,0.3,0.8,0.9,1.3,1.6c1.5,2.1,3.7,5.4,8.4,4.7l2.4-0.2c0.6-0.1,1.1,0.4,1.2,1s-0.4,1.1-1,1.2l-2.3,0.2
		C94.7,23.6,94.2,23.6,93.8,23.6z"/>
</g>
<g>
	<path class="st2" d="M100.6,23.2c-5,0-7.6-3.7-9-5.7c-0.3-0.5-0.7-1-0.9-1.2c-0.5-0.4-0.5-1.1-0.1-1.5c0.4-0.5,1.1-0.5,1.5-0.1
		c0.4,0.3,0.8,0.9,1.3,1.6c1.5,2.1,3.8,5.4,8.4,4.7l3.9-0.7c0.6-0.1,1.2,0.3,1.3,0.9c0.1,0.6-0.3,1.2-0.9,1.3l-4,0.7
		C101.6,23.1,101.1,23.2,100.6,23.2z"/>
</g>
<g>
	<path class="st2" d="M72.9,27.5c-0.6,0-1.1-0.5-1.1-1c0-0.6,0.4-1.1,1-1.1c3.4-0.2,4.4-7.4,4.5-9.9c0-0.6,0.5-1.1,1.1-1.1
		s1.1,0.5,1.1,1.1C79.5,16.7,79,27.2,72.9,27.5L72.9,27.5z"/>
</g>
<g>
	<rect x="6.2" y="156" class="st0" width="87.4" height="4.2"/>
</g>
<g>
	<path class="st0" d="M81.8,160.3c0,1.1-1.1,14.7-1.1,14.7l-15.1,4.6l-9.1-4.2l2.1-4.2v-10.9L81.8,160.3L81.8,160.3z"/>
</g>
<g>
	<path class="st2" d="M57.2,105.5c-0.5,0-1-0.4-1.1-0.9l-2.8-14.4c-0.1-0.6,0.3-1.2,0.9-1.3c0.6-0.1,1.2,0.3,1.3,0.9l2.8,14.4
		c0.1,0.6-0.3,1.2-0.9,1.3C57.4,105.5,57.3,105.5,57.2,105.5z"/>
</g>
<g>
	<path class="st2" d="M73.4,109.7c-0.6,0-1.1-0.5-1.1-1.1L72,98.7l-3.4-8.2c-0.1-0.1-0.1-0.3-0.1-0.4V65.5c0-0.6,0.5-1.1,1.1-1.1
		s1.1,0.5,1.1,1.1v24.3l3.4,8.2c0.1,0.1,0.1,0.3,0.1,0.4l0.4,10.1C74.5,109.2,74,109.7,73.4,109.7L73.4,109.7z"/>
</g>
<g>
	<path class="st2" d="M80.1,125.6c-0.3,0-0.6-0.1-0.9-0.4l-6-7.4c-0.4-0.5-0.3-1.2,0.2-1.5c0.5-0.4,1.2-0.3,1.5,0.2l6,7.4
		c0.4,0.5,0.3,1.2-0.2,1.5C80.5,125.5,80.3,125.6,80.1,125.6z"/>
</g>
<g>
	<path class="st2" d="M132.3,107.7c-0.3,0-0.5-0.1-0.7-0.3l-2.5-2.1c-0.5-0.4-0.5-1.1-0.1-1.5c0.4-0.5,1.1-0.5,1.5-0.1l2.5,2.1
		c0.5,0.4,0.5,1.1,0.1,1.5C133,107.5,132.7,107.7,132.3,107.7z"/>
</g>
<g>
	<path class="st2" d="M86.1,28.6c0,1.2-0.7,2.2-1.5,2.2s-1.5-1-1.5-2.2s0.7-2.2,1.5-2.2C85.5,26.4,86.1,27.4,86.1,28.6"/>
</g>
<g>
	<path class="st2" d="M97.9,27.1c0,1.2-0.7,2.2-1.5,2.2s-1.5-1-1.5-2.2s0.7-2.2,1.5-2.2C97.2,24.8,97.9,25.8,97.9,27.1"/>
</g>
<g>
	<path class="st2" d="M90.4,34.5c-0.2,0-0.4-0.1-0.6-0.2c-0.3-0.2-0.5-0.5-0.5-0.8l-0.7-8.2c-0.1-0.6,0.4-1.1,1-1.2s1.1,0.4,1.2,1
		l0.6,6.8l0.9-0.4c0.6-0.2,1.2,0.1,1.4,0.6c0.2,0.6-0.1,1.2-0.6,1.4l-2.3,0.9C90.7,34.4,90.5,34.5,90.4,34.5z"/>
</g>
<g>
	<path class="st2" d="M91.5,43c-2.7,0-4.8-1.5-5.7-4.2c-0.1-0.3-0.1-0.6,0.1-0.9c0.2-0.3,0.4-0.5,0.7-0.5l12.8-2.6
		c0.4-0.1,0.7,0,1,0.3s0.4,0.6,0.3,1c0,0.2-1.3,5.9-8.1,6.8C92.3,42.9,91.9,43,91.5,43z M88.5,39.3c1,1.5,2.6,1.6,3.9,1.5
		c3.1-0.4,4.7-2.1,5.5-3.4L88.5,39.3z"/>
</g>
<g>
	<path class="st2" d="M152.7,125.9c-0.2,0-0.5-0.1-0.7-0.2c-0.5-0.4-0.6-1.1-0.2-1.5l4.6-6c0.4-0.5,1.1-0.6,1.5-0.2
		c0.5,0.4,0.6,1.1,0.2,1.5l-4.6,6C153.4,125.8,153,125.9,152.7,125.9z"/>
</g>
<g>
	<g>
		<g>
			<g>
				<defs>
					<rect id="SVGID_7_" x="107.5" y="64.5" width="65.1" height="106.6"/>
				</defs>
				<clipPath id="SVGID_8_">
					<use xlink:href="#SVGID_7_"  style="overflow:visible;"/>
				</clipPath>
				<g class="st7">
					<path class="st8" d="M113.4,64.5l-5.9,57.8l8.3,48.7l10.7-8.3l-0.8-2.1l4-7.5l2.9-45.3l19.5,16.9l-20.9,26.8l-3.5,7.8l3.7,5.4
						l1.3,0.8l38.6-31.3l1.1-8.6l-37.9-54.8c-0.8-1.1-1.9-1.9-3.2-2.4C123.5,65,113.4,64.5,113.4,64.5"/>
				</g>
			</g>
		</g>
	</g>
</g>
<g>
	<g>
		<g>
			<g>
				<defs>
					<rect id="SVGID_9_" x="44.3" y="64.5" width="37" height="91"/>
				</defs>
				<clipPath id="SVGID_10_">
					<use xlink:href="#SVGID_9_"  style="overflow:visible;"/>
				</clipPath>
				<g class="st9">
					<path class="st8" d="M74.3,64.5l6.7,60l0.3,30l-2.7,1.1l-6.2-46.3L44.3,109l2.9-19.8c0,0,1.9-15.5,18.5-22L74.3,64.5z"/>
				</g>
			</g>
		</g>
	</g>
</g>
<g>
	<g>
		<g>
			<g>
				<defs>
					<rect id="SVGID_11_" x="78.1" y="93.6" width="28.5" height="7.6"/>
				</defs>
				<clipPath id="SVGID_12_">
					<use xlink:href="#SVGID_11_"  style="overflow:visible;"/>
				</clipPath>
				<g class="st10">
					<polygon class="st11" points="78.8,101.3 105.7,101.3 106.6,93.6 78.1,93.6 					"/>
				</g>
			</g>
		</g>
	</g>
</g>
<g>
	<g>
		<g>
			<g>
				<defs>
					<rect id="SVGID_13_" x="80" y="113.7" width="24.2" height="7.6"/>
				</defs>
				<clipPath id="SVGID_14_">
					<use xlink:href="#SVGID_13_"  style="overflow:visible;"/>
				</clipPath>
				<g class="st12">
					<polygon class="st11" points="80.2,115.3 80.3,121.4 103.3,121.4 104.2,113.7 80,113.7 					"/>
				</g>
			</g>
		</g>
	</g>
</g>
<g>
	<g>
		<g>
			<g>
				<defs>
					<rect id="SVGID_15_" x="80.7" y="133.8" width="24.4" height="7.6"/>
				</defs>
				<clipPath id="SVGID_16_">
					<use xlink:href="#SVGID_15_"  style="overflow:visible;"/>
				</clipPath>
				<g class="st13">
					<polygon class="st11" points="80.9,141.4 105.1,141.4 103.8,133.8 80.7,133.8 					"/>
				</g>
			</g>
		</g>
	</g>
</g>
<g>
	<g>
		<g>
			<g>
				<defs>
					<rect id="SVGID_17_" x="80.9" y="143.9" width="25.8" height="7.6"/>
				</defs>
				<clipPath id="SVGID_18_">
					<use xlink:href="#SVGID_17_"  style="overflow:visible;"/>
				</clipPath>
				<g class="st14">
					<polygon class="st11" points="81.2,151.5 106.7,151.5 105.5,143.9 80.9,143.9 					"/>
				</g>
			</g>
		</g>
	</g>
</g>
<g>
	<g>
		<g>
			<g>
				<defs>
					<rect id="SVGID_19_" x="79.1" y="103.7" width="26.3" height="7.6"/>
				</defs>
				<clipPath id="SVGID_20_">
					<use xlink:href="#SVGID_19_"  style="overflow:visible;"/>
				</clipPath>
				<g class="st15">
					<polygon class="st11" points="79.8,111.3 104.5,111.3 105.4,103.7 79.1,103.7 					"/>
				</g>
			</g>
		</g>
	</g>
</g>
<g>
	<g>
		<g>
			<g>
				<defs>
					<rect id="SVGID_21_" x="81" y="153.9" width="27.4" height="7.6"/>
				</defs>
				<clipPath id="SVGID_22_">
					<use xlink:href="#SVGID_21_"  style="overflow:visible;"/>
				</clipPath>
				<g class="st16">
					<polygon class="st11" points="81.2,154.4 92.2,155.1 92.2,159.9 81,160.7 81.1,161.5 108.3,161.5 107.1,153.9 81.2,153.9 					
						"/>
				</g>
			</g>
		</g>
	</g>
</g>
<g>
	<g>
		<g>
			<g>
				<defs>
					<rect id="SVGID_23_" x="80.6" y="163.9" width="29.3" height="8.8"/>
				</defs>
				<clipPath id="SVGID_24_">
					<use xlink:href="#SVGID_23_"  style="overflow:visible;"/>
				</clipPath>
				<g class="st17">
					<polygon class="st11" points="80.6,172.8 109.9,171.2 108.7,163.9 81.3,163.9 					"/>
				</g>
			</g>
		</g>
	</g>
</g>
<g>
	<g>
		<g>
			<g>
				<defs>
					<rect id="SVGID_25_" x="80.4" y="123.8" width="23" height="7.6"/>
				</defs>
				<clipPath id="SVGID_26_">
					<use xlink:href="#SVGID_25_"  style="overflow:visible;"/>
				</clipPath>
				<g class="st18">
					<polygon class="st11" points="80.6,131.4 103.4,131.4 102.7,126.6 103,123.8 80.4,123.8 					"/>
				</g>
			</g>
		</g>
	</g>
</g>
<g>
	<g>
		<g>
			<g>
				<defs>
					<rect id="SVGID_27_" x="76.1" y="72.8" width="32.9" height="8.4"/>
				</defs>
				<clipPath id="SVGID_28_">
					<use xlink:href="#SVGID_27_"  style="overflow:visible;"/>
				</clipPath>
				<g class="st19">
					<path class="st11" d="M109.1,72.8c-15.3,8.4-32.9,0.4-32.9,0.4l0.8,8h31.2L109.1,72.8z"/>
				</g>
			</g>
		</g>
	</g>
</g>
<g>
	<g>
		<g>
			<g>
				<defs>
					<rect id="SVGID_29_" x="77.1" y="83.6" width="30.6" height="7.6"/>
				</defs>
				<clipPath id="SVGID_30_">
					<use xlink:href="#SVGID_29_"  style="overflow:visible;"/>
				</clipPath>
				<g class="st20">
					<polygon class="st11" points="77.1,83.6 77.9,91.2 106.9,91.2 107.8,83.6 					"/>
				</g>
			</g>
		</g>
	</g>
</g>
<g>
	<path class="st0" d="M132.7,166.2c0,0-2.5,10.5-4.6,10.5c-2.1,0-8.1,3.2-8.1,3.2s-6.7-5.6-5.3-7.4c1.4-1.8,11.2-8.8,11.2-8.8
		l-0.7-2.5l1.4-4.2L132.7,166.2z"/>
</g>
<path class="st2" d="M173.9,120.7c-1-5.5-27.4-42.7-35-51.4c-1.6-1.9-3.5-3.5-5.7-4.6c-4.4-2.3-17.1-5-27.2-5.7l-0.7-17.7
	c0-0.6-0.5-1.1-1.1-1.1s-1.1,0.5-1.1,1.1l0.7,18.7c0,0.6,0.4,1.1,1,1.1c1.5,0.1,3,0.2,4.6,0.4l-0.8,7.3c-15,6.1-31.4,0.1-31.6,0
	c-0.1-0.1-0.2-0.1-0.3-0.1l-0.4-5l7.1-2.4c0.4-0.2,0.7-0.6,0.7-1.1l-0.3-15.6c0-0.6-0.5-1.1-1.1-1.1s-1.1,0.5-1.1,1.1l0.3,15
	L60.1,67c-0.6,0.1-4.9,1.3-9.3,4.9c-4.3,3.5-9.5,10-10.1,21.3c-0.3,5.8-8,63.5-8.1,64.1c-0.1,0.3,0,0.6,0.2,0.8s0.5,0.4,0.8,0.4
	l15.8,1.4c0.6,0.1,1.1-0.3,1.2-0.9l6.6-46l5.7,49.9c-0.4,1.2-1.4,4.7-1.4,6.1c0,1.5,1,4.6,1.1,4.9c0.1,0.4,0.6,0.7,1.1,0.7l46.8-3.7
	c0.1,0,0.1,0,0.2,0l2.9,2.4c0.3,2.3,3.5,5.4,5.8,7.3c0.2,0.2,0.4,0.3,0.7,0.3h0.6c2.3-1.1,6.3-3,7.6-3c0.8,0,1.5-0.6,2.3-1.8
	l3.9,0.2c0.3,0,0.6-0.1,0.9-0.3c0.3-0.2,0.4-0.6,0.3-0.9l-1.8-8.9l38.5-31.6c0.2-0.1,0.3-0.3,0.4-0.5
	C172.9,133.9,175,126.5,173.9,120.7z M111.6,61.8c1.1,0.1,2.2,0.3,3.3,0.5l-2.3,31.3l-2.8,3.6c-0.1,0.3-0.2,0.5-0.2,0.8l1.4,15.6
	l-6.2,9.6L111.6,61.8z M64.4,172.4c-0.3-1.2-0.7-2.7-0.7-3.4c0-0.9,0.9-3.9,1.4-5.6V163l-6.7-58.6c-0.1-0.6-0.5-1-1.1-1
	c-0.5-0.1-1,0.4-1.1,0.9l-7.6,53.4L35,156.5c1.1-8.4,7.6-57.6,7.9-63.2c1-20,17.1-24.1,17.8-24.3h0.1l13.3-4.5l5.6,61.4l0.7,29.8
	c0,0.6,0.5,1.1,1.1,1.1s1.1-0.5,1-1.1l-0.7-29.9L76.9,71c2.1,0.7,8.6,2.7,16.8,2.7c4.5,0,9.6-0.7,14.6-2.5l-6.2,56.2l0,0v0.1v0.3
	l7.5,41.1L64.4,172.4z M129.1,173.9L129.1,173.9c-0.5,1-1.4,1.7-2.5,2l0,0h0.1c-2.1,0.5-5,2-6.4,2.7c-1.1-1-2.2-2.1-3-3
	c-0.7-0.4-1.2-1.3-1.3-1.9c-0.1-0.5,0.1-0.8,0.4-1c1.9-1.7,7-5.5,10.3-7.9c0.4-0.3,0.5-0.8,0.4-1.2l-0.6-2.1l0.6-1.7l4.5,6.8
	C130.8,169.4,129.8,172.2,129.1,173.9z M131.6,174.1c0.3-0.8,0.7-1.8,1-2.9l0.6,3L131.6,174.1z M170.8,133.3l-35.2,28.9l-2.7,2.3
	L128,157l25.3-31.5c0.4-0.4,0.3-1.1-0.1-1.5l-20.1-17.9c-0.3-0.3-0.7-0.4-1.1-0.2c-0.4,0.1-0.7,0.5-0.7,0.9l-1.3,20.1
	c-0.1,0.1-0.1,0.2-0.1,0.3l-1.6,25.4c0,0.2,0,0.4,0.1,0.5l-2.6,3.3c-0.2,0.3-0.3,0.6-0.3,0.9l-1.2,3.7c-0.1,0.2-0.1,0.4,0,0.6
	l0.5,1.7c-2.1,1.5-8.3,6-10.3,8l-2.5-2.1l-7.5-41.3l8.7-13.6c0.2-0.2,0.2-0.5,0.2-0.7L112,98.1l2.7-3.5c0.1-0.2,0.2-0.4,0.2-0.6
	l2.3-31.4c6.5,1.1,12.5,2.7,15,4c1.9,1.1,3.6,2.4,5.1,4.1c8.7,10.1,33.7,46,34.5,50.4C172.6,125.8,171.2,131.8,170.8,133.3z
	 M130.8,150.3l1.4-21.3v-0.3l1.3-19.5l17.7,15.7L130.8,150.3z"/>
<g>
	<g>
		<g>
			<g>
				<defs>
					<rect id="SVGID_31_" x="5.2" y="108.9" width="87.6" height="51.4"/>
				</defs>
				<clipPath id="SVGID_32_">
					<use xlink:href="#SVGID_31_"  style="overflow:visible;"/>
				</clipPath>
				<g class="st21">
					<path class="st1" d="M5.2,108.9l4.6,45.8L9.2,159l11.8,1.1l-2.1-4.3l7.8-3.8c0,0,4,4.3,6.4,4.3s9.4,0.8,9.4,0.8l1.6,3.2
						l48.2-0.4l0.5-3.3l-14.2-1.1l-6.2-46.3L5.2,108.9z"/>
				</g>
			</g>
		</g>
	</g>
</g>
<g>
	<path class="st2" d="M93.6,161.3H6.2c-0.6,0-1.1-0.5-1.1-1.1V156c0-0.6,0.5-1.1,1.1-1.1h87.4c0.6,0,1.1,0.5,1.1,1.1v4.2
		C94.7,160.9,94.2,161.3,93.6,161.3z M7.3,159.2h85.2v-2H7.3V159.2z"/>
</g>
<g>
	<polygon class="st22" points="78.4,159.6 6.7,159.6 1.6,108.6 73.4,108.6 	"/>
</g>
<g>
	<path class="st2" d="M78.4,160.6H6.7c-0.6,0-1-0.4-1.1-1l-5.1-50.9c0-0.3,0.1-0.6,0.3-0.8c0.2-0.2,0.5-0.4,0.8-0.4h71.7
		c0.6,0,1,0.4,1.1,1l5.1,50.9c0,0.3-0.1,0.6-0.3,0.8C79,160.5,78.8,160.6,78.4,160.6z M7.7,158.5h69.5l-4.8-48.8H2.9L7.7,158.5z"/>
</g>
<g>
	<g>
		<g>
			<g>
				<defs>
					<rect id="SVGID_33_" x="35.4" y="160.3" width="47.1" height="20.1"/>
				</defs>
				<clipPath id="SVGID_34_">
					<use xlink:href="#SVGID_33_"  style="overflow:visible;"/>
				</clipPath>
				<g class="st23">
					<path class="st8" d="M35.4,164.1l7,3.7h3.2l12.3-2.4v5.1l-0.8,5.4l9.1,4.6l15.5-5.1c0,0,1.3-14.5,0.5-14.5s-38.3-0.5-38.3-0.5
						l-0.3,2.4L35.4,164.1z"/>
				</g>
			</g>
		</g>
	</g>
</g>
<path class="st2" d="M81.9,159.2H58.7c-0.6,0-1.1,0.5-1.1,1.1v3.2c-0.2,0-0.5,0-0.7,0.1c-11.5,7.9-24.6-0.6-24.7-0.7
	c-0.5-0.3-1.2-0.2-1.5,0.3s-0.2,1.2,0.3,1.5c0.1,0,6.8,4.4,15.1,4.4c3.6,0,7.7-0.8,11.5-3.4v5.2l-2,4c-0.2,0.3-0.2,0.6-0.1,0.9
	c0.1,0.2,0.3,0.5,0.6,0.6l9.1,4.2c0.2,0.1,0.3,0.1,0.5,0.1c0.1,0,0.2-0.1,0.3-0.1l15.1-4.5c0.5-0.2,0.8-0.5,0.8-1
	c0.2-1.4,1.1-13.7,1.1-14.8C83,159.7,82.5,159.2,81.9,159.2z M79.7,174.2l-14,4.2l-7.7-3.6l1.6-3.1c0.1-0.2,0.1-0.3,0.1-0.5v-9.8
	h20.9C80.5,163.9,80,169.8,79.7,174.2z"/>
<g>
	<path class="st0" d="M20.7,159.9c0,0-2.5-4.2-1.1-4.2s5.6-3.5,8.1-3.2c2.5,0.4,6.7,3.9,8.1,3.5s7.4,1.1,7.4,1.1s1.4,5.3,0.4,5.3
		c-1.1,0-9.5,1.4-11.9,1.4c-2.5,0-8.4-0.4-8.4-0.4L20.7,159.9z"/>
</g>
<g>
	<path class="st2" d="M31.6,164.9c-2.5,0-8.2-0.3-8.5-0.4c-0.3,0-0.6-0.2-0.8-0.5l-2.5-3.5v-0.1c-2.2-3.8-1.6-4.8-1.4-5.1
		c0.3-0.5,0.7-0.7,1.3-0.7c0.3,0,1.4-0.6,2.2-1.1c2-1.1,4.2-2.3,6-2.1c1.4,0.2,3.1,1.2,4.7,2.1c1,0.6,2.5,1.4,3,1.4l0,0
		c1.5-0.4,6.4,0.7,7.8,1.1c0.4,0.1,0.7,0.4,0.8,0.8c1.3,4.9,0.6,5.8,0.4,6.1c-0.3,0.3-0.7,0.5-1.1,0.5c-0.3,0-2.1,0.3-3.7,0.5
		C36.9,164.3,33.2,164.9,31.6,164.9z M23.8,162.3c1.5,0.1,5.9,0.3,7.8,0.3c1.4,0,5.2-0.5,7.9-0.9c1.6-0.2,2.7-0.4,3.3-0.4
		c0-0.7-0.2-2-0.5-3.3c-2.6-0.6-5.6-1.1-6.2-0.9c-1.1,0.3-2.4-0.4-4.6-1.7c-1.4-0.8-2.9-1.7-3.9-1.8c-1.1-0.2-3.1,1-4.6,1.8
		c-1.1,0.6-1.9,1-2.5,1.2c0.2,0.6,0.7,1.7,1.2,2.6L23.8,162.3z"/>
</g>
</svg>
