<?xml version="1.0" encoding="utf-8"?>
<!-- Generator: Adobe Illustrator 22.0.1, SVG Export Plug-In . SVG Version: 6.00 Build 0)  -->
<svg version="1.1" id="圖層_2_1_" xmlns="http://www.w3.org/2000/svg" xmlns:xlink="http://www.w3.org/1999/xlink" x="0px"
	 y="0px" viewBox="0 0 212 200.1" style="enable-background:new 0 0 212 200.1;" xml:space="preserve">
<style type="text/css">
	.st0{fill:#FFFFFF;}
	.st1{fill:#717071;}
	.st2{fill:#00A83C;}
	.st3{fill:#231815;}
	.st4{fill:#FFDB00;}
</style>
<polygon class="st0" points="36.5,91.3 22,97.7 31.3,111.2 46.4,129.8 50.8,134 61.9,137.9 65.8,137.9 90.8,117.3 91.9,127 
	95.3,161.1 92.1,185.8 108.1,186.4 113.7,180.8 152.1,183.3 157.3,190.6 166.1,186.8 171.4,185.8 168.2,174.6 166.6,159.3 
	169.2,115.5 206.6,146.7 209.3,138.5 210.3,130.9 171.3,78.3 142.1,70 141.5,52.8 147.6,47.9 150.7,46.9 152.9,44.2 155.8,37.5 
	154.6,36.7 149.4,35 148.5,25.2 144.3,21.5 130.8,16.7 125.1,17 121,21.2 122.8,27.3 119.4,27.2 117.8,27.2 117.4,31.8 112.7,29.5 
	111.4,35 112.9,39.8 117.4,42.6 120.2,52.1 118.8,69.3 90.5,75 82.8,82.3 59.3,113.7 "/>
<g>
	<path class="st1" d="M150.2,33.5c0,0,1.6-10.9-2.4-14.1l-12-4.2c0,0-18.9-6.9-16.2,11.3l-0.8,3.5c0,0,6.2,2.4,9.5,0
		s-0.5,1.1-0.5,1.1s3.3,1.4,7.1-0.8c0,0,4.6,2.2,11.1-5.4C145.9,24.8,147,32.9,150.2,33.5"/>
	<path class="st2" d="M150.6,76.2l-5.8,58.9v48.3h7.3l11.6-9.7l-0.8-2.1l4-7.4l2.9-44.9l19.4,16.7l-20.7,26.6l-3.5,7.7l3.7,5.3
		l1.3,0.8l38.2-31.1l1.1-8.5l-37.6-54.3c-0.8-1.1-1.9-1.9-3.2-2.4C160.7,76.7,150.6,76.2,150.6,76.2"/>
	<path class="st3" d="M134,32.5c6.8,0,10.4-3.5,12.2-6.3c2-3.2,2.4-6.5,2.4-7.2c0-0.6-0.5-1.1-1.1-1.1s-1.1,0.5-1.1,1.1
		c0,0.1-0.7,11.3-12.4,11.3c-0.6,0-1.1,0.5-1.1,1.1C132.9,32.1,133.4,32.5,134,32.5"/>
	<path class="st3" d="M156.1,36.5c-0.9-0.5-2.2-0.4-3.4-0.1c0-0.1,0.1-0.2,0.1-0.4c0.1-0.2,0.2-0.4,0.2-0.7c0-0.1,0-0.1,0-0.2
		c0.4-1.6,0.5-2.7,0.5-2.8c0.1-0.6,2.2-15.9-5.8-17.9c-1.5-0.4-3.3-1-5.2-1.7c-7.1-2.5-16.9-5.9-23.2-0.2c-7,6.4-3.4,12.9-2.2,14.6
		c-0.2,1.2-0.4,2.4-0.5,3.6c-1.2-0.8-2.7-1.6-3.9-1.2c-0.6,0.2-1,0.6-1.2,1.2l-0.1,0.2c-2.4,7.5,1.5,11.3,5.5,13.3
		c0.8,4.3,2.4,8,4.7,10.8c3.9,4.8,8.4,5.7,8.6,5.7c0.1,0,0.1,0,0.2,0s0.2,0,0.1-0.1c6.7-1.2,12.3-5,16.5-11.3l0,0
		c4.6-0.5,9.9-2.9,9.9-11.2V38C156.9,37.4,156.6,36.8,156.1,36.5z M113.5,31.8c0.6,0.2,1.8,0.8,2.8,1.6h0.1
		c-0.2,2.9-0.2,5.6,0.1,8.1C112.1,38.7,112.6,34.7,113.5,31.8z M130.4,58.6c-1.3-0.3-9.1-2.7-11.3-14.5c0.1-0.4,0.1-0.9-0.2-1.2
		c-0.5-3.2-0.6-7-0.1-11.6l3.3,0.6c0.7,0.1,1.2,0.1,1.7,0.1c0.8,0,1.5-0.1,2.2-0.3c0.2,0.3,0.5,0.5,0.8,0.5l2.4,0.2
		c0.6,0.1,1.1,0.1,1.5,0.1c5,0,7.6-3.7,9.1-5.8c0.3-0.5,0.7-1,0.9-1.2c0.5-0.4,0.5-1.1,0.1-1.6s-1.1-0.5-1.6-0.1
		c-0.4,0.4-0.8,0.9-1.3,1.6c-1.5,2.2-3.8,5.4-8.5,4.8h-0.1c1.7-1.2,2.8-2.9,3.6-4c0.3-0.5,0.7-1,0.9-1.2c0.5-0.4,0.5-1.1,0.1-1.6
		s-1.1-0.5-1.6-0.1c-0.4,0.4-0.8,0.9-1.3,1.6c-1.5,2.2-3.8,5.4-8.5,4.8l-3.4-0.6c0.1-0.6,0.2-1.3,0.3-1.9c0.1-0.3,0-0.6-0.2-0.9
		s-4.9-6.1,1.7-12c2-1.9,4.6-2.6,7.4-2.6c4.4,0,9.3,1.7,13.5,3.3c1.9,0.6,3.8,1.3,5.4,1.7c5,1.3,4.7,11.6,4.1,15.5
		c0,0-0.1,0.7-0.3,1.7c-2.7-1.3-3.5-7.5-3.6-9.8c0-0.6-0.5-1.1-1.1-1.1s-1.1,0.5-1.1,1.1c0,1.3,0.5,10.3,5.2,12.1
		C148.6,43,143.4,56.2,130.4,58.6z M148.5,46.9c0.3-0.5,0.6-1.1,0.9-1.7c1.1-2.3,1.9-4.4,2.6-6.4c1-0.3,2.1-0.5,2.6-0.5
		C154.6,41.5,153.9,45.5,148.5,46.9z"/>
	<path class="st3" d="M141.1,53.6c0-0.6,0.5-1.1,1.1-1.1s1.1,0.5,1.1,1.1L143,68.8l15.1,5.2c0,0.8-2.1,0.9-2,1.7l-14.5-5
		c-0.5-0.2-0.8-0.6-0.8-1.1L141.1,53.6z"/>
	<path class="st3" d="M144.7,135.8c0.3,0,0.6-0.1,0.9-0.4l6-7.5c0.4-0.5,0.3-1.2-0.2-1.6s-1.2-0.3-1.6,0.2l-6,7.5
		c-0.4,0.5-0.3,1.2,0.2,1.6C144.2,135.7,144.4,135.8,144.7,135.8"/>
	<path class="st3" d="M130.9,83.2c9.7,0,17.3-2.8,17.7-3c0.6-0.2,0.9-0.9,0.6-1.4c-0.2-0.6-0.9-0.9-1.4-0.6
		c-0.2,0.1-17.2,6.3-32.6-0.2c-0.6-0.2-1.2,0-1.5,0.6c-0.2,0.6,0,1.2,0.6,1.5C120,82.4,125.7,83.2,130.9,83.2"/>
	<path class="st3" d="M91.7,117.7c0.3,0,0.5-0.1,0.7-0.3l2.5-2.1c0.5-0.4,0.5-1.1,0.1-1.6s-1.1-0.5-1.6-0.1l-2.5,2.1
		c-0.5,0.4-0.5,1.1-0.1,1.6C91,117.5,91.4,117.7,91.7,117.7"/>
	<path class="st3" d="M138.5,37.5c0,1.2,0.7,2.3,1.5,2.3s1.5-1,1.5-2.3c0-1.2-0.7-2.3-1.5-2.3C139.2,35.3,138.5,36.3,138.5,37.5"/>
	<path class="st3" d="M126.6,36c0,1.2,0.7,2.3,1.5,2.3s1.5-1,1.5-2.3c0-1.2-0.7-2.3-1.5-2.3S126.6,34.8,126.6,36"/>
	<path class="st3" d="M134.2,43.5c0.2,0,0.4-0.1,0.6-0.2c0.3-0.2,0.5-0.5,0.5-0.8l0.7-8.4c0.1-0.6-0.4-1.2-1-1.2s-1.2,0.4-1.2,1
		l-0.6,6.9l-0.9-0.4c-0.6-0.2-1.2,0.1-1.4,0.6c-0.2,0.6,0.1,1.2,0.6,1.4l2.3,0.9C133.9,43.5,134,43.5,134.2,43.5"/>
	<path class="st3" d="M133,52.1c-0.4,0-0.8,0-1.1-0.1c-6.9-1-8.2-6.7-8.2-6.9c-0.1-0.4,0-0.7,0.3-1s0.6-0.4,1-0.3l13,2.7
		c0.3,0.1,0.6,0.3,0.7,0.5c0.2,0.3,0.2,0.6,0.1,0.9C137.9,50.6,135.8,52.1,133,52.1 M126.6,46.4c0.8,1.3,2.5,3,5.6,3.4
		c1.3,0.2,2.9,0,3.9-1.5L126.6,46.4z"/>
	<path class="st2" d="M110.9,73.9l6,58.6l-8.4,49.4l-16.1,1.3l1.3-12.1l0.7-7.3l-3-45.9L71.5,135l-6.6,3.3l-4.1-1.2l-1.9-0.4
		L25.4,95.2l11.2-3.9l26.8,26.4l25.9-37.4c0.8-1.1,2-1.9,3.2-2.5C100.6,74.4,110.9,73.9,110.9,73.9"/>
	<polygon class="st4" points="145.9,111.2 118.7,111.2 117.8,103.5 146.6,103.5 	"/>
	<polygon class="st4" points="143.8,151.9 119.3,151.9 120.6,144.2 144,144.2 	"/>
	<polygon class="st4" points="144.5,125.5 144.4,131.6 121.1,131.6 120.2,123.8 144.7,123.8 	"/>
	<polygon class="st4" points="143.5,162.1 117.7,162.1 118.9,154.4 143.8,154.4 	"/>
	<polygon class="st4" points="143.5,165.1 143.7,171.5 143.6,172.3 116,172.3 117.3,164.5 143.5,164.5 	"/>
	<polygon class="st4" points="144.9,121.4 119.9,121.4 119,113.7 145.7,113.7 	"/>
	<polygon class="st4" points="144.1,141.7 121,141.7 121.8,136.9 121.4,134 144.3,134 	"/>
	<path class="st4" d="M115.2,82.3c15.5,8.5,33.4,0.4,33.4,0.4l-0.8,8.1h-31.6L115.2,82.3z"/>
	<polygon class="st4" points="147.6,93.3 146.9,101 117.5,101 116.6,93.3 	"/>
	<path class="st0" d="M169.8,177.1c0,0-2.4,10.4-4.5,10.4s-8,3.1-8,3.1s-6.6-5.6-5.2-7.3s11.1-8.7,11.1-8.7l-0.7-2.4l1.4-4.2
		L169.8,177.1z"/>
	<g>
		<path class="st3" d="M210.7,131.9c-1-5.3-28.1-41.8-35.6-50.3c-1.7-1.9-3.2-3-5.2-4.1c-3.3-1.8-4.8-2.1-9.2-3
			c-1.6-0.3-3.6-0.8-6.2-1.4c-0.6-0.1-1.2,0.2-1.4,0.8c-0.1,0.6,0.2,1.2,0.8,1.4c0.1,0,0.2,0,0.3,0.1l0.8,27.1l-4.1,5
			c-0.2,0.2-0.2,0.4-0.3,0.7l-0.3,18.3c0,0.7,0.5,1.2,1.1,1.3c0.6,0,1.1-0.5,1.1-1.1l0.3-17.9l4.1-5.1c0.2-0.2,0.3-0.5,0.3-0.7
			l-0.8-27.1c1.4,0.3,2.7,0.6,3.7,0.8c4.4,0.9,5.6,1.2,8.6,2.8c1.8,1,3.1,1.9,4.6,3.6c8.6,9.9,34.2,45,35,49.3
			c0.9,4.6-0.5,10.6-0.9,12L172.8,173l-2.8,2.3l-4.7-7.3l25.1-31.3c0.4-0.5,0.3-1.2-0.1-1.6l-20-17.7c-0.3-0.3-0.8-0.4-1.2-0.2
			c-0.4,0.2-0.7,0.5-0.7,1l-1.4,21.6c0,0.1,0,0.1,0,0.2l-1.5,23.6c0,0.1,0,0.3,0.1,0.4l-2.6,3.2c-0.2,0.2-0.3,0.5-0.2,0.8l-1.3,3.8
			c-0.1,0.2-0.1,0.5,0,0.7l0.5,1.6c-2.3,1.7-9.4,6.9-10.7,8.4c-0.3,0.3-0.4,0.7-0.4,1c-0.9-0.2-1.7-0.4-2.5-0.6
			c-2.2-0.6-4.7-1.3-10.7-1.5l-22.8-1.8l7.6-41.5v-0.3v-0.1c0-0.1,0-0.1,0-0.2l-7.4-66.6c1.5-0.2,2.9-0.3,4.3-0.4c0.6,0,1-0.5,1-1.1
			l0.7-19c0-0.6-0.5-1.1-1.1-1.2c-0.6-0.1-1.1,0.5-1.2,1.1l-0.7,18c-10.3,0.8-23.1,3.4-27.5,5.8c-2.2,1.2-4.1,2.7-5.8,4.6
			c-3.7,4.3-7.3,9.5-11.1,15c-4.6,6.6-9.3,13.5-14.2,18.5c-2.6-2-13-12.4-22.1-21.9c-0.3-0.3-0.8-0.4-1.2-0.3l-16.4,6
			c-0.3,0.1-0.6,0.4-0.7,0.8c-0.1,0.3,0,0.7,0.2,1L47.8,133c2,2.5,15.9,8.6,20.9,5l2.8-2c0,0,0.1,0,0.1-0.1l18.7-16.6l1.5,19.7
			c0,0.1,0,0.2,0.1,0.3l1.6,24.1c-0.1,0.6,0.4,1,1,1c0.7,0,1.2-0.6,1.1-1.2l-1.7-25.8c0-0.1,0-0.2-0.1-0.3l-1.4-20.3
			c0-0.4-0.3-0.8-0.7-1c-0.4-0.2-0.8-0.1-1.2,0.2l-20.3,18.1l-2.7,2c-3.8,2.7-16.4-2.7-17.9-4.6L22,97.7l14.2-5.2
			c21.3,22.3,22.8,22.3,23.3,22.3c0.3,0,0.7-0.1,0.9-0.3c5.2-5.2,10.2-12.4,15-19.3c3.8-5.5,7.4-10.7,11-14.8
			c1.5-1.7,3.2-3.1,5.2-4.1c2.6-1.4,8.7-2.9,15.4-4.1l-1.5,30.4c0,0.4,0.2,0.7,0.5,1l6.4,4.7l-1.4,15.6c0,0.2,0,0.5,0.2,0.7
			l8.8,13.6l-7.7,42l-4.8,3.9l-16.7,1l1.5-7.8c0.1-0.6-0.3-1.2-0.9-1.3s-1.2,0.3-1.3,0.9l-1.8,9.2c0,0.3,0.1,0.6,0.4,1
			c0.2,0.3,0.5,0.4,0.8,0.4c0.1,0,0.1,0,0.1,0l18.5-1.1c0.2-0.1,0.4-0.1,0.6-0.3l5-4.2l22.2,1.7c0.1,0.1,0.3,0.1,0.4,0.1
			c0.8,0,1.5,0.1,2.2,0.1l2.9,0.2c3,0.3,4.6,0.8,6.1,1.2c1,0.3,1.9,0.5,3.1,0.7c0.3,0,0.5,0.1,0.8,0.1c1.1,1.8,3.1,3.8,5,5.4
			c0.2,0.2,0.5,0.3,0.7,0.3s0.4,0,0.5-0.1c1.3-0.7,2.7-1.3,4-1.9c1.3-0.6,2.7-0.9,4.1-1.4c1.2-0.4,2.6-0.2,3.9-0.3
			c0.4-0.1,0.9-0.2,1.3-0.3c0.5-0.2,0.9-0.4,1.2-0.8c0.5-0.6,0.3-1.2,0.1-1.8c-0.2-0.9-0.3-1.7-0.5-2.6c-0.3-1.7-0.6-3.4-0.9-5.1
			l3.2-2.6l35.1-28.9c0.2-0.1,0.3-0.3,0.4-0.6C209.8,145,211.9,137.7,210.7,131.9z M169.3,138.6c0-0.1,0-0.1,0-0.1l1.1-17.7
			l17.5,15.4l-20,24.9L169.3,138.6z M113.2,123.6l1.4-15.8c0-0.4-0.1-0.8-0.4-1l-6.4-4.7l1.5-30.3c1.1-0.2,2.3-0.3,3.4-0.5l6.9,62.1
			L113.2,123.6z M165.5,185.7c-0.3,0.2-0.6,0.4-1,0.5c-1.3,0.5-2.7,1-3.9,1.6c-0.6,0.3-1.1,0.5-1.7,0.8c-0.1,0.1-1.3,0.7-1.4,0.7
			c-0.8-0.7-1.5-1.5-2.3-2.2s-1.5-1.4-2-2.3c-0.1-0.1-0.2-0.3-0.2-0.5c-0.1-0.6,1.6-1.7,2-2.1c2.9-2.3,5.9-4.5,8.9-6.7
			c0.4-0.3,0.6-0.8,0.4-1.2l-0.6-2.1l0.5-1.5l4.4,6.7c-0.5,1.9-1,3.7-1.7,5.6c-0.3,0.7-0.5,1.4-0.8,2
			C165.9,185.3,165.7,185.5,165.5,185.7z M169.9,185.7c-0.6,0.1-1.2,0.1-1.7,0.1c0.5-0.9,0.9-2.1,1.4-3.5c0.2,1.1,0.4,2.2,0.7,3.2
			c0,0,0,0,0,0.1c0,0,0,0-0.1,0S170,185.6,169.9,185.7z"/>
		<path class="st3" d="M143.2,167.5c0.6,0,1.1-0.5,1.1-1.1l0.7-30.2l5.7-63.2c0.1-0.6-0.4-1.2-1-1.2s-1.2,0.4-1.2,1l-5.7,63.2
			l-0.7,30.3C142.1,166.9,142.6,167.5,143.2,167.5z"/>
	</g>
	<path class="st0" d="M32.5,80.5c-2.8-1.4-7.4-3.6-10.6-2.5c0.7,1.8,1.4,3.5,1.9,5.3c-3.5,0-9.6-1-12.6-1.2c-3-0.3-7.8-3.3-9.1-0.4
		c-1.3,3,4.6,9.7,6,12.7c4.7,1.5,9.5,4.1,14.4,3.5s9.5-4.8,14-6.6C35.4,87.5,34.1,84.1,32.5,80.5"/>
	<path class="st3" d="M21,99.2c-3.4,0-6.6-1.2-9.7-2.4c-1.2-0.5-2.4-0.9-3.5-1.2c-0.3-0.1-0.6-0.3-0.7-0.6c-0.4-0.8-1.2-2.1-2.1-3.4
		C2.6,88.1,0,84,1.1,81.4c1.3-3,4.8-1.9,7.4-1.1c1,0.3,2.1,0.7,2.9,0.7c1,0.1,2.3,0.2,3.7,0.4c2.3,0.3,5,0.6,7.1,0.7
		c-0.3-0.9-0.6-1.7-1-2.6l-0.4-1.1c-0.1-0.3-0.1-0.6,0-0.9s0.4-0.5,0.7-0.6c3.8-1.4,9,1.3,11.5,2.5c0.2,0.1,0.4,0.3,0.5,0.6
		c1.7,3.9,2.9,7.3,4.1,10.9c0.2,0.6-0.1,1.2-0.7,1.4C35.2,93,33.6,94,31.8,95c-2.9,1.8-5.9,3.6-9.2,4C22.1,99.2,21.6,99.2,21,99.2
		 M35.1,90.7c-1-3-2.1-6-3.5-9.3c-1.9-1-5.4-2.6-8.1-2.5c0.5,1.4,1.1,2.8,1.4,4.2c0.1,0.4,0,0.7-0.2,1s-0.6,0.5-0.9,0.5
		c-2.5,0-5.9-0.4-9-0.8c-1.4-0.2-2.7-0.3-3.7-0.4s-2.2-0.5-3.4-0.8c-2.8-0.9-4.1-1.1-4.6-0.2c-0.6,1.5,2.1,5.5,3.7,7.9
		c0.8,1.3,1.6,2.4,2.1,3.3c1.1,0.3,2.1,0.7,3.2,1.1c3.4,1.3,6.9,2.6,10.3,2.2c2.8-0.3,5.6-2,8.3-3.6C32.1,92.2,33.6,91.4,35.1,90.7"
		/>
</g>
</svg>
