<?xml version="1.0" encoding="utf-8"?>
<!-- Generator: Adobe Illustrator 22.0.1, SVG Export Plug-In . SVG Version: 6.00 Build 0)  -->
<svg version="1.1" id="分離模式" xmlns="http://www.w3.org/2000/svg" xmlns:xlink="http://www.w3.org/1999/xlink" x="0px"
	 y="0px" viewBox="0 0 155 97.2" style="enable-background:new 0 0 155 97.2;" xml:space="preserve">
<style type="text/css">
	.st0{fill:#FFFFFF;}
	.st1{clip-path:url(#SVGID_2_);fill:#717071;}
	.st2{clip-path:url(#SVGID_4_);fill:#717071;}
	.st3{fill:#231815;}
	.st4{fill:none;stroke:#231815;stroke-width:1.9044;stroke-linecap:round;stroke-linejoin:round;stroke-miterlimit:10;}
	.st5{fill:#717071;}
	.st6{fill:#505051;}
	.st7{fill:none;stroke:#231815;stroke-width:1.9463;stroke-linecap:round;stroke-linejoin:round;stroke-miterlimit:10;}
	.st8{clip-path:url(#SVGID_6_);fill:#00A83C;}
	.st9{clip-path:url(#SVGID_8_);fill:#00A83C;}
	.st10{fill:none;stroke:#231815;stroke-width:1.9194;stroke-linecap:round;stroke-linejoin:round;stroke-miterlimit:10;}
	.st11{fill:none;}
	.st12{fill:#00A83C;}
	.st13{fill:none;stroke:#000000;stroke-width:1.5358;stroke-linecap:round;stroke-linejoin:round;stroke-miterlimit:10;}
	.st14{fill:none;stroke:#231815;stroke-width:1.8197;stroke-linecap:round;stroke-linejoin:round;stroke-miterlimit:10;}
	.st15{fill:none;stroke:#231815;stroke-width:1.622;stroke-linecap:round;stroke-linejoin:round;stroke-miterlimit:10;}
	.st16{fill:none;stroke:#231815;stroke-width:2.0812;stroke-linecap:round;stroke-linejoin:round;stroke-miterlimit:10;}
</style>
<polygon class="st0" points="31.8,23.1 41.2,17.5 58.9,16.8 60.6,22.7 57.3,36.1 51.8,44.8 41.3,44.3 34,34.8 "/>
<g>
	<g>
		<g>
			<defs>
				<rect id="SVGID_1_" x="32.1" y="10.4" width="30.9" height="15.5"/>
			</defs>
			<clipPath id="SVGID_2_">
				<use xlink:href="#SVGID_1_"  style="overflow:visible;"/>
			</clipPath>
			<path class="st1" d="M33.8,15.6c0,0,6-7.3,20.9-4.6c0,0,5.4,1,7.5,0.4c0,0,2.6,3.6-1.7,6.6c-0.4,0.2,1.8,16.6-4.2,1.2
				c-0.9-2.2-2.4,0.8-7,1.9L36.6,20c0,0,0.2,4.5-4,5.9C32.6,25.9,30.9,16.8,33.8,15.6"/>
		</g>
	</g>
</g>
<path class="st0" d="M113.6,13.1c-0.4,6.1-5.3,10.7-10.8,10.4c-5.6-0.4-9.7-5.6-9.3-11.7C93.9,5.6,98.7,1,104.3,1.4
	C109.9,1.8,114.1,7,113.6,13.1"/>
<g>
	<g>
		<g>
			<defs>
				<rect id="SVGID_3_" x="87.9" y="0.4" width="29.9" height="32.7"/>
			</defs>
			<clipPath id="SVGID_4_">
				<use xlink:href="#SVGID_3_"  style="overflow:visible;"/>
			</clipPath>
			<path class="st2" d="M98.4,15.9c0,0-3.5-11.7,5.6-14.5l6.2,2.8l3.1,4v8.6l2.7,4.7l1.8,6v3.9c0,0-16.2,3.5-13.7-9.8l-2.8-1.8h-2.1
				l-2.5,6.3c0,0-3.9,7.4-8.4,7l-0.4-7.7l3.8-6.3L98.4,15.9z"/>
		</g>
	</g>
</g>
<g>
	<path class="st3" d="M111.7,4.2c-1.9-2.2-4.5-3.6-7.4-3.8c-2.8-0.2-5.5,0.7-7.7,2.6c-2.4,2.1-3.9,5.3-4.1,8.7
		c-0.1,2,0.2,3.8,0.8,5.5c0.5-0.3,1.1-0.5,1.8-0.6c-0.6-1.4-0.8-3.1-0.7-4.8C94.6,9,95.9,6.3,98,4.5c1.6-1.4,3.6-2.2,5.7-2.2
		c0.2,0,0.4,0,0.6,0c2.3,0.2,4.5,1.3,6,3.1c1.8,2.1,2.6,4.7,2.4,7.6c0,0,0,0,0,0c-0.1,1.3-0.4,2.5-0.9,3.6c0.6,0.4,1.1,0.8,1.5,1.4
		c0.7-1.5,1.2-3.1,1.3-4.8C114.8,9.8,113.8,6.6,111.7,4.2z"/>
</g>
<g>
	<path class="st0" d="M30.7,94.5c10.3,0.1,20.5-0.2,30.8,0.3c14.1,0.6,28.2,0.6,42.2,1.1l-6.5-18.7L94.4,65L65.2,51.7l-6.5-7.1
		L55.6,48c-0.4-2.2-1-4.3-1.9-6.4c-2.1,2.1-4.7,3.7-7.6,4.3c-2.9,0.6-6.1,0-8.3-2c-0.5,3-1,6-1.3,9c-1.2,1.1-2.4,1.9-3.8,2.7
		c-0.4,0-0.7,0-1.1,0.1c-0.7,0.2-1.3,0.7-1.8,1.3c-4.3,1.9-9,3.4-12.8,6c-0.7,0.5-1.4,1.1-1.6,1.9c-1.2,7.2-2.5,14.4-4.1,21.6
		c-1.2,2.6-2.2,5.3-2.5,8.1C16,93.9,23.3,94.5,30.7,94.5z"/>
</g>
<path class="st4" d="M55.2,50c11.9,6.5,27.6,8.7,36.6,19.9c2.2,9,5.2,18,8.7,26.3"/>
<g>
	<g>
		<path class="st5" d="M96.4,96.7l-9.1-25c0,0-1.2-4.6-6.5-6.2l-19-9.5l-6.1-6.2L42.4,97.2C60.4,97.5,78.4,96.5,96.4,96.7z"/>
		<path class="st5" d="M17.5,97l-0.2-7.7C17.3,89.3,17.1,93.5,17.5,97c5.7,0.1,11.5-0.1,17.1,0l-1-18.7l1.2-17.2l3-11l0.2-3.7
			l-4.8,4.1l-0.4,3.7l-12.3,5c0,0-6.4,3.5-9.3,8.9l-8,28.6C7.6,96.7,13.1,96.9,17.5,97z"/>
	</g>
</g>
<path class="st0" d="M97.4,60.8c0,0-15.5,2.5-22.8,8L56.2,97l43.6-0.9L97.4,60.8z"/>
<path class="st0" d="M74.5,96.1c12,0.1,33.8,0.5,35.7,0.6c6.1,0.3,12.4,0.5,18.6,0.6l1-5.3l4.7,5.4c6.8,0.2,13.2,0.2,20,0.4
	c-7-9.6-19.4-26-19.4-26s-4.8-11.1-24.2-10.4l2.6-12.9L74.5,96.1z"/>
<path class="st6" d="M100.3,97l-5.4-32.6l-7,1.9L76.5,70L60.4,97.2C73.7,97.9,87,96.9,100.3,97z"/>
<path class="st6" d="M124.3,97.2c1.5,0,3,0.1,4.5,0.1l0.8-4.4l3.9,4.5c5.4,0.1,10.8,0.2,16.2,0.3l-20.8-28.2
	c-2.5-1.5-7.7-3.5-14.3-5.2l-3.5,0.5l-8,32.2C110.2,97,117.2,97.1,124.3,97.2z"/>
<polyline class="st7" points="54.5,52.3 42.7,58.1 37.3,53.7 38.4,42.8 "/>
<path class="st4" d="M17.1,73.1c-0.1,7.1,0.2,14.2,0.8,21.2"/>
<path class="st4" d="M84.7,70.9c0,0-11.3,2.9-9.5,16.7"/>
<path class="st4" d="M37.1,49.5c0,0-13.1,5.6-17.6,7.7c0,0-6.3,2.4-9.4,7.1c-3,4.7-9.2,30.9-9.2,30.9"/>
<path class="st0" d="M62.2,52.7c-1.6-1.5-6-6.3-6-6.3l-1.5,5.4l-0.1,0.6L41.6,97c0.6-0.1,2.1,0,2.8,0c1.4,0,2.6,0.1,3.8,0
	c3.8-7,6.6-14.2,7-15.4C56,79.4,58,62.1,58,62.1S63.8,54.2,62.2,52.7z"/>
<path class="st4" d="M48,96.1c3.8-7,6.7-13.3,7.1-14.5c0.8-2.2,2.8-19.5,2.8-19.5s5.9-8,4.3-9.5c-1.6-1.5-6-6.3-6-6.3l-1.5,5.4
	l-0.1,0.6L42,95.9"/>
<path class="st0" d="M35.2,97c-1.4-15.4-2.6-38.1,2.2-46.2l0.3-2.6l0.2-2.6c0,0-5.1,4.1-5.1,5.3c0,0-1.2,5.6-1.9,10.7
	c0,0-4.5,13.2-3.8,18.1c0.4,2.2,2.4,10.3,4.6,17.4"/>
<path class="st4" d="M43.4,66.4c0.5,4.8,0.2,22.9,0.2,22.9"/>
<g>
	<g>
		<g>
			<defs>
				<rect id="SVGID_5_" x="38.8" y="58.4" width="5.5" height="7.5"/>
			</defs>
			<clipPath id="SVGID_6_">
				<use xlink:href="#SVGID_5_"  style="overflow:visible;"/>
			</clipPath>
			<polygon class="st8" points="44.4,60.2 41.6,65.9 40.1,65.2 38.8,61 42.3,58.4 			"/>
		</g>
	</g>
</g>
<g>
	<g>
		<g>
			<defs>
				<rect id="SVGID_7_" x="35.4" y="67.1" width="6.8" height="44"/>
			</defs>
			<clipPath id="SVGID_8_">
				<use xlink:href="#SVGID_7_"  style="overflow:visible;"/>
			</clipPath>
			<path class="st9" d="M41.4,95.9l0.8-28.7l-1.4-0.1l-2.2,10l-3.3,11.3l0.8,7.6C38,95.9,39.7,95.9,41.4,95.9z"/>
		</g>
	</g>
</g>
<path class="st10" d="M153.7,96.6c-6.4-8.7-13.1-17.7-19.9-27.4c-5.2-6.7-14.2-8.2-22.8-7.8c0.9-4.3,6.3-0.2,0,0
	c0.9-4.3,1.7-8.6,2.6-12.9"/>
<path class="st10" d="M129,96.5c0.2-1.5,0.5-3,0.7-4.5c1.2,1.5,2.4,3,3.6,4.5"/>
<path class="st10" d="M74.5,95.7c1.9-4.7,3.8-9.5,5.7-14.2"/>
<path class="st10" d="M95.2,51.7c-1.1,3.3,2.7,8.5-1.1,9.3c-6,1.5-11.2,3.7-16.5,5.2c-9,8.2-14.2,19.5-20.4,29"/>
<path class="st10" d="M99.1,96.2c-1.3-12-2.8-23.2-3.9-35.1"/>
<path class="st10" d="M111,61.4c-3.4,11.6-4.9,23.6-7.6,34.8"/>
<path class="st10" d="M91.3,62.2c0.5,3.3-1.7,6.3-1,9.3c2.2,6,0,12,2.2,17.2c1.5,2.2,2.2,5.2,3.3,7.6"/>
<path class="st10" d="M114.7,62.2c-1.2,4.8,1.1,10.8-1.2,15.3c0,0.7-1.5,0.7-1.5,1.5c-0.7,6-1.5,12-4.6,17.6"/>
<polyline class="st10" points="95.2,61.1 102.7,66.2 111.5,61.3 "/>
<polyline class="st10" points="96.9,69.9 102.7,66.2 108.3,71.2 "/>
<path class="st10" d="M102.7,67.3c-0.4,9.4-0.4,19.1-1.5,28.9"/>
<path class="st0" d="M88,35.6c0,0-3.6-2.2-3.9-0.7s-1.7,7.8,6,10.1"/>
<path class="st10" d="M88,35.6c0,0-3.6-2.2-3.9-0.7s-1.7,7.8,6,10.1"/>
<path class="st0" d="M117.9,34.9c0,0,3.6-2.2,3.9-0.7s1.7,7.8-6,10.1"/>
<path class="st10" d="M117.9,34.9c0,0,3.6-2.2,3.9-0.7s1.7,7.8-6,10.1"/>
<path class="st11" d="M117.5,31.3c0.5,23.8-15.7,24.4-15.7,24.4c-15.5-5.6-14.1-25.2-14.1-25.2s-1.3-10.4,6.8-13.4
	c0,0,13.8-6.1,18.6,1.4C113.1,18.5,118.8,22.2,117.5,31.3"/>
<polyline class="st10" points="102.4,34.8 101.7,42 103.8,41.6 "/>
<path class="st10" d="M102.1,46.7c0,0,3.4,0.3,5.8-1.9"/>
<path class="st10" d="M87.9,33.4c6.3,0.5,10.2-13.6,10.2-13.6s5.4-3.2,5.5,4.3s8.3,9.2,13.8,7.9"/>
<path class="st10" d="M129.1,69.9c0,0-3.9,2.8-3.2,10.5"/>
<path class="st3" d="M98.6,36.8c0,1-0.6,1.8-1.3,1.8c-0.7,0-1.3-0.8-1.3-1.8s0.6-1.8,1.3-1.8S98.6,35.8,98.6,36.8"/>
<path class="st3" d="M108.4,36.8c0,1-0.6,1.8-1.3,1.8c-0.7,0-1.3-0.8-1.3-1.8s0.6-1.8,1.3-1.8S108.4,35.8,108.4,36.8"/>
<path class="st10" d="M95.7,31.5c0,0,1.7-1.1,3.4,0"/>
<path class="st12" d="M122,92.7c0.3-0.8-0.5-0.9-0.5-0.9c-0.2,0-0.4-0.1-0.4-0.3c0-0.1,0-0.2,0-0.3c0-0.1,0-0.2,0.1-0.3
	c0.1-0.1,0.2-0.2,0.4-0.2c0.9,0,1.8,0,2.7,0c0.4,0,0.8-0.1,1.1-0.3c0.6-0.4,1-1.2,0.8-1.9c-0.1-0.4-0.3-0.7-0.5-1
	c-0.2-0.2-0.3-0.4-0.4-0.7c0-0.1,0-0.2-0.1-0.3c0,0,0,0,0-0.1c-0.2-0.6-0.6-1-1.3-1.2c-0.3-0.1-0.4-0.3-0.6-0.6
	c-0.4-0.6-1-0.9-1.7-0.8c-0.3,0-0.6,0-0.9-0.2c-0.2-0.1-0.4-0.2-0.6-0.3c-0.1,0-0.1,0-0.2,0l0,0h-0.1h-0.2l0,0h-0.1l0,0
	c-0.3,0-0.5,0.1-0.8,0.3c-0.2,0.1-0.4,0.2-0.6,0.2H118c-0.2,0-0.3,0-0.5,0s-0.3,0-0.5,0.1c-0.3,0.1-0.5,0.2-0.7,0.3l0,0
	c-0.2,0.1-0.3,0.3-0.4,0.5s-0.3,0.4-0.6,0.5c0,0-0.1,0-0.1,0.1c-0.1,0-0.2,0.1-0.3,0.1c-0.2,0.1-0.4,0.3-0.5,0.4
	c-0.2,0.2-0.3,0.4-0.3,0.7v0.1c0,0,0,0,0,0.1s-0.1,0.2-0.1,0.4c-0.1,0.1-0.2,0.3-0.3,0.4l-0.1,0.1c-0.1,0.1-0.2,0.2-0.3,0.4
	c0,0.1-0.1,0.2-0.1,0.3c0,0,0,0,0,0.1l0,0v0.1c0,0.1,0,0.1,0,0.2l0,0v0.1l0,0l0,0v0.1V89l0,0v0.2l0,0c0,0.1,0,0.2,0.1,0.3
	c0.2,0.6,0.6,1,1.2,1.2c0.1,0.1,0.3,0.1,0.5,0.1h0.1c0.5,0,1,0,1.6,0c0.4,0,0.9,0,1.3,0c0.3,0,0.5,0.1,0.5,0.4c0,0.1,0,0.2,0,0.2
	c0,0.2-0.1,0.3-0.2,0.4s-0.2,0.1-0.3,0.1c0,0-0.8,0.1-0.6,0.9L122,92.7z"/>
<path class="st13" d="M122,92.7c0.3-0.8-0.5-0.9-0.5-0.9c-0.2,0-0.4-0.1-0.4-0.3c0-0.1,0-0.2,0-0.3c0-0.1,0-0.2,0.1-0.3
	c0.1-0.1,0.2-0.2,0.4-0.2c0.9,0,1.8,0,2.7,0c0.4,0,0.8-0.1,1.1-0.3c0.6-0.4,1-1.2,0.8-1.9c-0.1-0.4-0.3-0.7-0.5-1
	c-0.2-0.2-0.3-0.4-0.4-0.7c0-0.1,0-0.2-0.1-0.3c0,0,0,0,0-0.1c-0.2-0.6-0.6-1-1.3-1.2c-0.3-0.1-0.4-0.3-0.6-0.6
	c-0.4-0.6-1-0.9-1.7-0.8c-0.3,0-0.6,0-0.9-0.2c-0.2-0.1-0.4-0.2-0.6-0.3c-0.1,0-0.1,0-0.2,0l0,0h-0.1h-0.2l0,0h-0.1l0,0
	c-0.3,0-0.5,0.1-0.8,0.3c-0.2,0.1-0.4,0.2-0.6,0.2H118c-0.2,0-0.3,0-0.5,0s-0.3,0-0.5,0.1c-0.3,0.1-0.5,0.2-0.7,0.3l0,0
	c-0.2,0.1-0.3,0.3-0.4,0.5s-0.3,0.4-0.6,0.5c0,0-0.1,0-0.1,0.1c-0.1,0-0.2,0.1-0.3,0.1c-0.2,0.1-0.4,0.3-0.5,0.4
	c-0.2,0.2-0.3,0.4-0.3,0.7v0.1c0,0,0,0,0,0.1s-0.1,0.2-0.1,0.4c-0.1,0.1-0.2,0.3-0.3,0.4l-0.1,0.1c-0.1,0.1-0.2,0.2-0.3,0.4
	c0,0.1-0.1,0.2-0.1,0.3c0,0,0,0,0,0.1l0,0v0.1c0,0.1,0,0.1,0,0.2l0,0v0.1l0,0l0,0v0.1V89l0,0v0.2l0,0c0,0.1,0,0.2,0.1,0.3
	c0.2,0.6,0.6,1,1.2,1.2c0.1,0.1,0.3,0.1,0.5,0.1h0.1c0.5,0,1,0,1.6,0c0.4,0,0.9,0,1.3,0c0.3,0,0.5,0.1,0.5,0.4c0,0.1,0,0.2,0,0.2
	c0,0.2-0.1,0.3-0.2,0.4s-0.2,0.1-0.3,0.1c0,0-0.8,0.1-0.6,0.9L122,92.7z"/>
<path class="st0" d="M32.1,27.2c0,0-3.5-2.1-3.7-0.7c-0.3,1.4-1.6,7.4,5.6,9.6"/>
<path class="st14" d="M32.1,27.2c0,0-3.5-2.1-3.7-0.7c-0.3,1.4-1.6,7.4,5.6,9.6"/>
<path class="st0" d="M60.8,26.5c0,0,3.5-2.1,3.7-0.7c0.3,1.4,1.6,7.4-5.6,9.6"/>
<path class="st14" d="M60.8,26.5c0,0,3.5-2.1,3.7-0.7c0.3,1.4,1.6,7.4-5.6,9.6"/>
<path class="st11" d="M61.1,18c-1.2,31-15.3,27.8-15.3,27.8c-13.6-2.3-14-22.7-14-22.7s-0.3-2.5,0.1-4.2c0.9-3.8,2.5-11.1,22-10.3
	c0,0,8.2,0.8,12.1-1.6c0,0,2.5,6.3-4.4,9.9"/>
<path class="st14" d="M61.1,18c-1.2,31-15.3,27.8-15.3,27.8c-13.6-2.3-14-22.7-14-22.7s-0.3-2.5,0.1-4.2c0.9-3.8,2.5-11.1,22-10.3
	c0,0,8.2,0.8,12.1-1.6c0,0,2.5,6.3-4.4,9.9"/>
<polyline class="st14" points="46.1,26.4 45.5,33.2 47.5,32.9 "/>
<path class="st14" d="M45.9,37.7c0,0,3.2,0.3,5.5-1.8"/>
<path class="st3" d="M42.6,28.4c0,1-0.6,1.7-1.3,1.7S40,29.3,40,28.4c0-1,0.6-1.7,1.3-1.7C42,26.7,42.6,27.4,42.6,28.4"/>
<path class="st3" d="M51.8,28.4c0,1-0.6,1.7-1.3,1.7s-1.3-0.8-1.3-1.7c0-1,0.6-1.7,1.3-1.7C51.2,26.7,51.8,27.4,51.8,28.4"/>
<path class="st15" d="M38.4,20.1c0,0,12,3.3,19.3-2.1"/>
<path class="st15" d="M56.5,21.1c0,0,1.2,1.2,1.6,3.2"/>
<path class="st15" d="M36.6,18.5c0,0,1,1.8-1.4,6.2"/>
<path class="st15" d="M49.7,17.5c0,0,4.3-0.8,6.9-2.6"/>
<line class="st16" x1="55.5" y1="48.1" x2="55.4" y2="41.4"/>
<path class="st10" d="M117.5,31.3c0.5,23.8-15.7,24.4-15.7,24.4c-15.5-5.6-14.1-25.2-14.1-25.2s-1.3-10.4,6.8-13.4
	c0,0,13.8-6.1,18.6,1.4C113.1,18.5,118.8,22.2,117.5,31.3z"/>
<polyline class="st7" points="45.8,62.2 42.9,66.4 40.5,66.1 39,62.2 "/>
<path class="st7" d="M50.2,64.5c-0.7,0-7.5-6.4-7.5-6.4l-7.5,6.5"/>
<line class="st4" x1="41.2" y1="66.1" x2="34.7" y2="89.1"/>
<path class="st4" d="M35,95.8c-1.4-15.4-2.3-37,2.5-45l0.3-2.6l0.2-2.6c0,0-5.1,4.1-5.1,5.3c0,0-1.2,5.6-1.9,10.7
	c0,0-4.5,13.2-3.8,18.1c0.3,2.2,2.3,9.1,4.4,16.1"/>
</svg>
