<?xml version="1.0" encoding="utf-8"?>
<!-- Generator: Adobe Illustrator 22.0.1, SVG Export Plug-In . SVG Version: 6.00 Build 0)  -->
<svg version="1.1" id="圖層_1" xmlns="http://www.w3.org/2000/svg" xmlns:xlink="http://www.w3.org/1999/xlink" x="0px" y="0px"
	 width="27px" height="16.9px" viewBox="0 0 27 16.9" enable-background="new 0 0 27 16.9" xml:space="preserve">
<g>
	<g>
		<polygon fill="#FFFFFF" points="18.1,10.8 13.5,3.3 8.9,10.8 2.7,8.2 5,16.3 13.5,16.3 22,16.3 24.3,8.2 		"/>
	</g>
	<g>
		<polygon fill="#FFE500" points="16.4,11.9 12.3,5.4 8.2,11.9 2.7,9.6 4.8,16.6 12.3,16.6 19.9,16.6 22,9.6 		"/>
	</g>
	<g>
		<path fill="#FFFFFF" d="M4.6,8.2c0,1-0.8,1.9-1.9,1.9c-1,0-1.9-0.8-1.9-1.9c0-1,0.8-1.9,1.9-1.9C3.7,6.3,4.6,7.1,4.6,8.2"/>
	</g>
	<g>
		<path fill="#FFFFFF" d="M26.2,8.2c0,1-0.8,1.9-1.9,1.9c-1,0-1.9-0.8-1.9-1.9c0-1,0.8-1.9,1.9-1.9C25.3,6.3,26.2,7.1,26.2,8.2"/>
	</g>
	<g>
		<path fill="#FFFFFF" d="M15.4,2.5c0,1-0.8,1.9-1.9,1.9c-1,0-1.9-0.8-1.9-1.9c0-1,0.8-1.9,1.9-1.9C14.5,0.7,15.4,1.5,15.4,2.5"/>
	</g>
	<path fill="#221714" d="M24.3,5.7c-1.4,0-2.5,1.1-2.5,2.5c0,0.1,0,0.2,0,0.3l-3.5,1.5L15,4.5C15.6,4,16,3.3,16,2.5
		c0-1.4-1.1-2.5-2.5-2.5S11,1.2,11,2.5C11,3.3,11.4,4,12,4.5L8.6,9.9L5.2,8.4c0-0.1,0-0.2,0-0.3c0-1.4-1.1-2.5-2.5-2.5
		S0.2,6.8,0.2,8.2c0,1.4,1.1,2.5,2.4,2.5l1.7,5.8C4.4,16.8,4.7,17,5,17h17c0.3,0,0.6-0.2,0.7-0.5l1.7-5.8c1.4,0,2.4-1.1,2.4-2.5
		C26.8,6.8,25.7,5.7,24.3,5.7z M12.2,2.5c0-0.7,0.6-1.3,1.3-1.3s1.3,0.6,1.3,1.3c0,0.3-0.1,0.7-0.4,0.9c-0.2,0.2-0.5,0.4-0.9,0.4
		c-0.3,0-0.7-0.1-0.9-0.4C12.4,3.2,12.2,2.9,12.2,2.5z M2.3,9.3C1.8,9.2,1.5,8.7,1.5,8.2c0-0.7,0.6-1.3,1.3-1.3c0.6,0,1.1,0.4,1.2,1
		C4,8,4,8.1,4,8.2c0,0.7-0.6,1.3-1.3,1.3C2.6,9.4,2.4,9.4,2.3,9.3z M21.5,15.6H5.5L4,10.3c0.2-0.1,0.4-0.3,0.6-0.5l4,1.7
		c0.3,0.1,0.7,0,0.9-0.3L13.3,5c0.1,0,0.1,0,0.2,0c0.1,0,0.1,0,0.2,0l3.8,6.2c0.2,0.3,0.6,0.4,0.9,0.3l4-1.7
		c0.2,0.2,0.4,0.4,0.6,0.5L21.5,15.6z M24.7,9.3c-0.1,0-0.3,0.1-0.4,0.1c-0.7,0-1.3-0.6-1.3-1.3c0-0.1,0-0.2,0-0.2
		c0.1-0.6,0.6-1,1.2-1c0.7,0,1.3,0.6,1.3,1.3C25.5,8.7,25.2,9.2,24.7,9.3z"/>
	<g>
		<path fill="#FFFFFF" d="M14.7,10.9c-0.7-0.1-0.9-0.9-0.9-1.2c0,0-0.1-1.1-0.2-1.1c-0.1,0-0.2,1-0.2,1c0,0.1-0.1,1.3-0.9,1.3
			c0,0-1.1,0.1-1.1,0.3c0,0.2,1.1,0.3,1.1,0.3c0.8,0.1,0.9,1.2,0.9,1.3c0,0,0.1,1,0.2,1c0.1,0,0.2-1.1,0.2-1.1
			c0-0.3,0.2-1.1,0.9-1.2c0,0,1.2-0.1,1.2-0.3C15.8,11.1,14.7,10.9,14.7,10.9"/>
	</g>
</g>
</svg>
