<?xml version="1.0" encoding="utf-8"?>
<!-- Generator: Adobe Illustrator 22.0.1, SVG Export Plug-In . SVG Version: 6.00 Build 0)  -->
<svg version="1.1" id="圖層_1" xmlns="http://www.w3.org/2000/svg" xmlns:xlink="http://www.w3.org/1999/xlink" x="0px" y="0px"
	 width="85px" height="85px" viewBox="0 0 85 85" enable-background="new 0 0 85 85" xml:space="preserve">
<g>
	<g>
		
			<polygon fill="none" stroke="#231815" stroke-width="2.5029" stroke-linecap="round" stroke-linejoin="round" stroke-miterlimit="10" points="
			52.8,42.6 56.8,51.8 67.7,57.5 72.6,48.8 62.7,36.2 61.9,32.6 		"/>
		<path fill="#FFFFFF" d="M56.6,29.3c7.2,5.3,14.5,2.9,20.6-1.1c-3.7-5.7-9-10.1-14.7-10.1c-6.2,0-11.7,4.9-15.5,11.3
			C50.1,27.6,54.1,27.3,56.6,29.3"/>
		<path fill="#FFFFFF" d="M57.9,45.1c8.3,2.9,17.8,3.6,25.1-0.6c-0.3-3.6-1.4-7.6-3.1-11.4c-6.8,4.2-13.4,8.9-22,2.6
			c-4-2.8-9.5-1.6-14.2,1c-1.1,3.3-1.8,6.7-1.8,9.7c0,0.4,0,0.7,0,1C46.6,44.5,52.5,42.9,57.9,45.1"/>
		<path fill="#FFFFFF" d="M68.6,52.7c-8.2-3-18.6-4.2-24.6,2.7c3.4,6.8,10.4,11.5,18.5,11.5c9.4,0,17.4-6.3,19.8-15
			C78.2,54,73.4,54.5,68.6,52.7"/>
		<g>
			<g>
				<g>
					<defs>
						<rect id="SVGID_1_" x="41.9" y="44.1" width="41.2" height="11.3"/>
					</defs>
					<clipPath id="SVGID_2_">
						<use xlink:href="#SVGID_1_"  overflow="visible"/>
					</clipPath>
					<path clip-path="url(#SVGID_2_)" fill="#FFDB00" d="M83,44.5c-7.4,4.2-16.8,3.6-25.1,0.6c-5.4-2.2-11.3-0.6-16,2.2
						c0.1,2.9,0.9,5.6,2.1,8.1c6-6.9,16.4-5.6,24.7-2.7c4.8,1.8,9.5,1.3,13.7-0.8c0.5-1.8,0.8-3.7,0.8-5.7
						C83.1,45.7,83.1,45.1,83,44.5"/>
				</g>
			</g>
		</g>
		<g>
			<g>
				<g>
					<defs>
						<rect id="SVGID_3_" x="43.6" y="27.9" width="36.2" height="10.8"/>
					</defs>
					<clipPath id="SVGID_4_">
						<use xlink:href="#SVGID_3_"  overflow="visible"/>
					</clipPath>
					<path clip-path="url(#SVGID_4_)" fill="#FFDB00" d="M57.9,35.6c8.6,6.3,15.2,1.7,22-2.6c-0.8-1.7-1.7-3.3-2.7-4.9
						c-6.1,4-13.4,6.4-20.6,1.1c-2.5-2-6.5-1.6-9.6,0.1c-1.4,2.3-2.5,4.7-3.3,7.2C48.4,34,53.9,32.8,57.9,35.6"/>
				</g>
			</g>
		</g>
		<path fill="#231815" d="M84.5,44.3L84.5,44.3c-0.3-3.8-1.5-8-3.3-11.9c-0.8-1.8-1.8-3.5-2.8-5.1c-4.5-6.8-10.1-10.7-15.9-10.7
			c-6.1,0-12.2,4.4-16.8,12c-1.4,2.3-2.6,4.8-3.5,7.5c-1.2,3.6-1.9,7.1-1.9,10.2c0,0.4,0,0.7,0,1.1c0.1,3,0.9,5.9,2.3,8.7
			c3.8,7.6,11.3,12.3,19.8,12.3c9.8,0,18.6-6.6,21.2-16c0.6-2,0.8-4,0.8-6.1C84.6,45.7,84.5,45.1,84.5,44.3z M80.9,51.5
			c-2.3,8.2-9.9,13.9-18.4,13.9c-7.3,0-13.9-4.1-17.2-10.7c-1.2-2.4-1.8-4.9-2-7.5c0-0.3,0-0.6,0-1c0-2.8,0.6-6,1.7-9.2
			c0.8-2.4,1.9-4.7,3.2-6.9c4-6.7,9.2-10.6,14.2-10.6c4.7,0,9.6,3.4,13.5,9.4c0.9,1.4,1.8,3,2.6,4.7c0.5,1,0.9,2,1.2,3.1l-4.6,3.9
			L70,39.2c-0.2-0.1-0.5,0-0.7,0.1l-6.2,3.2l-6.3-2.6c-0.5-0.2-1.1,0-1.3,0.5s0,1.1,0.5,1.3l6.8,2.7c0.1,0,0.2,0.1,0.4,0.1
			s0.3,0,0.5-0.1l6.2-3.3l4.7,1.3v3.3L72,47.9c-0.4,0.4-0.5,1-0.1,1.4c0.2,0.2,0.5,0.3,0.7,0.3s0.5-0.1,0.6-0.2l2.9-2.5
			c0.2-0.2,0.3-0.5,0.3-0.7v-4l4-3.4c0.6,2,1,4,1.1,5.9c0.1,0.7,0.1,1.2,0.1,1.7C81.6,48,81.4,49.8,80.9,51.5z"/>
	</g>
	<g>
		<path fill="#FFFFFF" d="M51.3,44.2c0,12.8-10.4,23.2-23.2,23.2S4.8,57,4.8,44.2S15.2,21,28,21S51.3,31.4,51.3,44.2z"/>
		<g>
			<path fill="#231815" d="M25.1,66.9c-13.6,0-24.7-11.1-24.7-24.7s11.1-24.6,24.7-24.6s24.7,11.1,24.7,24.7S38.7,66.9,25.1,66.9z
				 M25.1,20.5c-12,0-21.8,9.8-21.8,21.8s9.8,21.8,21.8,21.8s21.8-9.8,21.8-21.8S37.1,20.5,25.1,20.5z"/>
		</g>
		<g>
			<g>
				<g>
					<defs>
						<rect id="SVGID_5_" x="8.7" y="27.8" width="28.9" height="28.9"/>
					</defs>
					<clipPath id="SVGID_6_">
						<use xlink:href="#SVGID_5_"  overflow="visible"/>
					</clipPath>
					<path clip-path="url(#SVGID_6_)" fill="#FFDB00" d="M37.6,42.3c0,8-6.5,14.5-14.5,14.5S8.6,50.3,8.6,42.3s6.5-14.5,14.5-14.5
						S37.6,34.3,37.6,42.3"/>
				</g>
			</g>
		</g>
		<g>
			<path fill="#231815" d="M25.1,59.6c-9.6,0-17.4-7.8-17.4-17.4s7.8-17.3,17.4-17.3s17.4,7.8,17.4,17.4S34.7,59.6,25.1,59.6z
				 M25.1,26.8c-8.5,0-15.4,6.9-15.4,15.4s6.9,15.4,15.4,15.4s15.4-6.9,15.4-15.4S33.6,26.8,25.1,26.8z"/>
		</g>
		<g>
			<path d="M22.9,48.1v-5.2c-1.6-0.5-2.8-1.2-3.6-2.1c-0.8-0.9-1.1-2.1-1.1-3.4c0-1.4,0.4-2.5,1.3-3.4c0.9-0.9,2-1.5,3.4-1.6v-1.2
				h1.8v1.2c1.3,0.2,2.4,0.6,3.2,1.4c0.8,0.7,1.3,1.7,1.5,3l-3.2,0.4c-0.2-1-0.7-1.6-1.5-2v4.9c2,0.5,3.4,1.2,4.1,2.1s1.1,2,1.1,3.3
				c0,1.5-0.5,2.8-1.4,3.8s-2.2,1.7-3.8,1.9v2.3h-1.8v-2.3c-1.4-0.2-2.6-0.7-3.5-1.6c-0.9-0.9-1.5-2.2-1.7-3.8l3.3-0.4
				c0.1,0.7,0.4,1.2,0.7,1.7C22,47.5,22.4,47.9,22.9,48.1z M22.9,35c-0.5,0.2-0.9,0.4-1.2,0.8c-0.3,0.4-0.4,0.8-0.4,1.3
				c0,0.4,0.1,0.9,0.4,1.2c0.3,0.4,0.7,0.7,1.2,0.9V35z M24.7,48.3c0.6-0.1,1.1-0.4,1.5-0.9s0.6-1,0.6-1.6s-0.2-1-0.5-1.4
				c-0.3-0.4-0.9-0.7-1.6-0.9V48.3z"/>
		</g>
	</g>
</g>
</svg>
