<?xml version="1.0" encoding="utf-8"?>
<!-- Generator: Adobe Illustrator 22.0.1, SVG Export Plug-In . SVG Version: 6.00 Build 0)  -->
<svg version="1.1" id="圖層_1" xmlns="http://www.w3.org/2000/svg" xmlns:xlink="http://www.w3.org/1999/xlink" x="0px" y="0px"
	 width="70px" height="70px" viewBox="0 0 70 70" enable-background="new 0 0 70 70" xml:space="preserve">
<g>
	
		<polygon fill="none" stroke="#231815" stroke-width="2.5374" stroke-linecap="round" stroke-linejoin="round" stroke-miterlimit="10" points="
		25.2,35.1 29.3,44.5 40.3,50.2 45.3,41.4 35.3,28.6 34.4,24.9 	"/>
	<path fill="#FFFFFF" d="M29.1,21.6c7.3,5.4,14.7,2.9,20.9-1.1c-3.8-5.8-9.1-10.2-15-10.2c-6.3,0-11.9,5-15.7,11.4
		C22.5,19.9,26.6,19.6,29.1,21.6"/>
	<path fill="#FFFFFF" d="M30.3,37.6c8.4,3,18,3.6,25.5-0.6c-0.3-3.7-1.4-7.7-3.2-11.6c-6.9,4.3-13.6,9-22.3,2.6
		c-4-2.9-9.6-1.6-14.4,1c-1.2,3.4-1.8,6.8-1.8,9.8c0,0.4,0,0.7,0,1.1C18.9,37,24.9,35.4,30.3,37.6"/>
	<path fill="#FFFFFF" d="M41.3,45.3c-8.4-3-18.9-4.3-25,2.7c3.4,6.9,10.5,11.7,18.7,11.7c9.6,0,17.6-6.4,20.1-15.2
		C50.9,46.7,46.1,47.2,41.3,45.3"/>
	<g>
		<g>
			<defs>
				<rect id="SVGID_1_" x="14.1" y="36.6" width="41.8" height="11.5"/>
			</defs>
			<clipPath id="SVGID_2_">
				<use xlink:href="#SVGID_1_"  overflow="visible"/>
			</clipPath>
			<path clip-path="url(#SVGID_2_)" fill="#FFDB00" d="M55.8,37c-7.5,4.3-17,3.6-25.5,0.6c-5.5-2.2-11.4-0.6-16.2,2.3
				c0.1,2.9,0.9,5.7,2.1,8.2c6.1-7,16.7-5.7,25-2.7c4.8,1.9,9.6,1.3,13.8-0.8c0.5-1.8,0.8-3.7,0.8-5.7C55.9,38.2,55.9,37.6,55.8,37"
				/>
		</g>
	</g>
	<g>
		<g>
			<defs>
				<rect id="SVGID_3_" x="15.9" y="20.2" width="36.7" height="10.9"/>
			</defs>
			<clipPath id="SVGID_4_">
				<use xlink:href="#SVGID_3_"  overflow="visible"/>
			</clipPath>
			<path clip-path="url(#SVGID_4_)" fill="#FFDB00" d="M30.3,28c8.8,6.4,15.4,1.7,22.3-2.6c-0.8-1.7-1.7-3.4-2.7-4.9
				c-6.2,4-13.5,6.5-20.9,1.1c-2.5-2-6.6-1.7-9.8,0.1c-1.4,2.3-2.5,4.8-3.4,7.3C20.7,26.4,26.3,25.1,30.3,28"/>
		</g>
	</g>
	<path fill="#231815" d="M57.3,36.9L57.3,36.9c-0.3-3.8-1.5-8.1-3.3-12.1c-0.8-1.8-1.8-3.5-2.8-5.1C46.6,12.7,40.9,8.8,35,8.8
		c-6.2,0-12.4,4.4-17,12.2c-1.4,2.3-2.6,4.9-3.5,7.5c-1.2,3.6-1.9,7.2-1.9,10.3c0,0.4,0,0.8,0,1.1c0.2,3.1,0.9,6,2.3,8.8
		c3.8,7.7,11.5,12.5,20.1,12.5c10,0,18.8-6.7,21.5-16.3c0.6-2,0.9-4.1,0.9-6.1C57.4,38.2,57.4,37.6,57.3,36.9z M53.7,44.1
		c-2.4,8.3-10,14.1-18.7,14.1c-7.4,0-14.1-4.1-17.4-10.8c-1.2-2.4-1.8-5-2-7.6c0-0.3,0-0.7,0-1c0-2.8,0.6-6.1,1.7-9.3
		c0.8-2.5,1.9-4.8,3.2-7c4.1-6.8,9.3-10.7,14.4-10.7c4.8,0,9.8,3.5,13.7,9.5c1,1.5,1.8,3.1,2.6,4.7c0.5,1,0.9,2.1,1.3,3.1l-4.6,4
		l-5.3-1.5c-0.2-0.1-0.5,0-0.7,0.1L35.6,35l-6.4-2.6c-0.5-0.2-1.1,0-1.3,0.5c-0.2,0.5,0,1.1,0.5,1.3l6.9,2.8c0.1,0,0.2,0.1,0.4,0.1
		c0.2,0,0.3,0,0.5-0.1l6.3-3.3l4.7,1.3v3.3l-2.6,2.2c-0.4,0.4-0.5,1-0.1,1.4c0.2,0.2,0.5,0.3,0.8,0.3c0.2,0,0.5-0.1,0.6-0.2l2.9-2.5
		c0.2-0.2,0.3-0.5,0.3-0.8v-4.1l4-3.5c0.6,2,1,4.1,1.1,5.9c0.1,0.7,0.1,1.2,0.1,1.7C54.4,40.6,54.2,42.4,53.7,44.1z"/>
</g>
</svg>
