<?xml version="1.0" encoding="utf-8"?>
<!-- Generator: Adobe Illustrator 22.0.1, SVG Export Plug-In . SVG Version: 6.00 Build 0)  -->
<svg version="1.1" id="圖層_1" xmlns="http://www.w3.org/2000/svg" xmlns:xlink="http://www.w3.org/1999/xlink" x="0px" y="0px"
	 width="70px" height="70px" viewBox="0 0 70 70" enable-background="new 0 0 70 70" xml:space="preserve">
<g>
	<path fill="#FFFFFF" d="M58.8,55.3L11,50.6c-4.4-0.4-7.5-4.3-7.1-8.7l1.5-15.3c0.4-4.4,4.3-7.5,8.7-7.1l47.8,4.7
		c4.4,0.4,7.5,4.3,7.1,8.7l-1.5,15.4C67,52.5,63.1,55.7,58.8,55.3z"/>
	<g>
		<path fill="#231815" d="M58,53.9L8.5,49.1c-5.1-0.5-8.8-5-8.3-10.1l1.4-15.5c0.5-5.1,5-8.8,10.1-8.3L61.2,20
			c5.1,0.5,8.8,5,8.3,10.1l-1.4,15.5C67.6,50.6,63.1,54.4,58,53.9z M11.5,17.8c-3.6-0.3-6.8,2.3-7.2,6L2.8,39.2
			c-0.4,3.6,2.3,6.8,5.9,7.2l49.5,4.8c3.6,0.4,6.8-2.3,7.2-5.9L67,29.9c0.4-3.6-2.3-6.8-5.9-7.2L11.5,17.8z"/>
	</g>
	<g>
		<g>
			<path fill="#FFDB00" d="M56.3,48.1l-41.4-4c-3.3-0.3-5.6-3.2-5.3-6.5l1.1-11.5c0.3-3.3,3.2-5.6,6.5-5.3l41.4,4
				c3.3,0.3,5.6,3.2,5.3,6.5l-1.1,11.5C62.4,46,59.5,48.4,56.3,48.1"/>
		</g>
	</g>
	<g>
		<path d="M21.5,28.2l6.8,0.7L28,30.8l-4.5-0.4l-0.2,1.8l3.3,0.3l-0.2,1.9l-3.3-0.3l-0.2,2l4.6,0.5l-0.1,2l-6.9-0.7L21.5,28.2z"/>
		<path d="M35.4,37.1L32,36.8l-0.8,2.1l-2.5-0.2l4.3-9.4l3,0.3l2.4,10l-2.6-0.2L35.4,37.1z M35.1,35.3L35,34.4
			c-0.2-1-0.4-2.2-0.6-3.2h-0.1c-0.4,1-0.8,2.1-1.2,3.1l-0.3,0.8L35.1,35.3z"/>
		<path d="M43.5,40.3c-1.5-0.1-3-0.8-4-1.8L41,37c0.7,0.7,1.8,1.2,2.8,1.3c0.8,0.1,1.6-0.1,1.6-0.6c0.1-0.6-0.7-0.9-1.6-1.3
			l-1.2-0.6c-1.1-0.5-2.2-1.5-2-3c0.2-1.6,1.9-2.7,4.1-2.5c1.3,0.1,2.6,0.7,3.6,1.7L47,33.4c-0.7-0.6-1.5-1-2.4-1.1
			c-0.7-0.1-1.4,0.1-1.5,0.7c-0.1,0.5,0.8,0.8,1.7,1.3l1.2,0.6c1.2,0.5,2.1,1.5,2,2.9C47.6,39.4,45.9,40.5,43.5,40.3z"/>
		<path d="M52.4,37.5L49.7,31l2.5,0.2l0.8,2.2c0.2,0.8,0.5,1.5,0.7,2.2h0.1c0.4-0.7,0.8-1.4,1.2-2.1l1.2-2l2.4,0.2l-3.9,5.9
			l-0.3,3.5l-2.3-0.2L52.4,37.5z"/>
	</g>
	<g>
		<path fill="#231815" d="M16.7,42.7l-4.4-0.4c-2.6-0.3-4.4-2.5-4.2-5.1l1-10.4c0-0.5,0.5-0.9,1-0.8c0.5,0,0.9,0.5,0.8,1l-1,10.4
			c-0.2,1.6,1,3,2.6,3.1l4.4,0.4c0.5,0,0.9,0.5,0.8,1S17.2,42.7,16.7,42.7z"/>
	</g>
</g>
</svg>
