<?xml version="1.0" encoding="utf-8"?>
<!-- Generator: Adobe Illustrator 22.0.1, SVG Export Plug-In . SVG Version: 6.00 Build 0)  -->
<svg version="1.1" id="圖層_1" xmlns="http://www.w3.org/2000/svg" xmlns:xlink="http://www.w3.org/1999/xlink" x="0px" y="0px"
	 width="85px" height="85px" viewBox="0 0 85 85" enable-background="new 0 0 85 85" xml:space="preserve">
<g>
	<g>
		<g>
			<path fill="#231815" d="M68.7,68.1c-0.6,0-1.1,0-1.7-0.1l-56-9.2c-2.7-0.4-5-1.9-6.6-4.1s-2.2-4.9-1.8-7.5l3.7-21.9
				c0.9-5.5,6.2-9.2,11.7-8.3l56,9.2c5.5,0.9,9.2,6.1,8.3,11.6l-3.6,21.8c-0.4,2.7-1.9,5-4.1,6.6C72.8,67.5,70.8,68.1,68.7,68.1z
				 M16.3,19.4c-3.6,0-6.8,2.6-7.4,6.3L5.3,47.6c-0.3,2,0.1,4,1.3,5.6c1.2,1.6,2.9,2.7,4.9,3l56,9.3l0,0c2,0.3,4-0.1,5.6-1.3
				c1.6-1.2,2.7-2.9,3-4.9l3.6-21.8c0.7-4.1-2.1-8-6.2-8.7l-56-9.3C17.1,19.5,16.7,19.4,16.3,19.4z"/>
		</g>
		<g>
			<g>
				<defs>
					<rect id="SVGID_1_" x="4.6" y="23.1" width="65.9" height="41.6"/>
				</defs>
				<clipPath id="SVGID_2_">
					<use xlink:href="#SVGID_1_"  overflow="visible"/>
				</clipPath>
				<path clip-path="url(#SVGID_2_)" fill="#FFDB00" d="M58.7,64.6l-47.8-7.9C6.8,56,4,52.1,4.7,48l3.1-18.6
					c0.7-4.1,4.6-6.9,8.7-6.2l47.8,7.9c4.1,0.7,6.9,4.6,6.2,8.7l-3.1,18.6C66.6,62.5,62.8,65.3,58.7,64.6"/>
			</g>
		</g>
	</g>
	<g>
		<g>
			<path fill="#231815" d="M31.5,54.9h-0.1L12.7,52c-0.5-0.1-0.8-0.5-0.7-1s0.5-0.8,1-0.7l18.7,2.9c0.5,0.1,0.8,0.5,0.7,1
				C32.3,54.6,32,54.9,31.5,54.9z"/>
		</g>
	</g>
	<g>
		<path d="M11.2,34.4l5.9,1L16.8,37l-4-0.6l-0.3,2.1l3.4,0.5l-0.3,1.6l-3.4-0.5l-0.4,2.6l4.1,0.7L15.6,45l-6.1-1L11.2,34.4z"/>
		<path d="M20.1,40.6l-1.8-5.1l2.1,0.3l0.6,2.1c0.1,0.5,0.3,1,0.5,1.6h0.1c0.3-0.6,0.6-1,0.9-1.4l1.2-1.8l2,0.3l-3.2,4.5l1.9,5.3
			l-2.1-0.3l-0.8-2.4c-0.2-0.5-0.3-1.1-0.5-1.7h-0.1c-0.3,0.5-0.6,1-1,1.5l-1.4,2l-2-0.3L20.1,40.6z"/>
		<path d="M27.3,37l3.2,0.5c2.1,0.3,3.7,1.4,3.3,3.6c-0.4,2.2-2.2,2.9-4.2,2.6l-1.3-0.2l-0.6,3.4l-1.9-0.3L27.3,37z M29.7,42.1
			c1.3,0.2,2.1-0.2,2.2-1.3c0.2-1.1-0.5-1.6-1.8-1.8L29,38.8L28.5,42L29.7,42.1z"/>
		<path d="M39.7,48.8l-1.4-4L37,44.6l-0.6,3.6L34.5,48l1.6-9.6l3.4,0.5c2,0.3,3.5,1.3,3.1,3.5c-0.2,1.4-1.1,2.2-2.3,2.5l1.6,4.3
			L39.7,48.8z M37.2,43.1l1.2,0.2c1.2,0.2,2-0.2,2.2-1.2s-0.5-1.5-1.7-1.7l-1.2-0.2L37.2,43.1z"/>
		<path d="M44.9,39.8l5.9,1l-0.3,1.5l-4-0.6l-0.4,2.2l3.4,0.5L49.2,46l-3.3-0.5l-0.4,2.6l4.1,0.7l-0.3,1.6l-6.1-1L44.9,39.8z"/>
		<path d="M50.9,49.4l1.3-1.1c0.6,0.7,1.4,1.3,2.3,1.5c1,0.2,1.6-0.2,1.7-0.9c0.1-0.7-0.4-1-1.2-1.5l-1.2-0.8
			c-0.9-0.6-1.8-1.5-1.5-2.9c0.3-1.6,1.8-2.6,3.8-2.2c1.1,0.2,2.2,0.8,2.8,1.7l-1.2,1.1c-0.5-0.6-1.1-1-1.9-1.1
			c-0.8-0.1-1.5,0.2-1.6,0.8c-0.1,0.7,0.5,1,1.3,1.5l1.2,0.7c1.1,0.7,1.7,1.5,1.5,2.9c-0.3,1.6-1.8,2.7-4,2.3
			C52.9,51.2,51.7,50.4,50.9,49.4z"/>
		<path d="M58.8,50.7l1.3-1.1c0.6,0.7,1.4,1.3,2.3,1.5c1,0.2,1.6-0.2,1.7-0.9c0.1-0.7-0.4-1-1.2-1.5l-1.2-0.8
			c-0.9-0.6-1.8-1.5-1.5-2.9c0.3-1.6,1.8-2.6,3.8-2.2c1.1,0.2,2.2,0.8,2.8,1.7l-1.2,1c-0.5-0.6-1.1-1-1.9-1.1
			c-0.8-0.1-1.5,0.2-1.6,0.8c-0.1,0.7,0.5,1,1.3,1.5l1.2,0.7c1.1,0.7,1.7,1.5,1.5,2.9c-0.3,1.6-1.8,2.7-4,2.3
			C60.8,52.4,59.6,51.7,58.8,50.7z"/>
	</g>
</g>
</svg>
