<?xml version="1.0" encoding="utf-8"?>
<!-- Generator: Adobe Illustrator 22.0.1, SVG Export Plug-In . SVG Version: 6.00 Build 0)  -->
<svg version="1.1" id="圖層_1" xmlns="http://www.w3.org/2000/svg" xmlns:xlink="http://www.w3.org/1999/xlink" x="0px" y="0px"
	 width="70px" height="70px" viewBox="0 0 70 70" enable-background="new 0 0 70 70" xml:space="preserve">
<g>
	<path fill="#FFFFFF" d="M62.3,36.9c0,13.8-11.2,25-25,25s-25-11.2-25-25s11.2-25,25-25S62.3,23.1,62.3,36.9z"/>
	<g>
		<path fill="#231815" d="M34.2,61.3c-14.6,0-26.5-11.9-26.5-26.5S19.6,8.2,34.2,8.2s26.5,11.9,26.5,26.5S48.8,61.3,34.2,61.3z
			 M34.2,11.4c-12.9,0-23.4,10.5-23.4,23.4s10.5,23.3,23.4,23.3s23.4-10.5,23.4-23.4S47.1,11.4,34.2,11.4z"/>
	</g>
	<g>
		<g>
			<g>
				<defs>
					<rect id="SVGID_1_" x="16.6" y="19.2" width="31.1" height="31.1"/>
				</defs>
				<clipPath id="SVGID_2_">
					<use xlink:href="#SVGID_1_"  overflow="visible"/>
				</clipPath>
				<path clip-path="url(#SVGID_2_)" fill="#FFDB00" d="M47.6,34.8c0,8.6-7,15.5-15.5,15.5c-8.6,0-15.5-7-15.5-15.5
					c0-8.6,7-15.5,15.5-15.5C40.7,19.2,47.6,26.2,47.6,34.8"/>
			</g>
		</g>
	</g>
	<g>
		<path fill="#231815" d="M34.2,53.5c-10.3,0-18.7-8.4-18.7-18.7S23.9,16,34.2,16s18.7,8.4,18.7,18.7S44.5,53.5,34.2,53.5z
			 M34.2,18.1c-9.2,0-16.6,7.4-16.6,16.6S25,51.3,34.2,51.3s16.6-7.4,16.6-16.6S43.4,18.1,34.2,18.1z"/>
	</g>
	<g>
		<path d="M32.2,40.9v-5.5c-1.7-0.5-3-1.2-3.8-2.2s-1.2-2.2-1.2-3.6s0.5-2.7,1.4-3.6c0.9-1,2.1-1.5,3.6-1.7V23h1.9v1.3
			c1.4,0.2,2.5,0.6,3.3,1.4c0.8,0.8,1.4,1.8,1.6,3.2l-3.3,0.4c-0.2-1-0.7-1.7-1.6-2.1v5.2c2.1,0.6,3.5,1.3,4.3,2.2
			c0.8,0.9,1.1,2.1,1.1,3.5c0,1.6-0.5,2.9-1.4,4c-1,1.1-2.3,1.8-4,2v2.5h-1.9v-2.5c-1.5-0.2-2.8-0.8-3.7-1.7c-1-1-1.6-2.3-1.8-4
			l3.4-0.4c0.1,0.7,0.4,1.3,0.8,1.8C31.3,40.3,31.8,40.7,32.2,40.9z M32.2,27.1c-0.5,0.2-0.9,0.5-1.2,0.9c-0.3,0.4-0.5,0.9-0.5,1.4
			s0.1,0.9,0.4,1.3s0.7,0.7,1.3,1C32.2,31.7,32.2,27.1,32.2,27.1z M34.1,41.1c0.7-0.1,1.2-0.4,1.6-0.9s0.6-1.1,0.6-1.7
			c0-0.6-0.2-1.1-0.5-1.5c-0.3-0.4-0.9-0.8-1.7-1V41.1z"/>
	</g>
</g>
</svg>
