<?xml version="1.0" encoding="utf-8"?>
<!-- Generator: Adobe Illustrator 22.0.1, SVG Export Plug-In . SVG Version: 6.00 Build 0)  -->
<svg version="1.1" id="圖層_1" xmlns="http://www.w3.org/2000/svg" xmlns:xlink="http://www.w3.org/1999/xlink" x="0px" y="0px"
	 width="85px" height="85px" viewBox="0 0 85 85" enable-background="new 0 0 85 85" xml:space="preserve">
<g>
	<g>
		<g>
			<defs>
				<rect id="SVGID_1_" x="23.3" y="14.7" width="36.3" height="31.9"/>
			</defs>
			<clipPath id="SVGID_2_">
				<use xlink:href="#SVGID_1_"  overflow="visible"/>
			</clipPath>
			<g clip-path="url(#SVGID_2_)">
				<path fill="#FFDB00" d="M59.6,14.7c0,17.6-8.1,31.9-18.2,31.9c-10,0-18.2-14.3-18.2-31.9C23.2,14.7,59.6,14.7,59.6,14.7z"/>
			</g>
		</g>
	</g>
	<g>
		<path fill="#FFDB00" d="M18.8,15H5.9c0,0,0,21.3,19,21.3L22.3,31c0,0-9.7-0.2-11.5-11.9h7.8"/>
	</g>
	<g>
		<polygon fill="#FFFFFF" points="43.1,20.3 45.8,26 52.1,26.8 47.5,31.1 48.7,37.3 43.1,34.2 37.6,37.3 38.8,31.1 34.2,26.8 
			40.4,26 		"/>
	</g>
	<g>
		<path fill="#231815" d="M48.7,38.1c-0.1,0-0.3,0-0.4-0.1l-5.1-2.8L38,38c-0.3,0.2-0.6,0.1-0.9-0.1c-0.3-0.2-0.4-0.5-0.3-0.8
			l1.1-5.8l-4.3-4c-0.2-0.2-0.3-0.5-0.2-0.8c0.1-0.3,0.4-0.5,0.7-0.6l5.8-0.7l2.5-5.3c0.1-0.3,0.4-0.5,0.7-0.5s0.6,0.2,0.7,0.5
			l2.5,5.3l5.8,0.7c0.3,0,0.6,0.3,0.7,0.6c0.1,0.3,0,0.6-0.2,0.8l-4.3,4l1.1,5.8c0.1,0.3-0.1,0.6-0.3,0.8C49,38,48.8,38.1,48.7,38.1
			z M36,27.3l3.3,3.1c0.2,0.2,0.3,0.5,0.2,0.7l-0.9,4.5l4-2.2c0.2-0.1,0.5-0.1,0.8,0l4,2.2l-0.9-4.5c-0.1-0.3,0-0.6,0.2-0.7l3.3-3.1
			l-4.5-0.6c-0.3,0-0.5-0.2-0.6-0.5L43,22.1l-1.9,4.1c-0.1,0.3-0.4,0.4-0.6,0.5L36,27.3z"/>
	</g>
	<g>
		<path fill="#FFDB00" d="M49.7,62.9h-3.5V46.6h-7.4v16.3h-3.5c-3.9,0-7,3.1-7,7v0.2h28.4v-0.2C56.7,66.1,53.6,62.9,49.7,62.9"/>
	</g>
	<path fill="#231815" d="M79.1,14.1H66.2c-0.2-0.2-0.5-0.3-0.8-0.3H19.6c-0.3,0-0.6,0.1-0.8,0.3H5.9C5.4,14.1,5,14.5,5,15
		c0,0.2,0.2,22.1,19.8,22.2c3.4,5,7.9,8.5,12.9,9.9v14.8h-2.4c-4.4,0-8.1,3.6-8.1,8.1v0.2c0,0.6,0.5,1,1,1h28.4c0.6,0,1-0.5,1-1V70
		c0-4.4-3.6-8.1-8.1-8.1h-2.4V47.2c5.1-1.4,9.6-4.9,13-9.9C79.8,37.1,80,15.3,80,15C80,14.5,79.6,14.1,79.1,14.1z M66.4,20.1H73
		c-1.5,7.3-6.5,9.3-8.9,9.8C65.2,26.9,66,23.6,66.4,20.1z M21,29.9c-2.5-0.5-7.5-2.4-9-9.8h6.7C19.1,23.6,19.9,26.9,21,29.9z
		 M9.2,25.3C7.5,21.6,7,17.7,6.9,16h11.5c0,0.8,0,1.5,0.1,2.3h-7.6c-0.3,0-0.5,0.1-0.7,0.3C10,18.8,9.9,19,10,19.3
		c1.6,10.7,9.6,12.4,11.8,12.6l1.7,3.4C16.8,34.9,12,31.5,9.2,25.3z M45.2,47.6v15.3c0,0.6,0.5,1,1,1h3.5c3,0,5.6,2.3,6,5.2H29.4
		c0.4-2.9,2.9-5.2,6-5.2h3.5c0.6,0,1-0.5,1-1V47.6h0.6c0.7,0.1,1.4,0.1,2.2,0.1c0.7,0,1.5-0.1,2.2-0.1H45.2z M42.5,45.3
		c-11.7,0-21.2-12.9-21.7-29.1h43.4C63.8,32.4,54.2,45.3,42.5,45.3z M75.8,25.3c-2.8,6.2-7.6,9.5-14.2,10l0.6-1.2
		c0.4-0.7,0.7-1.4,1.1-2.2c2.3-0.3,10.2-2,11.8-12.6c0-0.3,0-0.5-0.2-0.8c-0.2-0.2-0.4-0.3-0.7-0.3h-7.5c0.1-0.7,0.1-1.5,0.1-2.3
		h11.4C78,17.7,77.5,21.6,75.8,25.3z"/>
</g>
</svg>
