<?xml version="1.0" encoding="utf-8"?>
<!-- Generator: Adobe Illustrator 22.0.1, SVG Export Plug-In . SVG Version: 6.00 Build 0)  -->
<svg version="1.1" id="圖層_1" xmlns="http://www.w3.org/2000/svg" xmlns:xlink="http://www.w3.org/1999/xlink" x="0px" y="0px"
	 width="48px" height="48px" viewBox="0 0 48 48" enable-background="new 0 0 48 48" xml:space="preserve">
<g>
	<g>
		<path fill="#231815" d="M14.3,40.2H5.7c-0.5,0-0.9-0.4-0.9-0.9V18.5c0-0.5,0.4-0.9,0.9-0.9h8.6c0.5,0,0.9,0.4,0.9,0.9v20.8
			C15.1,39.8,14.8,40.2,14.3,40.2z M6.6,38.5h6.8V19.4H6.6V38.5z"/>
	</g>
	<g>
		<path fill="#231815" d="M35.4,44.7H21.3c-4.3,0-7.8-3.5-7.8-7.8V8.4c0-2.8,2.3-5.1,5.1-5.1s5.1,2.3,5.1,5.1v4.8h11.7
			c4.3,0,7.8,3.5,7.8,7.8v16C43.1,41.2,39.7,44.7,35.4,44.7z M18.6,5c-1.9,0-3.4,1.5-3.4,3.4v28.5c0,3.3,2.7,6,6,6h14.1
			c3.3,0,6-2.7,6-6v-16c0-3.3-2.7-6-6-6H22.9c-0.5,0-0.9-0.4-0.9-0.9V8.4C22,6.6,20.5,5,18.6,5z"/>
	</g>
	<g>
		<g>
			<g>
				<defs>
					<rect id="SVGID_1_" x="17.3" y="11.8" width="19.4" height="28.4"/>
				</defs>
				<clipPath id="SVGID_2_">
					<use xlink:href="#SVGID_1_"  overflow="visible"/>
				</clipPath>
				<g clip-path="url(#SVGID_2_)">
					<path fill="#FFDB00" d="M17.3,23.8v11.4c0,2.7,2.2,4.9,4.8,4.9h9.8c2.6,0,4.8-2.2,4.8-4.9V23.8c0-2.7-2.2-4.9-4.8-4.9h-8.7v-4
						c0-1.7-1.3-3-2.9-3s-2.9,1.4-2.9,3v6.9L17.3,23.8L17.3,23.8z"/>
				</g>
			</g>
		</g>
	</g>
	<g>
		<path fill="#231815" d="M10.1,26.1c-1.2,0-2.2-1-2.2-2.2s1-2.2,2.2-2.2s2.2,1,2.2,2.2C12.2,25.1,11.3,26.1,10.1,26.1z M10.1,22.8
			c-0.6,0-1,0.5-1,1c0,0.6,0.5,1,1,1c0.6,0,1-0.5,1-1S10.6,22.8,10.1,22.8z"/>
	</g>
	<g>
		<path fill="#231815" d="M38.5,22.8h-6.7c-0.3,0-0.6-0.3-0.6-0.6c0-0.3,0.3-0.6,0.6-0.6h6.7c0.3,0,0.6,0.3,0.6,0.6
			C39.2,22.5,38.9,22.8,38.5,22.8z"/>
	</g>
	<g>
		<path fill="#231815" d="M38.5,29.6h-6.7c-0.3,0-0.6-0.3-0.6-0.6s0.3-0.6,0.6-0.6h6.7c0.3,0,0.6,0.3,0.6,0.6S38.9,29.6,38.5,29.6z"
			/>
	</g>
	<g>
		<path fill="#231815" d="M38.5,36.4h-6.7c-0.3,0-0.6-0.3-0.6-0.6s0.3-0.6,0.6-0.6h6.7c0.3,0,0.6,0.3,0.6,0.6
			C39.2,36.1,38.9,36.4,38.5,36.4z"/>
	</g>
	<g>
		<path fill="#231815" d="M24.4,14.9h-4c-0.5,0-0.9-0.4-0.9-0.9s0.4-0.9,0.9-0.9h4c0.5,0,0.9,0.4,0.9,0.9S24.9,14.9,24.4,14.9z"/>
	</g>
</g>
</svg>
