<?xml version="1.0" encoding="utf-8"?>
<!-- Generator: Adobe Illustrator 22.0.1, SVG Export Plug-In . SVG Version: 6.00 Build 0)  -->
<svg version="1.1" id="圖層_1" xmlns="http://www.w3.org/2000/svg" xmlns:xlink="http://www.w3.org/1999/xlink" x="0px" y="0px"
	 width="50px" height="50px" viewBox="0 0 50 50" enable-background="new 0 0 50 50" xml:space="preserve">
<g>
	<g>
		<path fill="#FFDB00" d="M32.2,48.6H13.5c-2.9,0-5.2-2.3-5.2-5.2V6.5c0-2.9,2.3-5.2,5.2-5.2h18.7c2.9,0,5.2,2.3,5.2,5.2v36.9
			C37.5,46.3,35.1,48.6,32.2,48.6"/>
	</g>
	<g>
		<path fill="#231815" d="M36.1,49.9H13.9c-3.8,0-6.8-3-6.8-6.8V6.9c0-3.8,3-6.8,6.8-6.8h22.2c3.8,0,6.8,3.1,6.8,6.8V43
			C42.9,46.8,39.9,49.9,36.1,49.9z M13.9,2.5c-2.4,0-4.3,1.9-4.3,4.3V43c0,2.4,1.9,4.3,4.3,4.3h22.2c2.4,0,4.3-1.9,4.3-4.3V6.9
			c0-2.4-1.9-4.3-4.3-4.3C36.1,2.5,13.9,2.5,13.9,2.5z"/>
	</g>
	<g>
		<rect x="14.9" y="7.5" fill="#FFFFFF" width="20.2" height="26.9"/>
	</g>
	<g>
		<path fill="#231815" d="M35,35.4H14.9c-0.6,0-1.1-0.5-1.1-1.1V7.5c0-0.6,0.5-1.1,1.1-1.1H35c0.6,0,1.1,0.5,1.1,1.1v26.9
			C36,35,35.5,35.4,35,35.4z M15.9,33.4H34V8.5H15.9V33.4z"/>
	</g>
	<g>
		<path fill="#FFFFFF" d="M28.2,42c0,1.7-1.4,3.2-3.2,3.2s-3.2-1.4-3.2-3.2c0-1.7,1.4-3.2,3.2-3.2S28.2,40.1,28.2,42"/>
	</g>
	<g>
		<path fill="#231815" d="M25,46.2c-2.3,0-4.3-1.9-4.3-4.3s1.9-4.3,4.3-4.3s4.3,1.9,4.3,4.3S27.3,46.2,25,46.2z M25,39.8
			c-1.2,0-2.1,1-2.1,2.1c0,1.2,1,2.1,2.1,2.1s2.1-1,2.1-2.1C27.1,40.8,26.2,39.8,25,39.8z"/>
	</g>
</g>
</svg>
