<?xml version="1.0" encoding="utf-8"?>
<!-- Generator: Adobe Illustrator 22.0.1, SVG Export Plug-In . SVG Version: 6.00 Build 0)  -->
<svg version="1.1" id="圖層_1" xmlns="http://www.w3.org/2000/svg" xmlns:xlink="http://www.w3.org/1999/xlink" x="0px" y="0px"
	 width="50px" height="50px" viewBox="0 0 50 50" enable-background="new 0 0 50 50" xml:space="preserve">
<g>
	<g>
		<polygon fill="#FFFFFF" points="40.7,36.2 11,36.2 8.4,41 10.1,46 13.9,46.5 41.8,47 40.7,41.6 		"/>
	</g>
	<g>
		<path fill="#FFDB00" d="M7.8,36.5V9c0-3.1,2.5-5.6,5.6-5.6h28.8v31.7"/>
	</g>
	<path fill="#231815" d="M43.5,3.4c0-0.7-0.6-1.3-1.3-1.3H13.4C9.6,2.1,6.5,5.2,6.5,9v31.8l0,0c0,3.8,3.1,6.9,6.9,6.9h28.8
		c0.7,0,1.3-0.6,1.3-1.3c0-0.5-0.3-1-0.8-1.2l0,0c-1.4-1.8-2-3.5-1.9-5c0.2-1.9,1.6-3,1.7-3c0.2-0.2,0.4-0.5,0.4-0.8
		c0.4-0.2,0.6-0.6,0.6-1.1c0,0,0,0,0-0.1v-0.1V3.4z M13.4,4.7h27.5V34H13.4c-1.6,0-3.1,0.6-4.2,1.5V9C9.1,6.6,11.1,4.7,13.4,4.7z
		 M9.1,40.8L9.1,40.8L9.1,40.8c0-2.3,1.9-4.2,4.2-4.2h26.5c-0.6,0.8-1.1,1.8-1.3,3.2c-0.2,1.7,0.2,3.5,1.3,5.2H13.4
		C11.1,45.1,9.2,43.2,9.1,40.8z"/>
	<g>
		<rect x="17.3" y="9.8" fill="#FFFFFF" width="16.4" height="4.4"/>
	</g>
	<g>
		<path fill="#231815" d="M33.7,15.4H17.3c-0.6,0-1.2-0.5-1.2-1.2V9.8c0-0.6,0.5-1.2,1.2-1.2h16.4c0.6,0,1.2,0.5,1.2,1.2v4.4
			C34.8,14.9,34.3,15.4,33.7,15.4z M18.4,13.1h14.1v-2.2H18.4V13.1z"/>
	</g>
	<g>
		<line fill="none" x1="12.8" y1="8.1" x2="12.8" y2="30.8"/>
	</g>
	<g>
		<path fill="#FFFFFF" d="M12.8,31.9c-0.6,0-1.2-0.5-1.2-1.2V8.1c0-0.6,0.5-1.2,1.2-1.2S14,7.4,14,8.1v22.7
			C14,31.4,13.5,31.9,12.8,31.9z"/>
	</g>
	<g>
		<line fill="none" x1="15" y1="40.5" x2="31.1" y2="40.5"/>
	</g>
	<g>
		<path fill="#231815" d="M31.1,41.8H15c-0.6,0-1.2-0.5-1.2-1.2s0.5-1.2,1.2-1.2h16.1c0.6,0,1.2,0.5,1.2,1.2S31.8,41.8,31.1,41.8z"
			/>
	</g>
</g>
</svg>
