<?xml version="1.0" encoding="utf-8"?>
<!-- Generator: Adobe Illustrator 22.0.1, SVG Export Plug-In . SVG Version: 6.00 Build 0)  -->
<svg version="1.1" id="圖層_1" xmlns="http://www.w3.org/2000/svg" xmlns:xlink="http://www.w3.org/1999/xlink" x="0px" y="0px"
	 width="48px" height="48px" viewBox="0 0 48 48" enable-background="new 0 0 48 48" xml:space="preserve">
<g>
	<g>
		<path fill="#FFDB00" d="M34.9,20c-3,4.4-9,5.6-13.4,2.6c-4.4-3-5.6-9-2.6-13.4c3-4.4,9-5.6,13.4-2.6C36.7,9.5,37.8,15.5,34.9,20"
			/>
	</g>
	<g>
		<path fill="#231815" d="M29.8,27.8c-2.7,0-5.4-0.8-7.8-2.4c-3.1-2.1-5.2-5.2-5.9-8.9c-0.7-3.6,0-7.4,2.1-10.4
			c4.3-6.4,13-8,19.3-3.7c3.1,2.1,5.2,5.2,5.9,8.9c0.7,3.6,0,7.4-2.1,10.4l0,0C38.7,25.7,34.3,27.8,29.8,27.8z M29.8,1.8
			c-3.9,0-7.7,1.9-10,5.3c-1.8,2.7-2.5,5.9-1.8,9.1c0.6,3.2,2.4,5.9,5.1,7.7c5.5,3.7,13.1,2.3,16.8-3.3c1.8-2.7,2.5-5.9,1.8-9.1
			s-2.4-5.9-5.1-7.7C34.5,2.5,32.2,1.8,29.8,1.8z M40.6,21.2L40.6,21.2L40.6,21.2z"/>
	</g>
	<g>
		<path fill="#231815" d="M13.4,48c-0.2,0-0.4-0.1-0.5-0.2l-8.2-5.5c-0.4-0.3-0.5-0.8-0.3-1.2l12.9-20.4c0.3-0.4,0.8-0.6,1.3-0.3
			c0.4,0.3,0.6,0.8,0.3,1.3L6.4,41.3l6.7,4.5l13.7-19.1c0.3-0.4,0.9-0.5,1.3-0.2c0.4,0.3,0.5,0.9,0.2,1.3L14.1,47.6
			C13.9,47.9,13.6,48,13.4,48z"/>
	</g>
	<g>
		<path fill="#231815" d="M17.3,32.6L17.3,32.6c-0.6-0.4-0.8-1.2-0.4-1.8l1-1.5c0.4-0.6,1.2-0.8,1.8-0.4c0.6,0.4,0.8,1.2,0.4,1.8
			l-1,1.5C18.7,32.9,17.9,33,17.3,32.6"/>
	</g>
	<g>
		<path fill="#231815" d="M18,33c-0.3,0-0.6-0.1-0.8-0.3c-0.3-0.2-0.5-0.6-0.6-0.9c-0.1-0.4,0-0.8,0.2-1.1l1-1.5
			c0.5-0.7,1.4-0.9,2.1-0.4c0.7,0.5,0.9,1.4,0.4,2.1l-1,1.5c-0.2,0.3-0.6,0.5-0.9,0.6C18.2,33,18.1,33,18,33z M19,28.9
			c-0.4,0-0.8,0.2-1,0.5l-1,1.5c-0.2,0.3-0.2,0.6-0.2,0.9c0.1,0.3,0.2,0.6,0.5,0.8c0.3,0.2,0.6,0.2,0.9,0.2c0.3-0.1,0.6-0.2,0.8-0.5
			l1-1.5c0.4-0.5,0.2-1.3-0.3-1.6C19.5,28.9,19.3,28.9,19,28.9z"/>
	</g>
	<g>
		<path fill="#231815" d="M15.5,43.8c-0.1,0-0.2,0-0.3-0.1l-7.6-5.1c-0.3-0.2-0.4-0.6-0.2-0.8c0.2-0.3,0.6-0.4,0.8-0.2l7.6,5.1
			c0.3,0.2,0.4,0.6,0.2,0.8C15.9,43.7,15.7,43.8,15.5,43.8z"/>
	</g>
	<g>
		<path fill="#231815" d="M30,22.6c-0.3,0-0.6-0.2-0.7-0.6L26.9,6.2c-0.1-0.4,0.2-0.7,0.6-0.8c0.4-0.1,0.7,0.2,0.8,0.6l2.5,15.8
			c0.1,0.4-0.2,0.7-0.6,0.8C30.1,22.6,30.1,22.6,30,22.6z"/>
	</g>
	<g>
		<path fill="#231815" d="M37,22c-0.3,0-0.6-0.2-0.7-0.6L33.9,5.7c-0.1-0.4,0.2-0.7,0.6-0.8c0.4-0.1,0.7,0.2,0.8,0.6l2.5,15.8
			c0.1,0.4-0.2,0.7-0.6,0.8C37.1,22,37,22,37,22z"/>
	</g>
	<g>
		<path fill="#231815" d="M23.4,12.6c-0.3,0-0.6-0.2-0.7-0.6c-0.1-0.4,0.2-0.7,0.6-0.8L38,9c0.4-0.1,0.7,0.2,0.8,0.6
			c0.1,0.4-0.2,0.7-0.6,0.8l-14.7,2.3C23.5,12.6,23.5,12.6,23.4,12.6z"/>
	</g>
	<g>
		<path fill="#231815" d="M26.5,18.4c-0.3,0-0.6-0.2-0.7-0.6c-0.1-0.4,0.2-0.7,0.6-0.8L39,15.2c0.4-0.1,0.7,0.2,0.8,0.6
			c0.1,0.4-0.2,0.7-0.6,0.8l-12.6,1.9C26.6,18.4,26.5,18.4,26.5,18.4z"/>
	</g>
	<g>
		<g>
			<defs>
				<rect id="SVGID_1_" x="8.3" y="21" width="14.3" height="19.4"/>
			</defs>
			<clipPath id="SVGID_2_">
				<use xlink:href="#SVGID_1_"  overflow="visible"/>
			</clipPath>
			<g clip-path="url(#SVGID_2_)">
				<polygon fill="#FFDB00" points="18.5,21 22.5,24.7 11,40.4 8.3,37.9 				"/>
			</g>
		</g>
	</g>
</g>
</svg>
