<?xml version="1.0" encoding="utf-8"?>
<!-- Generator: Adobe Illustrator 22.0.1, SVG Export Plug-In . SVG Version: 6.00 Build 0)  -->
<svg version="1.1" id="圖層_1" xmlns="http://www.w3.org/2000/svg" xmlns:xlink="http://www.w3.org/1999/xlink" x="0px" y="0px"
	 width="48px" height="48px" viewBox="0 0 48 48" enable-background="new 0 0 48 48" xml:space="preserve">
<g>
	<g>
		<path fill="#231815" d="M25.4,29.6h-3.6c-6.1,0-11.1-5-11.1-11.1v-5.6c0-6.1,5-11.1,11.1-11.1h3.6c6.1,0,11.1,5,11.1,11.1v5.6
			C36.5,24.6,31.5,29.6,25.4,29.6z M21.8,3.1c-5.4,0-9.8,4.4-9.8,9.8v5.6c0,5.4,4.4,9.8,9.8,9.8h3.6c5.4,0,9.8-4.4,9.8-9.8v-5.6
			c0-5.4-4.4-9.8-9.8-9.8H21.8z M25.4,24.4h-3.6c-3.3,0-5.9-2.6-5.9-5.9v-5.6c0-3.3,2.6-5.9,5.9-5.9h3.6c3.3,0,5.9,2.6,5.9,5.9v5.6
			C31.3,21.7,28.6,24.4,25.4,24.4z M21.8,8.3c-2.5,0-4.6,2-4.6,4.6v5.6c0,2.5,2,4.6,4.6,4.6h3.6c2.5,0,4.6-2,4.6-4.6v-5.6
			c0-2.5-2-4.6-4.6-4.6H21.8z"/>
	</g>
	<g>
		<rect x="9.3" y="18.9" fill="#FFDB00" width="27.4" height="23.8"/>
	</g>
	<g>
		<path fill="#231815" d="M41.4,46.3H6.6c-0.5,0-0.9-0.4-0.9-0.9V19.2c0-0.5,0.4-0.9,0.9-0.9h34.8c0.5,0,0.9,0.4,0.9,0.9v26.2
			C42.3,45.9,41.9,46.3,41.4,46.3z M7.5,44.5h33V20h-33V44.5z"/>
	</g>
	<g>
		<path fill="#231815" d="M27.3,29.6c0,1.8-1.5,3.3-3.3,3.3c-1.8,0-3.3-1.5-3.3-3.3c0-1.8,1.5-3.3,3.3-3.3
			C25.8,26.3,27.3,27.8,27.3,29.6"/>
	</g>
	<g>
		<path fill="#231815" d="M24,38.7L24,38.7c-0.6,0-1.2-0.5-1.2-1.2v-8c0-0.6,0.5-1.2,1.2-1.2s1.2,0.5,1.2,1.2v8
			C25.2,38.2,24.6,38.7,24,38.7"/>
	</g>
	<g>
		<g>
			<defs>
				<rect id="SVGID_1_" x="14.3" y="5.1" width="17.2" height="13.6"/>
			</defs>
			<clipPath id="SVGID_2_">
				<use xlink:href="#SVGID_1_"  overflow="visible"/>
			</clipPath>
			<g clip-path="url(#SVGID_2_)">
				<path fill="#FFDB00" d="M31.4,11c0,0-2-5.7-5.1-5.9H21c0,0-3.6,0.1-5.7,4c-1.1,2-1,5-1,9.6l2.8-0.2l0.4-8.7l3.6-2.3l4.8,0.1
					C25.9,7.7,29.6,8.1,31.4,11"/>
			</g>
		</g>
	</g>
</g>
</svg>
