<?xml version="1.0" encoding="utf-8"?>
<!-- Generator: Adobe Illustrator 22.0.1, SVG Export Plug-In . SVG Version: 6.00 Build 0)  -->
<svg version="1.1" id="圖層_1" xmlns="http://www.w3.org/2000/svg" xmlns:xlink="http://www.w3.org/1999/xlink" x="0px" y="0px"
	 width="48px" height="48px" viewBox="0 0 48 48" enable-background="new 0 0 48 48" xml:space="preserve">
<g>
	<path fill="#231815" d="M24,44.2C12.8,44.2,3.8,35.2,3.8,24C3.8,12.8,12.8,3.8,24,3.8S44.2,12.8,44.2,24
		C44.2,35.2,35.2,44.2,24,44.2z M24,5.5C13.8,5.5,5.5,13.8,5.5,24S13.8,42.5,24,42.5c10.2,0,18.5-8.3,18.5-18.5S34.2,5.5,24,5.5z"/>
</g>
<g>
	<path fill="#231815" d="M24,38.3c-7.9,0-14.3-6.4-14.3-14.3S16.1,9.7,24,9.7S38.3,16.1,38.3,24S31.9,38.3,24,38.3z M24,10.9
		c-7.2,0-13.1,5.9-13.1,13.1S16.7,37.1,24,37.1c7.3,0,13.1-5.9,13.1-13.1S31.2,10.9,24,10.9z"/>
</g>
<g>
	<g>
		<defs>
			<rect id="SVGID_1_" x="11.9" y="11.9" width="24.1" height="24.1"/>
		</defs>
		<clipPath id="SVGID_2_">
			<use xlink:href="#SVGID_1_"  overflow="visible"/>
		</clipPath>
		<g clip-path="url(#SVGID_2_)">
			<path fill="#FFDB00" d="M36.1,24c0,6.7-5.4,12.1-12.1,12.1c-6.7,0-12.1-5.4-12.1-12.1c0-6.7,5.4-12.1,12.1-12.1
				C30.7,11.9,36.1,17.3,36.1,24"/>
		</g>
	</g>
</g>
<g>
	<path d="M24.7,30.1v1.4h-1.2V30c-2.4-0.2-3.7-1.5-4.1-3.8l2.2-0.6c0.1,1.5,0.8,2.4,1.9,2.6v-3.4c-0.4-0.2-0.7-0.3-1.1-0.3
		c-1.8-0.5-2.7-1.6-2.7-3.4c0.1-1.9,1.4-3,3.8-3.2v-1.3h1.2v1.4c1.9,0.2,3,1.2,3.5,3L26,21.6c-0.1-0.7-0.5-1.3-1.3-1.6v3.1
		c0.5,0.1,1,0.3,1.5,0.5c1.6,0.7,2.4,1.7,2.4,2.9C28.5,28.7,27.2,29.9,24.7,30.1z M23.5,22.7v-2.8c-0.9,0.2-1.3,0.7-1.4,1.3
		C22.1,21.9,22.6,22.4,23.5,22.7z M24.7,25.1v3c0.9-0.2,1.3-0.7,1.3-1.4c0-0.7-0.4-1.2-1.2-1.5C24.9,25.2,24.8,25.2,24.7,25.1z"/>
</g>
</svg>
