<?xml version="1.0" encoding="utf-8"?>
<!-- Generator: Adobe Illustrator 22.0.1, SVG Export Plug-In . SVG Version: 6.00 Build 0)  -->
<svg version="1.1" id="圖層_1" xmlns="http://www.w3.org/2000/svg" xmlns:xlink="http://www.w3.org/1999/xlink" x="0px" y="0px"
	 width="48px" height="48px" viewBox="0 0 48 48" enable-background="new 0 0 48 48" xml:space="preserve">
<g>
	<g>
		<g>
			<defs>
				<rect id="SVGID_1_" x="13.5" y="6.2" width="19.2" height="20.4"/>
			</defs>
			<clipPath id="SVGID_2_">
				<use xlink:href="#SVGID_1_"  overflow="visible"/>
			</clipPath>
			<g clip-path="url(#SVGID_2_)">
				<path fill="#FFDB00" d="M32.7,6.2c0,11.3-4.3,20.4-9.6,20.4s-9.6-9.1-9.6-20.4H32.7z"/>
			</g>
		</g>
	</g>
	<g>
		<path fill="#FFDB00" d="M8.8,6.4H0.6c0,0,0,13.6,12.2,13.6l-1.7-3.4c0,0-6.2-0.1-7.4-7.6h5"/>
	</g>
	<g>
		<path fill="#231815" d="M12.8,20.6C0.1,20.6,0,6.6,0,6.4c0-0.3,0.3-0.6,0.6-0.6h8.3c0.3,0,0.6,0.3,0.6,0.6C9.4,6.7,9.2,7,8.8,7
			H1.2c0.1,1.1,0.4,3.6,1.5,6c1.8,4,4.9,6.1,9.2,6.4l-1.1-2.2C9.3,17.1,4.2,16,3.2,9.1c0-0.2,0-0.3,0.1-0.5c0.1-0.1,0.3-0.2,0.4-0.2
			h5c0.3,0,0.6,0.3,0.6,0.6S9.1,9.6,8.7,9.6H4.5c1.3,6.3,6.5,6.4,6.7,6.5c0.2,0,0.4,0.1,0.5,0.3l1.7,3.4c0.1,0.2,0.1,0.4,0,0.6
			S13,20.6,12.8,20.6z"/>
	</g>
	<g>
		<path fill="#231815" d="M35.2,20.6c-0.2,0-0.4-0.1-0.5-0.3s-0.1-0.4,0-0.6l1.7-3.4c0.1-0.2,0.3-0.3,0.5-0.3c0.2,0,5.4-0.2,6.7-6.5
			h-4.3c-0.3,0-0.6-0.3-0.6-0.6s0.3-0.6,0.6-0.6h5c0.2,0,0.3,0.1,0.4,0.2c0.1,0.1,0.2,0.3,0.1,0.5c-1,6.8-6.1,7.9-7.6,8.1l-1.1,2.2
			c4.3-0.3,7.4-2.4,9.2-6.4c1.1-2.4,1.4-4.9,1.5-6h-7.7c-0.3,0-0.6-0.3-0.6-0.6c0-0.3,0.3-0.6,0.6-0.6h8.3c0.3,0,0.6,0.3,0.6,0.6
			C48,6.6,47.9,20.6,35.2,20.6z"/>
	</g>
	<g>
		<path fill="#231815" d="M24,27.5C15.4,27.5,8.5,18,8.5,6.4c0-0.5,0.4-0.9,0.9-0.9h29.4c0.5,0,0.9,0.4,0.9,0.9
			C39.6,18,32.6,27.5,24,27.5z M10.2,7.3c0.3,10.3,6.4,18.5,13.8,18.5c7.4,0,13.5-8.2,13.8-18.5H10.2z"/>
	</g>
	<g>
		<polygon fill="#FFFFFF" points="24.4,9.8 26.1,13.4 30.1,13.9 27.2,16.7 27.9,20.7 24.4,18.7 20.9,20.7 21.6,16.7 18.7,13.9 
			22.7,13.4 		"/>
	</g>
	<g>
		<path fill="#231815" d="M27.9,21.2c-0.1,0-0.2,0-0.3-0.1l-3.3-1.8l-3.3,1.8c-0.2,0.1-0.4,0.1-0.6,0c-0.2-0.1-0.3-0.4-0.2-0.6
			l0.7-3.7l-2.7-2.5c-0.2-0.2-0.2-0.4-0.2-0.6s0.3-0.4,0.5-0.4l3.7-0.5l1.6-3.4c0.1-0.2,0.3-0.3,0.5-0.3s0.4,0.1,0.5,0.3l1.6,3.4
			l3.7,0.5c0.2,0,0.4,0.2,0.5,0.4s0,0.5-0.2,0.6l-2.7,2.5l0.7,3.7c0,0.2,0,0.4-0.2,0.6C28.2,21.2,28.1,21.2,27.9,21.2z M20,14.3
			l2,1.9c0.1,0.1,0.2,0.3,0.2,0.5l-0.5,2.8l2.5-1.4c0.2-0.1,0.4-0.1,0.6,0l2.5,1.4l-0.5-2.8c0-0.2,0-0.4,0.2-0.5l2-1.9L26,14
			c-0.2,0-0.4-0.1-0.5-0.3l-1.2-2.5l-1.2,2.5c-0.1,0.2-0.3,0.3-0.5,0.3L20,14.3z"/>
	</g>
	<g>
		<path fill="#FFDB00" d="M28.6,37.1h-2.2V26.7h-4.8v10.5h-2.2c-2.5,0-4.5,2-4.5,4.5v0.1h18.2v-0.1C33.1,39.1,31.1,37.1,28.6,37.1"
			/>
	</g>
	<g>
		<path fill="#231815" d="M33.1,42.5H14.9c-0.4,0-0.7-0.3-0.7-0.7v-0.1c0-2.9,2.3-5.2,5.2-5.2h1.5v-9.7c0-0.4,0.3-0.7,0.7-0.7h4.8
			c0.4,0,0.7,0.3,0.7,0.7v9.7h1.5c2.9,0,5.2,2.3,5.2,5.2v0.1C33.8,42.1,33.5,42.5,33.1,42.5z M15.7,41h16.7
			c-0.3-1.8-1.9-3.2-3.7-3.2h-2.2c-0.4,0-0.7-0.3-0.7-0.7v-9.7h-3.3v9.7c0,0.4-0.3,0.7-0.7,0.7h-2.2C17.5,37.8,16,39.2,15.7,41z"/>
	</g>
</g>
</svg>
