<?xml version="1.0" encoding="utf-8"?>
<!-- Generator: Adobe Illustrator 22.0.1, SVG Export Plug-In . SVG Version: 6.00 Build 0)  -->
<svg version="1.1" id="圖層_1" xmlns="http://www.w3.org/2000/svg" xmlns:xlink="http://www.w3.org/1999/xlink" x="0px" y="0px"
	 width="50px" height="50px" viewBox="0 0 50 50" enable-background="new 0 0 50 50" xml:space="preserve">
<g>
	<g>
		<path fill="#FFDB00" d="M36.1,11.3c-0.3-0.2-0.8-0.3-1.1-0.1l-16.7,7.2H9.8c-3.5,0-6.4,2.9-6.4,6.4v0.3c0,3.4,2.6,6.2,6,6.4v9.6
			c0,0.7,0.8,2.9,1.5,2.9h4.3c0.7,0,1.2-0.5,1.2-1.2l-0.3-11.2h2.3l16.5,7.2c0.6,0.2,1.3,0,1.6-0.6c0.1-0.2,0.1-0.3,0.1-0.5V12.3
			C36.6,11.9,36.4,11.6,36.1,11.3"/>
	</g>
	<g>
		<line fill="none" x1="19.5" y1="17.9" x2="19.5" y2="27.1"/>
	</g>
	<g>
		<path fill="#231815" d="M19.5,16.8c-0.6,0-1.1,0.5-1.1,1.1v9.2c0,0.6,0.5,1.1,1.1,1.1s1.1-0.5,1.1-1.1v-9.2
			C20.6,17.3,20.1,16.8,19.5,16.8z"/>
		<path fill="#231815" d="M49,23c0-3.5-2.7-6.4-6.1-6.8v-9c0-0.8-0.4-1.6-1.1-2.2C41,4.6,40,4.4,39.2,4.8l-19.6,8.5H9.9
			c-4.9,0-8.9,4-8.9,8.9v1.6c0,4.2,3.1,7.8,7.1,8.7v10.4c0,1.5,1.2,2.6,2.6,2.6h5.1c1.5,0,2.6-1.2,2.6-2.6V32.7h1.3l19.5,8.5
			c0.7,0.3,1.4,0.2,2.1,0c0.6-0.3,1.1-0.8,1.3-1.3c0.2-0.4,0.2-0.9,0.2-1.1v-8.9C46.3,29.4,49,26.5,49,23z M40.4,38.7L40.4,38.7
			L40.4,38.7l-0.1,0.2c-0.1,0-0.1,0-0.2,0l-19.7-8.6c-0.2-0.1-0.3-0.1-0.5-0.1h-2.8c-0.7,0-1.2,0.5-1.2,1.2v11.4
			c0,0.1-0.1,0.2-0.2,0.2h-4.9c-0.1,0-0.2-0.1-0.2-0.2V32.3h3c0.6,0,1.1-0.5,1.1-1.1s-0.5-1.1-1.1-1.1h-4c0,0,0,0-0.1,0
			c-3.4-0.2-6-3.1-6-6.4v-1.6c0-3.6,2.9-6.4,6.4-6.4h10c0.2,0,0.3,0,0.5-0.1L40.2,7h0.1l0,0c0.1,0,0.1,0.1,0.1,0.2
			C40.4,7.2,40.4,38.7,40.4,38.7z M42.9,27.6v-9.2c2.3,0.3,4,2.3,4,4.6S45.1,27.3,42.9,27.6z"/>
	</g>
</g>
</svg>
