<?xml version="1.0" encoding="utf-8"?>
<!-- Generator: Adobe Illustrator 22.0.1, SVG Export Plug-In . SVG Version: 6.00 Build 0)  -->
<svg version="1.1" id="圖層_1" xmlns="http://www.w3.org/2000/svg" xmlns:xlink="http://www.w3.org/1999/xlink" x="0px" y="0px"
	 viewBox="0 0 130 130" enable-background="new 0 0 130 130" xml:space="preserve">
<g>
	<g>
		<path fill="#01883F" d="M65,130c-35.8,0-65-29.2-65-65S29.2,0,65,0s65,29.2,65,65S100.8,130,65,130z M65,1C29.7,1,1,29.7,1,65
			s28.7,64,64,64s64-28.7,64-64S100.3,1,65,1z"/>
	</g>
	<path fill="#01883F" d="M106.5,43.5l-9.3-9.3c-0.4-0.4-1-0.4-1.4,0l-41,41L34.2,54.5c-0.4-0.4-1-0.4-1.4,0l-9.3,9.3
		c-0.4,0.4-0.4,1,0,1.4l30.6,30.6c0.2,0.2,0.5,0.3,0.7,0.3c0.3,0,0.5-0.1,0.7-0.3l50.9-50.9C106.9,44.5,106.9,43.9,106.5,43.5z"/>
</g>
</svg>
