<?xml version="1.0" encoding="utf-8"?>
<!-- Generator: Adobe Illustrator 22.0.1, SVG Export Plug-In . SVG Version: 6.00 Build 0)  -->
<svg version="1.1" id="圖層_1" xmlns="http://www.w3.org/2000/svg" xmlns:xlink="http://www.w3.org/1999/xlink" x="0px" y="0px"
	 width="48.7px" height="32px" viewBox="0 0 48.7 32" style="enable-background:new 0 0 48.7 32;" xml:space="preserve">
<style type="text/css">
	.st0{clip-path:url(#SVGID_2_);}
	.st1{fill:#D5DC31;}
	.st2{fill:#FFFFFF;}
</style>
<g>
	<g>
		<defs>
			<polygon id="SVGID_1_" points="48.5,32 0.2,0 48.5,0 			"/>
		</defs>
		<clipPath id="SVGID_2_">
			<use xlink:href="#SVGID_1_"  style="overflow:visible;"/>
		</clipPath>
		<g class="st0">
			<g>
				<polygon class="st1" points="46.5,5.7 25.9,26.3 25.9,28.7 48.9,5.7 				"/>
				<polygon class="st1" points="40.3,5.7 25.9,20.1 25.9,22.5 42.7,5.7 				"/>
				<polygon class="st1" points="34.4,5.7 25.9,14.2 25.9,16.6 36.8,5.7 				"/>
				<polygon class="st1" points="27.7,5.7 25.9,7.5 25.9,9.9 30.1,5.7 				"/>
				<polygon class="st1" points="50.7,7.5 27.7,30.5 30.1,30.5 50.7,9.9 				"/>
				<polygon class="st1" points="36.8,30.5 50.7,16.6 50.7,14.2 34.4,30.5 				"/>
				<polygon class="st1" points="42.7,30.5 50.7,22.5 50.7,20.1 40.3,30.5 				"/>
				<polygon class="st1" points="48.9,30.5 50.7,28.7 50.7,26.3 46.5,30.5 				"/>
			</g>
			<g>
				<polygon class="st1" points="46.5,-19 25.9,1.6 25.9,4 48.9,-19 				"/>
				<polygon class="st1" points="40.3,-19 25.9,-4.6 25.9,-2.2 42.7,-19 				"/>
				<polygon class="st1" points="34.4,-19 25.9,-10.6 25.9,-8.1 36.8,-19 				"/>
				<polygon class="st1" points="27.7,-19 25.9,-17.2 25.9,-14.8 30.1,-19 				"/>
				<polygon class="st1" points="50.7,-17.2 27.7,5.7 30.1,5.7 50.7,-14.8 				"/>
				<polygon class="st1" points="36.8,5.7 50.7,-8.1 50.7,-10.6 34.4,5.7 				"/>
				<polygon class="st1" points="42.7,5.7 50.7,-2.2 50.7,-4.6 40.3,5.7 				"/>
				<polygon class="st1" points="48.9,5.7 50.7,4 50.7,1.6 46.5,5.7 				"/>
			</g>
			<g>
				<polygon class="st1" points="21.8,5.7 1.2,26.3 1.2,28.7 24.2,5.7 				"/>
				<polygon class="st1" points="15.6,5.7 1.2,20.1 1.2,22.5 18,5.7 				"/>
				<polygon class="st1" points="9.6,5.7 1.2,14.2 1.2,16.6 12.1,5.7 				"/>
				<polygon class="st1" points="3,5.7 1.2,7.5 1.2,9.9 5.4,5.7 				"/>
				<polygon class="st1" points="25.9,7.5 3,30.5 5.4,30.5 25.9,9.9 				"/>
				<polygon class="st1" points="12.1,30.5 25.9,16.6 25.9,14.2 9.6,30.5 				"/>
				<polygon class="st1" points="18,30.5 25.9,22.5 25.9,20.1 15.6,30.5 				"/>
				<polygon class="st1" points="24.2,30.5 25.9,28.7 25.9,26.3 21.8,30.5 				"/>
			</g>
			<g>
				<polygon class="st1" points="21.8,-19 1.2,1.6 1.2,4 24.2,-19 				"/>
				<polygon class="st1" points="15.6,-19 1.2,-4.6 1.2,-2.2 18,-19 				"/>
				<polygon class="st1" points="9.6,-19 1.2,-10.6 1.2,-8.1 12.1,-19 				"/>
				<polygon class="st1" points="3,-19 1.2,-17.2 1.2,-14.8 5.4,-19 				"/>
				<polygon class="st1" points="25.9,-17.2 3,5.7 5.4,5.7 25.9,-14.8 				"/>
				<polygon class="st1" points="12.1,5.7 25.9,-8.1 25.9,-10.6 9.6,5.7 				"/>
				<polygon class="st1" points="18,5.7 25.9,-2.2 25.9,-4.6 15.6,5.7 				"/>
				<polygon class="st1" points="24.2,5.7 25.9,4 25.9,1.6 21.8,5.7 				"/>
			</g>
		</g>
	</g>
	<polygon class="st2" points="39.6,22 6.3,0 39.6,0 	"/>
</g>
</svg>
