<?xml version="1.0" encoding="utf-8"?>
<!-- Generator: Adobe Illustrator 22.0.1, SVG Export Plug-In . SVG Version: 6.00 Build 0)  -->
<svg version="1.1" id="圖層_1" xmlns="http://www.w3.org/2000/svg" xmlns:xlink="http://www.w3.org/1999/xlink" x="0px" y="0px"
	 width="88.5px" height="24.2px" viewBox="0 0 88.5 24.2" style="enable-background:new 0 0 88.5 24.2;" xml:space="preserve">
<style type="text/css">
	.st0{clip-path:url(#SVGID_2_);}
	.st1{clip-path:url(#SVGID_4_);fill:#FFF43C;}
	.st2{clip-path:url(#SVGID_4_);}
	.st3{fill:none;}
	.st4{fill:#01883F;}
	.st5{fill:#FFFFFF;}
</style>
<g>
	<g>
		<defs>
			<polygon id="SVGID_1_" points="44,24 88,0 0,0 			"/>
		</defs>
		<clipPath id="SVGID_2_">
			<use xlink:href="#SVGID_1_"  style="overflow:visible;"/>
		</clipPath>
		<g class="st0">
			<defs>
				<rect id="SVGID_3_" x="1" y="0" width="100" height="28"/>
			</defs>
			<clipPath id="SVGID_4_">
				<use xlink:href="#SVGID_3_"  style="overflow:visible;"/>
			</clipPath>
			<rect x="-6" y="-13" class="st1" width="122" height="47"/>
			<g class="st2">
				<rect x="96.8" y="-13.3" class="st3" width="24.7" height="24.7"/>
				<g>
					<polygon class="st4" points="96.8,9.6 119.8,-13.3 117.3,-13.3 96.8,7.2 					"/>
					<polygon class="st4" points="96.8,3.5 113.6,-13.3 111.1,-13.3 96.8,1 					"/>
					<polygon class="st4" points="96.8,-2.5 107.7,-13.3 105.2,-13.3 96.8,-4.9 					"/>
					<polygon class="st4" points="101,-13.3 98.5,-13.3 96.8,-11.6 96.8,-9.2 					"/>
					<polygon class="st4" points="98.5,11.4 101,11.4 121.5,-9.2 121.5,-11.6 					"/>
					<polygon class="st4" points="107.7,11.4 121.5,-2.5 121.5,-4.9 105.2,11.4 					"/>
					<polygon class="st4" points="113.6,11.4 121.5,3.5 121.5,1 111.1,11.4 					"/>
					<polygon class="st4" points="119.8,11.4 121.5,9.6 121.5,7.2 117.3,11.4 					"/>
				</g>
			</g>
			<g class="st2">
				<rect x="96.8" y="11.4" class="st3" width="24.7" height="24.7"/>
				<g>
					<polygon class="st4" points="96.8,34.4 119.8,11.4 117.3,11.4 96.8,31.9 					"/>
					<polygon class="st4" points="96.8,28.2 113.6,11.4 111.1,11.4 96.8,25.8 					"/>
					<polygon class="st4" points="96.8,22.3 107.7,11.4 105.2,11.4 96.8,19.8 					"/>
					<polygon class="st4" points="101,11.4 98.5,11.4 96.8,13.1 96.8,15.6 					"/>
					<polygon class="st4" points="98.5,36.1 101,36.1 121.5,15.6 121.5,13.1 					"/>
					<polygon class="st4" points="107.7,36.1 121.5,22.3 121.5,19.8 105.2,36.1 					"/>
					<polygon class="st4" points="113.6,36.1 121.5,28.2 121.5,25.8 111.1,36.1 					"/>
					<polygon class="st4" points="119.8,36.1 121.5,34.4 121.5,31.9 117.3,36.1 					"/>
				</g>
			</g>
			<g class="st2">
				<rect x="72.1" y="-13.3" class="st3" width="24.7" height="24.7"/>
				<g>
					<polygon class="st4" points="72.1,9.6 95,-13.3 92.6,-13.3 72.1,7.2 					"/>
					<polygon class="st4" points="72.1,3.5 88.9,-13.3 86.4,-13.3 72.1,1 					"/>
					<polygon class="st4" points="72.1,-2.5 82.9,-13.3 80.5,-13.3 72.1,-4.9 					"/>
					<polygon class="st4" points="76.2,-13.3 73.8,-13.3 72.1,-11.6 72.1,-9.2 					"/>
					<polygon class="st4" points="73.8,11.4 76.2,11.4 96.8,-9.2 96.8,-11.6 					"/>
					<polygon class="st4" points="82.9,11.4 96.8,-2.5 96.8,-4.9 80.5,11.4 					"/>
					<polygon class="st4" points="88.9,11.4 96.8,3.5 96.8,1 86.4,11.4 					"/>
					<polygon class="st4" points="95,11.4 96.8,9.6 96.8,7.2 92.6,11.4 					"/>
				</g>
			</g>
			<g class="st2">
				<rect x="72.1" y="11.4" class="st3" width="24.7" height="24.7"/>
				<g>
					<polygon class="st4" points="72.1,34.4 95,11.4 92.6,11.4 72.1,31.9 					"/>
					<polygon class="st4" points="72.1,28.2 88.9,11.4 86.4,11.4 72.1,25.8 					"/>
					<polygon class="st4" points="72.1,22.3 82.9,11.4 80.5,11.4 72.1,19.8 					"/>
					<polygon class="st4" points="76.2,11.4 73.8,11.4 72.1,13.1 72.1,15.6 					"/>
					<polygon class="st4" points="73.8,36.1 76.2,36.1 96.8,15.6 96.8,13.1 					"/>
					<polygon class="st4" points="82.9,36.1 96.8,22.3 96.8,19.8 80.5,36.1 					"/>
					<polygon class="st4" points="88.9,36.1 96.8,28.2 96.8,25.8 86.4,36.1 					"/>
					<polygon class="st4" points="95,36.1 96.8,34.4 96.8,31.9 92.6,36.1 					"/>
				</g>
			</g>
			<g class="st2">
				<rect x="47.3" y="-13.3" class="st3" width="24.7" height="24.7"/>
				<g>
					<polygon class="st4" points="47.3,9.6 70.3,-13.3 67.9,-13.3 47.3,7.2 					"/>
					<polygon class="st4" points="47.3,3.5 64.1,-13.3 61.7,-13.3 47.3,1 					"/>
					<polygon class="st4" points="47.3,-2.5 58.2,-13.3 55.7,-13.3 47.3,-4.9 					"/>
					<polygon class="st4" points="51.5,-13.3 49.1,-13.3 47.3,-11.6 47.3,-9.2 					"/>
					<polygon class="st4" points="49.1,11.4 51.5,11.4 72.1,-9.2 72.1,-11.6 					"/>
					<polygon class="st4" points="58.2,11.4 72.1,-2.5 72.1,-4.9 55.7,11.4 					"/>
					<polygon class="st4" points="64.1,11.4 72.1,3.5 72.1,1 61.7,11.4 					"/>
					<polygon class="st4" points="70.3,11.4 72.1,9.6 72.1,7.2 67.9,11.4 					"/>
				</g>
			</g>
			<g class="st2">
				<rect x="47.3" y="11.4" class="st3" width="24.7" height="24.7"/>
				<g>
					<polygon class="st4" points="47.3,34.4 70.3,11.4 67.9,11.4 47.3,31.9 					"/>
					<polygon class="st4" points="47.3,28.2 64.1,11.4 61.7,11.4 47.3,25.8 					"/>
					<polygon class="st4" points="47.3,22.3 58.2,11.4 55.7,11.4 47.3,19.8 					"/>
					<polygon class="st4" points="51.5,11.4 49.1,11.4 47.3,13.1 47.3,15.6 					"/>
					<polygon class="st4" points="49.1,36.1 51.5,36.1 72.1,15.6 72.1,13.1 					"/>
					<polygon class="st4" points="58.2,36.1 72.1,22.3 72.1,19.8 55.7,36.1 					"/>
					<polygon class="st4" points="64.1,36.1 72.1,28.2 72.1,25.8 61.7,36.1 					"/>
					<polygon class="st4" points="70.3,36.1 72.1,34.4 72.1,31.9 67.9,36.1 					"/>
				</g>
			</g>
			<g class="st2">
				<rect x="22.6" y="-13.3" class="st3" width="24.7" height="24.7"/>
				<g>
					<polygon class="st4" points="22.6,9.6 45.6,-13.3 43.1,-13.3 22.6,7.2 					"/>
					<polygon class="st4" points="22.6,3.5 39.4,-13.3 37,-13.3 22.6,1 					"/>
					<polygon class="st4" points="22.6,-2.5 33.5,-13.3 31,-13.3 22.6,-4.9 					"/>
					<polygon class="st4" points="26.8,-13.3 24.3,-13.3 22.6,-11.6 22.6,-9.2 					"/>
					<polygon class="st4" points="24.3,11.4 26.8,11.4 47.3,-9.2 47.3,-11.6 					"/>
					<polygon class="st4" points="33.5,11.4 47.3,-2.5 47.3,-4.9 31,11.4 					"/>
					<polygon class="st4" points="39.4,11.4 47.3,3.5 47.3,1 37,11.4 					"/>
					<polygon class="st4" points="45.6,11.4 47.3,9.6 47.3,7.2 43.1,11.4 					"/>
				</g>
			</g>
			<g class="st2">
				<rect x="22.6" y="11.4" class="st3" width="24.7" height="24.7"/>
				<g>
					<polygon class="st4" points="22.6,34.4 45.6,11.4 43.1,11.4 22.6,31.9 					"/>
					<polygon class="st4" points="22.6,28.2 39.4,11.4 37,11.4 22.6,25.8 					"/>
					<polygon class="st4" points="22.6,22.3 33.5,11.4 31,11.4 22.6,19.8 					"/>
					<polygon class="st4" points="26.8,11.4 24.3,11.4 22.6,13.1 22.6,15.6 					"/>
					<polygon class="st4" points="24.3,36.1 26.8,36.1 47.3,15.6 47.3,13.1 					"/>
					<polygon class="st4" points="33.5,36.1 47.3,22.3 47.3,19.8 31,36.1 					"/>
					<polygon class="st4" points="39.4,36.1 47.3,28.2 47.3,25.8 37,36.1 					"/>
					<polygon class="st4" points="45.6,36.1 47.3,34.4 47.3,31.9 43.1,36.1 					"/>
				</g>
			</g>
			<g class="st2">
				<rect x="-2.1" y="-13.3" class="st3" width="24.7" height="24.7"/>
				<g>
					<polygon class="st4" points="-2.1,9.6 20.8,-13.3 18.4,-13.3 -2.1,7.2 					"/>
					<polygon class="st4" points="-2.1,3.5 14.7,-13.3 12.2,-13.3 -2.1,1 					"/>
					<polygon class="st4" points="-2.1,-2.5 8.7,-13.3 6.3,-13.3 -2.1,-4.9 					"/>
					<polygon class="st4" points="2,-13.3 -0.4,-13.3 -2.1,-11.6 -2.1,-9.2 					"/>
					<polygon class="st4" points="-0.4,11.4 2,11.4 22.6,-9.2 22.6,-11.6 					"/>
					<polygon class="st4" points="8.7,11.4 22.6,-2.5 22.6,-4.9 6.3,11.4 					"/>
					<polygon class="st4" points="14.7,11.4 22.6,3.5 22.6,1 12.2,11.4 					"/>
					<polygon class="st4" points="20.8,11.4 22.6,9.6 22.6,7.2 18.4,11.4 					"/>
				</g>
			</g>
			<g class="st2">
				<rect x="-2.1" y="11.4" class="st3" width="24.7" height="24.7"/>
				<g>
					<polygon class="st4" points="-2.1,34.4 20.8,11.4 18.4,11.4 -2.1,31.9 					"/>
					<polygon class="st4" points="-2.1,28.2 14.7,11.4 12.2,11.4 -2.1,25.8 					"/>
					<polygon class="st4" points="-2.1,22.3 8.7,11.4 6.3,11.4 -2.1,19.8 					"/>
					<polygon class="st4" points="2,11.4 -0.4,11.4 -2.1,13.1 -2.1,15.6 					"/>
					<polygon class="st4" points="-0.4,36.1 2,36.1 22.6,15.6 22.6,13.1 					"/>
					<polygon class="st4" points="8.7,36.1 22.6,22.3 22.6,19.8 6.3,36.1 					"/>
					<polygon class="st4" points="14.7,36.1 22.6,28.2 22.6,25.8 12.2,36.1 					"/>
					<polygon class="st4" points="20.8,36.1 22.6,34.4 22.6,31.9 18.4,36.1 					"/>
				</g>
			</g>
		</g>
	</g>
	<polygon class="st5" points="39.6,17 71,0 8.1,0 	"/>
</g>
</svg>
