<?xml version="1.0" encoding="utf-8"?>
<!-- Generator: Adobe Illustrator 22.0.1, SVG Export Plug-In . SVG Version: 6.00 Build 0)  -->
<svg version="1.1" xmlns="http://www.w3.org/2000/svg" xmlns:xlink="http://www.w3.org/1999/xlink" x="0px" y="0px" width="100px"
	 height="100px" viewBox="0 0 100 100" style="enable-background:new 0 0 100 100;" xml:space="preserve">
<style type="text/css">
	.st0{fill:#01883F;stroke:#01883F;stroke-width:5;stroke-miterlimit:10;}
</style>
<g id="圖層_1">
	<g>
		<polygon class="st0" points="86.6,0 0,86.6 0,89.4 89.4,0 		"/>
		<polygon class="st0" points="61.6,0 0,61.6 0,64.4 64.4,0 		"/>
		<polygon class="st0" points="37.6,0 0,37.6 0,40.4 40.4,0 		"/>
		<polygon class="st0" points="10.6,0 0,10.6 0,13.4 13.4,0 		"/>
		<polygon class="st0" points="100,10.6 10.6,100 13.4,100 100,13.4 		"/>
		<polygon class="st0" points="100,37.6 37.6,100 40.4,100 100,40.4 		"/>
		<polygon class="st0" points="100,61.6 61.6,100 64.4,100 100,64.4 		"/>
		<polygon class="st0" points="100,86.6 86.6,100 89.4,100 100,89.4 		"/>
	</g>
</g>
<g id="圖層_2">
</g>
</svg>
