<?xml version="1.0" encoding="utf-8"?>
<!-- Generator: Adobe Illustrator 22.0.1, SVG Export Plug-In . SVG Version: 6.00 Build 0)  -->
<svg version="1.1" id="圖層_1" xmlns="http://www.w3.org/2000/svg" xmlns:xlink="http://www.w3.org/1999/xlink" x="0px" y="0px"
	 width="286.6px" height="245.1px" viewBox="0 0 286.6 245.1" style="enable-background:new 0 0 286.6 245.1;" xml:space="preserve"
	>
<style type="text/css">
	.st0{fill:#FFFFFF;}
	.st1{fill:#231815;}
	.st2{clip-path:url(#SVGID_2_);}
	.st3{fill:#717071;}
	.st4{clip-path:url(#SVGID_4_);}
	.st5{clip-path:url(#SVGID_6_);}
	.st6{fill:#00A83C;}
	.st7{clip-path:url(#SVGID_8_);}
	.st8{clip-path:url(#SVGID_10_);}
	.st9{clip-path:url(#SVGID_12_);}
	.st10{clip-path:url(#SVGID_14_);}
	.st11{fill:#FFDB00;}
	.st12{clip-path:url(#SVGID_16_);}
	.st13{clip-path:url(#SVGID_18_);}
	.st14{fill:#CCCCCC;}
	.st15{clip-path:url(#SVGID_20_);}
	.st16{clip-path:url(#SVGID_22_);}
	.st17{clip-path:url(#SVGID_24_);}
	.st18{clip-path:url(#SVGID_26_);}
</style>
<g>
	<g>
		<g>
			<path class="st0" d="M271.9,99.6c-6.6-0.6-8.2-8.2-8.6-11.2c0,0-1-9.8-2.2-9.8s-2.2,8.7-2.2,8.7c-0.1,1.3-0.9,11.6-8.7,12.3
				c0,0-10.4,1.3-10.4,2.8c0,1.6,10.4,2.8,10.4,2.8c7.7,0.7,8.5,11,8.6,12.2c0,0,1,8.7,2.2,8.7s2.2-9.8,2.2-9.8
				c0.4-3,1.9-10.5,8.5-11.2c0,0,10.5-1.3,10.5-2.8C282.4,100.9,271.9,99.6,271.9,99.6"/>
		</g>
		<g>
			<path class="st0" d="M50.7,59.9c-3.4-0.3-4.3-4.2-4.4-5.8c0,0-0.5-5.1-1.2-5.1c-0.6,0-1.2,4.5-1.2,4.5c0,0.7-0.5,6-4.5,6.4
				c0,0-5.4,0.7-5.4,1.5s5.4,1.5,5.4,1.5c4,0.4,4.4,5.7,4.4,6.3c0,0,0.5,4.5,1.2,4.5c0.6,0,1.2-5.1,1.2-5.1c0.2-1.5,1-5.5,4.4-5.8
				c0,0,5.5-0.7,5.5-1.5C56.1,60.5,50.7,59.9,50.7,59.9"/>
		</g>
		<g>
			<path class="st0" d="M168.8,16.7c-3.4-0.3-4.3-4.2-4.4-5.8c0,0-0.5-5.1-1.2-5.1c-0.6,0-1.2,4.5-1.2,4.5c0,0.7-0.5,6-4.5,6.4
				c0,0-5.4,0.7-5.4,1.5s5.4,1.5,5.4,1.5c4,0.4,4.4,5.7,4.4,6.3c0,0,0.5,4.5,1.2,4.5c0.6,0,1.2-5.1,1.2-5.1c0.2-1.5,1-5.5,4.4-5.8
				c0,0,5.5-0.7,5.5-1.5C174.3,17.3,168.8,16.7,168.8,16.7"/>
		</g>
		<g>
			<polyline class="st0" points="105.2,212.1 102.4,223.8 113,223.2 122.9,223.9 131.1,228.2 129.7,209.3 131.8,183.8 132.1,167 
				118.4,174.7 109.9,193.5 107.3,202.5 104.5,210.9 			"/>
		</g>
		<g>
			<path class="st0" d="M93.1,245.4l-1.2-10.5l3.4,0.5l3.9,1.7l2.7-13.2l0.5-1.5v-10.5l17.9-2.5l2.4-14.4l-8-7.4l8.1-13.9l9.1-4.6
				l9.5-8.3l17.7-39.8l34.6-35L186,73.4l-56.3,35.5v-2.5l1-0.3l0.9-7l3.1-5.3l11.1-2l1.8-3.9l1.6-13.6l-2-13.6l-2.4-13l-10.9-8.3
				l-6-1L117,40l-11.9,3.2l-7.9,6.5L92,63.4l1.4,15.1l-2.9,5.7l-10.8,8.6l-8.1,6.1c0,0-6.1,5.8-6.3,7c-0.2,1.3-3.2,11.8-3.2,11.8
				v7.8l3.9,5.8L52,166l-14.5,7.1v4.7l-10.8,7l1.2,5.1l-6,6.4l2.5,2.2c0,0-14.7,18.2-14.7,28.3l-3.2,18.6L93.1,245.4z"/>
		</g>
		<g>
			<path class="st1" d="M117.6,78.3c-0.5,0-0.9-0.4-1-0.8c-0.4-2.4-1.7-3.2-1.7-3.2c-0.5-0.3-0.6-0.9-0.4-1.4s0.9-0.6,1.4-0.4
				c0.1,0.1,2.1,1.3,2.7,4.6c0.1,0.5-0.3,1.1-0.8,1.1C117.7,78.2,117.6,78.3,117.6,78.3z"/>
		</g>
		<g>
			<path class="st1" d="M133.4,67.5c0.2,1.6-0.4,3-1.4,3.2s-2-1-2.3-2.6c-0.2-1.6,0.4-3,1.4-3.2C132.2,64.7,133.2,65.9,133.4,67.5"
				/>
		</g>
		<g>
			<path class="st1" d="M142.5,64.3c0.4,1.4,0.1,2.8-0.8,3c-0.8,0.3-1.9-0.7-2.3-2.1c-0.4-1.4-0.1-2.8,0.8-3
				C141,61.9,142.1,62.9,142.5,64.3"/>
		</g>
		<g>
			<path class="st1" d="M138.3,77.8c-0.4,0-0.8-0.2-1.1-0.6c-0.4-0.6-0.2-1.4,0.4-1.7c1-0.6,2-1.2,2.7-1.6c-0.8-1.4-2.7-4-3.7-5.5
				c-1.2-1.7-1.7-2.4-1.8-2.7c-0.3-0.6-0.1-1.4,0.5-1.7c0.6-0.3,1.4-0.1,1.7,0.5c0.1,0.2,0.9,1.4,1.7,2.4c0.9,1.3,2.1,3,2.9,4.3
				c1.4,2.1,2.2,3.3,1,4.1c-0.4,0.3-3.2,1.9-3.7,2.2C138.8,77.7,138.5,77.8,138.3,77.8z M140.8,74.6L140.8,74.6L140.8,74.6z"/>
		</g>
		<g>
			<g>
				<g>
					<defs>
						<rect id="SVGID_1_" x="66.2" y="41.8" width="79.5" height="85.2"/>
					</defs>
					<clipPath id="SVGID_2_">
						<use xlink:href="#SVGID_1_"  style="overflow:visible;"/>
					</clipPath>
					<g class="st2">
						<path class="st3" d="M145.7,53.2c0,0-2.8-12.4-20.8-11.4c0,0-24-1-28.1,21.7c-0.6,3.2-0.6,6.5-0.3,9.8
							c0.4,4,0.4,13.2-8.4,16.8c0,0-28.5,16.6-20.6,36.8L79.7,114l10.8-5.2l13.8-5.3l7.3-5.6l5.7-8.2l-0.4-7.2l-6.1-4.9
							c0,0-2.8-8.4,2.6-10.9l3.8,0.8c0,0,10.4-6.2,10.6-21.4C127.8,46.2,134.5,39.5,145.7,53.2"/>
					</g>
				</g>
			</g>
		</g>
		<g>
			<path class="st1" d="M126.1,132.8c-9.9,0-18.5-4.1-19-4.3c-0.6-0.3-0.9-1-0.6-1.7c0.3-0.6,1-0.9,1.7-0.6c0.1,0.1,15,7.1,27.3,2.5
				c0.6-0.2,1.4,0.1,1.6,0.7c0.2,0.6-0.1,1.4-0.7,1.6C133,132.3,129.5,132.8,126.1,132.8z"/>
		</g>
		<g>
			<rect x="115.4" y="188.7" class="st0" width="123" height="4.9"/>
		</g>
		<g>
			<g>
				<g>
					<defs>
						<rect id="SVGID_3_" x="115.4" y="187.6" width="121.5" height="6"/>
					</defs>
					<clipPath id="SVGID_4_">
						<use xlink:href="#SVGID_3_"  style="overflow:visible;"/>
					</clipPath>
					<g class="st4">
						<rect x="115.4" y="187.6" class="st3" width="121.5" height="6"/>
					</g>
				</g>
			</g>
		</g>
		<g>
			<path class="st1" d="M131.6,188.8C131.6,188.8,131.5,188.8,131.6,188.8c-0.8,0-1.3-0.6-1.2-1.3l1-19c0-0.7,0.6-1.2,1.3-1.2
				s1.2,0.6,1.2,1.3l-1,19C132.8,188.3,132.2,188.8,131.6,188.8z"/>
		</g>
		<g>
			<path class="st0" d="M187.4,73.7L211.6,56l16.8-20c0,0,3.3,1.4-4,12.4l5.7,8.3l-2.9,9.5l-8.4-1l-23.4,18.6L187.4,73.7z"/>
		</g>
		<g>
			<polygon class="st0" points="186,72.1 191.3,68.8 201.4,84 195.5,88.8 			"/>
		</g>
		<g>
			<g>
				<g>
					<defs>
						<rect id="SVGID_5_" x="29.7" y="107.9" width="92.1" height="106"/>
					</defs>
					<clipPath id="SVGID_6_">
						<use xlink:href="#SVGID_5_"  style="overflow:visible;"/>
					</clipPath>
					<g class="st5">
						<path class="st6" d="M107.1,107.9c0,0-6.8,5.5-18.4,7.2c0,0-13.1,4.8-19.5,19.3l-12.4,30.4l-14.6,9.9l-1.6,7.3l-10.9,7.9
							l25.4,15.4l20.4-23l2,19.3l6.4,9.3l11.5,3l24.8-4.6l1.5-9.2l-21-3.9l1.5-54.3l2.8-7.9l2-14.1L107.1,107.9z"/>
					</g>
				</g>
			</g>
		</g>
		<g>
			<g>
				<g>
					<defs>
						<rect id="SVGID_7_" x="131.6" y="76.5" width="63.3" height="58.1"/>
					</defs>
					<clipPath id="SVGID_8_">
						<use xlink:href="#SVGID_7_"  style="overflow:visible;"/>
					</clipPath>
					<g class="st7">
						<polygon class="st6" points="131.6,112.7 187.4,76.5 194.9,86 157.8,120.8 141.4,122.2 141,134.6 135.1,123.7 						"/>
					</g>
				</g>
			</g>
		</g>
		<g>
			<g>
				<g>
					<defs>
						<rect id="SVGID_9_" x="111.5" y="169.9" width="20.5" height="23.7"/>
					</defs>
					<clipPath id="SVGID_10_">
						<use xlink:href="#SVGID_9_"  style="overflow:visible;"/>
					</clipPath>
					<g class="st8">
						<polygon class="st6" points="132.1,171.2 131.6,188.7 115.4,188.1 113.7,193.6 111.5,192.4 122.4,174.3 132.1,169.9 						"/>
					</g>
				</g>
			</g>
		</g>
		<g>
			<g>
				<g>
					<defs>
						<rect id="SVGID_11_" x="101.9" y="210.9" width="29.1" height="16.1"/>
					</defs>
					<clipPath id="SVGID_12_">
						<use xlink:href="#SVGID_11_"  style="overflow:visible;"/>
					</clipPath>
					<g class="st9">
						<path class="st6" d="M104.9,213.3c0,0-2.1,8.9-2.5,9.3c-0.4,0.3-0.4,1.8-0.4,1.8l10.4-1.1L123,225l8.1,2.1l-1.1-14.7l-4.6,2.1
							l-5.7-1.1l-0.1-2.4l-5.7,0.4L104.9,213.3z"/>
					</g>
				</g>
			</g>
		</g>
		<g>
			<g>
				<g>
					<defs>
						<rect id="SVGID_13_" x="101.7" y="131.5" width="39.5" height="60.9"/>
					</defs>
					<clipPath id="SVGID_14_">
						<use xlink:href="#SVGID_13_"  style="overflow:visible;"/>
					</clipPath>
					<g class="st10">
						<path class="st11" d="M106.1,131.5c0,0.1,19,7.9,32.7,2l2.4,7.7l-1.1,18.9l-16.9,14l-12.7,18.5l-8.7-1.2l0.7-45.3l2.1-6.5
							l1.4-7.1"/>
					</g>
				</g>
			</g>
		</g>
		<g>
			<g>
				<g>
					<defs>
						<rect id="SVGID_15_" x="26.9" y="182.9" width="78" height="54.2"/>
					</defs>
					<clipPath id="SVGID_16_">
						<use xlink:href="#SVGID_15_"  style="overflow:visible;"/>
					</clipPath>
					<g class="st12">
						<polygon class="st11" points="31.8,191.2 26.9,198.1 39.7,209.7 47.8,216.1 68.6,229 90.6,233.9 98,237.1 104.9,213.3 
							88.7,213.5 80.5,206.9 77,196.3 74.5,182.9 55.1,205.3 36,194.1 						"/>
					</g>
				</g>
			</g>
		</g>
		<g>
			<g>
				<g>
					<defs>
						<rect id="SVGID_17_" x="19.5" y="197.6" width="73.3" height="49.2"/>
					</defs>
					<clipPath id="SVGID_18_">
						<use xlink:href="#SVGID_17_"  style="overflow:visible;"/>
					</clipPath>
					<g class="st13">
						<path class="st14" d="M92,244.7l0.7-10.4l-16.6-3l-25-12.3c0,0-9.3-10.4-10.2-10.4c-0.9,0-16.6-11-16.6-11l-4.8,2.8
							c0,0,10.3,9.6,18,16.7c4,3.7,39,21.8,50.6,27.8C89.4,244.7,90.7,244.6,92,244.7z"/>
					</g>
				</g>
			</g>
		</g>
		<g>
			<g>
				<g>
					<defs>
						<rect id="SVGID_19_" x="127.4" y="81.8" width="10.7" height="3.6"/>
					</defs>
					<clipPath id="SVGID_20_">
						<use xlink:href="#SVGID_19_"  style="overflow:visible;"/>
					</clipPath>
					<g class="st15">
						<polygon class="st11" points="127.4,81.8 138.1,83.8 132.7,85.4 129.7,84.3 						"/>
					</g>
				</g>
			</g>
		</g>
		<g>
			<g>
				<g>
					<defs>
						<rect id="SVGID_21_" x="121.8" y="91.4" width="11.1" height="7.1"/>
					</defs>
					<clipPath id="SVGID_22_">
						<use xlink:href="#SVGID_21_"  style="overflow:visible;"/>
					</clipPath>
					<g class="st16">
						<polygon class="st14" points="133,93.9 121.8,91.4 131.5,98.5 						"/>
					</g>
				</g>
			</g>
		</g>
		<g>
			<g>
				<g>
					<defs>
						<rect id="SVGID_23_" x="192.5" y="66.5" width="7.6" height="13.6"/>
					</defs>
					<clipPath id="SVGID_24_">
						<use xlink:href="#SVGID_23_"  style="overflow:visible;"/>
					</clipPath>
					<g class="st17">
						<polygon class="st14" points="197.9,66.5 200.1,80.1 192.5,70.7 						"/>
					</g>
				</g>
			</g>
		</g>
		<g>
			<path class="st1" d="M186.5,73.3c-0.1-0.1-0.1-0.2-0.2-0.3c-0.1-0.2-0.1-0.3-0.2-0.5c-0.1-0.3-0.2-0.6-0.2-0.9L130,107.1
				c-0.6,0.3-0.8,1.1-0.4,1.7c0.3,0.6,1.1,0.8,1.7,0.4l55.6-35.3C186.7,73.7,186.6,73.6,186.5,73.3z"/>
			<path class="st1" d="M193.4,85.7l-48.6,47.5c-0.5,0.5-0.5,1.3,0,1.8c0.3,0.3,0.6,0.4,0.9,0.4s0.6-0.1,0.9-0.4l48.1-46.9
				C194.2,87.3,193.8,86.5,193.4,85.7z"/>
		</g>
		<g>
			<path class="st1" d="M111.5,193.7c-0.2,0-0.5-0.1-0.7-0.2c-0.6-0.4-0.7-1.2-0.4-1.7l12.6-19.3c0.1-0.2,0.3-0.4,0.6-0.5
				c24-9.8,17.3-28.5,14.1-37.5c-1.6-4.3-2.8-8-3-8.5l-6.3-13.8c-0.1-0.2-0.1-0.5-0.1-0.8l3.2-17.1c0.1-0.6,0.6-1,1.1-1l10.8-0.8
				c0.3-0.1,1-1.1,1.6-2.3c3.7-8.2,3-17.5,1.6-24.3c-0.1-0.2-0.2-0.4-0.2-0.7l0,0c-1.1-5.1-2.5-8.6-2.5-8.7
				c-3.8-10.5-11.8-9.9-14.4-9.4c-0.4,3.8-2.3,17.9-11.8,22.1c-0.3,0.1-0.7,0.1-1,0c-0.6-0.3-2.4-0.8-3.6-0.3
				c-0.7,0.3-1.2,0.9-1.4,1.9c-1.2,3.9,1,7.8,5.7,10.4c0.3,0.2,0.5,0.5,0.6,0.8c0.1,0.5,2.7,11.8-13.1,23.4
				c-2.6,1.9-6.9,3.1-11.5,4.5c-3.8,1.1-7.6,2.2-10.2,3.7c-8.3,4.5-16.7,18.9-16.7,19c-0.2,0.3-0.5,0.6-0.9,0.6s-0.8-0.1-1-0.4
				c-0.1-0.1-2.7-2.9-3.9-7.9c-1.1-4.6-1.1-11.9,4.7-21.3c4.1-6.5,10.5-10.8,16.1-14.6c6.1-4.1,11-7.4,10.1-11.8
				c-1.7-8.5-1.2-20.7,5.2-29.2c4.4-5.9,11-9.3,19.6-10c1.4-0.3,16.1-3.4,25.4,4.6c5.5,4.7,7.9,12.2,7.3,22.3
				c1.5,7.1,2.3,17.3-1.7,26.3c-0.4,0.8-1.7,3.6-3.6,3.7l-9.9,0.7l-2.9,15.7l6.2,13.5v0.1c0,0,1.3,3.9,3,8.6
				c2.9,8.1,10.6,29.7-15.2,40.5l-12.4,18.9C112.3,193.5,111.9,193.7,111.5,193.7z M124.6,39.9c-4.4,0-7.6,0.7-7.7,0.8
				c-0.1,0-0.1,0-0.2,0c-7.9,0.7-13.9,3.7-17.9,9.1C92.9,57.6,92.5,69,94,77c1.2,6-4.6,9.8-11.2,14.3c-5.4,3.7-11.6,7.8-15.4,13.9
				c-8.1,12.8-4.2,21.5-2.1,24.7c2.5-4,9.5-14.4,16.7-18.4c2.9-1.6,6.9-2.7,10.8-3.9c4.2-1.2,8.5-2.5,10.7-4.1
				c12.7-9.3,12.5-18,12.2-20.2c-5.5-3.2-7.9-8-6.4-13c0.6-2.1,1.9-3.1,2.8-3.5c1.9-0.9,4.1-0.3,5.1,0.1c9-4.5,9.9-20.5,9.9-20.7
				c0-0.5,0.4-1,0.9-1.1c0.1,0,12.4-3.7,17.8,9.6c-1-4.2-2.9-7.6-5.8-10C135.6,40.8,129.5,39.9,124.6,39.9z"/>
		</g>
		<g>
			<path class="st1" d="M101.7,145.7c-0.2,0-0.5-0.1-0.7-0.2c-0.6-0.4-0.8-1.1-0.4-1.7c7.6-12,5-39.4,5-39.7
				c-0.1-0.7,0.4-1.3,1.1-1.4s1.3,0.4,1.4,1.1c0.1,1.2,2.6,28.6-5.4,41.3C102.5,145.5,102.1,145.7,101.7,145.7z"/>
		</g>
		<g>
			<path class="st1" d="M100.9,127.2c-0.7,0-1.2-0.6-1.2-1.2v-19.6c0-0.7,0.6-1.2,1.2-1.2s1.2,0.6,1.2,1.2V126
				C102.1,126.6,101.5,127.2,100.9,127.2z"/>
		</g>
		<g>
			<path class="st1" d="M135.1,197.5H135l-35-3.9c-0.6-0.1-1.1-0.6-1.1-1.3l1.7-50.6c1.7-15.1-3.4-20.9-3.4-20.9
				c-0.5-0.5-0.4-1.3,0.1-1.8s1.3-0.4,1.8,0.1c0.2,0.3,5.8,6.5,4.1,22.8l-1.6,49.4l33.9,3.7c0.7,0.1,1.2,0.7,1.1,1.4
				C136.3,197.1,135.7,197.5,135.1,197.5z"/>
		</g>
		<g>
			<path class="st1" d="M105.4,213.9c-0.8-0.2-1.5-0.3-2.3-0.4l-2.5,10.1l-2.2,11.6c-6.4-2.9-11.4-3.3-11.6-3.3
				c-18.6-1.6-33.4-11.3-40.4-19.1c-5-5.5-17.9-13.8-22.3-16.6l6.5-5.3c0.5-0.5,0.6-1.3,0.2-1.8c-0.5-0.5-1.3-0.6-1.8-0.2l-7.9,6.4
				c-0.4,0.3-0.5,0.7-0.5,1.1c0,0.4,0.3,0.8,0.6,1c0.2,0.1,17.6,10.8,23.3,17.1c2.6,3,17.1,17.8,42,20c0,0,5.5,0.4,12.1,3.8
				c0.2,0.1,0.4,0.1,0.6,0.1s0.4-0.1,0.6-0.2c0.4-0.2,0.6-0.5,0.7-0.9l2.5-13.2l2.6-10.2C105.5,213.9,105.5,213.9,105.4,213.9z"/>
		</g>
		<g>
			<path class="st1" d="M54,207.2c-0.2,0-0.5-0.1-0.7-0.2l-29.7-19.6c-0.4-0.2-0.6-0.6-0.6-1.1s0.2-0.8,0.6-1l12.6-8.1v-4
				c0-0.4,0.2-0.8,0.6-1l14.8-10l12.8-30.5c0.3-0.6,1-0.9,1.6-0.7c0.6,0.3,0.9,1,0.7,1.6l-12.9,30.9c-0.1,0.2-0.3,0.4-0.5,0.6
				l-14.5,9.8v4.1c0,0.4-0.2,0.8-0.6,1.1l-11.6,7.4l27.2,17.9l21.4-23.6c0.5-0.5,1.3-0.5,1.8-0.1c0.5,0.5,0.5,1.3,0.1,1.8L55,206.8
				C54.7,207.1,54.4,207.2,54,207.2z"/>
		</g>
		<g>
			<path class="st1" d="M96.9,214.9c-6.6,0-11.9-1.8-15.7-5.3c-6.5-6.1-6.1-15.1-6.1-15.5l-0.8-58.3c0-0.7,0.5-1.3,1.2-1.3
				s1.3,0.5,1.3,1.2l0.8,58.4c0,0.2-0.3,8.3,5.3,13.6c4.1,3.9,10.5,5.3,18.8,4.3c0.7-0.1,1.3,0.4,1.4,1.1c0.1,0.7-0.4,1.3-1.1,1.4
				C100.3,214.8,98.5,214.9,96.9,214.9z"/>
		</g>
		<g>
			<path class="st1" d="M91.7,245.2c1-0.1,2-0.2,3-0.2l-1.2-10.5c-0.1-0.8-0.9-1.4-1.7-1.3c-0.8,0.1-1.4,0.9-1.3,1.7L91.7,245.2z"/>
			<path class="st1" d="M25.6,197.5c-0.5-0.6-1.4-0.8-2.1-0.3c-0.5,0.4-11,8-16,27.2l-4.3,20.9c0.7,0,1.4,0,2.1,0.1h1l4.1-20.4
				c4.7-17.9,14.7-25.3,14.8-25.4C25.9,199.1,26.1,198.2,25.6,197.5z"/>
		</g>
		<g>
			<path class="st1" d="M130.7,228.3c-0.3,0-0.7-0.1-0.9-0.4c-4-4.5-21.5-3.5-27.9-2.8c-0.7,0.1-1.3-0.4-1.4-1.1s0.4-1.3,1.1-1.4
				c2.2-0.3,19.9-2.2,27.7,1.8l-0.9-13.5c0-0.7,0.5-1.3,1.2-1.3s1.3,0.5,1.3,1.2l1.1,16.1c0,0.5-0.3,1-0.8,1.2
				C131,228.3,130.8,228.3,130.7,228.3z"/>
		</g>
		<g>
			<path class="st1" d="M59.7,186.1h-20c-0.5,0-0.9-0.3-1.1-0.7c-0.2-0.4-0.2-0.9,0.1-1.3l3.3-4.4c0.2-0.3,0.6-0.5,0.9-0.5l18.4-1.1
				c0.4,0,0.8,0.2,1.1,0.5s0.3,0.7,0.2,1.1l-1.6,5.5C60.7,185.7,60.2,186.1,59.7,186.1z M42.2,183.6h16.6l0.9-2.9l-16,0.9
				L42.2,183.6z"/>
		</g>
		<g>
			<path class="st1" d="M238.4,195.2h-123c-0.8,0-1.5-0.7-1.5-1.5v-4.9c0-0.8,0.7-1.5,1.5-1.5h123c0.8,0,1.5,0.7,1.5,1.5v4.9
				C239.9,194.5,239.2,195.2,238.4,195.2z M116.9,192.2h120v-1.9h-120C116.9,190.3,116.9,192.2,116.9,192.2z"/>
		</g>
		<g>
			<rect x="141.4" y="122.2" class="st0" width="97" height="71.4"/>
		</g>
		<g>
			<g>
				<g>
					<defs>
						<rect id="SVGID_25_" x="146.3" y="121.8" width="92.1" height="70.6"/>
					</defs>
					<clipPath id="SVGID_26_">
						<use xlink:href="#SVGID_25_"  style="overflow:visible;"/>
					</clipPath>
					<g class="st18">
						<rect x="146.3" y="121.8" class="st3" width="92.1" height="70.6"/>
					</g>
				</g>
			</g>
		</g>
		<g>
			<path class="st1" d="M238.4,195.2h-97c-0.8,0-1.5-0.7-1.5-1.5v-71.4c0-0.8,0.7-1.5,1.5-1.5h97c0.8,0,1.5,0.7,1.5,1.5v71.4
				C239.9,194.5,239.2,195.2,238.4,195.2z M142.9,192.2h94v-68.4h-94V192.2z"/>
		</g>
		<g>
			<path class="st0" d="M131.1,195.8c0,0,9.7-4.3,15.4-1.6h4.8l3.3-6.6c0,0,2.3-0.3,4.3,1.7c0,0,3.9-0.6,5.3,3.2c0,0,0,3.3-2.2,6.1
				l-5.8,6.1c0,0-4.3,3.6-10.4,2.6l-15.9,1.5l-4.6,0.8"/>
		</g>
		<g>
			<path class="st1" d="M101.9,214.6c-0.6,0-1.1-0.4-1.2-1c-0.1-0.7,0.3-1.3,1-1.4l27.9-4.6l16-1.5c0.1,0,0.2,0,0.3,0
				c5.1,0.8,8.9-2,9.3-2.3l5.7-6c1.6-2,1.8-4.3,1.9-5c-1-2.5-3.5-2.2-3.8-2.1c-0.4,0.1-0.8-0.1-1.1-0.4c-1-1-2-1.3-2.7-1.3l-2.9,5.9
				c-0.2,0.4-0.6,0.7-1.1,0.7h-4.8c-0.2,0-0.4,0-0.5-0.1c-5.2-2.4-14.3,1.6-14.4,1.6c-0.6,0.3-1.4,0-1.6-0.6c-0.3-0.6,0-1.4,0.6-1.6
				c0.4-0.2,10-4.3,16.2-1.7h3.7l2.9-5.9c0.2-0.4,0.5-0.6,1-0.7c0.1,0,2.6-0.3,4.9,1.6c1.8-0.1,4.8,0.7,6,4c0.1,0.1,0.1,0.3,0.1,0.4
				c0,0.2,0,3.8-2.5,6.8l-0.1,0.1l-5.8,6.1l-0.1,0.1c-0.2,0.2-4.8,3.8-11.2,2.9l-15.7,1.5l-27.8,4.6
				C102.1,214.6,102,214.6,101.9,214.6z"/>
		</g>
		<g>
			<polygon class="st0" points="122.9,193.6 119.6,213.8 124.2,215.4 129.6,210.9 131.1,194.9 			"/>
		</g>
		<g>
			<path class="st1" d="M124.2,216.6c-0.1,0-0.3,0-0.4-0.1l-4.6-1.6c-0.6-0.2-0.9-0.8-0.8-1.4l3.3-20.2c0.1-0.3,0.2-0.6,0.5-0.8
				s0.6-0.3,0.9-0.2l8.1,1.3c0.6,0.1,1.1,0.7,1,1.3l-1.5,16c0,0.3-0.2,0.6-0.5,0.9l-5.4,4.4C124.7,216.5,124.4,216.6,124.2,216.6z
				 M121,213l2.9,1l4.5-3.7l1.3-14.3l-5.8-1L121,213z"/>
		</g>
		<g>
			<path class="st1" d="M231.2,56l-5.3-7.6c3.5-5.5,5-9.4,4.3-11.8c-0.3-1.2-1.1-1.6-1.3-1.7c-0.5-0.3-1-0.1-1.4,0.3L210.8,55
				l-19.4,14.3c0.3,0.2,0.6,0.5,0.8,0.8c0.2,0.4,0.4,0.8,0.7,1.2l19.5-14.2c0.1-0.1,0.1-0.1,0.2-0.2l15.2-18.1
				c-0.3,1.5-1.3,4.2-4.5,9c-0.3,0.4-0.3,1,0,1.4l5.4,7.8l-2.4,7.9L219,64c-0.3,0-0.6,0.1-0.9,0.3l-19,15c0.4,0.3,0.8,0.7,1,1.2
				c0.1,0.3,0.2,0.7,0.4,1l18.9-15.1l7.8,1c0.5,0.1,1.1-0.3,1.3-0.9l2.9-9.5C231.5,56.7,231.4,56.3,231.2,56z"/>
		</g>
		<g>
			<path class="st1" d="M195.5,90c-0.1,0-0.2,0-0.2,0c-0.4-0.1-0.7-0.3-0.9-0.6l-9.6-16.7c-0.3-0.6-0.1-1.3,0.4-1.7l5.3-3.3
				c0.6-0.4,1.3-0.2,1.7,0.4l10.1,15.2c0.4,0.5,0.2,1.3-0.3,1.7l-5.9,4.8C196.1,89.9,195.8,90,195.5,90z M187.6,72.5l8.2,14.4
				l3.9-3.1l-8.8-13.2L187.6,72.5z"/>
		</g>
		<g>
			<path class="st1" d="M132.8,87.3c-0.3,0-0.6,0-0.9,0c-0.1,0-0.2,0-0.2,0c-0.1,0-3.4-1-4.9-3.7c-0.8-1.5-0.9-3.2-0.2-5
				c0.2-0.6,0.8-0.9,1.4-0.8l11.6,2.1c0.6,0.1,1.1,0.7,1,1.4C140.3,83.3,138.4,87.3,132.8,87.3z M132.2,84.8
				c3.7,0.2,5.1-1.6,5.6-2.8l-9.2-1.6c-0.1,0.8,0,1.4,0.3,2C129.7,83.9,131.7,84.6,132.2,84.8z"/>
		</g>
	</g>
</g>
</svg>
