<?xml version="1.0" encoding="utf-8"?>
<!-- Generator: Adobe Illustrator 22.0.1, SVG Export Plug-In . SVG Version: 6.00 Build 0)  -->
<svg version="1.1" id="圖層_1" xmlns="http://www.w3.org/2000/svg" xmlns:xlink="http://www.w3.org/1999/xlink" x="0px" y="0px"
	 width="425px" height="150px" viewBox="0 0 425 150" enable-background="new 0 0 425 150" xml:space="preserve">
<g>
	<path fill="#FFF43C" d="M313.8,64.4c-2-5.9-3.2-12.1-5.1-18c-1.2-3.7-0.3-6.2,2.7-8.5c2.5-2,4.7-4.3,6.2-7.3
		c0.2-0.4,0.7-1.1,0.1-1.2c-1.4-0.4-2.2-1.9-3.6-2c-3.6-0.2-7.3-0.4-10.8,0.9c-2.1,0.8-3.2,2.2-2.8,4.5c0.2,1.1,0.2,2.2,0.5,3.2
		c0.5,1.5,0.1,2.6-1,3.5c-1.8,1.5-3.6,3.1-5.5,4.6c-3.8,3.2-7.5,6.4-11.6,9.2c-1.4,0.9-2.9,1.6-4.7,0.9c-3.4-1.4-4.6-1.1-6.4,2.1
		c-3,5.7-5.5,11.6-7.6,17.6c-0.4,1.1-0.8,2.2-2.2,2.3c-1.3,0.1-1.9-0.7-2.5-1.6c-0.8-1.2-1.7-2.2-2.6-3.3
		c-4.3-5.2-8.4-10.5-12.3-16.1c-1.1-1.5-0.9-2.7,0.5-3.8c2.2-1.8,3.8-4.1,5.3-6.4c1.5-2.3,0.5-4.3-2.3-4.6c-0.6-0.1-1.2-0.5-2-0.1
		c0.7,1.4,0,2.5-0.8,3.5c-1,1.2-2.2,2.3-3.2,3.4c-1.4,1.6-2.5,1.2-3.6-0.3c-1.6-2.2-3.1-4.4-4.6-6.7c-0.5-0.8-0.7-1.6,0.1-2.2
		c1-0.8,1.3-1.3-0.2-1.9c-1.1-0.5-1.5-1.6-1.2-2.7c0.3-1.2,1.3-1.7,2.5-1.7c0.5,0,1,0,1.5,0.1c1.1,0.5,1.5-0.4,1.9-1.1
		c0.7-1.2-0.6-1.3-1.1-1.4c-2.3-0.8-4.7-1.5-7.2-1.6c-6-0.2-11.9-0.3-17.9-0.7c-7.5-0.5-14.9-1.4-21.5-5.4c-1.3-0.8-2.8-1.5-4.4-1.5
		c-1.4,0-3.1,0.4-2.7,2c0.5,2.2,1.8,4.6,4,5.3c5.6,1.9,11.1,4.2,17.3,4.1c2.7,0,5.6,0.4,8.3,0.6c1.1,0.1,1.7,0.6,2.2,1.4
		c0.4,0.7,0.2,1.5-0.5,2c-3,2.4-3.1,5.8-2.9,9.2c0.4,5.4,1.3,10.6,2.6,15.8c0.6,2.2,0.6,4.3-1.4,5.9c-4.7,3.7-10.1,6-15.7,7.9
		c-1.1,0.4-2.9,0.1-3,2c-0.1,1.6,0.9,2.8,2,3.8c1.3,1.1,2.8,0.6,4.2,0.2c3-0.8,5.6-2.3,8.2-3.9c2.3-1.4,3.6-0.8,3.9,2
		c0.3,2.2,0.7,4.4,1.1,6.6c0.3,1.8-0.1,3.2-1.7,4.5c-3.4,2.7-6.7,5.6-9.9,8.6c-1.2,1-2.3,2.2-0.8,4c2,2.4,3.1,2.8,5.1,1.3
		c2.4-1.8,4.5-3.9,6.4-6.2c1.9-2.3,3.1-2.2,4.4,0.5c1.1,2.2,1.9,4.5,4.3,5.9c2.3,1.3,4,0.7,4.8-1.8c1.5-4.5,1-9.1-0.3-13.4
		c-0.9-3,0-4.8,2.1-6.7c4-3.4,6.8-7.8,9.6-12.2c0.3-0.5,0.7-1,0.4-1.6c-0.4-0.6-1-0.2-1.5-0.1c-1,0.2-1.9,0.2-2.6,1
		c-2.3,2.7-5.1,4.9-7.2,7.8c-1.1,1.5-3.2,1.2-3.8-0.5c-0.6-1.9-0.9-3.8-1.3-5.8c-0.1-0.8-0.1-1.7,0.7-2.3c1.5-1.2,2.8-2.5,4.4-3.6
		c3.1-2.1,6.3-3.9,9.4-5.9c2.8-1.8,3.6-1.8,5.6,0.9c5.3,6.7,10.5,13.5,16,20c2.2,2.6,2.8,4.8,1.4,7.7c-2.4,5-3.6,10.7-8.9,13.8
		c-1.1,0.6-0.7,1.2,0,1.9c2.5,2.6,4.7,2.4,6.8-0.6c2.6-3.6,4.6-7.6,6.2-11.7c0.9-2.2,2.3-2.6,4.1-0.9c3.9,3.7,7.9,7.2,11.7,11
		c3,3,6.5,5.6,7.8,10c0.1,0.3,0.3,0.6,0.5,0.8c1.1,1.2,2.4,0.9,3.6,0.3c1.5-0.7,0.6-1.7,0.2-2.7c-0.9-2-2.1-3.7-3.5-5.3
		c-6.3-6.9-13.6-12.8-19.9-19.7c-1-1.1-1.5-2.2-1.1-3.6c2.2-7,4.9-13.8,8.4-20.2c1.6-2.9,2.4-2.9,4.8-0.6c2,1.9,4,2,6.1,0.1
		c4.6-4.1,9.2-8.2,13.8-12.3c1.8-1.6,3.3-1.1,3.9,1.2c0.8,2.8,1.4,5.6,2.5,8.3c2.7,6.8,4.6,13.9,6.7,20.9c2,6.9,3.7,14,5.9,20.9
		c1,3,1.7,6.9,6.6,6.5c0.3-1.6-0.7-2.7-1.2-4C320.4,89.2,318,76.5,313.8,64.4z M234,53.9c-2.8,2.1-5.6,4.1-8.8,5.6
		c-0.8,0.4-1.5,0.9-2.2,1.5c-1.4,1.4-2.7,0.9-3.1-1.1c-0.9-4.5-2.5-8.8-2-13.1c-0.5-3.7,0.2-6.6,3.2-8.5c1.2-0.7,2.2-0.8,3.3,0.2
		c3.7,3.7,6.7,8.1,10.2,12C235.7,51.6,235.3,52.9,234,53.9z"/>
	<path fill="#FFF43C" d="M103.2,74.6c-2-1.4-4.1-2.7-6.6-3.3c-4.3-1.1-4.3-1.1-4.8-5.7c-0.2-2-1.8-1.9-3-2.3c-1-0.3-2.3-0.7-2.8,1
		c-0.3,1-1.1,1.7-2.3,1.5c-1-0.1-1.6-0.8-1.9-1.7c-0.5-2.2-2.1-3.5-3.9-4.5c-6.3-3.8-13-3.9-19.7-1.9C53,59.3,48,61.4,42.9,63.2
		c-3,1.1-4.1,0.4-4.5-2.7c-1.2-8.5-2.3-17-3.5-25.5c-0.1-0.7,0.1-1.9-0.8-1.7c-1.6,0.4-3.1-0.6-4.6,0.3c-0.1,0.1,0,0.4,0,0.6
		c0.1,4.3,0.8,8.5,1.4,12.7c0.9,5.5,1.4,11.1,2.8,16.6c0.6,2.1-0.4,3.3-2.5,4c-1.9,0.5-3.8,1-5.7,1.3c-3.2,0.5-6.5,1.3-9.8,0.8
		c-1.4-0.2-2.6-0.7-2.5-2.1c0.2-2.6-1.5-2.5-3.1-2.5c-3.1,0-5.9,1.5-8.7,2.4c-0.2,0-0.3,0-0.5,0c0,0.8,0,1.7,0,2.5h0.2h0.2
		c1.3,1.8,2.8,3.7,4.9,4.3c6,1.9,12.1,2.9,18.5,1.3c2.7-0.7,5.3-1.7,7.8-2.8c2.1-0.9,3.2,0,3.6,2c1.5,7.1,3.4,14.1,5.2,21.1
		c1.6,6.2,4.1,12.1,7.1,17.8c0.7,1.2,1.5,2.4,2.7,3.2c0.6,0.4,1.5,1.3,2.2,0.6c0.6-0.5,0.3-1.6-0.1-2.3c-2-3.6-3.4-7.4-4.6-11.3
		c-1.1-4-2.8-7.8-3.8-11.9C43.6,86,42.6,80,41.3,74.1c-0.8-4-0.2-4.9,3.6-6.4c5.2-2,10.4-3.9,15.7-5.8c3.5-1.3,7-1.2,10.5-1
		c3.8,0.2,5.9,2.6,6.8,6.1c1,3.7,1.4,7.5,1,11.3c-1.1,10.4-3.1,20.6-6.9,30.5c-1,2.6-2.6,2.8-4.6,0.8c-1.6-1.6-2.7-3.9-5.6-4.5
		c0.6,1.3,1,2.4,1.5,3.4c1.1,2.2,2.2,4.4,4.2,6c3.6,2.7,5.4,2.8,7.6-0.9c0.9-1.5,1.5-3.1,2.1-4.7c1.5-4.1,2.7-8.3,3.5-12.6
		c1.2-6.3,2.7-12.6,2.9-19c0.1-1.6-0.9-4,1.7-4.1s2.3,2.4,2.5,4.1c0.6,4.6,1.3,9.1,4.5,12.8c2.3,2.7,5.6,3.6,8.5,1.6
		c4.2-2.8,4.9-7.3,5.2-11.9C106.3,77.5,105,75.8,103.2,74.6z M100,81.6c-0.5,1.8-0.4,4.4-2.9,4.6c-2.3,0.1-2-2.3-2.5-3.9
		c-0.4-1.4-1-2.8-0.9-4.3c0.1-1.7,1.4-2.6,2.9-1.8c1.9,1,3.7,2.3,3.3,4.5C100,81.2,100.1,81.4,100,81.6z"/>
	<path fill="#FFF43C" d="M174.7,88.8c-3-2.4-6.4-4.3-9.2-7.1c-6.7-6.7-12.9-13.8-18.5-21.5c-4.1-5.6-7.2-11.8-10-18.1
		c-1-2.3-3-2-4.1-3.2c-2.9,0-3.7,1.4-2.4,3.7c4.7,8.5,9.8,16.7,16,24.3c1.8,2.2,1.7,3.3-0.9,4.5c-1.1,0.5-1.9,1.3-2.6,2.2
		c-2.1,2.7-4.1,5.5-5.7,8.6c-2.9,5.5-5.5,11.2-7.7,17c-0.6,1.6,0.8,3.5,2.8,4.1c1.7,0.5,2.2-0.9,2.3-1.9c0.2-3,1.4-5.7,2.7-8.3
		c2.8-5.8,5.5-11.6,10.1-16.3c2.3-2.4,4.9-2.5,7.3-0.4c1.5,1.4,3,2.8,4.4,4.4c4,4.4,9.1,7.2,14.4,9.8c0.8,0.4,1.8,0.4,2.3-0.3
		C176.6,89.4,175.3,89.2,174.7,88.8z"/>
	<path fill="#FFF43C" d="M246.3,8.1c3.8,2.9,7.1,6.8,12.7,6.3c0.4-0.3,1.2,0.9,1.5-0.4c0.2-0.8-0.7-1-1.2-1.4c-0.7-0.5-1.3-1-2-1.4
		c-3.1-1.8-5.2-4.8-8.5-6.3c-1.2-0.5-2.6-1.3-3.5-0.1C244.2,6.2,245.4,7.5,246.3,8.1z"/>
	<path fill="#FFF43C" d="M422.9,128.2c-0.5-4.2-1.1-8.3-1.8-12.4c-2.2-13.4-5.4-26.7-9.1-39.8c-2.9-10.3-5.1-20.8-7.6-31.2
		c-1.3-5.2-1.6-10.5-2.7-15.7c-1.7-7.3-2.4-14.8-5-21.8c-1.3-3.5-4.2-4.6-7.4-5.3c-0.1,0-0.1,0-0.2,0c-1.6,1-2.5,2.6-3.4,4.2
		c-2.5,4.5-4.1,9.3-5.8,14.1c-1,2.6-2.6,3.5-5.3,2.8c-2.2-0.6-1.5-2.4-1.5-3.9c0-1.2,0-2.3,0.1-3.5c0.3-3.1-1.4-5.3-4.6-5.6
		c-0.9-0.1-1.9-0.4-2.7,0.6c-1.4,2-3,4-4.4,6C358,21.8,354.4,27,351,32.2c-1.3,2-3.2,2.1-4.7,1c-1.5-1.2-3-2-4.6-2.6
		c-5.5-2-10.8-4.7-17-3c-1.9,0.5-3,1.2-2.3,3.4c0.5,1.5,1.2,2.7,2.8,3.1c1.2,0.4,1.7,1.2,1.7,2.4c0,1.9,0,3.8,0.2,5.7
		c0.2,1.8-0.3,3.3-1.6,4.5c-1.8,1.8-1.2,3.2,0.4,4.5s2.1,3,2.4,5c0.9,7.3,2.2,14.5,3.8,21.6c0.7,3.2,3.5,5.7,6,5.6
		c1,0,1.6-0.5,0.9-1.3c-3.5-4.6-3.4-10-3.8-15.3c-0.1-1.1-0.2-2.2,0.7-3c3.3-3.1,5.2-7.1,7.4-11c5.7-9.8,13.2-18.2,19-28
		c0.6-1,1.5-1.9,2.9-1.3c1.2,0.5,1.3,1.6,1.2,2.7c-0.2,1.6-0.5,3.3-0.5,4.9c0,4-0.8,8,1,12c1.2,2.8,4.2,2.8,5.8,1.1
		c0.8-0.8,1.4-1.6,2.1-2.5c1.4-1.7,3.4-1.4,3.9,0.7c1.1,4.3,4.3,5.3,7.5,5c3.5-0.2,6.6-1.5,9.7-3.1c2.9-1.5,4-0.8,4.6,2.3
		c1.4,7.5,3.5,14.9,5.4,22.3c2.7,10.5,5.7,21,8.3,31.5c1.8,7.4,3,15,4.7,22.5c1.2,5.6,1.5,11.1,0.9,16.7c-0.4,3.7-2.1,4.7-5.7,4.2
		c-1.7-0.2-3.1-0.8-4.6-1.6c-5.3-3-9.3-7.6-13.5-11.9c-3.1-3.2-5.8-6.4-9-9.3c-0.4-0.4-0.9-0.8-1.4-0.7c1.1,3,3.6,5.7,5.6,8.2
		c2.2,2.8,4.5,5.4,7,7.9c3.3,3.3,6.8,6.4,11,8.6c3,1.6,9.5,4.7,12.5,1.7c1.5-1.5,2.1-3.7,2.3-5.9
		C424.4,136.7,423.4,132.5,422.9,128.2z M335.8,40.7c-2.5,0-2.3-1.8-2.3-3.5c0-1.5-0.3-3.2,1.8-3.4c2.7-0.3,5.5,1.4,5.5,3.1
		C340.8,38.7,338.1,40.7,335.8,40.7z M388,16.7c0.4-1.2,0.5-2.6,1.3-3.7c1.1-1.4,2.5-1.4,3,0.2c0.7,2.4,1.2,4.9,1.6,7.4
		c0.2,1.2-0.8,1.9-2.1,1.8C386.2,22,386.2,22,388,16.7z M395.7,38.4c-3.1,1.4-6.4,2.3-10.1,2.6c-1.9-0.4-4.1-1-6.4-1.1
		c-1,0-1.9-1.1-0.9-2.6s1.6-3.1,2.6-4.7c1-1.7,2.3-2.9,4.6-3c2.5-0.1,5.1-0.8,7.6-1.6c1.7-0.5,2.4,0.2,2.9,1.6
		c0.5,1.7,0.8,3.5,1.4,5.1C397.9,36.5,397.1,37.7,395.7,38.4z"/>
</g>
</svg>
