<?xml version="1.0" encoding="utf-8"?>
<!-- Generator: Adobe Illustrator 22.0.1, SVG Export Plug-In . SVG Version: 6.00 Build 0)  -->
<svg version="1.1" id="圖層_1" xmlns="http://www.w3.org/2000/svg" xmlns:xlink="http://www.w3.org/1999/xlink" x="0px" y="0px"
	 width="950px" height="155px" viewBox="0 0 950 155" enable-background="new 0 0 950 155" xml:space="preserve">
<g>
	<path fill="#02A93D" d="M784.4,112.6c-3.5-0.6-7-1.5-10.6-0.9c-2,0.3-2.8-0.7-2.6-2.6c0.2-2.1,0.6-4.2,0.8-6.2
		c0.2-3.6,1.9-6.1,5-7.9c1.6-1,2.8-2.4,4.1-3.8c1.9-2.1,1.7-3-0.4-4.9c-1.5-1.2-3.2-1.5-5-1.7c-1-0.1-1.5-0.7-1.8-1.5
		c-0.2-0.9,0.3-1.5,0.9-2c0.3-0.2,0.7-0.4,1-0.6c1-0.4,1.9-1.3,1.6-2.3c-0.3-1-1.3-1.6-2.7-1.7c-2-0.1-3.5,0.7-5.2,1.8
		c-0.1-2.1,0.6-3.9,1.2-5.6c0.8-2.6,1.7-5.2,5.3-4.9c1.1,0.1,1.6-1.2,1.9-2.1c0.3-0.9-0.9-0.7-1.4-1.2c-0.6-0.5-1.3-0.8-2.2-0.6
		c-1.1,0.2-1.9-0.3-2.3-1.2c-0.4-0.8-0.1-1.7,0.6-2.3c1.2-1.2,2.1-2.7,3-4.1c0.6-1,0.5-1.4-0.7-2c-3.9-2-8.2-2-12.5-2.6
		c-3.2-0.4-3.7-1.5-2.5-4.6c2.4-6,4.7-11.9,6.1-18.3c1.1-5.1,1.5-10.7,5.3-14.9c0.7-0.7,0.2-1.6-0.4-1.7c-1.4-0.2-0.8-0.8-0.6-1.5
		c0.3-1,0.6-1.9,1.1-2.8c0.8-1.7,0.9-3.5,0.4-5.2c-0.4-1.3-1.8-0.3-2.7-0.7c-2.3-1-3.5-0.2-3.9,2.3c-0.4,2.6-0.8,5.2-1.1,7.8
		c-0.2,1.3-0.6,2.5-1.9,3c-4,1.5-8.1,2.5-12.4,2.9c-1.2,0.1-2.4-0.2-2.6-1.4c-0.6-4-2.1-8-0.2-12.1c0.9-2-0.2-3.4-2.4-3.4
		c-2.6,0-4.3,2.1-3.9,5.2c0.4,3.2,1.1,6.3,1.5,9.4c0.2,1.3,0.4,3.1-1.4,3.2c-3.7,0.2-7.4,1-11.1-0.2c-1-0.3-2-0.7-2.9-0.6
		c-1.2,0.1-3,0-2.9,1.8c0.2,3.2,2.5,5.3,5.8,5.7c3.9,0.5,7.8,0.2,11.6-0.5c2.1-0.4,3.3,0.1,3.9,2.4c1.6,6.1,4,11.9,6.6,17.6
		c2.5,5.5,2.6,5.4-3.3,6.4c-1.6,0.3-3.4,0.5-3.5,2.6c-0.2,2.3-0.5,4.5,0.7,6.8c1,2.1,1.5,4.4,2.2,6.6c0.6,1.9-0.2,2.7-1.9,3.3
		c-1.1,0.4-2.2,0.4-3.1,1.3c-4.6,4.6-9.2,9-13.8,13.6c-0.7,0.7-1.5,1.2-2.5,0.8c-0.9-0.4-1.1-1.2-1.4-2.2c-0.7-2.8-0.3-5.9-2.2-8.5
		c-1.2-1.8-1.6-4.1-2.1-6.3c-0.4-1.5-0.5-3.1,1.3-4.1c3-1.5,6-3.3,9.1-4.6c2.3-0.9,3.9-1.9,4.6-4.4c-2.9-2.2-5.5-1.1-8.3,0.3
		c-4.1,2.1-8.3,3.7-12.9,0.7c-1.1-0.7-2.4,0-3.5,0.4c-0.9,0.4,0,1.3,0.1,1.8c1.3,3.6,1,4.1-2.8,4.8c-0.9,0.2-1.8,0.4-2.8,0.4
		c-3.3,0.3-3.9,1.2-2.7,4.3c1.3,3.2,3.8,4.2,6.9,2.7c1.2-0.6,2.4-1.2,3.6-1.6c0.9-0.4,1.8-0.3,2.5,0.5c2.2,2.6,2.7,8.5,1.1,11.5
		c-0.8,1.5-1.4,3.1-2,4.7c-1.8,5,1.2,9.1,6.5,8.8c1.8-0.1,2.8,0.3,3.4,2.2c0.5,1.8,1.3,3.7,3,4.9c0.4,0.3,0.9,0.6,1.3,0.4
		c0.5-0.3,0.2-0.8,0.1-1.2c-0.3-1.4-0.7-2.9-1-4.3c-0.5-2.4-0.9-4.8,1.4-6.8c4.8-4.3,9.3-8.9,13.1-14.2c0.4-0.5,0.8-0.8,1.6-0.9
		c4.4-0.2,6.1,0.8,7.9,5c1.5,3.5,1.5,3.5-1.9,5.1c-0.7,0.3-1.4,0.8-1.9,1.3c-0.9,0.9-2.6,1.5-1.8,3.1s2,2.8,4,3.2
		c2.1,0.5,3-1.4,4.4-2.1c4-2,7.6-4.8,11.7-6.6c0.8-0.4,1.7-0.4,2.4,0.1s0.9,1.1,0.8,2c-0.4,2-1.3,3.8-1.7,5.8
		c-0.5,2.3-1.8,3.7-3.7,4.8c-3,1.8-6,3.6-9.1,5.2c-4.7,2.3-9.3,5.1-14.8,4.9c-1.5,0-1.8,0.9-1.3,2.3c0.9,2.4,3.4,3.7,6,3.3
		c2.4-0.4,4.1-2.1,6.2-2.9c3.9-1.6,7.2-4.1,10.8-6.1c0.8-0.5,1.5-0.8,2.4-0.5c1,0.4,1.1,1.4,1,2.4c-0.2,2.1-0.5,4.2-0.6,6.3
		c-0.3,4.2,3.7,7.1,7.2,5c2.9-1.7,5.7-2.3,8.8-1.8c0.9,0.1,1.9,0.1,2.8,0c0.8-0.1,2,0.5,2.1-1C786.5,113.1,785.5,112.7,784.4,112.6z
		 M753.3,39.7c-0.9-3.4-2.2-6.8-2.9-10.3c-0.2-1.3-0.6-2.5-0.8-3.5c0-1.9,1.9-3.2,4.7-3.3c1.6,0,3.1-0.4,4.5-0.9
		c1.9-0.7,3.1,0.2,2.7,2.1c-0.9,3.9-1.9,7.7-3.1,11.5c-0.5,1.5-0.5,3.2-1.4,4.6c-0.5,0.8-0.8,1.8-1.9,1.7
		C754.2,41.5,753.5,40.7,753.3,39.7z M764.5,71.9c-0.5,3.1-0.9,6.1-1.4,9.2c-0.2,1.2-3.2,1.7-4.4,0.8c-0.8-0.7-1.6-1.5-2.2-2.4
		c-2.5-3.7-1.9-5.7,2.2-7.5c1.6-0.7,3.3-0.5,5-1.1C764.6,70.5,764.6,71.3,764.5,71.9z M764.8,60.1c-3,2.2-6.4,3.9-9.7,5.7
		c-1.8,1-2.8-0.3-2.8-3.2c0-3.7,2.2-5.8,5.8-5.9c1.9,0,3.7,0,5.6,0c1,0,1.7,0.4,2,1.2C766.1,58.9,765.6,59.6,764.8,60.1z"/>
	<path fill="#02A93D" d="M674.2,128.2c-1.3,0.1-2.3,0.9-3.4,1.3c-1.5,0.6-2.9,0.7-3.7-1.1c-1.3-3.2-0.8-4.5,2.3-6
		c0.8-0.4,1.6-1,2.4-1.5c0.7-0.5,1.5-1.2,1.1-2c-0.4-0.7-1.1-1.3-2.3-1.1c-1.1,0.2-2.3,0.1-3.4,0.5c-1.9,0.8-2.9,0-3.4-1.9
		c-0.6-2.3-1.1-4.5-1.8-6.7c-1.3-4.3-1.5-7.9,3.3-10.8c3.4-2,6.3-5.3,8.1-9.2c3.1-6.5,2.2-5.5-1.2-9.9c-0.8-1.1-2-2.2-1.5-3.7
		c0.7-2.2-0.6-3.3-2.1-4.4c-3.7-2.5-8-3.7-12.4-4.3c-2.1-0.2-3-1.3-3.4-3.1c-0.4-2-0.8-3.9-1.2-5.9c-1.4-7.5-1.1-8.3,6.1-10.6
		c2.7-0.9,4.6-2.1,5.9-4.8c-3-1.4-5.8-2.1-8.8-0.1c-1.8,1.2-2.9,0.5-3.5-1.7c-0.2-0.7,0-1.5-0.4-2c-1.1-1.9,0.9-5.4-3.4-5.6
		c-1.9-0.1-3.1-0.1-3.3,2c-0.2,2.7-0.1,5.5,0.2,8.2c0.2,2.1-0.7,3.2-2.5,3.9c-3.2,1.1-6.3,2.5-9.6,3.5c-5,1.4-9.6,5-15.4,3
		c-2.1-0.7-3.9,1.2-5.6,2.4c-2.7,2-2.8,3.8,0,5.5c1.2,0.8,2.6,1.3,4.4,0.9c1.8-0.5,3.6-0.8,5.3-1.5c2.2-0.9,3.3,0,3.4,2.4
		c0,1.1,0.2,2.2,0.4,3.2c1.5,6.7,3.4,13.3,6.2,19.7c0.5,1.1,0.7,2.2,0.2,3.1c-1.3,2.2,0,3.6,1.6,4.6c1.8,1.2,2.9,2.7,3.8,4.5
		c1.1,2.3,2.2,4.7,4.2,6.4c3.8,3.3,2,4.1-0.4,6.6c-0.4,0.4-0.9,0.7-1.3,0.9c-0.9,0.5-0.8,1.3-0.4,2c0.8,1.5,3.8,2.5,5.4,1.7
		c3.8-1.9,6.4-5.3,9.3-8.3c1.5-1.6,3.4-1.4,4,0.6c0.9,3.3,1.7,6.8,2.4,10.1c0.2,1.1,0,2.2-1.1,2.6c-3.6,1.3-7.2,2.6-10.9,3.7
		c-1,0.3-2.3,0.2-2.6,1.5c-0.3,1.5,1,2.1,2,2.8c0.9,0.6,1.9,0.5,2.9,0.3c2.2-0.4,4.2-1.6,6.2-2.5c4.8-2.1,5.6-1.7,6.9,3.4
		c0.4,1.5,0,2.8-1.4,3.3c-5.2,2.2-10,5.4-15.7,5.9c-1.2,0.1-1.3,0.7-1,1.5c0.3,0.9,0.7,1.6,1.6,2.1c2.6,1.7,4.8,0.2,7-0.7
		c2.5-1.1,4.9-2.6,7.4-3.9c2.5-1.4,4-0.8,5,2c0.2,0.7,0.4,1.5,0.6,2.3c0.3,1,0.9,1.8,1.7,2.5c1.2,0.9,2.6,0.5,3.6-0.2
		s0.5-1.6-0.1-2.6c-0.7-1.2-1.1-2.6-1.5-3.9c-1.3-3.8-1.3-3.9,2.1-6.2c1.2-0.8,2.3-1.6,3-2.9c0.3-0.5,0.5-1.2,0.1-1.8
		C675.2,127.7,674.7,128.2,674.2,128.2z M650.2,77.5c0,2.7-1.5,3.6-5.4,3.4c-1.8-0.1-2.5-1.3-2.5-3c0-1.5,3.9-5,5.6-4.7
		C650.7,73.6,649.7,76.1,650.2,77.5z M637.1,84.5c-1,0.6-1.6-0.1-2.1-0.8c-1.1-1.6-1.7-3.4-2.1-5.3c-0.9-3.9-1.6-7.8-2.4-11.7
		c0.1-1.9,0.9-3.3,2.2-4.5c2.8-2.6,6.2-4.3,9.2-6.6c2-1.6,3.3-0.9,4.1,1.6c0.7,2.5,1.3,5.1,1.9,7.6c0.4,1.6-0.8,2.4-2,2.7
		c-2,0.4-3.8,1.3-5.5,2.2c-5.4,3.1-5.7,5.9-2.9,11c0.3,0.5,0.6,0.9,0.8,1.4C638.5,83.2,638,84,637.1,84.5z M654.1,98.3
		c-2.1,2.1-4.1,4.3-6.3,6.2c-1.2,1-2.7,0.5-3.6-0.9c-1.4-2.4-2.7-4.8-4-7.2c-0.7-1.3,0.2-2.1,1.2-2.5c3.1-1.2,6.3-2.3,9.5-3.4
		c1.1-0.4,2,0.3,2.3,1.2c0.6,1.6,0.9,3.4,1.3,4.9C654.3,97.3,654.6,97.8,654.1,98.3z M657.4,78.6c-1.7,0.2-2.5-1.2-2.4-4.5
		c0-1.5,1-2.4,2.4-2.3c1.8,0.1,3.6,0.4,5.2,1c1.1,0.4,2.1,1.4,1.7,2.9c-0.4,1.5-1.2,2.7-2.9,2.8C660.1,78.7,658.8,78.6,657.4,78.6z
		 M658.8,94.1c-0.1-1.4-0.2-2.8-0.5-4.1c-0.2-0.8,0.1-1.5,0.8-2c2-1.7,4.2-2.8,6.9-2.6c0.6,0,1.3-0.1,1.9,0c1.4,0.2,1.9,1.4,1.1,2.5
		c-2.1,3-4.9,5.3-7.7,7.6C660.1,96.3,658.8,95.7,658.8,94.1z"/>
	<path fill="#02A93D" d="M91.4,125.6c-4-4.6-8.2-9.1-12.3-13.7c-1.1-1.2-1.3-2.5-0.6-3.8c3.2-5.7,4.4-12.2,7.7-17.9
		c0.4-0.8,0.6-1.5-0.8-1.7c-2.9-0.4-3.9-0.1-4.9,2.8c-1.3,4-2.9,7.8-4.5,11.7c-0.9,2.1-2.5,2.6-3.8,0.9c-2.5-3.1-5-6.3-7.5-9.4
		c-0.8-1-0.9-2-0.3-3c0.5-0.9,1.1-1.7,1.6-2.6c2.9-5.8,3.8-6-2.5-9.4c0.9,3,0.6,5.5-1.2,7.7c-1,1.2-2.2,1.3-3.2,0.1
		C54.8,82,51,76.6,47.4,71c-1-1.6-0.3-3,1.7-3.4c1.6-0.3,3.2-0.9,4.8-0.3c0.4,0.1,0.9,0.2,1-0.2c0.1-0.3,0.2-1,0-1.1
		c-1.1-0.5-2-2.1-3.2-1.8c-1.8,0.4-3.8,0.1-5.5,0.6c-2.2,0.7-3.3-0.3-4.3-2c-1.2-1.9-2.5-3.8-3.9-5.5c-1-1.3-3.8-1.5-5.3-0.8
		c-1,0.5-1.2,1-0.6,2c1.1,1.6,1.8,3.4,2.9,4.9c1.4,1.8,0.8,4-1.2,4.8c-3.7,1.6-7.4,3.2-11.2,4.5c-2.7,1-5.5,1.6-8.3,2.2
		c-1.1,0.2-2.5,0.6-3.3-0.4c-1.2-1.5-2.6-1.2-4.2-1c-1.8,0.2-3.1,1.4-4.6,2.1C1.4,76,0.1,76,0.1,77.4c0,1.3,1.1,1.9,2,2.4
		c2.9,1.8,6.1,2.6,9.5,2.2c3.9-0.5,7.7-1.5,11.3-3.1c1.9-0.9,3.2-0.3,3.3,1.6c0.2,4.7,2,8.9,3.5,13.2c1.7,4.9,3.5,9.8,5.4,14.6
		c0.6,1.6,0.4,2.7-1.1,3.8c-2.1,1.5-4.1,3.1-6,4.8c-1.6,1.6-2.9,1.5-4.3-0.1c-1-1.2-2.1-1.1-3.3-0.3c-1.2,0.8-2.3,1.6-3.1,2.8
		c-1.4,2.1-2.8,4.3-4.2,6.5c-1,1.5-0.6,2.6,1,3.4c2.8,1.4,5.4,1.1,7.8-0.7c4.1-3,8.1-6.3,11.7-9.9c0.6-0.6,1.3-1.2,2.2-0.8
		c0.9,0.3,1.3,1,1.4,2c0.1,0.7,0.1,1.4,0.2,2.1c0.9,6.3,1.8,12.6,5.1,18.3c0.9,1.5,2,1.8,3.7,1.6c1.9-0.3,2.3-1.5,2.2-3.1
		c0-0.9-0.1-1.9-0.2-2.8c-1.3-6.9-3.8-13.4-6.1-19.9c-0.8-2.2-0.3-3.9,1.4-5.2c5.1-4.3,10.4-8.3,15-13.2c1.1-1.1,2.2-1,3.2,0.2
		c3,3.7,6,7.6,9.1,11.2c1.2,1.4,1.3,2.9,0.7,4.3c-2.1,5.2-4.4,10.2-8.1,14.6c-2.4,2.8-4.5,3.3-7.6,1.7c-0.3,1,0.4,1.6,1.1,2.1
		c2.6,2.2,6.4,1.9,8.9-0.8c3.5-3.8,6.2-8.1,8.5-12.7c1.2-2.4,2.4-2.5,4.2-0.5c3,3.5,6,7,9.3,10.2c0.3,0.3,0.5,0.6,0.8,0.8
		c1.2,0.8,2.5,1.9,3.9,0.4C93.8,127.4,92.2,126.4,91.4,125.6z M53.9,95.2c-3.7,3.8-8.2,6.6-12,10.3c-1,0.9-2.3,0.3-3-1
		C36.1,99,34.6,93,32.6,87.2c-1.4-4,0-7.6,4.2-10.2c1.6-1,3.3-2.1,5.3-2.1c1.6,0,2.3,1.2,3,2.2c3.1,4,6.1,8.1,9.2,12.1
		C56.7,92.3,56.6,92.3,53.9,95.2z"/>
	<path fill="#02A93D" d="M350.5,124.3c-1-0.7-2.3-2.1-3.7-0.6c-1.3,1.5-2.9,1.3-4.5,1.1c-3-0.4-5.9-1.2-8.8-2
		c-1.3-0.4-2-1.2-2.3-2.4c-0.5-2-0.9-4.1-1.4-6.1c-0.4-1.9-0.7-3.9,0.2-5.7c0.4-0.9,0.1-1.3-0.5-2c-3.6-3.6-3.6-7.6,1.3-10.5
		c6.6-3.9,11.9-9.3,16.1-15.9c2-3.2,1.6-6.1-0.1-9.2c-0.3-0.5-0.6-0.8-1.3-0.8c-1,0.1-0.6,0.8-0.6,1.2c0,1.9-0.4,3.7-1.2,5.4
		c-3.6,6.7-9.3,11.5-15.4,15.8c-1.5,1-2.9,0.1-3.1-1.2c-0.7-3.8-2-7.5-2.2-11.4c-0.1-1.4,0.6-2.4,1.7-2.8c1.9-0.8,3.5-2,5.2-3
		c3.6-2,7.1-4.1,9.2-7.9c0.4-0.6,1.6-1.4,0.6-2.1c-1.2-0.8-1.9-3-3.9-1.8c-0.4,0.2-1.4-0.3-1.2,0.9c0.4,1.5-0.7,2.3-1.6,3.1
		c-2.5,2.4-5.5,4-8.5,5.7c-1.5,0.9-2.8,0.2-3.4-1.5c-0.4-1.2-0.3-2.4-0.5-3.6c-0.9-5-1.6-10.1-2.3-15.2c-0.3-1.9,0.7-2.9,2.5-3.3
		c1.2-0.3,2.4-0.7,3.5-1.2c1.4-0.6,2-2,1.9-3.1c-0.1-0.9-1.6-1-2.6-1.1c-1.2-0.1-2.4,0.1-3.7,0.5c-1.9,0.6-2.9-0.1-2.9-2
		s-0.6-3.7-0.9-5.5c-0.2-1-2.8-2.5-3.9-2.1c-1.5,0.5-2.2,1.4-1.8,3.1c0.4,2,0.6,4.1,1,6.2c0.3,1.6-0.4,2.4-2,2.7
		c-2.8,0.5-5.6,0.4-8.4,0.5c-4.7,0.2-9.5,0.2-14-1.6c-1.4-0.6-2.7-0.3-4.1,0c-0.9,0.2-1.4,0.7-1.1,1.4c0.9,1.9,1.9,4.1,4,4.6
		c5,1.3,10.2,2.1,15.5,1.4c3.2-0.4,6.3-0.7,9.5-1c1.4-0.1,2.1,0.6,2.3,2c0.2,1.5,0.5,3.1,0.8,4.6c1,5.1,2,10.2,3.1,15.3
		c0.4,1.9-0.1,3-2.1,3.7s-3.7,1.8-5.6,2.7c-5.5,2.5-10.8,5.4-16.5,7.3c-1.1,0.4-2.2,0.5-2.9-0.6c-1.2-1.8-2.7-1.3-4.3-0.9
		c-1.8,0.5-2.7,2-4,3.1c-2.1,2-2,3.2,0.6,4.7c1.1,0.6,2.4,1.3,3.7,1.1c3.7-0.6,7.5-1.2,10.9-2.8c6.4-3.1,12.4-6.7,18.7-10
		c1.9-1,3.1-0.6,3.6,1.4c0.9,3.9,1.7,7.7,2.6,11.6c0.3,1.5-0.2,2.5-1.5,3.3c-4.1,2.3-8.3,4.5-12.9,5.6c-3.8,0.9-5.2,0.2-7.3-3.1
		c-0.3-0.4-0.7-0.9-1.1-1.1c-1.1-0.6-2.4-0.4-3.5,0c-0.8,0.2-0.7,1-0.6,1.6c0.7,4.7,6.7,8.5,11.5,7.6c5-1,9.5-3,14-5.3
		c1.5-0.8,2.9-0.8,3.4,0.9c0.8,2.4,0.7,4.7-0.8,7.1c-3.9,5.9-6.8,12.5-11,18.2c-0.3,0.4-1.2,1.1-0.5,1.8c0.7,0.6,1.4,1.6,2.6,1.2
		c0.6-0.2,1.2-0.3,1.7-0.6c2.3-1.2,3.4-3.4,4.4-5.5c0.9-1.9,2.1-2.6,4.1-2.1c0.8,0.2,1.7,0.2,2.5,0.4c1.1,0.2,1.8,0.8,2.1,1.9
		c0.9,3.4,1.9,6.9,2.7,10.3c1.2,5.2,3.3,10.2,4.1,15.5c0.4,2.5,2.3,1.7,3.9,1.4c1.7-0.3,1.5-1.3,1.1-2.6c-2.2-6.8-4.2-13.7-6.4-20.6
		c-0.3-0.9-0.5-1.8,0.4-2.5c0.9-0.8,1.6-0.4,2.6-0.1c2.6,0.6,5.3,1,8,1.5c2.2,0,4-1,5.3-2.6C350.6,126.1,351.6,125.1,350.5,124.3z"
		/>
	<path fill="#02A93D" d="M264.1,116.1c-4.8,3.2-10.2,3.4-15.7,3.3c-2.2,0-3.3-1-3.8-3.2c-0.8-3.6-1.8-7.1-2.8-10.6
		c-0.9-3.4-1.6-6.6,1.6-9.4c0.9-0.7,1.1-2.1,1.7-3.3c-0.6-0.2-1-0.3-1.5-0.5c-1.3-0.3-3.2,0.2-3.6-1.8c-0.4-2,1.7-2.4,2.7-3.4
		c0.1-0.1,0.3-0.1,0.4-0.2c4.1-3,8.6-5.4,12-9.2c1.3-1.5,3.3-3.5,2.7-4.9c-0.7-1.7-3.4-2.1-5.8-2.1c0.9,1.8,0.4,3.1-0.8,4.4
		c-3.3,3.4-7.5,5.7-11.2,8.6c-1.4,1.1-3.2,0.4-3.4-1.3c-0.7-4.8-2.3-9.3-3.1-14.1c-0.8-4.4-0.6-4.5,3.9-5.4c3.2-0.6,6.4-1.2,9.5-2.2
		c1.8-0.6,2.1-2,2.1-3.2c0-1-1.5-0.6-2.3-0.8c-1.1-0.3-2.3,0-3.4,0.3c-2.8,0.7-5.6,1.2-8.4,1.8c-2.3,0.4-3.5-0.6-4-2.8
		c-0.8-3.6-1.8-7.1-2.5-10.6c-0.5-2.8-1.5-4.8-4.9-4.7c-0.9,0-1.4,0.5-2,0.7c-0.5,0.2,0.1,1,0.3,1.5c1.8,4.6,2.9,9.3,4.1,14
		c0.6,2.1-0.3,3.2-2.4,3.3c-2.5,0.1-4.9,0.5-7.4,0.7c-5,0.3-10.1,0.6-15.2,0.4c-1.5-0.1-3.3,0.2-3.4,2.3c-0.1,1.8,2.7,4.6,4.6,4.5
		c3.9-0.2,7.8-0.5,11.6-1.2s7.5-1.6,11.4-2.1c2-0.2,2.8,0.7,3.2,2.4c1.4,5.8,2.7,11.6,4.2,17.4c0.6,2.4-0.1,3.9-2.2,5
		c-3.2,1.6-6.3,3.4-9.6,4.8c-2.8,1.1-5.8,3.4-9,0.7c-0.4-0.4-1.2-0.4-1.8-0.4c-2-0.2-4.9,1.9-5.2,3.7c-0.2,1.3,1.7,3.3,3.8,3.6
		c6.1,0.9,11.7-1,16.9-4.1c2-1.2,3.9-2.5,6-3.5c2-1,3.4-0.1,3.8,2.1c0.3,1.6-0.5,2.7-1.3,3.8c-5,7.2-8,15.4-12.8,22.7
		c-0.5,0.8-0.4,1.8,0.3,2c1.7,0.5,3.5,1.8,5.1-0.2c0.5-0.6,1.2-0.9,2-1.2c3.4-1.4,6.9-1.5,10.5-1.8c1.7-0.1,2.5,0.6,3,2.2
		c1.8,5.8,3.7,11.6,5.6,17.5c0.8,2.4,1.5,4.7,2.3,7.1c0.6,1.7,2.9,2.7,4.2,1.8c1-0.7,1.7-1.6,1-3.2c-3.5-7-5.9-14.3-8-21.8
		c-0.6-2.3,0-3.1,2.3-3c3.5,0.1,7-0.2,10.4-0.9c2.3-0.5,4.3-1.8,6.1-3.3c0.7-0.6,1.6-1.4,0.9-2.4C266.1,115.1,265,115.5,264.1,116.1
		z M237.7,118.3c-2.2-0.6-4.8,1.9-6.5-1c-0.5-0.9,0.2-1.9,0.8-2.8c1.2-1.8,2.1-3.7,3-5.6c0.3-0.6,0.7-1.2,1.6-1.2
		c0.7,0,1.4,0.7,1.4,1.1c-0.1,2.7,1.2,5,1.6,7.3C239.4,117.5,238.8,118.6,237.7,118.3z"/>
	<path fill="#02A93D" d="M501.9,114.9c-4.3-2.8-7.8-6.4-11.7-9.6c-2-1.7-2.3-3-1.3-5.1c2.5-5.2,4.8-10.6,6.2-16.2
		c0.1-0.5,0.8-1.2-0.2-1.5c-2-0.7-4-1.3-6.3-0.6c-4.7,1.4-8.9,3.9-13.3,6.1c-1.1,0.5-2.1,1.1-3.2,0c-1.1-1.2-0.4-2.1,0.3-3.1
		c1.4-2.1,3-4.1,4-6.6c0.4-1,0.2-2-0.5-2.5s-1.4,0.1-2,0.7c-1,1-2,2-3,3c-1.7,1.7-2.9,1.5-3.9-0.5c-1.4-2.7-2.9-5.4-4-8.2
		c-0.9-2.1-2.3-4-2.7-6.3c-0.3-1.5,0.2-2.4,1.6-2.5c6-0.3,11.5-2.7,17.4-3.4c2.5-0.3,3.4,0.3,3.6,2.8c0.1,1.9-1.2,3.4-1.1,5.1
		c0.5,0.5-0.7,1.1,0.1,1.4c0.6,0.3,0.9-0.4,1.4-0.7c2.9-1.7,4.4-4.4,5.1-7.6c0.6-2.4,0.1-4.3-2.3-5.1c-2.2-0.7-4.5-1.4-7-1.2
		c-6.8,0.7-13.6,1.6-20.4,1.7c-1.8,0-2.9-0.5-3.4-2.1c-1.4-4.5-2.9-9-3.6-13.7c-0.5-3.3-1.3-4.1-4.6-3.6c-1.3,0.2-2.3,0.7-1.9,2.6
		c1.1,5.3,3,10.4,4.9,15.4c3.9,10.4,8.6,20.4,15,29.5c0.7,1,1,2,0.3,3c-2.8,3.6-5.6,7.2-8.6,10.7c-1.5,1.8-1.5,2.8,0.5,4.1
		c2.7,1.8,5.4,0.9,7.9-0.5c6.3-3.6,12.1-7.8,18-12.1c1.2-0.9,2.9-1.4,4.4-0.5c1.6,1,0.6,2.5,0.1,3.7c-1.5,3.8-3.2,7.6-4.6,11.4
		c-2.5,7.4-5.2,14.8-9.5,21.4c-0.5,0.8-1.4,1.6-0.6,2.5s2,1.3,3.3,1.2c1.6-0.2,1.8-1.6,2.3-2.7c2.1-5.1,4.9-10,6.6-15.3
		c0.6-1.7,2.5-2.1,3.5-0.7c1.8,2.3,4.3,3.9,6.6,5.5c1.6,1.1,3.2,2.1,5.3,2.3c0.9,0.1,1.4-0.3,1.9-1.1
		C502.7,115.6,502.3,115.2,501.9,114.9z"/>
	<path fill="#02A93D" d="M179.3,108.7c-0.9-6.3-2.8-12.4-4.1-18.6c-2-9.2-4.3-18.4-6-27.7c-0.6-3.4-1.4-3.7-5-3.8
		c-1.6,0-2.6,0.8-3.7,1.6c-4.1,3-6.9,7.3-10.7,10.7c-0.7,0.7-1.5,1.3-2.4,1s-1.4-1.1-1.4-2.2c0-6.2,0.2-12.3,2.8-18
		c0.7-1.6,0.8-3.3,0.4-5c-0.4-1.6-2-0.1-2.8-0.9c-0.1-0.1-0.1-0.1-0.2-0.1c-1.8-0.7-3.3,0-3.6,1.9c-1.4,8.9-3.2,17.8-2.3,26.9
		c0.2,1.6,0.9,2.8,2.2,3.7c2.7,1.8,6.3,1.4,9-0.9c3.4-2.8,6.1-6.4,9.2-9.6c0.9-0.9,1.6-1.4,2.8-1.2c1.2,0.2,1.5,1.2,1.7,2.2
		c1.7,8.8,4,17.5,6.3,26.2c0.3,1.2,1.1,2.2,0.4,3.5c2,7.8,3.4,15.7,4.5,23.6c0,0.3,0.1,0.6,0,0.9c-0.1,1.4,0.7,3.3-1.1,3.9
		c-1.9,0.7-2.9-1.1-3.9-2.3c-3.2-3.9-5.5-8.4-7.9-12.9c-1.6-3.1-1.4-4.1,1.3-6.7c1.8-1.7,3.8-3.2,4.6-5.7c-1.3-1-3.2-1.8-4.4-1.1
		c-2.5,1.4-4.8,3.4-7,5.3c-1.9,1.7-2.2,3.9-1.1,6.3c1.9,4.4,4.6,8.4,7,12.5c2.8,4.6,6.7,7.9,12.1,9.2c1.5,0.4,3.3,0.5,4.3-0.7
		c1.4-1.8,2.4-3.9,2.1-6.4C181.5,119.1,180.1,114,179.3,108.7z"/>
	<path fill="#02A93D" d="M606.3,104.4c-1.3,0.4-3,0.7-3.5-1.2c-0.8-3.2-1.4-6.4-2-9.6c-0.2-1.3-0.3-2.5-1-3.7
		c-1.6-2.9-0.7-5.6,1.8-8c3.3-3.1,6.9-6,9.5-9.8c1.2-1.8,0.9-2.7-0.9-3.6c-5.6-2.9-11.5-4.8-17.3-7.2c-1.8-0.7-3.2,0.7-3.1,2.7
		c0.3,4.1,1.5,8.1,2.1,12.2c0.3,2.6,2.2,5.4-1,7.6c-3.7,2.5-7.2,5.3-11.3,7.3c-1.9,0.9-3.8,1.6-5.9,0.1c-1.3-0.9-4.8,0.5-5.2,2
		c-0.6,2,0.5,3.3,2.2,4c3.1,1.3,6.1,1.3,9.1-0.2c2.5-1.2,4.9-2.7,7.1-4.3c1-0.7,2.2-1.6,3.3-0.4s0.4,2.4-0.4,3.5
		c-0.1,0.1-0.2,0.2-0.3,0.4c-2,2.5-4,4.9-5.7,7.7c-1.9,3.1-1.3,4.8,1.8,6.6c3.5,1.9,6.9,1.1,10.4,0.3c3-0.7,3.4-0.5,4.2,2.4
		c0.6,2.4,0.7,4.9,1.9,7.2c0.5,0.9,1.3,1.6,2.3,1.2c1-0.3,0.5-1.4,0.2-2c-0.8-2.5-0.5-5.1-0.8-7.6s0.9-3.6,3.1-4.3
		c3.9-1.3,7.8-2.3,11.3-4.6c1.1-0.7,1.3-1.3,0.9-2.5C614.9,101.8,610.6,103.2,606.3,104.4z M594.8,106.7c-0.8,0.1-1.7,0.3-2.4,0.6
		c-0.9,0.3-1.5,0-2-0.7s-0.5-1.5,0-2.2c1.2-1.7,2.4-3.3,3.5-5.1c0.7-1.1,2-0.8,3,0c0.9,0.9,0.3,2.1,0.5,3.2
		C598.3,105.7,598,106.2,594.8,106.7z M597.4,75.2c-0.5-1.6-0.6-3.3-1-5c-0.1-0.9,0.3-1.5,1-2c0.8-0.5,1.5-0.3,2.1,0.3
		c0.9,0.8,2.2,0.8,3.2,1.3c1.4,0.8,2,1.7,0.8,3.1c-1,1.2-2.1,2.2-3.3,3.2C598.6,77.4,597.8,76.5,597.4,75.2z"/>
	<path fill="#02A93D" d="M413.4,123.4c-1.7-5.4-1.4-11.2-3.8-16.4c-1.4-2.9-1-6.6-3.7-9c-0.6-0.5-0.3-1.4,0-2.2
		c0.8-2.9,2.7-5.2,4.1-7.8c3.1-5.5,7.6-10.3,9.6-16.5c-1.9-0.7-3.8-1.2-5.6-0.6c-5.2,1.5-10.5,2.7-15.7,4c-9.5,2.3-18.8,5.3-28.6,6
		c-1.4,0.1-3.1,0-3.8,1.6c-0.8,1.7,1.1,2.4,1.8,3.4c0.8,1.2,1.8,2.5,3.6,2.1c5.6-1.3,11.4-2.2,16.7-4.5c5.7-2.4,11.6-4.1,17.7-5.2
		c0.9-0.2,1.7-0.1,2.3,0.7c0.7,0.8,0.6,1.6,0.1,2.4c-3,4.6-5.2,9.6-7.7,14.5c-4.2,8.4-8.3,17-13.3,25c-0.7,1.2-1,2.3,0.5,3.1
		c1.7,1,3.4,0.6,4.1-1c2.4-5.8,6-11,8.6-16.7c0.4-1,1-1.9,2.2-1.7c1.2,0.2,1.7,1,2,2.2c1.4,5.6,2.8,11.3,4.2,16.9
		c0.4,1.6,1.1,3.1,2.6,4c0.9,0.5,2,1,2.8,0.2c0.7-0.6,1-1.7,0.1-2.7C413.7,124.7,413.6,124,413.4,123.4z"/>
	<path fill="#02A93D" d="M134.4,94.8c-2.5,0.4-5,0-7.4,0.2c-3.9,0.3-7.7,0.7-11,3.2c-1.4,1.1-2.6,0.3-3.2-1c-0.9-1.9-1.8-4-2.4-6
		c-0.8-2.3,0.1-4.7,2-5.3c4.4-1.3,8.2-4,12.5-5.4c2.6-0.8,4.6-2.4,6.9-3.7c1.1-0.6,1.7-1.7,1.8-3c0-0.4,0.3-1.1-0.5-1
		c-1.4,0.2-2.8-0.3-4.3,0.3c-10.6,4.7-21.2,9.2-33,9.5c-1.4,0-2.2,0.8-2.1,2.2c0.1,2.5,3.7,5.5,6.2,5.3c4-0.3,4-0.3,5.4,3.2
		c0.3,0.6,0.6,1.3,0.9,1.9c2.8,5.6,6.1,11,10.1,15.9c3,3.7,3.8,7.2,1.7,11.4c-0.5,1.1-0.9,2.4,0.6,2.9s3.1,1.8,4.7,0.2
		c1.8-1.8,2.5-1.8,3.9,0.3c1.2,1.6,2.5,2.9,4.7,2.9c0.6,0,1.3,0.3,1.7-0.5s-0.2-1.2-0.7-1.8c-1.3-1.3-2.6-2.7-3.7-4.2
		c-1-1.2-1.4-2.7-0.5-4.1c1.8-2.6,3-5.4,4.4-8.2c1.8-3.6,4-7.1,3.8-11.2c0-0.7,0-1.1,0-1.6C137.1,95.4,136.5,94.4,134.4,94.8z
		 M120.3,106.3c-2.5,0.1-2.7-2-3.3-3.5c-0.5-1.4,0.5-2.5,1.7-2.9c2.3-0.6,4.4-2.2,7-2c0.4,0,0.9-0.2,1.3-0.5
		c1.2-0.8,2.5-0.7,3.3,0.4c0.9,1.2,0.3,2.3-0.8,3.2c-1.8,1.4-4.1,1.9-5.8,3.5C122.6,105.5,121.7,106.4,120.3,106.3z M131.6,107.2
		c0,1.7-0.9,3.8-1.6,6c-0.7,1.8-2.1,2.1-3.6,0.8c-3.2-2.8-3.2-3.3-0.2-6.3c0.9-0.9,1.7-1.8,2.6-2.7c0.6-0.7,1.4-0.8,2.1-0.3
		C131.5,105,132.1,105.6,131.6,107.2z"/>
	<path fill="#02A93D" d="M616.8,17.8c5.3,2.5,11,3.8,16.8,4.8c5.7,1,11.7,1.2,16.7,4.8c2.6,1.9,3.3,1.7,5-2c0.9-1.9-1.5-1.7-2.4-2.5
		c-0.1-0.2-0.4-0.2-0.6-0.3c-6.4-2.7-13.2-3.8-19.8-5.5c-4.5-1.2-9.1-2.2-13.2-4.7c-0.8-0.5-1.7-0.8-2.7-0.9
		c-0.8,0.7-3.1-0.7-2.7,1.6C614.2,14.9,615,16.9,616.8,17.8z"/>
	<path fill="#02A93D" d="M600.3,52.8c0.9,0.2,1.5,0,1.8-1.2c0.2-1.1,0-1.5-1.1-1.9c-1.6-0.6-3.2-1.2-4.9-1.3
		c-4.7-0.3-9.5-0.4-14.2-0.7c-6.3-0.4-12.5-1.1-18.5-3.1c-1-0.3-1.9-1-2.8-0.9c-1,0-3-0.5-2.6,1.4c0.5,2.2,1.7,4.2,4,5.1
		c4.7,1.9,9.7,2.6,14.8,2.7C584.6,52.8,592.4,52.8,600.3,52.8z"/>
	<path fill="#02A93D" d="M548.1,80.8c-3.3,0.9-6.5,1.9-9.8,2.9c-4.7,1.3-9.4,3.2-14.4,3.5c-2.6,0.2-5.1-0.1-7.6-0.6
		c-1.2-0.2-2.5,0-3,1.2c-0.5,1.1,0.4,2,1.1,2.8c1.8,2.1,4,2.8,6.7,2.5c1.3-0.1,2.6,0,3.9-0.3c8-1.5,15.1-5.3,22.3-8.7
		c0.8-0.4,1.5-0.7,2-1.5c0.3-0.5,1-1,0.6-1.6C549.5,80.3,548.7,80.6,548.1,80.8z"/>
	<path fill="#02A93D" d="M54.6,61.6c3.6-0.7,6.4,1.8,9,4.1c4.2,3.7,7.5,8.5,12.6,11.5c0.4-1.5,0-2.7-1-3.7C73.1,71,70.9,68.6,69,66
		c-2.5-3.3-5.4-6-9.1-7.7c-2.4-1.1-4.8-2-7.5-0.8c-1.3,0.6-1.9,1.1-1,2.5C52.1,61.3,52.6,62,54.6,61.6z"/>
	<path fill="#02A93D" d="M426,114.8c-1.8-1.6-3.8-3.1-4.9-5.3c-1.1-2.3-2.9-2.8-5.2-2.9c-0.8,0.1-1.9-0.2-2.5,1.1
		c-0.7,1.5,0.9,1.3,1.1,2c0.1,0.2,0.3,0.4,0.4,0.5c2.9,2.8,5.4,6.1,9.5,7.2c0.8,0.2,1.8,0.9,2.4-0.3
		C427.4,116.1,426.8,115.4,426,114.8z"/>
	<path fill="#02A93D" d="M947.8,123.5c-1.6-0.4-3.3-0.8-5-0.8c-9.8,0.4-19.4-0.6-28.9-2.7c-5.4-1.2-10.7-2.5-15.9-4.1
		c-5.6-1.7-11-3.9-16.5-5.7c-2.1-0.7-2.1-2.2-0.3-3.6c1.5-1.2,3.2-2.1,4.6-3.6c4.9-5.1,8.5-11,12.1-17c0.3-0.4,0.5-1,0.2-1.3
		c-1-1-1.8-2.2-3.6-2.2c-1.6,0-2.1,0.8-2.7,2c-2.9,6.4-6.8,12.1-11.8,17.1c-0.7,0.7-1.4,1.3-2.4,0.8c-0.9-0.5-1.3-1.3-1.1-2.3
		c0.8-3.5-0.2-7,0.3-10.5c0.1-1-0.4-1.5-1.3-2.1c-1.5-1-4-1.3-3.9-3.6c0-1.8,0-3.7,0-5.5c0-1.2,0.6-1.9,1.4-2.5
		c1.6-1.1,3.3-2,4.9-3.1c3.2-2,6.7-3.7,9.3-6.5c2.6-2.8,2.5-4.6-0.9-6.7c-0.6-0.4-1.4-0.7-2-1c1.2,3.1-1,4.6-3,6
		c-2.3,1.7-4.9,3.1-7.3,4.8c-1.1,0.8-2,0.6-2.8-0.4c-1.3-1.6-1.1-6.5,0.5-7.7c2.3-1.7,4.9-2.9,7.5-4.3c0.6-0.3,1.1,0.2,1.7,0.4
		c1.1,0.3,2,1.3,3.3,0.7l0,0c-1-0.4-1.9-0.9-1.8-2.2c0.1-1.1,0.9-1.7,1.9-2c0.4-0.1,0.9-0.3,1.3-0.5c0.9-0.5,2.1-1.1,1.9-2.1
		c-0.1-0.6-1.4-1.1-2.1-1.5c-0.1-0.1-0.3,0-0.5-0.1c-2.7-1.2-4.6,0.9-6.7,1.8c-1.1,0.5-2.2,0.9-3.3,0.2c-2.7-1.8-4.9-4.1-6.5-6.9
		c-0.7-1.3-1.1-3.1,0.9-3.7c3.1-0.9,6.1-2,9.3-2.7c3.4-0.8,6.9-1.7,10.1-3.2c1.2-0.6,1.9-1.8,2.3-3c0.2-0.7-0.8-1.3-1.3-1.4
		c-1.7-0.5-3.4-1.4-5.1-0.1c-1.3,0.9-2.7,1.4-4.2,1.9c-6.3,1.9-12.6,3.8-18.9,5.8c-1.1,0.3-2.2,0.5-2.9-0.6c-0.8-1.2,0-2,0.8-2.8
		c0.4-0.4,0.8-0.8,1.1-1.2c4.6-4.9,9.1-9.8,13.7-14.6c1.2-1.3,2.5-2.7,4.6-1.3c0.9,0.6,1.3-0.3,1.5-0.9c0.5-1.2,0.9-2.5,0.8-3.9
		c-0.1-0.9,0.2-1.7-1.1-2.2c-2.7-1.2-5.3-0.9-7.4,1.3c-3.9,4.3-8.2,8.3-11.6,13.1c-0.9,1.3-1.9,1.6-3.3,0.4
		c-3.5-3.1-6.9-6.3-9.9-9.9c-2.3-2.7-4.9-5-7.5-7.3c-1.3-1.1-2.9-0.9-4.1-0.1c-1.4,0.9-0.4,2.2,0.1,3.3c0.7,1.5,1.8,2.7,3.2,3.6
		c2.2,1.5,4.3,3,6.1,5c2.6,2.8,5.5,5.2,8.8,7.1c1.8,1.1,2.2,2.7,0.7,4c-5.4,4.8-10.2,10.4-17.6,12.6c-1.4,0.4-2.3,1.3-1.4,3
		c0.4,0.8,0.9,1.7,0.1,2.6c0.8-0.1,1.5-0.2,2.2,0.5c1.1,1.1,2.8,0.9,3.7,0.3c3.5-2.2,7.7-2.5,11.4-3.8c2.1-0.7,4.3-1.6,6.6-2
		c1.5-0.3,2.5,0.1,2.6,1.7c0.3,2.9,0.5,5.9,1,8.8c0.3,2.2-0.7,3.4-2.5,4.1c-3.8,1.6-7.7,3.2-11.6,4.9c-3.3,1.5-6.6,2.9-10.2,3.3
		c-1.5,0.2-2,1.4-1.6,2.9c0.4,1.3,0,2.1-1,3.1c-3.2,3-7.1,5.2-10.5,7.9c-1.3,1.1-2.9,0.4-3.2-1.4c-1.1-5.3-3.4-10.2-4.1-15.5
		c-0.2-1.7,0.1-2.6,1.7-3.2c2.3-0.8,4.8-1.3,6.8-2.8c3.1-2.4,6.9-4.1,8.1-8.4c-2-0.7-4.1-1-6.3-1.2c-4.3-0.5-8.6-1.2-12.9-1.8
		c-3.2-0.4-4.1,0.3-4.2,3.4c0,1.4,0,2.8,0.1,4.2c0.1,2.7-0.5,3.3-3.2,3.9c-2.3,0.5-4.5-0.2-6.7,0c-0.9,0.1-1.9,0-2.2,0.9
		c-0.4,0.9,0.1,1.7,0.7,2.5c2.7,3.5,6.3,2.7,9.8,2.1c2.6-0.4,3.4-0.1,4.1,2.4c0.8,2.8,1.5,5.5,2.3,8.3c0.3,1.1,0.2,2.1-0.6,3.1
		c-1.8,2.1-3.5,4.3-4.7,6.9c-1.3,2.6-1.1,4.1,1.2,5.7c2,1.4,4.3,2,6.5,0.9c2.3-1,3.2,0.1,3.8,1.9c0.6,1.7,1.3,3.3,2.4,4.7
		c0.3,0.4,0.8,0.9,1.4,0.6c0.7-0.3,0.3-0.9,0.2-1.4c-0.4-1.8-0.9-3.6-1.4-5.4c-0.7-2.6,0.2-4.5,2.2-6.1c3.8-3,7.7-6,11.3-9.3
		c1.1-1,2.2-2.1,3.7-2.7c6.3-2.5,12.5-5.3,18.5-8.5c2-1,3.3-0.4,3.7,1.8c0.3,1.5,0.3,3.1,0.6,4.6c0.4,1.8-0.2,3-1.8,3.8
		c-3.9,2.2-7.9,4.2-11.7,6.6c-2.9,1.8-5.7,3.8-9.4,3.7c-0.4,0-0.8,0.2-0.9,0.6c-0.3,1.5,0.3,2.8,1.1,3.9c0.6,0.9,1.8,1.7,3,1.2
		c2.2-0.8,4.5-1.5,6.3-2.9c3.7-2.9,8-5,11.8-7.8c0.8-0.6,1.6-0.6,2.4-0.1c2.4,1.5,2.3,6.2-0.2,7.5c-3.5,1.8-6.9,3.9-10.8,4.6
		c-1.3,0.2-1.5,1-1.4,2c0.2,2.3,2.6,4.1,4.9,3.8c3-0.4,5.5-2.1,8.1-3.4c2.8-1.4,3.7-0.8,3.7,2.4c0,1.4,0,2.8,0,4.2
		c0,1.5,0.3,3.1-0.2,4.4c-0.8,1.9-2.8,0.5-4.2,1c-2,0.7-3.6,0-5-1.5c-1.1-1.2-2.5-1.5-3.9-1.7c-3.6-0.4-7.1,0.1-10.7,0.8
		c-0.9,0.2-1.9,0.1-2.2,1.3c-0.2,1.1,0.1,2,0.8,2.8c1,1.1,2.3,1.5,3.7,1.3c1.7-0.8,3.4,0.2,5.1-0.2c0.5-0.1,0.9,0.3,1,0.8
		c0.2,0.6-0.1,1.1-0.5,1.4c-0.9,0.8-2,1.1-3,1.7c-1.2,0.9-1.8,2.3-2.7,3.5c-1.2,1.5-0.8,2.4,0.4,3.5c1.6,1.4,3.7,1.4,5.3-0.5
		c2.4-3,5.3-5.6,7-9.2c0.8-1.7,2.2-2,3.5-0.7c1.1,1.1,2.3,2,3.9,2.2c1.3,0.1,1.9,0.9,2,2.2c0.1,1.7,0.3,3.4,0.6,5.1
		c0.3,2,0.5,4.1,2.1,5.6c0.5,0.5,1.1,1.3,1.7,0.3c0.6-0.9,1.5-1.8,1.2-3.1c-0.3-1.7-0.5-3.4-0.7-5.1c-0.3-2.7,0.5-3.5,3.1-2.9
		c4.4,1,8.6,2.5,12.9,3.7c9.3,2.8,18.7,4.7,28.3,6.2c6.1,1,12.1,1.6,18.3,1.5c1.7,0,3.4-0.4,4.2,1.8c0.3,0.8,1.5,0.8,2.3,1.1
		c1,0.3,3.6-1.5,3.6-2.6C949.9,124.5,949,123.8,947.8,123.5z M818.1,51.9L818.1,51.9c0.1-0.1,0.3-0.3,0.4-0.4
		c0.6-0.8,1.4-0.4,2.1-0.4c1.2-0.1,2.3,0.3,2.4,1.6c0,1.2-1,1.6-2.1,1.6l0,0c-1.1,0.5-2.2,0.9-3.1-0.2
		C817.2,53.3,817.3,52.5,818.1,51.9z M869,52.5c0.1-0.9,0.9-1.5,1.8-1.4c0.9,0.1,1.6,0.7,1.5,1.7s-0.8,1.4-1.6,1.7
		C869.8,54.1,868.9,53.6,869,52.5z"/>
</g>
</svg>
