<?xml version="1.0" encoding="utf-8"?>
<!-- Generator: Adobe Illustrator 22.0.1, SVG Export Plug-In . SVG Version: 6.00 Build 0)  -->
<svg version="1.1" id="圖層_1" xmlns="http://www.w3.org/2000/svg" xmlns:xlink="http://www.w3.org/1999/xlink" x="0px" y="0px"
	 width="582.1px" height="233.3px" viewBox="0 0 582.1 233.3" enable-background="new 0 0 582.1 233.3" xml:space="preserve">
<g>
	<path fill="#02A93D" d="M79.7,93.3c-3.6-3.4-7.4-6.8-11.1-10.2c-1-0.9-1.3-1.9-0.8-3.1c2.2-4.9,2.6-10.3,4.9-15.2
		c0.3-0.7,0.4-1.3-0.8-1.3c-2.4-0.1-3.2,0.2-3.8,2.7c-0.7,3.4-1.7,6.6-2.7,9.9c-0.6,1.8-1.8,2.3-3,1c-2.3-2.3-4.6-4.7-6.9-7.1
		c-0.7-0.8-0.9-1.6-0.5-2.4c0.3-0.8,0.8-1.5,1.1-2.2c1.9-5,2.6-5.2-2.8-7.5c1,2.4,0.9,4.4-0.4,6.4c-0.7,1.1-1.7,1.2-2.6,0.3
		c-3.9-4-7.5-8.1-10.8-12.4c-0.9-1.2-0.5-2.4,1.1-2.9c1.3-0.4,2.5-1,3.9-0.6c0.3,0,0.7,0.1,0.8-0.2c0.1-0.3,0.1-0.8-0.1-0.9
		c-0.9-0.3-1.8-1.6-2.8-1.2c-1.4,0.5-3.1,0.4-4.4,0.9c-1.7,0.7-2.7,0-3.7-1.3c-1.1-1.5-2.3-2.9-3.6-4.2c-0.9-1-3.2-0.9-4.4-0.2
		c-0.8,0.5-0.9,0.9-0.3,1.7c1,1.2,1.7,2.6,2.8,3.8c1.3,1.4,1,3.2-0.6,4c-2.9,1.6-5.8,3.2-8.8,4.6c-2.1,1-4.4,1.7-6.6,2.5
		c-0.9,0.3-2,0.7-2.7-0.1c-1.1-1.1-2.2-0.8-3.5-0.5c-1.5,0.3-2.4,1.4-3.6,2.1c-0.6,0.4-1.7,0.5-1.6,1.6c0.1,1.1,1,1.5,1.8,1.8
		c2.5,1.2,5.2,1.6,7.9,1c3.1-0.7,6.2-1.8,9-3.4c1.5-0.9,2.6-0.5,2.8,1c0.5,3.8,2.3,7.1,3.9,10.5c1.8,3.9,3.6,7.7,5.6,11.5
		c0.6,1.3,0.5,2.2-0.6,3.2c-1.6,1.4-3.1,2.9-4.5,4.4c-1.2,1.4-2.2,1.5-3.5,0.3c-0.9-0.9-1.8-0.7-2.7,0c-0.9,0.7-1.7,1.5-2.3,2.5
		c-1,1.8-1.9,3.7-2.9,5.6c-0.7,1.3-0.3,2.2,1.1,2.7c2.4,0.9,4.5,0.5,6.3-1.2c3.1-2.8,6.1-5.8,8.8-9c0.4-0.5,1-1.1,1.7-0.8
		c0.8,0.2,1.1,0.7,1.3,1.5c0.1,0.6,0.2,1.1,0.3,1.7c1.2,5.1,2.5,10.1,5.6,14.5c0.9,1.2,1.8,1.3,3.1,1c1.5-0.4,1.8-1.4,1.5-2.7
		c-0.1-0.7-0.2-1.5-0.4-2.3c-1.6-5.5-4.2-10.6-6.6-15.7c-0.8-1.7-0.6-3.2,0.7-4.4c3.8-3.9,7.8-7.6,11.2-12c0.8-1,1.7-1,2.6-0.1
		c2.7,2.8,5.5,5.7,8.3,8.4c1.1,1,1.3,2.3,0.9,3.5c-1.3,4.4-2.8,8.7-5.4,12.6c-1.7,2.5-3.4,3-6.1,2c-0.2,0.8,0.5,1.3,1.1,1.6
		c2.3,1.6,5.4,1,7.2-1.4c2.6-3.4,4.4-7.1,5.9-11c0.8-2.1,1.8-2.2,3.4-0.7c2.7,2.6,5.4,5.2,8.4,7.6c0.3,0.2,0.5,0.4,0.7,0.6
		c1,0.6,2.2,1.4,3.2,0C81.8,94.6,80.4,93.9,79.7,93.3z M46.7,71.5c-2.7,3.4-6.2,6-9,9.4c-0.7,0.8-1.9,0.4-2.5-0.6
		c-2.7-4.3-4.4-9-6.5-13.6c-1.5-3.2-0.6-6.2,2.6-8.7c1.2-0.9,2.5-2,4.2-2.1c1.3-0.1,2,0.8,2.6,1.6c2.8,3,5.6,6.1,8.5,9.1
		C48.8,68.9,48.7,68.9,46.7,71.5z"/>
	<path fill="#02A93D" d="M290.9,71.7c-0.9-0.5-2-1.5-3.1-0.2c-0.9,1.3-2.3,1.3-3.6,1.3c-2.5-0.1-4.9-0.5-7.3-0.9
		c-1.1-0.2-1.7-0.8-2.1-1.8c-0.6-1.6-1.1-3.3-1.6-4.9c-0.5-1.5-0.9-3.1-0.3-4.7c0.3-0.8,0-1.1-0.6-1.6c-3.2-2.7-3.5-5.9,0.2-8.7
		c5.1-3.7,9-8.5,11.9-14.2c1.4-2.8,0.8-5.1-0.8-7.5c-0.3-0.4-0.6-0.6-1.1-0.5c-0.8,0.2-0.4,0.7-0.4,1c0.2,1.5,0,3-0.6,4.5
		c-2.4,5.8-6.7,10.1-11.3,14.1c-1.1,0.9-2.4,0.3-2.6-0.7c-0.9-3-2.2-6-2.7-9.1c-0.2-1.1,0.3-2,1.2-2.4c1.5-0.8,2.7-1.9,4-2.9
		c2.8-1.9,5.5-3.9,6.9-7.2c0.3-0.5,1.2-1.3,0.3-1.8c-1-0.6-1.8-2.3-3.3-1.2c-0.3,0.2-1.2-0.1-0.9,0.8c0.4,1.2-0.4,1.9-1.1,2.7
		c-1.8,2.2-4.2,3.7-6.5,5.3c-1.2,0.9-2.3,0.4-2.9-1c-0.4-0.9-0.4-1.9-0.7-2.9c-1.1-4-2.1-8.1-3.1-12.2c-0.4-1.5,0.3-2.4,1.8-2.9
		c1-0.3,1.9-0.8,2.8-1.3c1.1-0.6,1.5-1.8,1.3-2.7c-0.2-0.7-1.4-0.7-2.2-0.7c-1,0-1.9,0.3-3,0.7c-1.5,0.6-2.4,0.1-2.5-1.4
		c-0.2-1.5-0.8-3-1.2-4.4c-0.2-0.8-2.5-1.8-3.3-1.4c-1.2,0.5-1.7,1.3-1.2,2.7c0.5,1.6,0.8,3.3,1.3,5c0.4,1.3-0.1,2-1.4,2.4
		c-2.2,0.6-4.5,0.8-6.8,1.1c-3.8,0.5-7.7,0.9-11.5-0.2c-1.2-0.4-2.2,0-3.3,0.3c-0.7,0.2-1.1,0.7-0.8,1.2c0.9,1.5,1.9,3.2,3.6,3.4
		c4.2,0.7,8.5,0.9,12.8-0.1c2.6-0.6,5.1-1.1,7.7-1.6c1.1-0.2,1.8,0.3,2,1.4c0.3,1.2,0.7,2.5,1,3.7c1.2,4.1,2.4,8.2,3.7,12.2
		c0.5,1.5,0.2,2.5-1.4,3.2c-1.6,0.7-2.9,1.8-4.4,2.6c-4.3,2.5-8.4,5.3-12.9,7.3c-0.9,0.4-1.8,0.6-2.4-0.3c-1.1-1.4-2.3-0.8-3.6-0.4
		c-1.4,0.6-2,1.8-3,2.8c-1.6,1.8-1.4,2.8,0.9,3.8c0.9,0.4,2.1,0.9,3.1,0.6c3-0.8,6-1.6,8.7-3.1c5-3,9.6-6.4,14.5-9.6
		c1.5-1,2.5-0.7,3,0.9c1,3.1,2,6.1,3,9.3c0.4,1.2,0,2.1-1,2.8c-3.2,2.2-6.4,4.3-10.1,5.6c-3,1-4.2,0.6-6.2-1.9
		c-0.3-0.3-0.6-0.7-1-0.8c-0.9-0.4-2-0.1-2.9,0.3c-0.6,0.2-0.5,0.9-0.4,1.4c0.9,3.8,6.1,6.4,10,5.3c4-1.2,7.5-3.2,11-5.4
		c1.2-0.8,2.3-0.9,2.8,0.5c0.8,1.9,0.9,3.8-0.1,5.9c-2.7,5.1-4.6,10.7-7.5,15.7c-0.2,0.4-0.9,1-0.3,1.5c0.6,0.4,1.3,1.2,2.2,0.8
		c0.5-0.2,1-0.3,1.3-0.6c1.8-1.2,2.5-3,3.2-4.8c0.6-1.6,1.5-2.3,3.2-2c0.7,0.1,1.4,0,2.1,0.1c0.9,0.1,1.5,0.5,1.9,1.4
		c1,2.7,2.1,5.5,3,8.2c1.4,4.1,3.5,8.1,4.6,12.3c0.5,2,2,1.2,3.3,0.8c1.4-0.4,1.1-1.2,0.7-2.2c-2.3-5.4-4.5-10.8-6.9-16.3
		c-0.3-0.7-0.6-1.4,0.1-2.1c0.7-0.7,1.3-0.5,2.1-0.3c2.2,0.3,4.4,0.4,6.6,0.6c1.8-0.2,3.2-1.1,4.1-2.5
		C291.2,73.2,291.9,72.3,290.9,71.7z"/>
	<path fill="#02A93D" d="M219.8,71.9c-3.7,3-8.1,3.6-12.5,3.9c-1.8,0.2-2.8-0.6-3.4-2.3c-0.9-2.9-2-5.6-3.1-8.4
		c-1-2.7-1.8-5.3,0.6-7.8c0.7-0.6,0.7-1.8,1.1-2.8c-0.5-0.1-0.8-0.2-1.3-0.3c-1.1-0.1-2.6,0.4-3.1-1.2c-0.5-1.6,1.2-2.1,1.9-3
		c0.1-0.1,0.2-0.1,0.3-0.2c3.1-2.8,6.6-5.1,9.1-8.5c0.9-1.3,2.4-3.1,1.8-4.2c-0.7-1.3-2.9-1.4-4.9-1.3c0.9,1.4,0.6,2.5-0.3,3.7
		c-2.4,3-5.7,5.2-8.5,7.9c-1.1,1-2.6,0.6-2.9-0.8c-1-3.9-2.6-7.4-3.6-11.3c-1-3.5-0.8-3.6,2.8-4.7c2.6-0.7,5.1-1.5,7.6-2.5
		c1.4-0.6,1.6-1.8,1.5-2.8c-0.1-0.8-1.3-0.4-1.9-0.5c-0.9-0.2-1.9,0.2-2.7,0.5c-2.2,0.8-4.5,1.4-6.7,2.1c-1.8,0.5-2.9-0.2-3.5-2
		c-0.9-2.9-2-5.6-2.9-8.4c-0.6-2.2-1.6-3.8-4.4-3.4c-0.7,0.1-1.1,0.5-1.6,0.7c-0.4,0.2,0.2,0.8,0.4,1.2c1.8,3.6,3.1,7.4,4.5,11.1
		c0.7,1.7,0,2.6-1.7,2.9c-2,0.3-4,0.8-6,1.2c-4.1,0.6-8.2,1.3-12.4,1.5c-1.2,0-2.7,0.4-2.6,2.1c0.1,1.5,2.6,3.5,4.1,3.3
		c3.2-0.5,6.3-1,9.4-1.9c3-0.9,6-1.9,9.1-2.6c1.6-0.3,2.3,0.3,2.8,1.7c1.6,4.6,3.1,9.2,4.8,13.9c0.7,1.9,0.2,3.2-1.4,4.3
		c-2.5,1.6-4.9,3.3-7.4,4.7c-2.2,1.1-4.5,3.2-7.3,1.3c-0.4-0.3-1-0.2-1.5-0.2c-1.6,0-3.8,1.9-3.9,3.4c-0.1,1.1,1.6,2.6,3.4,2.6
		c5,0.3,9.5-1.7,13.5-4.7c1.5-1.1,3-2.3,4.6-3.3c1.6-1,2.8-0.4,3.3,1.4c0.4,1.3-0.2,2.2-0.8,3.2c-3.5,6.3-5.3,13.2-8.6,19.5
		c-0.3,0.7-0.2,1.5,0.4,1.6c1.4,0.3,3,1.2,4.1-0.6c0.4-0.5,0.9-0.8,1.5-1.1c2.7-1.4,5.5-1.8,8.4-2.3c1.4-0.2,2.1,0.3,2.6,1.6
		c1.9,4.6,3.9,9.2,6,13.8c0.8,1.9,1.6,3.7,2.4,5.6c0.6,1.3,2.6,2,3.6,1.1c0.8-0.7,1.3-1.4,0.6-2.7c-3.4-5.4-5.9-11.2-8.3-17.1
		c-0.7-1.8-0.2-2.5,1.6-2.6c2.9-0.2,5.7-0.7,8.4-1.6c1.8-0.6,3.4-1.8,4.7-3.2c0.5-0.5,1.2-1.3,0.5-2
		C221.4,70.9,220.5,71.3,219.8,71.9z M198.5,75.8c-1.8-0.3-3.8,1.9-5.4-0.3c-0.5-0.7,0-1.6,0.4-2.3c0.8-1.6,1.4-3.2,2-4.8
		c0.2-0.5,0.5-1,1.2-1.1c0.6-0.1,1.2,0.5,1.2,0.8c0.1,2.2,1.4,4,1.9,5.8C199.8,75,199.4,75.9,198.5,75.8z"/>
	<path fill="#02A93D" d="M150.1,72.6c-1.2-5.1-3.3-9.9-4.8-14.8c-2.4-7.3-5-14.7-7.1-22.1c-0.8-2.7-1.4-2.9-4.4-2.7
		c-1.3,0.1-2.1,0.9-2.9,1.6c-3.1,2.8-5,6.5-7.9,9.6c-0.5,0.6-1.1,1.2-1.9,1c-0.8-0.2-1.2-0.8-1.3-1.7c-0.5-5.1-0.8-10,0.9-14.9
		c0.4-1.4,0.4-2.8-0.1-4.1c-0.5-1.3-1.6,0.1-2.4-0.5c-0.1-0.1-0.1-0.1-0.2-0.1c-1.5-0.4-2.7,0.3-2.8,1.8c-0.4,7.4-1.2,14.8,0.3,22.1
		c0.3,1.3,1,2.2,2.1,2.8c2.3,1.3,5.2,0.6,7.3-1.4c2.6-2.6,4.5-5.7,6.7-8.6c0.7-0.8,1.2-1.3,2.2-1.2c1,0.1,1.3,0.9,1.6,1.7
		c2.1,7,4.7,14,7.2,20.9c0.3,1,1.1,1.7,0.6,2.8c2.2,6.2,4,12.5,5.5,18.9c0,0.2,0.1,0.5,0.1,0.7c0,1.1,0.8,2.6-0.6,3.3
		c-1.5,0.7-2.5-0.7-3.4-1.6c-2.9-2.9-5.2-6.4-7.5-9.9c-1.6-2.4-1.5-3.2,0.5-5.6c1.3-1.5,2.8-2.9,3.3-5c-1.1-0.7-2.8-1.2-3.7-0.5
		c-1.9,1.3-3.6,3.2-5.3,4.9c-1.4,1.5-1.5,3.4-0.4,5.2c1.9,3.4,4.4,6.5,6.7,9.6c2.6,3.5,6.1,5.9,10.6,6.5c1.3,0.2,2.7,0.1,3.5-0.9
		c1-1.6,1.6-3.4,1.2-5.4C152.7,80.9,151.1,76.8,150.1,72.6z"/>
	<path fill="#02A93D" d="M112.3,64.8c-2,0.5-4.1,0.4-6,0.7c-3.2,0.6-6.2,1.2-8.7,3.5c-1.1,1-2.1,0.5-2.7-0.6
		c-0.9-1.5-1.8-3.1-2.4-4.7c-0.8-1.8-0.3-3.8,1.2-4.5c3.5-1.4,6.4-3.9,9.8-5.4c2.1-0.9,3.6-2.3,5.3-3.6c0.8-0.6,1.3-1.5,1.2-2.6
		c0-0.3,0.2-0.9-0.5-0.8c-1.1,0.3-2.3,0-3.5,0.6c-8.3,4.7-16.6,9.2-26.2,10.4c-1.1,0.1-1.7,0.8-1.5,2c0.3,2,3.5,4.2,5.5,3.8
		c3.2-0.6,3.2-0.6,4.7,2.2c0.3,0.5,0.6,1,0.9,1.5c2.7,4.3,5.8,8.5,9.5,12.2c2.7,2.8,3.7,5.6,2.3,9.2c-0.3,0.9-0.5,2,0.7,2.3
		c1.3,0.3,2.7,1.2,3.8-0.2c1.3-1.6,1.9-1.7,3.2-0.1c1.1,1.2,2.3,2.2,4.1,2c0.5,0,1.1,0.1,1.3-0.5s-0.3-1-0.7-1.4
		c-1.2-1-2.3-2-3.4-3.1c-0.9-0.9-1.4-2.1-0.7-3.3c1.3-2.3,2-4.6,2.9-7c1.2-3.1,2.7-6.1,2.2-9.4c-0.1-0.6-0.1-0.9-0.1-1.3
		C114.6,65.1,114,64.3,112.3,64.8z M101.7,75.3c-2,0.3-2.4-1.4-3-2.6c-0.5-1.1,0.2-2.1,1.2-2.5c1.8-0.7,3.4-2.1,5.6-2.2
		c0.3,0,0.7-0.2,1-0.5c0.9-0.7,2-0.8,2.7,0.1c0.8,0.9,0.4,1.9-0.4,2.7c-1.4,1.3-3.2,1.9-4.5,3.3C103.6,74.4,102.9,75.3,101.7,75.3z
		 M111,75.1c0.1,1.4-0.4,3.2-0.8,5c-0.4,1.5-1.5,1.9-2.9,0.9c-2.8-2-2.9-2.4-0.7-5.1c0.7-0.8,1.2-1.6,1.9-2.4
		c0.4-0.6,1.1-0.8,1.7-0.4C110.8,73.3,111.3,73.8,111,75.1z"/>
	<path fill="#02A93D" d="M44.6,44c2.9-0.9,5.4,1,7.7,2.6C56,49.3,59.1,53,63.5,55c0.2-1.3-0.2-2.2-1.1-2.9c-1.9-1.9-3.9-3.7-5.7-5.6
		c-2.3-2.5-4.9-4.5-8-5.6c-2-0.7-4.1-1.3-6.2-0.1c-1,0.6-1.5,1-0.6,2.1C42.5,44,43,44.5,44.6,44z"/>
	<g>
		<path fill="#02A93D" d="M446.1,204.3c-2.9-0.5-5.8-1.2-8.8-0.7c-1.7,0.2-2.3-0.6-2.2-2.2c0.2-1.7,0.5-3.5,0.7-5.1
			c0.2-3,1.6-5.1,4.2-6.6c1.3-0.8,2.3-2,3.4-3.2c1.6-1.7,1.4-2.5-0.3-4.1c-1.2-1-2.7-1.2-4.2-1.4c-0.8-0.1-1.2-0.6-1.5-1.2
			c-0.2-0.7,0.2-1.2,0.7-1.7c0.2-0.2,0.6-0.3,0.8-0.5c0.8-0.3,1.6-1.1,1.3-1.9c-0.2-0.8-1.1-1.3-2.2-1.4c-1.7-0.1-2.9,0.6-4.3,1.5
			c-0.1-1.7,0.5-3.2,1-4.7c0.7-2.2,1.4-4.3,4.4-4.1c0.9,0.1,1.3-1,1.6-1.7c0.2-0.7-0.7-0.6-1.2-1c-0.5-0.4-1.1-0.7-1.8-0.5
			c-0.9,0.2-1.6-0.2-1.9-1c-0.3-0.7-0.1-1.4,0.5-1.9c1-1,1.7-2.2,2.5-3.4c0.5-0.8,0.4-1.2-0.6-1.7c-3.2-1.7-6.8-1.7-10.4-2.2
			c-2.7-0.3-3.1-1.2-2.1-3.8c2-5,3.9-9.9,5.1-15.2c0.9-4.2,1.2-8.9,4.4-12.4c0.6-0.6,0.2-1.3-0.3-1.4c-1.2-0.2-0.7-0.7-0.5-1.2
			c0.2-0.8,0.5-1.6,0.9-2.3c0.7-1.4,0.7-2.9,0.3-4.3c-0.3-1.1-1.5-0.2-2.2-0.6c-1.9-0.8-2.9-0.2-3.2,1.9c-0.3,2.2-0.7,4.3-0.9,6.5
			c-0.2,1.1-0.5,2.1-1.6,2.5c-3.3,1.2-6.7,2.1-10.3,2.4c-1,0.1-2-0.2-2.2-1.2c-0.5-3.3-1.7-6.6-0.2-10c0.7-1.7-0.2-2.8-2-2.8
			c-2.2,0-3.6,1.7-3.2,4.3c0.3,2.7,0.9,5.2,1.2,7.8c0.2,1.1,0.3,2.6-1.2,2.7c-3.1,0.2-6.1,0.8-9.2-0.2c-0.8-0.2-1.7-0.6-2.4-0.5
			c-1,0.1-2.5,0-2.4,1.5c0.2,2.7,2.1,4.4,4.8,4.7c3.2,0.4,6.5,0.2,9.6-0.4c1.7-0.3,2.7,0.1,3.2,2c1.3,5.1,3.3,9.9,5.5,14.6
			c2.1,4.6,2.2,4.5-2.7,5.3c-1.3,0.2-2.8,0.4-2.9,2.2c-0.2,1.9-0.4,3.7,0.6,5.6c0.8,1.7,1.2,3.7,1.8,5.5c0.5,1.6-0.2,2.2-1.6,2.7
			c-0.9,0.3-1.8,0.3-2.6,1.1c-3.8,3.8-7.6,7.5-11.5,11.3c-0.6,0.6-1.2,1-2.1,0.7c-0.7-0.3-0.9-1-1.2-1.8c-0.6-2.3-0.2-4.9-1.8-7.1
			c-1-1.5-1.3-3.4-1.7-5.2c-0.3-1.2-0.4-2.6,1.1-3.4c2.5-1.2,5-2.7,7.6-3.8c1.9-0.7,3.2-1.6,3.8-3.7c-2.4-1.8-4.6-0.9-6.9,0.2
			c-3.4,1.7-6.9,3.1-10.7,0.6c-0.9-0.6-2,0-2.9,0.3c-0.7,0.3,0,1.1,0.1,1.5c1.1,3,0.8,3.4-2.3,4c-0.7,0.2-1.5,0.3-2.3,0.3
			c-2.7,0.2-3.2,1-2.2,3.6c1.1,2.7,3.2,3.5,5.7,2.2c1-0.5,2-1,3-1.3c0.7-0.3,1.5-0.2,2.1,0.4c1.8,2.2,2.2,7.1,0.9,9.6
			c-0.7,1.2-1.2,2.6-1.7,3.9c-1.5,4.2,1,7.6,5.4,7.3c1.5-0.1,2.3,0.2,2.8,1.8c0.4,1.5,1.1,3.1,2.5,4.1c0.3,0.2,0.7,0.5,1.1,0.3
			c0.4-0.2,0.2-0.7,0.1-1c-0.2-1.2-0.6-2.4-0.8-3.6c-0.4-2-0.7-4,1.2-5.6c4-3.6,7.7-7.4,10.9-11.8c0.3-0.4,0.7-0.7,1.3-0.7
			c3.7-0.2,5.1,0.7,6.6,4.2c1.2,2.9,1.2,2.9-1.6,4.2c-0.6,0.2-1.2,0.7-1.6,1.1c-0.7,0.7-2.2,1.2-1.5,2.6c0.7,1.3,1.7,2.3,3.3,2.7
			c1.7,0.4,2.5-1.2,3.7-1.7c3.3-1.7,6.3-4,9.7-5.5c0.7-0.3,1.4-0.3,2,0.1c0.6,0.4,0.7,0.9,0.7,1.7c-0.3,1.7-1.1,3.2-1.4,4.8
			c-0.4,1.9-1.5,3.1-3.1,4c-2.5,1.5-5,3-7.6,4.3c-3.9,1.9-7.7,4.2-12.3,4.1c-1.2,0-1.5,0.7-1.1,1.9c0.7,2,2.8,3.1,5,2.7
			c2-0.3,3.4-1.7,5.1-2.4c3.2-1.3,6-3.4,9-5.1c0.7-0.4,1.2-0.7,2-0.4c0.8,0.3,0.9,1.2,0.8,2c-0.2,1.7-0.4,3.5-0.5,5.2
			c-0.2,3.5,3.1,5.9,6,4.2c2.4-1.4,4.7-1.9,7.3-1.5c0.7,0.1,1.6,0.1,2.3,0c0.7-0.1,1.7,0.4,1.7-0.8
			C447.8,204.7,447,204.4,446.1,204.3z M420.3,143.7c-0.7-2.8-1.8-5.6-2.4-8.6c-0.2-1.1-0.5-2.1-0.7-2.9c0-1.6,1.6-2.7,3.9-2.7
			c1.3,0,2.6-0.3,3.7-0.7c1.6-0.6,2.6,0.2,2.2,1.7c-0.7,3.2-1.6,6.4-2.6,9.6c-0.4,1.2-0.4,2.7-1.2,3.8c-0.4,0.7-0.7,1.5-1.6,1.4
			C421,145.2,420.4,144.6,420.3,143.7z M429.6,170.5c-0.4,2.6-0.7,5.1-1.2,7.6c-0.2,1-2.7,1.4-3.7,0.7c-0.7-0.6-1.3-1.2-1.8-2
			c-2.1-3.1-1.6-4.7,1.8-6.2c1.3-0.6,2.7-0.4,4.2-0.9C429.7,169.3,429.7,170,429.6,170.5z M429.8,160.7c-2.5,1.8-5.3,3.2-8.1,4.7
			c-1.5,0.8-2.3-0.2-2.3-2.7c0-3.1,1.8-4.8,4.8-4.9c1.6,0,3.1,0,4.7,0c0.8,0,1.4,0.3,1.7,1C430.9,159.7,430.5,160.3,429.8,160.7z"/>
		<path fill="#02A93D" d="M354.6,217.2c-1.1,0.1-1.9,0.7-2.8,1.1c-1.2,0.5-2.4,0.6-3.1-0.9c-1.1-2.7-0.7-3.7,1.9-5
			c0.7-0.3,1.3-0.8,2-1.2c0.6-0.4,1.2-1,0.9-1.7c-0.3-0.6-0.9-1.1-1.9-0.9c-0.9,0.2-1.9,0.1-2.8,0.4c-1.6,0.7-2.4,0-2.8-1.6
			c-0.5-1.9-0.9-3.7-1.5-5.6c-1.1-3.6-1.2-6.6,2.7-9c2.8-1.7,5.2-4.4,6.7-7.6c2.6-5.4,1.8-4.6-1-8.2c-0.7-0.9-1.7-1.8-1.2-3.1
			c0.6-1.8-0.5-2.7-1.7-3.7c-3.1-2.1-6.6-3.1-10.3-3.6c-1.7-0.2-2.5-1.1-2.8-2.6c-0.3-1.7-0.7-3.2-1-4.9c-1.2-6.2-0.9-6.9,5.1-8.8
			c2.2-0.7,3.8-1.7,4.9-4c-2.5-1.2-4.8-1.7-7.3-0.1c-1.5,1-2.4,0.4-2.9-1.4c-0.2-0.6,0-1.2-0.3-1.7c-0.9-1.6,0.7-4.5-2.8-4.7
			c-1.6-0.1-2.6-0.1-2.7,1.7c-0.2,2.2-0.1,4.6,0.2,6.8c0.2,1.7-0.6,2.7-2.1,3.2c-2.7,0.9-5.2,2.1-8,2.9c-4.2,1.2-8,4.2-12.8,2.5
			c-1.7-0.6-3.2,1-4.7,2c-2.2,1.7-2.3,3.2,0,4.6c1,0.7,2.2,1.1,3.7,0.7c1.5-0.4,3-0.7,4.4-1.2c1.8-0.7,2.7,0,2.8,2
			c0,0.9,0.2,1.8,0.3,2.7c1.2,5.6,2.8,11,5.1,16.4c0.4,0.9,0.6,1.8,0.2,2.6c-1.1,1.8,0,3,1.3,3.8c1.5,1,2.4,2.2,3.2,3.7
			c0.9,1.9,1.8,3.9,3.5,5.3c3.2,2.7,1.7,3.4-0.3,5.5c-0.3,0.3-0.7,0.6-1.1,0.7c-0.7,0.4-0.7,1.1-0.3,1.7c0.7,1.2,3.2,2.1,4.5,1.4
			c3.2-1.6,5.3-4.4,7.7-6.9c1.2-1.3,2.8-1.2,3.3,0.5c0.7,2.7,1.4,5.6,2,8.4c0.2,0.9,0,1.8-0.9,2.2c-3,1.1-6,2.2-9.1,3.1
			c-0.8,0.2-1.9,0.2-2.2,1.2c-0.2,1.2,0.8,1.7,1.7,2.3c0.7,0.5,1.6,0.4,2.4,0.2c1.8-0.3,3.5-1.3,5.1-2.1c4-1.7,4.7-1.4,5.7,2.8
			c0.3,1.2,0,2.3-1.2,2.7c-4.3,1.8-8.3,4.5-13,4.9c-1,0.1-1.1,0.6-0.8,1.2c0.2,0.7,0.6,1.3,1.3,1.7c2.2,1.4,4,0.2,5.8-0.6
			c2.1-0.9,4.1-2.2,6.1-3.2c2.1-1.2,3.3-0.7,4.2,1.7c0.2,0.6,0.3,1.2,0.5,1.9c0.2,0.8,0.7,1.5,1.4,2.1c1,0.7,2.2,0.4,3-0.2
			s0.4-1.3-0.1-2.2c-0.6-1-0.9-2.2-1.2-3.2c-1.1-3.2-1.1-3.2,1.7-5.1c1-0.7,1.9-1.3,2.5-2.4c0.2-0.4,0.4-1,0.1-1.5
			C355.4,216.8,355,217.2,354.6,217.2z M334.6,175.1c0,2.2-1.2,3-4.5,2.8c-1.5-0.1-2.1-1.1-2.1-2.5c0-1.2,3.2-4.2,4.7-3.9
			C335.1,171.9,334.2,174,334.6,175.1z M323.8,180.9c-0.8,0.5-1.3-0.1-1.7-0.7c-0.9-1.3-1.4-2.8-1.7-4.4c-0.7-3.2-1.3-6.5-2-9.7
			c0.1-1.6,0.7-2.7,1.8-3.7c2.3-2.2,5.1-3.6,7.6-5.5c1.7-1.3,2.7-0.7,3.4,1.3c0.6,2.1,1.1,4.2,1.6,6.3c0.3,1.3-0.7,2-1.7,2.2
			c-1.7,0.3-3.2,1.1-4.6,1.8c-4.5,2.6-4.7,4.9-2.4,9.1c0.2,0.4,0.5,0.7,0.7,1.2C324.9,179.9,324.5,180.5,323.8,180.9z M337.9,192.4
			c-1.7,1.7-3.4,3.6-5.2,5.1c-1,0.8-2.2,0.4-3-0.7c-1.2-2-2.2-4-3.3-6c-0.6-1.1,0.2-1.7,1-2.1c2.6-1,5.2-1.9,7.9-2.8
			c0.9-0.3,1.7,0.2,1.9,1c0.5,1.3,0.7,2.8,1.1,4.1C338,191.6,338.3,192,337.9,192.4z M340.6,176c-1.4,0.2-2.1-1-2-3.7
			c0-1.2,0.8-2,2-1.9c1.5,0.1,3,0.3,4.3,0.8c0.9,0.3,1.7,1.2,1.4,2.4c-0.3,1.2-1,2.2-2.4,2.3C342.9,176.1,341.8,176,340.6,176z
			 M341.8,188.9c-0.1-1.2-0.2-2.3-0.4-3.4c-0.2-0.7,0.1-1.2,0.7-1.7c1.7-1.4,3.5-2.3,5.7-2.2c0.5,0,1.1-0.1,1.6,0
			c1.2,0.2,1.6,1.2,0.9,2.1c-1.7,2.5-4.1,4.4-6.4,6.3C342.9,190.7,341.8,190.2,341.8,188.9z"/>
		<path fill="#02A93D" d="M211.5,206.2c-3.6-2.3-6.5-5.3-9.7-8c-1.7-1.4-1.9-2.5-1.1-4.2c2.1-4.3,4-8.8,5.1-13.5
			c0.1-0.4,0.7-1-0.2-1.2c-1.7-0.6-3.3-1.1-5.2-0.5c-3.9,1.2-7.4,3.2-11,5.1c-0.9,0.4-1.7,0.9-2.7,0c-0.9-1-0.3-1.7,0.2-2.6
			c1.2-1.7,2.5-3.4,3.3-5.5c0.3-0.8,0.2-1.7-0.4-2.1s-1.2,0.1-1.7,0.6c-0.8,0.8-1.7,1.7-2.5,2.5c-1.4,1.4-2.4,1.2-3.2-0.4
			c-1.2-2.2-2.4-4.5-3.3-6.8c-0.7-1.7-1.9-3.3-2.2-5.2c-0.2-1.2,0.2-2,1.3-2.1c5-0.2,9.6-2.2,14.5-2.8c2.1-0.2,2.8,0.2,3,2.3
			c0.1,1.6-1,2.8-0.9,4.2c0.4,0.4-0.6,0.9,0.1,1.2c0.5,0.2,0.7-0.3,1.2-0.6c2.4-1.4,3.7-3.7,4.2-6.3c0.5-2,0.1-3.6-1.9-4.2
			c-1.8-0.6-3.7-1.2-5.8-1c-5.6,0.6-11.3,1.3-16.9,1.4c-1.5,0-2.4-0.4-2.8-1.7c-1.2-3.7-2.4-7.5-3-11.4c-0.4-2.7-1.1-3.4-3.8-3
			c-1.1,0.2-1.9,0.6-1.6,2.2c0.9,4.4,2.5,8.6,4.1,12.8c3.2,8.6,7.1,16.9,12.5,24.5c0.6,0.8,0.8,1.7,0.2,2.5c-2.3,3-4.7,6-7.1,8.9
			c-1.2,1.5-1.2,2.3,0.4,3.4c2.2,1.5,4.5,0.7,6.6-0.4c5.2-3,10-6.5,15-10c1-0.7,2.4-1.2,3.7-0.4c1.3,0.8,0.5,2.1,0.1,3.1
			c-1.2,3.2-2.7,6.3-3.8,9.5c-2.1,6.1-4.3,12.3-7.9,17.8c-0.4,0.7-1.2,1.3-0.5,2.1s1.7,1.1,2.7,1c1.3-0.2,1.5-1.3,1.9-2.2
			c1.7-4.2,4.1-8.3,5.5-12.7c0.5-1.4,2.1-1.7,2.9-0.6c1.5,1.9,3.6,3.2,5.5,4.6c1.3,0.9,2.7,1.7,4.4,1.9c0.7,0.1,1.2-0.2,1.6-0.9
			C212.1,206.8,211.8,206.4,211.5,206.2z"/>
		<path fill="#02A93D" d="M298.2,197.5c-1.1,0.3-2.5,0.6-2.9-1c-0.7-2.7-1.2-5.3-1.7-8c-0.2-1.1-0.2-2.1-0.8-3.1
			c-1.3-2.4-0.6-4.7,1.5-6.6c2.7-2.6,5.7-5,7.9-8.1c1-1.5,0.7-2.2-0.7-3c-4.7-2.4-9.6-4-14.4-6c-1.5-0.6-2.7,0.6-2.6,2.2
			c0.2,3.4,1.2,6.7,1.7,10.1c0.2,2.2,1.8,4.5-0.8,6.3c-3.1,2.1-6,4.4-9.4,6.1c-1.6,0.7-3.2,1.3-4.9,0.1c-1.1-0.7-4,0.4-4.3,1.7
			c-0.5,1.7,0.4,2.7,1.8,3.3c2.6,1.1,5.1,1.1,7.6-0.2c2.1-1,4.1-2.2,5.9-3.6c0.8-0.6,1.8-1.3,2.7-0.3c0.9,1,0.3,2-0.3,2.9
			c-0.1,0.1-0.2,0.2-0.2,0.3c-1.7,2.1-3.3,4.1-4.7,6.4c-1.6,2.6-1.1,4,1.5,5.5c2.9,1.6,5.7,0.9,8.6,0.2c2.5-0.6,2.8-0.4,3.5,2
			c0.5,2,0.6,4.1,1.6,6c0.4,0.7,1.1,1.3,1.9,1c0.8-0.2,0.4-1.2,0.2-1.7c-0.7-2.1-0.4-4.2-0.7-6.3c-0.2-2.1,0.7-3,2.6-3.6
			c3.2-1.1,6.5-1.9,9.4-3.8c0.9-0.6,1.1-1.1,0.7-2.1C305.3,195.3,301.7,196.5,298.2,197.5z M288.6,199.4c-0.7,0.1-1.4,0.2-2,0.5
			c-0.7,0.2-1.2,0-1.7-0.6c-0.4-0.6-0.4-1.2,0-1.8c1-1.4,2-2.7,2.9-4.2c0.6-0.9,1.7-0.7,2.5,0c0.7,0.7,0.2,1.7,0.4,2.7
			C291.5,198.5,291.3,199,288.6,199.4z M290.8,173.2c-0.4-1.3-0.5-2.7-0.8-4.2c-0.1-0.7,0.2-1.2,0.8-1.7c0.7-0.4,1.2-0.2,1.7,0.2
			c0.7,0.7,1.8,0.7,2.7,1.1c1.2,0.7,1.7,1.4,0.7,2.6c-0.8,1-1.7,1.8-2.7,2.7C291.8,175,291.1,174.3,290.8,173.2z"/>
		<path fill="#02A93D" d="M138,213.2c-1.4-4.5-1.2-9.3-3.2-13.6c-1.2-2.4-0.8-5.5-3.1-7.5c-0.5-0.4-0.2-1.2,0-1.8
			c0.7-2.4,2.2-4.3,3.4-6.5c2.6-4.6,6.3-8.6,8-13.7c-1.6-0.6-3.2-1-4.7-0.5c-4.3,1.2-8.7,2.2-13,3.3c-7.9,1.9-15.6,4.4-23.8,5
			c-1.2,0.1-2.6,0-3.2,1.3c-0.7,1.4,0.9,2,1.5,2.8c0.7,1,1.5,2.1,3,1.7c4.7-1.1,9.5-1.8,13.9-3.7c4.7-2,9.6-3.4,14.7-4.3
			c0.7-0.2,1.4-0.1,1.9,0.6c0.6,0.7,0.5,1.3,0.1,2c-2.5,3.8-4.3,8-6.4,12c-3.5,7-6.9,14.1-11,20.8c-0.6,1-0.8,1.9,0.4,2.6
			c1.4,0.8,2.8,0.5,3.4-0.8c2-4.8,5-9.1,7.1-13.9c0.3-0.8,0.8-1.6,1.8-1.4c1,0.2,1.4,0.8,1.7,1.8c1.2,4.7,2.3,9.4,3.5,14
			c0.3,1.3,0.9,2.6,2.2,3.3c0.7,0.4,1.7,0.8,2.3,0.2c0.6-0.5,0.8-1.4,0.1-2.2C138.2,214.3,138.1,213.7,138,213.2z"/>
		<path fill="#02A93D" d="M306.9,125.5c4.4,2.1,9.1,3.2,14,4c4.7,0.8,9.7,1,13.9,4c2.2,1.6,2.7,1.4,4.2-1.7c0.7-1.6-1.2-1.4-2-2.1
			c-0.1-0.2-0.3-0.2-0.5-0.2c-5.3-2.2-11-3.2-16.4-4.6c-3.7-1-7.6-1.8-11-3.9c-0.7-0.4-1.4-0.7-2.2-0.7c-0.7,0.6-2.6-0.6-2.2,1.3
			C304.7,123.1,305.4,124.8,306.9,125.5z"/>
		<path fill="#02A93D" d="M293.2,154.6c0.7,0.2,1.2,0,1.5-1c0.2-0.9,0-1.2-0.9-1.6c-1.3-0.5-2.7-1-4.1-1.1
			c-3.9-0.2-7.9-0.3-11.8-0.6c-5.2-0.3-10.4-0.9-15.4-2.6c-0.8-0.2-1.6-0.8-2.3-0.7c-0.8,0-2.5-0.4-2.2,1.2c0.4,1.8,1.4,3.5,3.3,4.2
			c3.9,1.6,8.1,2.2,12.3,2.2C280.2,154.6,286.6,154.6,293.2,154.6z"/>
		<path fill="#02A93D" d="M249.8,177.9c-2.7,0.7-5.4,1.6-8.1,2.4c-3.9,1.1-7.8,2.7-12,2.9c-2.2,0.2-4.2-0.1-6.3-0.5
			c-1-0.2-2.1,0-2.5,1c-0.4,0.9,0.3,1.7,0.9,2.3c1.5,1.7,3.3,2.3,5.6,2.1c1.1-0.1,2.2,0,3.2-0.2c6.6-1.2,12.5-4.4,18.5-7.2
			c0.7-0.3,1.2-0.6,1.7-1.2c0.2-0.4,0.8-0.8,0.5-1.3C251,177.4,250.3,177.7,249.8,177.9z"/>
		<path fill="#02A93D" d="M148.4,206.1c-1.5-1.3-3.2-2.6-4.1-4.4c-0.9-1.9-2.4-2.3-4.3-2.4c-0.7,0.1-1.6-0.2-2.1,0.9
			c-0.6,1.2,0.7,1.1,0.9,1.7c0.1,0.2,0.2,0.3,0.3,0.4c2.4,2.3,4.5,5.1,7.9,6c0.7,0.2,1.5,0.7,2-0.2
			C149.6,207.2,149.1,206.6,148.4,206.1z"/>
		<path fill="#02A93D" d="M581.8,213.3c-1.3-0.3-2.7-0.7-4.2-0.7c-8.1,0.3-16.1-0.5-24-2.2c-4.5-1-8.9-2.1-13.2-3.4
			c-4.7-1.4-9.1-3.2-13.7-4.7c-1.7-0.6-1.7-1.8-0.2-3c1.2-1,2.7-1.7,3.8-3c4.1-4.2,7.1-9.1,10-14.1c0.2-0.3,0.4-0.8,0.2-1.1
			c-0.8-0.8-1.5-1.8-3-1.8c-1.3,0-1.7,0.7-2.2,1.7c-2.4,5.3-5.6,10-9.8,14.2c-0.6,0.6-1.2,1.1-2,0.7c-0.7-0.4-1.1-1.1-0.9-1.9
			c0.7-2.9-0.2-5.8,0.2-8.7c0.1-0.8-0.3-1.2-1.1-1.7c-1.2-0.8-3.3-1.1-3.2-3c0-1.5,0-3.1,0-4.6c0-1,0.5-1.6,1.2-2.1
			c1.3-0.9,2.7-1.7,4.1-2.6c2.7-1.7,5.6-3.1,7.7-5.4c2.2-2.3,2.1-3.8-0.7-5.6c-0.5-0.3-1.2-0.6-1.7-0.8c1,2.6-0.8,3.8-2.5,5
			c-1.9,1.4-4.1,2.6-6.1,4c-0.9,0.7-1.7,0.5-2.3-0.3c-1.1-1.3-0.9-5.4,0.4-6.4c1.9-1.4,4.1-2.4,6.2-3.6c0.5-0.2,0.9,0.2,1.4,0.3
			c0.9,0.2,1.7,1.1,2.7,0.6l0,0c-0.8-0.3-1.6-0.7-1.5-1.8c0.1-0.9,0.7-1.4,1.6-1.7c0.3-0.1,0.7-0.2,1.1-0.4c0.7-0.4,1.7-0.9,1.6-1.7
			c-0.1-0.5-1.2-0.9-1.7-1.2c-0.1-0.1-0.2,0-0.4-0.1c-2.2-1-3.8,0.7-5.6,1.5c-0.9,0.4-1.8,0.7-2.7,0.2c-2.2-1.5-4.1-3.4-5.4-5.7
			c-0.6-1.1-0.9-2.6,0.7-3.1c2.6-0.7,5.1-1.7,7.7-2.2c2.8-0.7,5.7-1.4,8.4-2.7c1-0.5,1.6-1.5,1.9-2.5c0.2-0.6-0.7-1.1-1.1-1.2
			c-1.4-0.4-2.8-1.2-4.2-0.1c-1.1,0.7-2.2,1.2-3.5,1.6c-5.2,1.6-10.5,3.2-15.7,4.8c-0.9,0.2-1.8,0.4-2.4-0.5c-0.7-1,0-1.7,0.7-2.3
			c0.3-0.3,0.7-0.7,0.9-1c3.8-4.1,7.6-8.1,11.4-12.1c1-1.1,2.1-2.2,3.8-1.1c0.7,0.5,1.1-0.2,1.2-0.7c0.4-1,0.7-2.1,0.7-3.2
			c-0.1-0.7,0.2-1.4-0.9-1.8c-2.2-1-4.4-0.7-6.1,1.1c-3.2,3.6-6.8,6.9-9.6,10.9c-0.7,1.1-1.6,1.3-2.7,0.3c-2.9-2.6-5.7-5.2-8.2-8.2
			c-1.9-2.2-4.1-4.2-6.2-6.1c-1.1-0.9-2.4-0.7-3.4-0.1c-1.2,0.7-0.3,1.8,0.1,2.7c0.6,1.2,1.5,2.2,2.7,3c1.8,1.2,3.6,2.5,5.1,4.2
			c2.2,2.3,4.6,4.3,7.3,5.9c1.5,0.9,1.8,2.2,0.6,3.3c-4.5,4-8.5,8.6-14.6,10.5c-1.2,0.3-1.9,1.1-1.2,2.5c0.3,0.7,0.7,1.4,0.1,2.2
			c0.7-0.1,1.2-0.2,1.8,0.4c0.9,0.9,2.3,0.7,3.1,0.2c2.9-1.8,6.4-2.1,9.5-3.2c1.7-0.6,3.6-1.3,5.5-1.7c1.2-0.2,2.1,0.1,2.2,1.4
			c0.2,2.4,0.4,4.9,0.8,7.3c0.2,1.8-0.6,2.8-2.1,3.4c-3.2,1.3-6.4,2.7-9.6,4.1c-2.7,1.2-5.5,2.4-8.5,2.7c-1.2,0.2-1.7,1.2-1.3,2.4
			c0.3,1.1,0,1.7-0.8,2.6c-2.7,2.5-5.9,4.3-8.7,6.6c-1.1,0.9-2.4,0.3-2.7-1.2c-0.9-4.4-2.8-8.5-3.4-12.9c-0.2-1.4,0.1-2.2,1.4-2.7
			c1.9-0.7,4-1.1,5.6-2.3c2.6-2,5.7-3.4,6.7-7c-1.7-0.6-3.4-0.8-5.2-1c-3.6-0.4-7.1-1-10.7-1.5c-2.7-0.3-3.4,0.2-3.5,2.8
			c0,1.2,0,2.3,0.1,3.5c0.1,2.2-0.4,2.7-2.7,3.2c-1.9,0.4-3.7-0.2-5.6,0c-0.7,0.1-1.6,0-1.8,0.7c-0.3,0.7,0.1,1.4,0.6,2.1
			c2.2,2.9,5.2,2.2,8.1,1.7c2.2-0.3,2.8-0.1,3.4,2c0.7,2.3,1.2,4.6,1.9,6.9c0.2,0.9,0.2,1.7-0.5,2.6c-1.5,1.7-2.9,3.6-3.9,5.7
			c-1.1,2.2-0.9,3.4,1,4.7c1.7,1.2,3.6,1.7,5.4,0.7c1.9-0.8,2.7,0.1,3.2,1.6c0.5,1.4,1.1,2.7,2,3.9c0.2,0.3,0.7,0.7,1.2,0.5
			c0.6-0.2,0.2-0.7,0.2-1.2c-0.3-1.5-0.7-3-1.2-4.5c-0.6-2.2,0.2-3.7,1.8-5.1c3.2-2.5,6.4-5,9.4-7.7c0.9-0.8,1.8-1.7,3.1-2.2
			c5.2-2.1,10.4-4.4,15.4-7.1c1.7-0.8,2.7-0.3,3.1,1.5c0.2,1.2,0.2,2.6,0.5,3.8c0.3,1.5-0.2,2.5-1.5,3.2c-3.2,1.8-6.6,3.5-9.7,5.5
			c-2.4,1.5-4.7,3.2-7.8,3.1c-0.3,0-0.7,0.2-0.7,0.5c-0.2,1.2,0.2,2.3,0.9,3.2c0.5,0.7,1.5,1.4,2.5,1c1.8-0.7,3.7-1.2,5.2-2.4
			c3.1-2.4,6.6-4.2,9.8-6.5c0.7-0.5,1.3-0.5,2-0.1c2,1.2,1.9,5.1-0.2,6.2c-2.9,1.5-5.7,3.2-9,3.8c-1.1,0.2-1.2,0.8-1.2,1.7
			c0.2,1.9,2.2,3.4,4.1,3.2c2.5-0.3,4.6-1.7,6.7-2.8c2.3-1.2,3.1-0.7,3.1,2c0,1.2,0,2.3,0,3.5c0,1.2,0.2,2.6-0.2,3.7
			c-0.7,1.6-2.3,0.4-3.5,0.8c-1.7,0.6-3,0-4.2-1.2c-0.9-1-2.1-1.2-3.2-1.4c-3-0.3-5.9,0.1-8.9,0.7c-0.7,0.2-1.6,0.1-1.8,1.1
			c-0.2,0.9,0.1,1.7,0.7,2.3c0.8,0.9,1.9,1.2,3.1,1.1c1.4-0.7,2.8,0.2,4.2-0.2c0.4-0.1,0.7,0.2,0.8,0.7c0.2,0.5-0.1,0.9-0.4,1.2
			c-0.7,0.7-1.7,0.9-2.5,1.4c-1,0.7-1.5,1.9-2.2,2.9c-1,1.2-0.7,2,0.3,2.9c1.3,1.2,3.1,1.2,4.4-0.4c2-2.5,4.4-4.7,5.8-7.6
			c0.7-1.4,1.8-1.7,2.9-0.6c0.9,0.9,1.9,1.7,3.2,1.8c1.1,0.1,1.6,0.7,1.7,1.8c0.1,1.4,0.2,2.8,0.5,4.2c0.2,1.7,0.4,3.4,1.7,4.7
			c0.4,0.4,0.9,1.1,1.4,0.2c0.5-0.7,1.2-1.5,1-2.6c-0.2-1.4-0.4-2.8-0.6-4.2c-0.2-2.2,0.4-2.9,2.6-2.4c3.7,0.8,7.1,2.1,10.7,3.1
			c7.7,2.3,15.5,3.9,23.5,5.1c5.1,0.8,10,1.3,15.2,1.2c1.4,0,2.8-0.3,3.5,1.5c0.2,0.7,1.2,0.7,1.9,0.9c0.8,0.2,3-1.2,3-2.2
			C583.6,214.2,582.8,213.6,581.8,213.3z M474.1,153.9L474.1,153.9c0.1-0.1,0.2-0.2,0.3-0.3c0.5-0.7,1.2-0.3,1.7-0.3
			c1-0.1,1.9,0.2,2,1.3c0,1-0.8,1.3-1.7,1.3l0,0c-0.9,0.4-1.8,0.7-2.6-0.2C473.3,155,473.4,154.4,474.1,153.9z M516.4,154.4
			c0.1-0.7,0.7-1.2,1.5-1.2c0.7,0.1,1.3,0.6,1.2,1.4c-0.1,0.8-0.7,1.2-1.3,1.4C517,155.7,516.3,155.3,516.4,154.4z"/>
	</g>
</g>
</svg>
