<?xml version="1.0" encoding="utf-8"?>
<!-- Generator: Adobe Illustrator 22.0.1, SVG Export Plug-In . SVG Version: 6.00 Build 0)  -->
<svg version="1.1" id="圖層_1" xmlns="http://www.w3.org/2000/svg" xmlns:xlink="http://www.w3.org/1999/xlink" x="0px" y="0px"
	 viewBox="0 0 900 150" style="enable-background:new 0 0 900 150;" xml:space="preserve">
<style type="text/css">
	.st0{fill:#FFFFFF;}
</style>
<g>
	<path class="st0" d="M177.3,60.2c-1.7-0.1-3.6-0.3-5.1,0.5c-3.4,1.9-7.3,2.7-10.6,4.8c-0.9,0.6-1.9,0.5-2.5-0.4
		c-1.2-1.7,0.2-5.5,2.2-6.3c0.8-0.4,1.6-1,2.3-1.6c3.3-2.6,5.5-5.9,7.3-9.7c1.7-3.8,3.3-7.4,3.6-11.6c0.1-1.7-0.4-2.3-1.9-2.5
		c-3.9-0.6-7.6,0.2-11.2,1.6c-2.8,1.1-5.5,2.3-8.4,2.9c-1.8,0.4-2.8-0.4-2.5-1.9c1.1-4.6,0.7-9.3,0.5-13.9c0-1.3,0.5-2,1.5-2.6
		c3-1.6,5.9-3.2,8.8-4.8c0.5-0.3,1.1-0.5,1-1.2c-0.2-1.3,0.7-2.3,0.8-3.5c-1.6-0.4-3.1-0.3-4.6,0.3c-1.4,0.5-2.8,1.2-4.3,1.8
		c-3.1,1.2-4.2,0.7-4.6-2.6c-0.2-2.3-0.5-4.5-1.4-6.7c-0.8-2-2.5-1.4-4-1.1c-1.8,0.4-0.6,1.6-0.4,2.4c1,3.9,1.8,7.8,2.1,11.9
		c0.1,1.1-0.1,2.1-1.1,2.6c-3.2,1.6-6.4,3.2-9.6,4.6c-1.2,0.5-2.6,0.6-3.3-0.9c-0.7-1.3-1.3-2.7-1.8-4c-1.4-3.5-1.4-3.5,1.7-5.6
		c-1.9-1.6-4.1-1.9-6.1-2.3c-2.6-0.6-3.4,0.8-2.1,3.6c1.3,2.9,2.7,5.9,4.2,8.7c1.3,2.5,1.1,3.2-1.6,4.2c-3.9,1.5-7.9,2.4-12.1,2.5
		c-1.7,0-3.4-0.1-5-0.3c-1.4-0.1-2.3,0.7-2.9,1.6c-0.5,0.9,0.4,1.9,1.1,2.6c1.8,1.7,3.8,2.5,6.4,2.3c5.6-0.5,11-1.9,16.1-4.3
		c1.5-0.7,2.8-0.5,3.6,1.1c0.9,1.8,1.9,3.4,3,5c0.6,0.9,0.7,1.9-0.2,2.7c-1.5,1.5-1.5,1.8,0.3,3.2c1,0.7,2.1,1.3,3.3,1.4
		c1.1,0.1,1.9,0.9,1.4,1.7c-1.1,1.8,0,3.2,0.6,4.7c1.5,3.7,2.4,7.7,3.8,11.4c0.4,1,1.1,2-0.1,2.9c-1.2,0.9-2.1,0-3-0.7
		c-0.4-0.3-0.6-0.7-0.8-1.1c-3.5-4.9-5.5-10.8-9.3-15.6c-1.3-1.6-2.9-2.4-4.8-2c-1.9,0.5-2.2,1.2-1,2.8c0.8,1,1.7,1.8,2.5,2.9
		c3,4.3,5.3,8.9,8.2,13.2c0.6,0.9,0.8,1.9,0.3,2.7c-2.6,4.6-2.3,9.7-3.1,14.7c-0.7,4.4-0.5,8.9-1.3,13.3c-0.2,0.8-0.7,1.9,0.7,2.1
		c1.2,0.2,2.7,1.2,3.6-0.6c0.3-0.5,0.4-1.1,0.6-1.7c2.7-8.2,6.8-15.5,14.4-20.3c1.5-1,3-2,4.6-2.9c3.5-2,7.2-3.5,10.9-5.2
		c0.8-0.4,1.6-0.2,2.2,0.5c0.5,0.7,0.4,1.4-0.1,2c-0.4,0.6-0.8,1.1-1,1.8c-2.8,7.3-7.3,13.5-12.2,19.4c-2,2.3-2.6,4.4-1,7.2
		c1.2,2,3.9,3.4,6.1,2.6c1.7-0.6,2.8,0.1,2.8,1.7c0,1.9-0.1,3.8-0.3,5.7c-0.1,1.7-1,2.3-2.6,1.7c-1.2-0.4-2.3-1.2-3.3-1.9
		c-2-1.4-4.1-2.9-6.8-2.4c-0.5,0.1-1.2,0.2-1.4,0.7c-0.2,0.6,0.5,1,0.9,1.2c3.5,1.9,6.7,4.4,10.7,5.5c1.6,0.4,2.5,1.3,2.4,3.1
		c-0.2,3.6-0.1,7.3-0.3,10.9c-0.3,6.3,0,12.7-1.1,18.9c-0.2,1.2-0.7,3.1,0.9,3.3c1.9,0.2,1.8-1.8,2-3.2c1.2-11.1,2.3-22.1,2.5-33.3
		c0.2-7.6,0.8-15.2,1.2-22.8c0.1-1.3-0.3-1.5-1.5-1.5c-3.7-0.1-4.2-1.6-2.4-4.5c2.3-3.6,4.8-7.1,7-10.8c2-3.3,3.5-6.8,5.2-10.2
		c0.3-0.5,0.2-1.2,0.3-1.8C178,60.5,177.9,60.2,177.3,60.2z M140.8,38.3c-1.6-2.3-2.9-4.8-4.1-7.3c-0.5-1.1-0.4-1.8,0.5-2.4
		c2.3-1.4,4.6-2.9,7-4.2c1.7-0.9,2.2,0.4,2.3,1.7c0.2,3.2,0.9,6.4,0.9,9.6c0,0.3,0,0.5,0,0.8c0,1.3,0.6,2.8-1.3,3.3
		C143.5,40.7,142,40.2,140.8,38.3z M148.5,72.5c-2.5,1.8-4.7,3.8-6.4,6.3c-0.4,0.6-0.9,1.3-1.8,0.9c-0.7-0.3-1.3-0.8-1-2
		c0.5-1.5,0.9-3.4,1.6-5.2c0.5-1.1,1.4-1.9,2.9-1.7c1.2,0.1,2.2-0.1,2.1-1.9c-0.1-1.7,0.9-2,2.4-1.1
		C151.2,69.6,151.2,70.5,148.5,72.5z M153.1,69.1c-0.7-0.1-1.3-0.7-1.3-1.3c0.1-1.8-0.9-3.3-1.6-4.9c-2.2-5.1-2.8-10.8-4.7-16.1
		c-0.6-1.6,0.8-2.6,3.6-2.6c1-0.2,1.8,0.4,2.2,1.4c1.5,3.4,2.3,6.9,3,10.5c0.6,3,0.9,6.1,2.1,9C157,66.7,154.8,69.3,153.1,69.1z
		 M156.1,44.4c-0.4-1.5,0-2.6,1.6-3.4c3.1-1.6,6.4-2.9,9.8-3.7c1.6-0.3,2,0.5,2.2,1.6c-0.2,2.1-0.9,4-1.6,5.7
		c-1.6,3.9-3.5,7.7-5.7,11.3c-0.3,0.4-0.6,0.8-1,1.2c-1.2,1.2-2.1,1-2.5-0.7c-0.5-1.8-0.8-3.7-1-5.5
		C157.5,48.7,156.7,46.5,156.1,44.4z"/>
	<path class="st0" d="M793.8,94.4c-0.9-4.3-1.6-8.6-2.3-12.9c-1-7.1-1.7-14.2-2.8-21.2c-1.1-6.5-1.4-13.1-2.6-19.6
		c-0.3-1.6,0.4-3.7-2.5-3.2c-0.3,0-0.6-0.6-1-0.6c-1.1-0.2-2.2-0.5-2.5,1.1c-0.6,3.2-1.2,6.5-1.8,9.7c-1.3,6.9-1.6,13.9-3.5,20.7
		c-0.3,1-0.8,1.5-1.8,1.4c-1-0.1-1.6-0.6-1.7-1.6c-0.1-0.9-0.1-1.7-0.2-2.6c-0.5-3.9-0.8-7.8-0.9-11.7c0-0.6,0.1-1.2,0-1.8
		c-0.2-0.9,0.2-2.6-0.6-2.7c-1.4-0.3-2.8-1.1-4.3-0.4c-0.5,0.2-0.8,0.4-1,0.8c-2.1,4.1-4.9,7.7-7.3,11.6c-1.1,1.7-2.4,1.8-3.4,0
		c-1-1.7-2.5-2.5-4.3-3c-3.8-1.1-7.6-1.3-11.3,0.1c-1.5,0.5-2.6,0.1-3.1-1.3c-0.6-1.4-0.6-3,0.6-4.1c1.2-1.2,2.5-2.4,4-3.4
		c2.8-1.7,5.8-3.2,6.3-7c0-0.4,0.6-0.7,1-1c4.5-2.7,8.9-5.8,13.7-8c3.2-1.5,5.8-3.8,9.1-5.2c2.2-0.9,4-2.8,6.3-3.9
		c1.1-0.5,2-2.1,1.7-3.2c-0.3-0.9-1.9-0.8-3-0.7c-1,0-1.6,0.6-2.3,1.1c-1.4,0.9-2.8,1.9-4.3,2.7c-6.2,3.2-12.4,6.3-18.3,10
		c-1.6,1-3.4,1.9-5.1,2.8c-0.6,0.3-1.1,0.2-1.6-0.3c-0.5-0.5-0.4-1-0.2-1.6c0.5-1.1,1.1-2.2,2-3c4.7-4.3,9.6-8.4,14.9-12
		c0.9-0.6,2-0.7,2.8-1.6c1.9-2.1,3.3-4.4,6-5.9c3.4-1.8,6.4-4.4,9.8-6.3c1.9-1,2.1-2.5,2.3-4.3c0.1-0.8-0.4-0.6-0.8-0.8
		c-2-0.5-3.3,0.3-5,1.5c-5.9,4.3-11.8,8.8-17.5,13.4c-0.9,0.7-1.9,1-3,1c-2.9,0-4.8-2-6.7-3.7c-2.3-2-4.3-4.5-6.2-6.9
		c-1.4-1.8-3.2-2.3-5.3-2.4c-0.8-0.1-2.1,0.1-2,1.1c0.2,1.8,1.2,3.6,2.6,4.6c1.2,0.8,2.4,1.7,3.4,2.7c2.5,2.3,4.8,4.7,7.8,6.4
		c3,1.8,3.1,2.4,0.3,4.8c-6.9,5.9-13.4,12.1-19.7,18.5c-2,2.1-1.7,3.3,1.1,4.4c0.4,0.2,0.9,0.2,1.3,0.4c1,0.6,1.8,1.6,0.8,2.4
		c-2.8,2.4-1.6,5-0.7,7.7c1.5,4.6,3.8,8.9,5.5,13.5c0.5,1.4,0.8,2.6,0.2,4.1c-1.9,4.4-0.5,8.1,3.7,10.2c1.1,0.5,1.8,1.3,2,2.3
		c0.7,2.4,1.5,4.8,1.6,7.3c0.1,1.9,1.3,2.6,2.8,2.9c1.6,0.3,2.1-0.4,2-2.1c-0.2-2.3-1.2-4.2-1.9-6.4c-0.4-1.4-0.3-2.6,0.9-3.6
		c3.1-2.7,4.9-6.1,6-10.1c1.7-6.2,5.7-11,9.4-16c0.5-0.7,1.3-0.8,2-0.5c0.7,0.2,1.1,0.7,1.1,1.5c0.2,4.2,1.1,8.3,1.7,12.4
		c0.4,2.3,1.2,4.6,3.5,5.8c1.8,1,3,0.5,3.8-1.3c1.3-2.9,1.2-6.2,2-9.2c1.1-4.4,2.5-8.8,3.3-13.3c0.2-1.1,0.1-2.3,1.6-2.4
		c1.6-0.1,1.9,1.2,2,2.3c0.6,4.1,1.2,8.3,1.7,12.4c0.9,6.7,1.9,13.3,2.7,20c0.4,2.9,1.1,5.8,0.7,8.8c-0.2,1.7,0.5,3.7,2,5.1
		c0.8,0.7,1.6,0.6,2.5,0.3c0.8-0.3,1.1-1.4,0.9-1.8C793.9,98,794.2,96.2,793.8,94.4z M741.2,68c-0.3,0.5-1,0.5-1.5,0.3
		c-1-0.5-1.1-1.6-1.4-2.2c0-2.5,4-5.2,6-4.3c0.8,0.4,1.4,1.1,0.6,2.1C743.8,65.4,742.2,66.4,741.2,68z M746.6,82.9
		c-0.3,0.3-0.6,1.3-1.3,0.3c-0.6-0.4-1.1-0.9-0.5-1.6c0.4-0.5,0.8-1.3,1.6-0.4C746.9,81.7,747.4,82.3,746.6,82.9z M750.7,69.1
		c-0.4,2.6-2.5,4.2-3.9,6.3c-0.3,0.5-0.9,0.9-1.3,1.2c-0.7,0.5-1.4,1.7-2.3,0.7c-0.8-0.8-1.4-1.9-0.8-3.2c1.4-2.9,3.8-4.9,5.9-7.3
		c0.4-0.5,0.9-0.5,1.5-0.1C750.6,67.2,750.9,68,750.7,69.1z"/>
	<path class="st0" d="M822.4,14.9c3.2,5.4,6.5,10.7,12,14.2c2.3,1.5,2.3,2.4,0.1,4.1c-4.1,3.4-8.3,6.7-12.4,10.1
		c-0.5,0.4-1.5,0.6-0.9,1.7c0.6,1.1,4.2,3.1,5.5,2.8c4.4-0.8,8.5-2.5,12.2-5.1c0.8-0.5,1.5-0.8,2.2-0.2c1.7,1.4,1.3,3.6,1.6,5.4
		c0.2,1.3-1.1,1.6-2,1.9c-1.4,0.4-1.3,1.3-0.8,2.2c0.7,1.3,1.5,2.6,3,3.1c1.5,0.5,2.2,1.6,2.7,3c1.3,3.9,1.2,8.4,4.1,11.7
		c0.1,0.1,0.1,0.2,0.1,0.4c1.7,5.2,4,10.1,6.9,14.7c0.7,1.1,1.5,2.1,2.4,3c0.9,0.8,2.2,1.1,3.1,0.2c0.8-0.9,0.3-1.9-0.6-2.8
		c-1-1-1.9-2.2-2.8-3.4c-1-1.4-0.3-2.7,1.4-2.7c1.1,0,2-0.2,2.9-0.7c6.7-4.2,12.4-9.3,15.8-16.7c1.7-3.6,0.3-6.8-3.5-8.2
		c-2.4-0.9-4.2,0.3-6.1,1.4c-0.9,0.6-1.6,0.7-2.3,0c-1.8-1.6-1-5.2,1.3-5.9c1.9-0.6,3.3-1.9,4.7-3c0.5-0.4,1-1.3,0.6-2
		c-0.3-0.5-1.1-0.6-1.8-0.7c-1.6-0.1-2.8,0.8-4.1,1.4c-1.8,0.9-3.1,0.1-3-1.9c0.1-1.6,0.1-3.2,0.5-4.8c0.5-1.8-0.5-2.6-2.3-2.4
		c-1.7,0.2-2.4,1.1-2.6,2.8c-0.2,1.9,0.4,3.8,0.3,5.6c0,1.2,0.5,2.7-0.9,3.2c-3.2,1.1-6.6,1.9-10,2.1c-1.6,0.1-2.1-0.7-2.4-2.3
		c-0.5-2.4,0.5-4.8-0.2-7.2c-0.3-1.1,0.7-1.7,1.5-2.1c5.5-2.4,10.9-4.8,16.4-7.2c3.7-1.6,7.5-3.2,11-5.4c1-0.6,1.3-1.7,1.6-2.7
		c0-0.2-1.1-1.1-1.6-0.9c-1.2,0.3-2.4-0.3-3.5,0.4c-4.3,2.6-9,4.1-13.5,6.3c-4.5,2.2-9.2,4.1-13.8,6.2c-1.1,0.5-2.3,0.6-3-0.7
		c-0.6-1,0.2-1.7,0.9-2.2c2.5-1.6,4.2-4.1,6.4-6c4.9-4.2,10.1-8,15.4-11.6c2-1.4,4-2.7,6-4.1c1.3-0.9,1.7-2.4,1.8-3.8
		c0.1-0.6-3.4-1-4.5-0.4c-1.2,0.7-2.3,1.4-3.3,2.2c-8,6.4-16.4,12.3-23.7,19.5c-0.7,0.7-1.5,1.2-2.5,0.7c-4.2-2.2-7.2-5.8-9.6-9.8
		c-1.3-2.3-2.5-4.7-3.7-7.2c-0.8-1.8-2.6-1.7-4.1-2.1c-0.8-0.2-2,0.5-1.2,1.9C821,12.4,821.7,13.7,822.4,14.9z M869.1,64.1
		c1.2-1.7,2.3-3.4,3.8-4.9c0.5-0.4,1-0.5,1.5-0.2c0.5,0.3,0.9,0.6,0.8,1.5c-0.5,0.9-1.1,2-1.8,3.1c-0.5,0.8-1.2,1.4-1.8,2.1
		c-0.5,0.5-1,1.4-2,0.7C868.7,65.8,868.6,64.8,869.1,64.1z M859.3,67.6c0.6,0.6,0.6,1.2,0.2,1.8c-0.6,1.1-1.3,2.2-2,3.2
		c-0.4,0.6-0.8,1.2-1.5,1.1c-0.7-0.1-1-0.8-1.3-1.3c-0.5-0.8-0.1-1.7-0.6-2.2c-0.2-1.1,0.3-1.7,0.9-1.9c1-0.2,1.9-0.7,2.7-1.1
		C858.4,66.9,858.9,67.2,859.3,67.6z M850.7,55.5c1-0.6,2.3-0.5,2.9-1c1.1-0.2,1.5,0.3,1.9,0.8c0.3,0.5,0.2,1-0.3,1.4
		c-0.9,0.7-1.4,1.7-2.4,2.3c-1,0.7-1.9,1.1-2.5-0.1C849.8,57.8,849.4,56.4,850.7,55.5z"/>
	<path class="st0" d="M238.7,62.9c0.7,1.8,0.4,3.3-0.4,5c-1.5,2.9-1,3.9,2.1,4.9c1.2,0.4,1.9,1.1,2.4,2.2c1,2,1.9,4.1,4.1,5.3
		c1.2,0.7,2.2,0.2,2.9-0.4c0.9-0.7,0.1-1.6-0.5-2.2c-0.4-0.4-0.8-0.9-1.2-1.4c-0.7-1-1.1-2.4-0.3-3.2c2-2,3-4.6,4.8-6.7
		c1.1-1.2,2.1-2.4,2.5-4.1c0.1-0.5,0.5-1.2,0-1.5c-0.6-0.3-1.1-0.7-2-0.5c-2.4,0.5-3.9,2.2-5.4,3.9c-0.8,0.9-1.5,1.9-2.8,1.1
		c-1.2-0.8-1-2-0.5-3.1c1.3-2.9,2.3-5.9,4.8-8.1c1.1-1,2-2.2,2.7-3.5c2.4-4.4,4.5-9,5.7-13.9c1.1-4.6,1.8-5.8-3.9-8
		c-5.3-2-10.8-2.1-16.3-2.2c-2.2,0-2.8-0.7-2.4-2.8c0.3-1.6,0.6-3.2,0.4-4.8c-0.1-0.5,0-1-0.7-1.3c-2.7-0.9-4.2,0.1-4.3,2.9
		c0,0.3,0,0.5,0,0.8c0.2,1.9-0.2,3.5-2.5,3.9c-0.9,0.2-1.1,0.8-0.5,1.7c0.4,0.6,0.9,1.2,1.5,1.6c1.9,1.2,3.2,4.6,2.7,6.7
		c-0.2,0.6-0.6,1.3-1.2,1.2c-2.4-0.5-4.4,0.8-6.7,0.9c-3.9,0.2-7.8,0.1-11.6,1c-3,0.6-2.9,0.7-2.3,3.7c0.7,3.1,0.2,4.1-2.2,5.2
		c-3.7,1.6-7.4,3.3-11.2,4.8c-1.6,0.6-1.8,1.9-0.7,3.2c1.7,1.9,3.9,2.5,6.1,1.2c2.3-1.3,4.8-2.3,7-3.9c2.1-1.6,3.4-1.1,4.3,1.4
		c1.7,4.7,3.5,9.3,5.2,14c0.5,1.4,1.4,3,0,4.3c-1.3,1.2-2.9,2-4.6,2.4c-0.7,0.2-1.5,0.1-2-0.6c-0.6-0.7-0.3-1.4,0-2.1
		c0.4-0.8,0.8-1.7,0.6-2.8c-0.3,0.1-0.6,0.2-0.8,0.3c-0.2,0.1-0.4,0.5-0.6,0.5c-3.4,0.4-4,3.4-5.3,5.7c-0.5,0.9-0.3,1.5,0.6,2.2
		c3,2.4,4.8,2.4,8.3,0.9c1.9-0.8,3.5-2,5.4-2.7c1.6-0.5,2.5,0.1,3.4,1.2c0.3,0.3,0.3,0.9,1.2,1.1c-1.4-3.3-0.8-6,2.2-8
		c3.4-2.3,6.3-5.2,8.9-8.3C236.8,61.1,238.1,61.4,238.7,62.9z M245.2,55.5c-0.3,1.3-0.8,2.7-2.3,2.9c-0.9,0.1-1.4-0.9-1.3-2
		c0.3-1.2,0.8-2.5,2.4-2.6C244.8,53.7,245.4,54.6,245.2,55.5z M238.3,32c4.2-0.5,8.3-0.3,12.5,0.4c1.9,0.3,2.5,1.3,2.6,3.1
		c-0.6,2.9-1.6,5.7-3.9,7.8c-1.4,1.2-3.4,1-4.9,1.9c-1,0.5-2.1,0.8-3.1,1.4c-1.2,0.8-2.2,0.3-2.5-1c-0.9-3.7-1.7-7.5-2.5-11.3
		C236.1,33,236.6,32.2,238.3,32z M214.3,41.7c-0.2-1.1,0.7-1.5,1.6-1.6c0.3,0,0.6-0.2,0.9-0.2c0.3,0,0.5,0,0.8,0
		c0.4-0.6,0.9-1.1,1.7-0.6c0.4,0.3,0.9,0.7,0.8,1.3c-0.3,1-1.1,1.2-2,1.3c-0.1,0.1-0.3,0.3-0.4,0.4c-0.2,0.4-0.7,0.2-1.1,0.4
		C215.5,43.1,214.5,42.7,214.3,41.7z M224.7,67.6c-1.6,1.2-2.6,0.9-3.1-1c-1-4.2-2.8-8.2-3.9-12.4c-1.3-5.2-1.4-5.2,3.5-7.4
		c3.4-1.5,6.7-3.3,9.6-5.7c1-0.8,1.8-0.5,2.1,0.4c0.8,2.6,1.4,5.2,2.1,7.9c0,1-0.8,1.4-1.4,2c-2.2,2.1-2.1,2.8,0.4,4.3
		c0.5,0.3,1.1,0.6,1.6,0.9c0.9,0.7,1.2,1.6,0.2,2.4C232.1,61.8,228.4,64.7,224.7,67.6z"/>
	<path class="st0" d="M697.8,82.2c-0.5-0.2-1.2-0.1-1.8,0c-7.6,0.7-15.2,0-22.6-1.7c-5.7-1.3-11.2-2.9-15.6-7
		c-0.8-0.8-1.6-1.4-2.8-1.5c-1.8-0.3-2.2-1.3-2.2-3c0.2-3.9,0-7.8,1-11.8c0.8-2.8,2.3-4.1,4.3-5.3c1.1-0.7,2.2-0.2,2.5,1.1
		c0.6,2.8,1.7,5.5,1.6,8.3c0,2.3,2.1,2,3.2,2.7c0.5,0.3,2,0.1,2.8-1.3c2.5-4.6,4.7-9.6,9.5-12.5c0.7-0.4,0.6-1.2,0.5-1.8
		c0-0.7-0.8-1.1-1.3-1c-1.4,0.2-2.8,0.2-3.9,1.2c-1.6,1.5-3.1,3-4.2,4.9c-0.5,0.9-0.7,2.4-2.3,2.2c-1.7-0.2-1.6-1.6-1.8-2.7
		c0-0.1-0.1-0.2-0.1-0.4c-1.4-3.5-1.2-4.1,1.9-6.1c2-1.3,4-2.7,4.3-5.5c0.1-1.2-0.2-1.7-1.5-1.7c-2.3-0.1-3.4,1.8-4.9,2.8
		c-1.5,1-2.6,0.8-3.1-0.8c-0.7-2.1-1.2-4.3-1.7-6.4c-0.3-1.6,0.2-2.6,2-2.7c1-0.1,1.9-0.5,2.9-0.8c3.1-0.8,5.9-2.6,8.8-3.9
		c2.6-1.1,5.2-2.2,7.2-4.4c1.6-1.7,1.5-2.9-0.4-3.5c-0.8-0.3-1.6-0.1-2.1,0.7c-0.6,0.8-1.4,1.4-2.2,2c-4.6,3.3-9.9,4.7-15.2,6.1
		c-2,0.5-3-0.4-3.3-2.5c-0.3-2.1-0.4-4.1,2-5.1c0.4-0.2,0.8-0.8,0.7-1.4c-0.1-0.4-0.4-0.6-0.8-0.5c-1.9,0-3.7-0.5-5.6-0.1
		c-1.2,0.3-1.7,0.9-1.5,2.1c0.4,2.1,0.6,4.1,1,6.2c0.4,1.8-0.1,2.9-2.1,3.4c-6.9,1.8-13.9,2.8-21.1,3c-1.8,0.1-3.5,1.2-3.3,2.4
		c0.5,2.2,3.4,4.3,5.6,3.7c3.8-1,7.6-1.4,11.4-2.3c2.9-0.7,5.7-1.6,8.5-2.4c1.8-0.5,3-0.1,3.4,2c0.3,1.4,0.7,2.7,1.1,4.1
		c1.8,5.3,1.7,5.6-3.4,8.1c-0.1,0-0.1,0-0.2,0.1c-5.1,3-10,6.2-15.3,8.9c-1.2,0.6-1.5,1.8-1,2.9c1.1,2.8,4.4,3.7,6.6,1.8
		c0.7-0.5,1.4-1.1,1.9-1.8c0.7-0.9,1.5-1.2,2.5-0.8c1,0.4,0.9,1.3,0.9,2.2c-0.3,10.1,1.3,19.8,4.2,29.4c0.5,1.6,1.1,3,3.3,2.8
		c-1.2-5.1-1.5-10.3-2.5-15.3c-0.2-0.9,0-1.8,0.9-2.3c0.8-0.4,1.4-0.1,2.2,0.3c2.9,1.8,5.9,3.5,9.2,4.4c6.8,1.9,13.8,2.8,20.8,3.2
		c3.5,0.2,7,0,10.5,0c1.2,0,2-0.6,2.1-1.7C699.8,82.3,698.5,82.4,697.8,82.2z"/>
	<path class="st0" d="M367.1,50.8c-0.5-7.8-1-15.6-2.8-23.2c-0.9-3.9-1.5-8.4-5.9-10.5c-0.8-0.4-1.5-0.9-2.3-1.2
		c-2.1-0.9-4.1-1.9-6.4-2.2c-1.1-0.1-1.9,0.5-2.4,1.2c-0.7,0.7,0.1,1.5,0.6,2.1c0.9,1.4,2.3,1.7,3.8,1.9c2.4,0.3,5,0.8,6.4,3
		c3,4.9,3.9,10.6,4.5,16.2c0.2,1.4-0.9,2.2-2.2,1.8c-5.4-1.4-10.6,0.4-15.9,1.3c-1.5,0.3-1.3,1.2-0.5,2c0.9,0.9,2,1.6,3.6,1.1
		c2.2-0.6,4.5-1.4,6.8-1.5c0.9-0.1,1.7-0.1,2.1,0.8c0.4,0.9,0.2,1.7-0.4,2.5c-2.3,3-4.7,5.9-7.6,8.4c-1.4,1.2-1.3,2.4,0.4,3.1
		c0.9,0.4,1.9,0.6,2.9,0.5c2.6-0.4,4.8-1.6,6.8-3.3c0.3-0.3,1-0.5,0.8-1c-0.1-0.4-0.7-0.5-1.2-0.6c-2.1-0.5-2.4-1.6-0.9-3.2
		c0.8-0.9,1.5-1.9,2.2-2.9c0.7-1.1,1-2.8,2.8-2.5c2,0.3,1.2,2.1,1.4,3.3c0.9,7,0.7,14.1,1.1,21.2c0.1,2.3-0.8,2.9-3.2,2.5
		c-1.4-0.2-2.9-0.3-4.1,0.8c-0.9,0.9-1.9,1.7-3,2.4c-7.1,5.1-14.9,8.9-22.6,12.9c-4.2,2.2-8.4,4.2-12.7,6.1
		c-4.2,1.9-8.6,3.7-13.2,4.2c-1.5,0.2-3,0.2-4.4,1c-0.9,0.6-1,1.1-0.5,2c0.9,1.5,3.4,2.5,5.2,2.1c3.8-0.8,7.3-2.5,10.9-4
		c5.2-2.1,10.1-4.9,15-7.8c3.6-2.2,7.7-3.5,11.2-6c0.6-0.4,1.3-0.4,1.9,0c0.7,0.5,0.8,1.3,0.5,2c-0.3,0.8-0.7,1.6-1.1,2.4
		c-1.9,4.2-3.1,8.7-4.3,13.2c-1.4,5.3-2.5,10.6-3,16c-0.1,1-0.1,2,0.2,3c0.5,1.5,1.9,1.5,3.2,1.5c0.8,0,1.3-0.5,1-1.3
		c-0.9-3.1-0.3-6.1,0.1-9.2c0.3-3,1.2-3.7,3.8-2.3c3.9,2.1,7.8,3,12.4,0.7c-1.9-0.8-3.7-0.9-5.5-1c-2.9-0.2-4.8-2.1-7-3.6
		c-1.5-1-2-2.1-1.6-3.7c1.3-4.5,2.7-9,4.8-13.2c3.1-6.2,7.8-11.1,13.1-15.4c0.6-0.4,1.1-0.8,1.8-0.4c0.6,0.4,1,0.9,0.9,1.7
		c-0.3,1.9-0.4,3.9-0.7,5.8c-0.2,1.4,0.3,2.4,1.8,2.6c1.6,0.2,2.2-0.8,2.3-2.2c0.1-2.2,0.2-4.3,0.2-6.5
		C367.9,67.1,367.6,58.9,367.1,50.8z"/>
	<path class="st0" d="M314,82c0.5,0,1.2,0.3,1.5-0.2c0.3-0.6-0.2-1-0.7-1.3c-1.4-1.1-2.3-2.6-3.5-3.9c-1-1.1-0.8-2.3,0.5-2.8
		c1.1-0.5,1.7-1.3,2.4-2.1c2.1-2.4,3.7-5.1,5.2-7.8c2.3-4.4,6.2-7.6,8.7-11.9c0.2-0.3,0.7-0.7,1-0.7c2.6,0.3,4.8-1.2,7.3-1.6
		c2.9-0.5,3.8,0.1,3.7,3.1c-0.1,3.9-0.3,7.8-0.4,11.7c-0.1,1.8-1,2.5-2.7,2.3c0.8,0.9,1.1,2.1,1.4,3.2c0.4,1.6,1.9,1.9,3,1.9
		c1,0,1.6-1.3,1.7-2.4c0.6-6.5,1.5-13.1,0.8-19.7c-0.4-3.4-1.5-4.5-4.9-4c-2.5,0.3-5.1,0.7-7.5,1.4c-1.9,0.6-2.7-0.3-3.3-1.7
		c-0.9-2.1-0.5-4.2-0.4-6.4c0.1-2.6,0.3-5.2,0.2-7.9c0-0.5,0.4-1.7-0.5-1.7c-1.2,0.1-2.5-1-3.6,0.2c-0.3,0.3-0.8,0.7-0.6,1.2
		c1,3.2-0.3,6.3-0.1,9.4c0.3,2.8-0.2,5.9,1.8,8.3c1.1,1.4,0.7,2.4-0.4,3.5c-2.7,2.7-5,5.8-7.5,8.7c-2.3,2.7-4.2,5.8-7.2,7.9
		c-1.6,1.1-2.5,0.8-3.1-1c-0.4-1-0.9-2-1.6-2.8c-1.1-1.3-0.8-2.5,0.6-3.1c3.7-1.7,7.2-3.9,10.5-6.2c0.7-0.5,2.1-0.8,1.7-1.7
		c-0.4-0.8-1.7-1-2.8-0.8c-0.3,0.1-0.6,0.2-0.9,0.3c-2.6,1.1-5.2,2.2-7.8,3.4c-4.5,2-4.6,2-6.7-2.3c-1.4-2.8-2.8-5.6-3.3-8.8
		c-0.3-1.9,0.1-3.2,2-3.8c1.6-0.5,3.1-1.4,4.6-2.1c5.4-2.6,10.7-5.3,15.7-8.6c0.8-0.5,0.8-1.1,0.9-1.8c0.2-0.7,0.7-1.4,0-2
		c-1.2,0-2.5-0.1-3.5,0.5c-2.6,1.5-5.5,2.5-8.2,3.9c-4.8,2.4-9.7,4.7-15.2,5.1c-1.5,0.1-3.3,0.2-3.7,1.8c-0.3,1.4,1,2.5,2.2,3.4
		c0.8,0.6,1.3,1.3,1,2.2c-0.7,2.2,0.3,4.1,1.1,6c4.3,9.8,10,18.7,15.5,27.9C309.7,80,311.4,81.8,314,82z"/>
	<path class="st0" d="M99.8,129.8c-1.8,0.2-3.6-0.3-5.4-0.6c-1.8-0.3-2.3-1.2-1.4-2.7c1-1.8,1-3.7,1.4-5.6c0.3-1.8-0.4-3.2-2.1-4.2
		c-2.2-1.3-4.4-1.5-6.7-0.7c-0.8,0.3-1.6,0.7-2.4-0.1c-0.8-0.7-0.4-1.5,0-2.2c0.6-1.1,0.1-1.5-0.9-1.9c-2-0.7-2.1-1.6-0.6-3.1
		c2.5-2.4,5.1-4.8,7-7.8c0.7-1.1,1-2.3,0.5-3.2c-1-1.8-0.5-2.7,1.2-3.7c0.7-0.4,1.3-1.5,0.9-2.2c-0.6-1-1.8-0.7-2.7-0.2
		c-1,0.5-2,1.2-2.9,1.8c-1.3,0.8-2,0.1-2.3-1c-0.7-2.6,0.3-4.6,2.8-5.7c0.8-0.4,1.1-1.1,1.1-1.8c0-0.7-0.9-0.9-1.4-0.8
		c-1.6,0.1-2.7-0.4-3.2-2c-0.3-0.9-1.3-1.1-2.2-0.9c-1,0.3-1,1-0.7,1.8c0.7,2.1-0.7,2.7-2.2,3.3c-1.6,0.7-2-0.4-2.6-1.5
		c-0.2-0.4-0.4-0.9-0.8-1.2c-0.9-0.7-2-1.1-3-0.4c-1,0.7,0.1,1.4,0.4,2c1.2,2.3,1,2.8-1.3,4.2c-3,1.8-5.8,3.6-8.8,5.3
		c-1.2,0.7-1.3,1.5-0.7,2.5c1,1.6,3,1.9,4.5,0.5c2-1.9,4.5-3.3,6.6-5c0.9-0.7,1.7-0.5,2.3,0.3c1.8,2.5,1.1,5.5-1.7,6.8
		c-4.1,1.9-7.8,4.5-12,6.2c-0.9,0.3-1.7,0.9-1,2c0.6,1,1.4,2.3,2.7,1.7c1.7-0.7,3.6-1.5,4.9-2.7c2.2-2.1,5.2-2.7,7.4-4.7
		c0.5-0.4,1-0.2,1.5,0.1c0.8,0.6,1.6,5.2,0.9,5.9c-1.7,1.9-4.2,2.6-6.3,4c-1,0.6-1.6-0.1-2.4-0.5c-0.2-0.1-0.7,0-1,0.1
		c-1,0.6-2.3,1-2,2.6c0.3,1.4,2,2.4,3.5,2.1c2.3-0.4,4.3-1.4,6.1-2.9c0.7-0.6,1.5-0.7,2.2-0.1c0.7,0.6,0.5,1.3,0.1,2
		c-2.8,4.1-5.1,8.6-8.1,12.5c-0.7,0.9-1.3,2-0.5,2.9c0.8,0.9,2.1,1.5,3.2,1.1c1.4-0.5,2,0.1,2.6,1.1c1.1,1.7,2.3,3.4,4.1,4.4
		c2,1.1,4,1.5,6,0.1c2.2-1.5,3.6-3.6,4.9-5.8c1.1-1.9,2.5-2.4,4.5-1.7c0.6,0.2,1.2,0.3,1.8,0.4c2,0.3,4,0.9,6.1-0.1
		C101.2,130.1,100.6,129.7,99.8,129.8z M84.9,97.5c0.9-0.2,1.1,0.6,1.1,1.3c0,0.9-0.4,1.5-1.4,1.7c-0.7-0.1-1-0.6-1-1.2
		C83.6,98.4,84,97.6,84.9,97.5z M80.8,102c0,0.4,0.2,0.8,0.2,1.2c0,0.9-0.2,1.7-1.1,1.9c-1.1,0.1-1.1-0.9-1.2-1.7
		c-0.1-0.3-0.1-0.7-0.1-1c-0.2-1,0.1-1.9,1.1-2C80.7,100.2,80.8,101.2,80.8,102z M77,91.5c-0.2-1,0.6-1.5,1.4-1.7
		c0.9-0.2,1.2,0.5,1.4,1.1c0.3,0.9,0.6,1.8,0.4,2.7c0.2,0.6,0.1,1.2-0.1,1.8c-0.2,0.5-0.6,0.7-1.1,0.8c-0.5,0.1-0.9-0.3-1-0.8
		C77.5,94.1,77.2,92.8,77,91.5z M87.7,130.8c-1.3,2.2-2.9,4.2-4.8,5.9c-0.4,0.3-0.8,0.6-1.3,0.4c-1.5-0.1-2.6-0.9-3.6-2
		c-1.7-1.6-2.4-4-4.6-5.3c-0.6-0.4-0.5-1.1-0.1-1.8c1.5-2.5,3.4-4.8,4.7-7.5c0.3-0.5,0.7-1.1,1.4-0.9c0.7,0.2,0.7,0.8,0.9,1.4
		c0.9,3.5,2.9,6,6.3,7.3C87.7,128.9,88.3,129.7,87.7,130.8z M90.1,125.6c-0.3,1.2-1.2,1.4-2.2,0.9c-1.9-0.9-3.2-2.6-3.2-4.6
		c0-1.7,1.4-2.9,3.1-3.5c2.5-0.9,3.3-0.2,3.2,3.3C90.8,122.8,90.5,124.2,90.1,125.6z"/>
	<path class="st0" d="M533.9,119.9c-0.7-2.6-0.7-5.4-1.7-7.8c-1.1-2.6-1.2-5.3-1.5-8c-0.6-5.1-0.9-10.2-1.6-15.2
		c-0.4-2.8,0.2-3.9,2.8-4.9c3.5-1.4,7.3-1,10.9-1.5c1-0.2,2.8,0.1,2.7-1.4c-0.1-1.1-1.7-1.2-2.9-1.2c-0.2,0-0.4,0-0.6,0
		c-3.8-0.1-7.6-0.1-11.4,0.7c-2,0.4-2.5-0.2-2.6-2.3c0-0.4,0-0.8-0.1-1.2c-0.5-7.1-1.4-14.1-1.1-21.2c0.2-3.4,1.3-6.4,4.3-8.5
		c1.7-1.2,3.5-2.3,5.1-3.6c1.3-1.1,3-1.8,3.8-3.5c0.3-0.6,0.7-1.2-0.4-1.7c-0.9-0.4-1.7-0.8-2.6-0.7c-1.8,0.1-3.5,1-5.1,1.5
		c-4.1,1.3-8.2,2.5-12.7,2.5c-1.3-0.2-2.7,0.2-4-0.5c-2.4-1.3-2.9-3.8-1.5-6.9c0.9-2,1.6-4.1,2.3-6.2c0.4-1.1,0.2-1.9-1-2.1
		c-1.3-0.3-3.2-0.8-3.6,0.6c-0.9,3-2.2,5.8-3.2,8.7c-1.1,3.2,0.2,5.5,2.4,7.5c3.3,3.1,7.3,3.4,11.6,2.9c2.2-0.2,2.8,0.6,1.9,2.7
		c-1.1,2.7-1.7,5.5-1.6,8.4c0.3,7.3,1.3,14.5,2.3,21.7c0.3,2.3-0.2,3.8-2.2,4.7c-0.8,0.3-1.5,0.8-1.5,1.7c0,1,0.8,1.4,1.7,1.8
		c0.6,0.2,1.1,0.6,1.8,0.7c1,0.1,1.6,0.9,1.7,2c0.3,3.1,0.8,6.1,1.2,9.2c1.2,9.4,2.5,18.8,4.6,28c1.2,5.2,2.5,10.3,4.4,15.3
		c0.3,0.8,1,1.4,1.5,1.3c0.9-0.2,2,0,2.7-1c0.8-1.2-0.4-1.7-0.7-2.5C537.1,133.4,535.7,126.6,533.9,119.9z"/>
	<path class="st0" d="M458.3,73.6c-0.5-0.3-1-0.7-1.5-1.1c-1.1-0.8-2.4-0.2-2.6,1.2c-0.1,0.9-0.6,1.4-1.2,2c-2.5,2.5-5.4,4.4-8.5,6
		c-2.5,1.3-4.3,0.6-4.5-2.2c-0.2-3-1.2-5.9-1.4-8.9c-0.2-2.9-1-5.7-1.3-8.5c-0.3-2.4,0.8-3.6,3.1-4.2c1.2-0.3,2.3-0.6,3.4-1.2
		c1-0.6,1.6-1.7,1.5-2.7c-0.1-0.7-1.4-0.8-2.2-0.9c-0.9-0.1-2-0.2-2.8,0.1c-6.4,2.3-13,3.3-19.8,3.2c-4.8,0-9.6,0.2-14.1-1.6
		c-1.5-0.6-2.7-0.3-4.1,0c-0.7,0.1-1.1,0.6-0.8,1.3c0.8,1.6,1.7,3.7,3.4,4.1c5.1,1.3,10.3,2.2,15.7,1.6c2.9-0.3,5.8-0.8,8.7-1.1
		c2.4-0.4,3.3,1.1,3.5,3.1c0.1,0.7,0.1,1.4,0.3,2.2c1.2,5.6,2.3,11.3,3.4,16.9c0.4,2-0.5,3.1-2.3,3.9c-1.9,0.8-3.8,1.7-5.6,2.6
		c-5.4,2.6-10.8,5.4-16.5,7.4c-1.5,0.5-2.7,0.3-3.5-1c-0.6-1-1.4-0.9-2.4-0.8c-2.5,0.3-4,2.1-5.6,3.7c-1.7,1.7-1.6,2.3,0.3,3.7
		c0.5,0.4,1.1,0.6,1.6,0.8c3.1,1.3,6.1-0.1,9-0.8c6.7-1.6,12.1-5.8,18.1-8.8c2.5-1.2,4.9-2.7,7.5-3.8c4.2-1.8,8.2-4,12.1-6.3
		c3.7-2.2,7.1-4.4,9.4-8.2C459.2,74.6,459.1,74.1,458.3,73.6z"/>
	<path class="st0" d="M708,62.2c-1.3-0.1-1.9,0.8-2.1,2.2c-0.5,3.1-3.4,5.7-7.2,3.3c-2.9-1.9-5.3-4.5-7.1-7.4
		c-2.3-3.7-1.2-4.4,1-5.5c5.5-2.8,10.6-5.9,14.8-10.5c1.8-2,2.1-4,0.5-5c-2.4-1.5-2.6-1.9-1.6-4.6c0.4-1.1,0.1-1.8-0.8-2
		c-1.5-0.3-2.9-1-4.5-1.2c-5.5-0.7-11-1.6-16.2-3.6c-1-0.4-2.8,1.2-2.4,2.3c0.6,1.7,0,2.7-1.5,3.6c-1.6,0.8-2.5,2.2-2.3,4.1
		c-0.1,0.9,0.1,1.6,0.3,2.3c1,3.5,1.9,7.1,3.6,10.4c0.8,1.7,1.2,3.5,2.2,5.1c2.3,4,4.8,7.8,8,11.1c2.5,2.5,5.3,4.4,8.8,5.3
		c3.7,1,8.8-3.7,8.3-7.3C709.6,63.6,709.3,62.3,708,62.2z M686.4,48.3c-1.5-2.8-2.7-5.8-3.1-8.4c-0.1-3.3,2.9-6.2,6.9-5.1
		c2.6,0.7,5.1,0.9,7.8,0.9c0.8,0,1.6,0.1,2.1,0.9c0.6,0.9-0.2,1.6-0.6,2.1c-3.2,3.8-7.3,6.6-10.9,9.9
		C687.7,49.6,686.9,49.2,686.4,48.3z"/>
	<path class="st0" d="M66.1,88.6c0.8-0.5,1.1-1.3,0.6-2.3c-1.1-2.6-1.2-5.4-1.5-8c0-1.3,0-2.9,1.6-2.3c2,0.7,2.9-0.3,3.9-1.5
		c2.7-3.6,5.3-7.3,8-10.9c0.8-1.1,1.6-2.2,2.7-2.9c1.8-1.1,2.7-0.8,3,1.3c0.6,3.2-0.7,5.9-2.3,8.6c-0.7,1.2-0.9,2.4,0.4,3.1
		c1.2,0.7,2.4,0.6,3-1.1c0.2-0.7,0.9-1.1,1.6-1c0.7,0.1,1.2,0.7,1.1,1.2c-0.3,2.5,1,1.3,1.9,0.8c1.8-1,2.6-2.7,2.7-4.6
		c0.1-1.3-0.6-2.6-1.8-2.8c-2.4-0.5-3.1-1.9-3-4.1c0-0.6-0.1-1.2-0.3-1.8c-0.4-2-1.6-2.9-3.6-3.3c-3.4-0.6-5.3,1.3-6.9,3.8
		c-1.9,3-3.8,5.9-5.9,8.6c-2.5,3.2-2.7,3.2-4.8-0.3c-0.8-1.3-2.3-1.3-3.5-1.1c-1.5,0.1-1.1,1.5-1,2.4c0.1,1.9,0.3,3.8,0.5,5.6
		c0.1,0.9-0.1,1.7-1,2c-1,0.3-1.4-0.3-1.9-1.1c-1.3-2.3-2.8-4.6-4-7c-1.2-2.4-3.5-4.6-2.2-7.8c0.3-0.6-0.2-1.5-1.1-0.9
		c-1.6,1-3,0.7-4.5-0.2c-0.9-0.5-2,0.1-2.9,0.4c-0.8,0.3-1.6,0.8-2.4,1.1c-8.9,3.6-17.8,7.3-26.9,10.4c-3.9,1.3-7.8,2.9-12.1,2.8
		c-0.9,0-2.4,0.1-2.4,1.6c0,1.5,1.1,2.3,2.3,2.7c0.7,0.3,1.6,0.1,2.4,0c5.2-0.9,10-3.3,14.8-5.3c5.6-2.4,11.3-5,17-7.2
		c3.2-1.3,6.6-2.3,9.6-4.1c1.3-0.7,2.1,0.1,2.3,1.3c0.2,1.3,0.7,2.4,1.3,3.6c2.3,4.1,4.7,8.2,7.5,12c1.9,2.6,3.5,5.5,5.7,7.8
		C64.6,88.6,65.3,89.2,66.1,88.6z"/>
	<path class="st0" d="M898.2,87.2c-0.9,0-1.3-0.9-2.1-1.1c-1.1-0.3-2.5-1.8-3.3,0.7c-0.3,1.1-1.7,1.3-2.8,1.4
		c-3.1,0.4-6.1,1.2-9.1,1.9c-9.8,2.4-19.7,3.8-30.8,3.7c-5.8,0.4-12.3-1.9-19-2.4c-1.2-0.1-2-1-2.3-2.1c-1.9-7.1-4.8-13.9-7.1-20.9
		c-2.4-7.2-5.3-14.2-5.3-22c0-1.8-1.4-2.6-2.7-2.5c-1.3,0-2.2,1.2-1.9,2.7c0.2,0.9,0.2,1.9,0.3,2.8c0.8,4.6,2.3,9,3.8,13.4
		c2.3,6.7,5,13.2,7.1,19.9c1.8,6,3.8,11.9,5.7,17.8c0.4,1.4,1.2,2.5,2.7,2.4c1.7-0.1,2.2-1.5,2.3-3c0-0.6,0-1.2,0-1.8
		c0-2.1,0.4-2.4,2.5-2.4c5.5,0.1,10.9,1.3,16.5,1.1c8.7-0.2,17.2-1.1,25.6-3c5.5-1.2,10.9-2.6,16.5-3.5c1.8-0.3,2.6-1.1,3.5-2.2
		C898.6,87.8,898.8,87.3,898.2,87.2z"/>
	<path class="st0" d="M504.4,96.6c-0.5-0.3-0.8,0.2-1.2,0.5c-2.7,2.5-2.7,2.5-4.7-0.5c-0.3-0.4-0.6-0.9-0.8-1.4
		c-4.4-9-7.4-18.5-9.5-28.2c-1-4.4-0.2-8.5,3-11.8c1.8-1.7,3.9-3.2,5.8-4.8c1-0.8,2-1.4,3.2-1.5c1.9-0.2,2.1-2,2.1-3.1
		c0-0.7-1.6-1.3-2.8-1.2c-0.5,0-1,0.2-1.6,0.4c-5.1,1.4-10.3,2.4-15.6,2.6c-2.4,0.1-4.7-0.2-7-0.7c-1.1,0.4-3.1-0.3-2.5,1.9
		c0.4,1.4,1.5,2.7,3.1,3c2.5,0.5,5.1,0.8,7.6,0.4c1-0.2,1.9-0.5,2.5,0.4c0.8,1.1,0.2,2.1-0.4,3c-1.5,2-2.2,4.3-2.2,6.8
		c0,2.7,0.6,5.2,1.3,7.8c2.2,8.3,5.6,16.3,8.8,24.2c0.9,2.3,2,4.5,4.4,5.9c3,1.8,5.8,0.8,6.6-2.3C504.7,97.5,504.9,96.9,504.4,96.6z
		"/>
	<path class="st0" d="M283.8,84.4c-2.1-0.4-4.2-0.1-6.2,0.2c-8.5,1.1-16.4,3.8-24.1,7.5c-3.5,1.6-7,3.1-10.5,4.6
		c-1.4,0.6-2.3,1.8-2.1,3.3c0.2,1.5,1.6,1.4,2.9,1.5c1.6,0.1,3.1,0.5,4.7,0.9c0.9,0.3,1.8,0.6,1.9,1.5c0,0.9-1,1.6-1.8,1.7
		c-4,0.6-7.9,0.8-11-2.6c-0.7-0.8-1.5-1.6-2.3-2.3c-0.5-0.5-1.2-0.6-1.8-0.1c-0.6,0.5-1,1-0.6,1.9c0.3,0.6,0.6,1.2,0.9,1.8
		c2.6,4.5,7,5.4,11.7,5.7c2,0.1,3.8-0.4,5.7-1.2c2-0.8,3.3-2,3.3-4.3c0-2.1-1-3.5-3.1-4.2c-0.7-0.2-1.2-0.7-1.2-1.4
		c0-0.8,0.7-1.2,1.4-1.5c2.3-1,4.7-2.1,7-3.1c8-3.5,16.2-5.9,25-5.9c1.2,0,2.2-0.4,2.3-1.7C286,85.3,285.1,84.6,283.8,84.4z"/>
	<path class="st0" d="M35.5,111.1c-3.2,3.4-3.3,3.3-4.5-1.1c-1.6-5.7-1-7.2,3.8-10.5c1.8-1.2,3.8-2.2,5-4.1c0.3-0.5,1.1-1.2,0.5-2
		c-0.5-0.5-1.3-0.4-2-0.3c-1.2,0.3-2.1,0.9-3,1.6c-2.5,1.9-5,3.9-8,5.1c-1.4,0.6-2.7,1.7-4.6,0.7c-0.7-0.4-1.7,0.5-2.5,1
		c-0.4,0.3-0.4,0.9,0,1.3c1.1,1,2,2.1,3.8,1.7c2.6-0.5,2.7-0.2,3.2,2.3c0.9,4.9,2.4,9.5,4.9,13.8c0.9,1.4,2.3,1.7,3.2,1.2
		c1.4-0.8,2.6-0.9,3.9-0.5c0.6-0.3,1.3,0,1.8-0.5c2.2-2.2,4.3-4.5,5.1-7.6c0.2-0.8,0.3-1.7-0.4-2.3
		C42.6,108.5,37.9,108.5,35.5,111.1z M42.6,113.4c-0.4,2.1-1.7,3.4-3.1,4.8c-0.4,0.4-1.1,0.6-1.5,0.1c-0.7-0.9-1.5-1.7-1.5-2.8
		c0.2-2.6,2.8-4.7,4.9-4.1C42.4,111.8,42.8,112.4,42.6,113.4z"/>
	<path class="st0" d="M53.9,55.7c3.8-0.7,7.8-1.2,11.5-3.4c3.3-2,7.1-3.3,10.6-4.9c3.5-1.6,7.1-3.3,10.6-5c1.3-0.6,2.3-2.1,1.6-3.4
		c-0.7-1.3-2.3-0.7-3.4-0.1c-7.7,4.3-15.8,7.8-24.2,10.4c-1.6,0.5-3.3,1.7-4.8-0.2c-0.1-0.1-0.4,0-0.5,0c-1.6,0.7-3.2,1.5-4.7,2.3
		c-0.3,0.1-0.5,0.7-0.5,1C50.1,53.3,52.7,55.7,53.9,55.7z"/>
	<path class="st0" d="M45.9,74.8c-1.3-0.1-2,0.9-2.9,1.6c-5.6,4-10.8,8.5-17,11.6c-2.5,1.2-2.8,1.1-3.2-1.7c-0.1-0.5,0.1-1.6-1.1-1
		c-1.5,0.6-3.9,3.7-3.7,4.8c0.2,1.4,2.4,2.5,5.1,2.5c1.3,0.3,2.4-0.2,3.4-0.8c6-3.5,11.3-7.7,16.8-11.9c1.3-1,2.7-1.9,3.6-3.5
		C47.6,75,47,74.8,45.9,74.8z"/>
	<path class="st0" d="M57.5,32.6c5.9,0.8,11.4,3.3,17.3,4.1c0.8,0.1,1.9,0.6,1.8-0.7c0-1,1.5-2.5-1-3.2c-4.5-1.2-9-2.4-13.3-4.2
		c-1.1-0.5-2.1-1.1-3.5-1.2c-0.8,0.5-1.8,0.2-2.8,0.3c-0.7,0.1-1.4,0.4-1.2,1.3C55.2,30.6,55.9,32.4,57.5,32.6z"/>
	<path class="st0" d="M14.9,57c2.2,0.2,4.2,1,6.3,1.2c4.8,0.6,9.7,1.2,14.6,1.4c1.4,0.1,0.9-0.7,1.1-1.3c0.2-1.4-1-1.7-1.8-1.8
		c-2.4-0.5-4.9-0.8-7.4-1.2c-4.6-0.6-9.1-1.8-13.6-3c-0.7-0.2-1.5-0.4-2,0.3c-0.3,0.4-0.8,0.8-0.4,1.4C12.4,55.3,13.3,56.8,14.9,57z
		"/>
	<path class="st0" d="M221.5,91.8c-2.3,3.8-2.9,8.1-3.6,12.4c0.1,0.8,0.2,1.6,0.2,2.4c0,1.3,0.3,2.4,1.2,3.3c0.5,0.5,1,0.6,1.6,0.5
		c0.7-0.1,0.3-0.8,0.4-1.2c0.5-2.4,0.7-4.9,1.2-7.3c0.6-3.3,0.8-6.8,3.6-9.4c0.6-0.6,0.4-1.2-0.1-1.8
		C224.7,89.2,222.8,89.6,221.5,91.8z"/>
	<path class="st0" d="M544.3,87.4c-1.2,0.4-2.1,1.1-3.1,1.8c-2,1.5-4.4,1.3-6.7,1.9c-1.7,0.5-1.9,1.4-0.7,2.6c1.1,1,2.4,1.4,3.7,1.2
		c3.9-0.1,6.6-1.8,8.7-4.9c0.5-0.7,0.9-1.4,0.4-2.2C546.1,87,545.2,87.1,544.3,87.4z"/>
	<path class="st0" d="M815,36.4c0.7,1.6,1.4,3.1,3.1,4.4c0.7-4.7-0.3-8.9-0.4-13.2c0-1.6-1.7-1.8-3-1.6c-1.3,0.2-2.3,0.8-1.8,2.5
		C813.6,31.1,814,33.8,815,36.4z"/>
	<path class="st0" d="M335.6,65.8c-1.7-1.5-0.7-3.7-1.2-5.5c-0.5-1.6-1.7-1.7-2.7-1.9c-0.8-0.2-1.6,0.9-1.8,1.9
		c-0.4,1.4-0.5,2.8-0.2,4.2c0.6,3,3.2,4,5.5,2.2l0,0h0C335.3,66.3,335.5,66,335.6,65.8C335.6,65.8,335.6,65.8,335.6,65.8z"/>
	<path class="st0" d="M329,28.2c1.7,0.4,3.3,0.8,5,0.1c1.9-0.7,3.6-1.8,5.2-3.4c-0.5-0.4-0.8-0.9-1.3-1c-2.8-0.4-5.6,0-8.3,0.7
		c-0.6,0.1-1.6,1-1.3,2C328.5,27.2,328.2,28,329,28.2z"/>
	<path class="st0" d="M618.8,53.3c-1.2-0.1-2.3,0-3.4,0.4c-5.6,2-11.2,3.8-16.9,5.3c-9.1,2.4-18.3,4.2-27.8,3
		c-1.4-0.2-2.6,0-3.8,0.8c-0.5,0.4-1.4,0.5-1.4,1.3c0,0.9,0.7,1.3,1.4,1.8c3.3,2.2,6.9,2.3,10.8,2.2c11.4-0.4,21.9-4.2,32.4-7.7
		c3-1,5.4-3.3,8.4-4.4C620,55.1,620.1,54.2,618.8,53.3z"/>
	<path class="st0" d="M336.8,66.6C336.8,66.6,336.8,66.6,336.8,66.6L336.8,66.6L336.8,66.6C336.8,66.6,336.8,66.6,336.8,66.6
		C336.8,66.6,336.8,66.6,336.8,66.6L336.8,66.6C336.8,66.6,336.8,66.6,336.8,66.6C336.8,66.6,336.8,66.6,336.8,66.6L336.8,66.6z"/>
	<path class="st0" d="M218.1,40.2C218.1,40.2,218.1,40.2,218.1,40.2c-0.1-0.2-0.2-0.3-0.4-0.4c0,0.1,0,0.3,0,0.4
		C217.8,40.3,217.9,40.3,218.1,40.2z"/>
</g>
</svg>
