<?xml version="1.0" encoding="utf-8"?>
<!-- Generator: Adobe Illustrator 22.0.1, SVG Export Plug-In . SVG Version: 6.00 Build 0)  -->
<svg version="1.1" id="圖層_1" xmlns="http://www.w3.org/2000/svg" xmlns:xlink="http://www.w3.org/1999/xlink" x="0px" y="0px"
	 width="1080px" height="350px" viewBox="0 0 1080 350" enable-background="new 0 0 1080 350" xml:space="preserve">
<g id="_x39_YXYSJ_1_">
	<g>
		<path fill="#02A93D" d="M317.1,81.5c-1.7-1.2-3.7-3.1-6.6-1.7s-5.9,2.8-9,3.6c-1.4,0.4-2.6,0.8-3.4-0.5c-0.8-1.4,0.8-2,1.4-2.9
			c1-1.4,2.7-1.8,3.8-3.4c2.9-4.5,5.1-9.5,6.8-14.5c1.8-5.5,1.8-8.9-4.3-11.6c-3.1-1.4-6.7-1.3-9.8-0.2c-4,1.4-7.1-0.4-10.4-1.6
			c-1-0.3-1.5-1.3-1-2.9c2.7-8.7,5.1-17.7,9.4-25.8c1.6-3,1.2-3.7-2-4.2c-1.4-0.2-1.8-0.9-1.8-2.2c0-1.2-0.3-3,1.1-3
			c2.3,0,3.1-1.7,4.5-2.8c3.4-2.8,3.4-3.2-0.5-5.8c-0.2-0.2-0.4-0.4-0.6-0.6c-1.1,0-2.2,0-3.3,0c-0.7,0.9-1.6,1.2-2.7,1.3
			c-2.1,0.2-4.3,0.3-6.3,0.8c-7.4,1.8-15,1.9-22.5,2.5c-3.2,0.2-5.6,2.8-5.7,6c-0.1,2.3,0.6,4.4,1.1,6.6c1,3.9,0.3,4.9-3.4,5.9
			c-6.8,1.7-13.3,1.7-19.2-3c-1.4-1.1-3.6-0.9-5.2,0c-0.9,0.5-1.8,1.9-1.1,3.3c1.5,3.3,4.4,5.1,7.5,5.9c6.3,1.7,12.7,2.1,19.2,0.2
			c2.6-0.7,5.7-0.9,6.6,3c1.5,6.3,5.6,11.4,7.6,17.5c0.3,0.8,0.4,1.7,1.4,2.3c2,1.3,1.5,2.8,0.3,4.6c-1,1.5-2.7,1.2-4,1.8
			c-3.7,1.8-7.5,4-11.5,0.7c-1.5-1.2-2.1-0.1-2.9,0.8c-0.7,0.7-2.2,1.2-0.6,2.7c0.9,0.8,0.1,1.7-0.6,2.5c-3.1,3.5-2.7,5.4,1.6,7.2
			c2.7,1.1,4.6,2.7,5.9,5.3c1.1,2.1,2.2,4.3,3.7,6.2c1.5,2,1.9,4.2,0.9,6.9c-3.2,8.1-4.4,17.1-10.5,24c-1.5,1.7,0,3.5,1.2,4.5
			c1.4,1.1,3.7,1.7,4.9,0c3.7-4.9,8.4-8.6,12.8-12.7c3.3-3.1,6.9-5.8,10.8-7.9c6.7-3.6,13.2-7.6,20.4-10.2c1.1-0.4,2.2-1.9,3.4-0.5
			c1.2,1.3,0.6,2.9-0.2,4.2c-2.6,4.2-5,8.6-7.9,12.5c-3,4-5.6,8.3-9.7,11.4c-2.1,1.6-4.4,3-6,5.3c-1.1,1.7-1.4,2.9,0.1,4.4
			c1.5,1.5,2.8,1.2,4.1-0.2c1.3-1.3,2.9-1.5,3.6,0.5c0.9,2.3-2.5,7-5.1,7.2c-2.7,0.1-3.5,2.6-3.7,3.9c-0.2,1.6,1.8,2.8,4,2.7
			c3.1,0,6.2-0.4,9.3,0.5c1.5,0.4,3.6,0.5,4.9-0.7c0.9-0.9,3-2,0.1-3.3c-1-0.4-2-1.5-1.6-2.9c0.9-3.1-0.4-6.6,1.7-9.6
			c0.6-0.9,0.3-2.5,2-2.3c1.6,0.2,2.1,1.8,2,2.8c-0.4,5.5,1.4,10.8,1.5,16.3c0.1,5.6,0.3,11.2,0.6,16.8c0.4,9.8,1.3,19.5,1.9,29.2
			c0.5,9.4-0.6,18.8-0.6,28.2c0,1.1,0.1,2.3-1.3,2.6c-1.3,0.2-2.3-0.1-2.7-1.6c-0.6-1.8-2-3-3.7-3.9c0.7,1.4,1.3,2.5,1.3,4.1
			c0.1,5.5,0.8,11,5.1,15.1c1.1,0,2.2,0,3.3,0c2-1,3.4-2,3.4-4.9c0.1-4.7,0.7-9.4,0.7-14.2c0-5.2,0.5-10.5,0.5-15.8
			c0-11.4-1.3-22.7-1.3-34c0-3.3,0.1-6.6-0.3-9.8c-0.8-7.2,0-14.4-1-21.6c-0.8-6.1-0.5-12.3-0.8-18.5c-0.1-2.6-1.3-4.5-4.2-4.9
			c-2.4-0.3-3.2-2.4-1.6-4.3c4.9-5.9,9.3-12.1,13.3-18.5C317.5,84.9,318.4,82.4,317.1,81.5z M272,89.7c-4.3-4.9-7.6-10.3-10.3-16.2
			c-0.4-0.8-0.3-1.4-0.4-2c-0.1-1.4,0.1-2.3,1.7-2.7c1.8-0.4,3.6-1.3,5.2-2.1c2.2-1.1,3.3,0.2,3.4,1.9c0.3,3.4,1,6.7,2.1,9.9
			c1.2,3.3,2.9,6.3,7,7.1c1.4,0.3,2.1-0.4,2.8-0.8c1.9-1.2,3.7-0.8,5.4-0.1c0.8,0.3,1.8,1,1.7,2.1c0,1.2-1,1.3-1.9,1.7
			c-2.4,1.1-4.7,2.4-7,3.4C277.5,93.9,275,93.2,272,89.7z M264.8,11.2c3.9-0.9,7.9-1.6,11.9-1.8c1-0.1,2,0.1,2.3,1.3
			c0.2,1-0.4,1.5-1.2,2c-4.3,2.8-8.9,5.1-13.6,7c-3.4,1.3-2.6-2-2.9-4.6C260.8,13,262,11.8,264.8,11.2z M267.3,27.1
			c4.6-1.4,8.9-3.7,12.9-6.4c0.8-0.5,1.4-1.4,2.5-0.7c1.1,0.6,0.7,1.7,0.8,3.1c-0.6,4.2-2.2,8.7-3.4,13.3c-1.2,4.8-2.5,9.5-3.9,14.2
			c-0.3,1-0.5,2.4-2.1,2.5c-1.3,0.1-1.6-0.9-1.9-1.8c-2.5-6.2-5.5-12.3-7.2-18.9C264.3,29.8,264.1,28.1,267.3,27.1z M280.3,67.7
			c-0.3-1.1,0.6-2.2,0.1-3.6c-0.4-1.1,0.4-1.9,1.6-1.8c1,0,1.6,0.6,1.6,1.7c0,1.6,0,3.3,0,4.9c0,1.2,0,2.6-1.7,2.5
			c-1.7,0-1.6-1.4-1.6-2.6C280.3,68.5,280.3,68.1,280.3,67.7z M301.9,61.9c-1.2,4.6-4.2,8.1-6.4,12.2c-0.5,1-1.6,2.5-3.1,1.8
			c-1.6-0.7-0.6-2-0.5-3.3c0.3-3.1,0.1-6.3,0.1-9.4c0-5.3,0.9-6.2,6.4-6.2C302.8,57,303,57.5,301.9,61.9z"/>
		<path fill="#02A93D" d="M88.7,103.9c-5.9-8.2-13.3-14-23.4-16.3c-4.3-1-8.6-1.5-13.1-1.2c-1.7,0.1-3.2-0.5-3.2-2.3
			c0-1.5,1.2-2.4,2.9-2.3c0.6,0,1.3,0.1,1.9-0.1c10.1-3.3,20.2-6.9,30-11c2.3-1,4.7-1.6,6.8-3.1c1.3-0.9,1.5-1.3,0.8-2.7
			c-1.9-4-8.6-5.4-11.8-2.3c-2.4,2.4-4.9,4.7-8.2,6c-9.7,3.9-19.5,7.6-29.6,10.4c-9.4,2.7-18.8,6-28.9,5.4c-3.9-0.2-4.9-1.2-3.7-5
			c1.7-5.5,3.5-11,5.3-16.4c1.3-4,2.7-4.4,6.2-2.1c1,0.7,2.8,1.9,3.5,0.6c1-1.6,1.9-4.2,0.2-5.8c-2.1-2-3.1-4.4-4.2-7
			c-1.2-2.7-3.7-2.5-6-2.6c-2.7-0.1-3.4,1.4-3.3,3.9c0.1,1.4-0.5,2.9-1,4.3C8.1,60.2,6,65.7,4,71.3C2.8,75,1.7,78.8,0.6,82.5
			c0,0.7,0,1.3,0,2c1.4,1,1.3,3.1,3,3.9c4.3,2.1,9,2.8,13.6,2.5c4.7-0.3,9.4-0.9,14-2.3c3.1-0.9,6.4,1.1,9,2.7c2,1.2,4,2.5,5.6,4.2
			c4.8,4.9,1.8,10.7,1.1,16.8c-0.8,6.7-1.3,13.4-2,20.1c-0.4,3.3-0.4,6.9-4.3,8.4c-4.1,1.5-7.3,4.5-11,6.7
			c-7.3,4.3-14.2,9.3-20.7,14.7c-1.5,1.2-1.8,2.7-0.7,4.3c1.5,2.3,3.6,3.7,6.4,3.8c6.7,0.2,13.3,0.4,20,0.7c3.2,0.1,6.3-0.8,9.4-1.1
			c4.9-0.5,9.6-1.3,14.3-2.8c6.3-2,12.5-4.2,18.2-7.5c5.4-3.1,10.9-6.5,14.7-11.6c4.3-5.8,6.4-12.2,5.6-20
			C96.1,118.9,93.9,111,88.7,103.9z M34.2,164.9c-4.3,0-7.4,0-10.6,0c-1,0-1.8-0.2-2-1.2c-0.3-1,0.3-1.5,1.1-2.1
			c5.6-4.3,11.6-8.1,17.6-11.8c1.7-1.1,3.3-1.6,4.3,1.4c1.1,3.3,2.7,6.6,6.7,7.9c0.9,0.3,2.5,0.6,2.3,2.3c-0.2,1.6-1.7,1.9-2.8,2.1
			C44.8,164.4,39,165.5,34.2,164.9z M56.3,117.2c1.6,1.9,2.9,1.2,4.2-0.2c1.6-1.7,2.9-1.5,4.3,0.2c0.3,0.3,0.6,0.6,0.9,0.9
			c3.6,3.6,3.5,3.4-0.7,6.4c-2.7,2-5.4,4-8.4,5.6c-1.2,0.6-2.2,2-3.7,1.2c-1.6-0.8-0.6-2.6-0.9-3.9c0.1-3.2,0.6-6.4,1.4-9.4
			C54,116.4,55.1,115.8,56.3,117.2z M77.6,143.4c0.7-0.4,1.5,0,1.9,0.8c0.6,1.1-0.1,1.9-0.9,2.5c-3.3,2.4-7,4.4-10.9,5.7
			c-2.5,0.8-5.1,2.3-7.5,1.4c-5.4,0-7.8-1.9-8.7-6.6c-0.6-3.2,1.1-5.2,3.6-6.3c3.4-1.5,6.2-3.8,9.4-5.7c0.7-0.4,1.3-1.3,2.2-0.9
			c0.9,0.3,1.1,1.2,1.1,2.1c0,2.7,1.9,3.9,3.8,5.4C73.6,143.2,75,144.9,77.6,143.4z M71.8,131.3c0-1.2,0.7-1.7,2-1.7
			c1,0,1.8,0.4,1.8,1.6c0,1.2-0.7,1.7-1.9,1.7C72.7,132.9,71.9,132.5,71.8,131.3z M69.8,113.1c-2.3-3.2-5-6.1-7.6-9.1
			c-1.4-1.6-3.1-3.1-1.6-5.6c0.3-0.6-0.1-1.2-0.3-1.8c-0.8-2.3,0.2-3.3,2.6-3.1c4.5,0.6,8.8,2.2,12.3,5.1c2.8,2.3,5.4,4.9,7.5,8
			c1.1,1.7,1.6,3.4-0.4,5c-1.2,0.9-2.3,1.9-3.5,2.8C73.9,118.3,73.4,118.1,69.8,113.1z M86.2,135.6c-1.7-3.4-3.7-6.4-6.5-8.9
			c-1.3-1.1-0.9-2.5,0.4-2.8c2.5-0.7,3.7-2.6,5-4.5c0.5-0.7,1.1-1.7,2.3-1.5c1.2,0.2,1.2,1.2,1.4,2.2c0.7,2.8,1.6,5.5,1.3,8
			c0,2.7,0.1,4.9-0.6,7.1c-0.3,0.9-0.6,1.6-1.6,1.7C87,136.9,86.5,136.3,86.2,135.6z"/>
		<path fill="#02A93D" d="M753.6,106c-1.6-1.3-7.5-0.5-7.3,0.9c0.3,3.1-1.7,3.9-3.8,5.1c-3,1.8-4,1.4-4.9-1.9
			c-0.7-2.5-1.2-5.2-2.4-7.4c-1.5-2.8-0.3-4,1.9-5.3c2.7-1.6,5.5-3,8.4-4.2c2.3-1,2.7-2,0.4-3.6c-1.7-1.3-3-2.2-5.2-0.9
			c-1.5,0.9-3.3,1.4-4.8,2.2c-2.1,1.2-3.5,0.6-4-1.7c-0.9-3.8-2-7.5-2.5-11.4c-0.3-2-0.3-4,1.4-6c1.7-2.1,3.8-3.8,5.7-5.7
			c3.6-3.5,6.7-7.4,9.3-11.7c0.8-1.3,0.6-2.4-0.2-3.8c-1.8-3.1-4.9-4.6-7.5-6.8c-1.8-1.5-3.6-2.9-1.2-5.5c1.1-1.2,1.7-3.1,2.1-4.8
			c1-4.9-1.6-8.3-7.4-11.1c-7.1-3.4-14.8-3.8-22.5-3.3c-4.8,0.3-8.9-0.8-12.5-3.8c-1.1-0.9-2-0.9-2.7-0.2c-3.2,3.3-9.7,4.8-6.5,11.8
			c0.4,0.9,0.4,2.3,0,3.2c-0.8,1.6-0.5,3.2-0.5,4.8c-0.3,6.7,1,13.2,1.8,19.8c1,7.7,3.7,14.4,9.1,20c1.5,1.6,3.8,2.5,5.8,3
			c3.2,0.7,3.4,0.4,1.6,3.2c-1.5,2.4,0,4,1.6,4.6c2.9,1.1,6.1,1.3,9-0.8c1.6-1.2,3.3-2.2,5.1-3.1c1.4-0.7,3-0.8,3.2,1.2
			c0.3,3.9,1.4,7.6,2.6,11.4c0.3,1.1,0.1,2.1-1.3,2.8c-5.6,2.9-11.1,6-17.5,7.3c-1.5,0.3-2.4,2.4-2,4.2c0.4,1.5,0.9,3,3.2,2.9
			c3.1-0.1,6-0.8,8.7-2.5c2.5-1.6,4.9-3.3,7.5-4.8c1.8-1,3.3-1.5,4.3,1.4c1.2,3.3,1.7,6.7,2.7,10c0.8,2.4-0.2,3.7-1.7,4.6
			c-3,1.7-5.7,3.9-9.4,4.3c-1.3,0.1-2.4,0.9-3.2,1.9c-1.9,2-1.4,4.6,1.3,5.1c3.5,0.7,7.4,0.4,9.9-2.1c3.9-3.9,9.1-5.3,13.2-8.9
			c4.3-3.8,9.6-6.3,15.1-8.4c0-0.9,0-1.7,0-2.6C756.1,108.2,754.9,107.1,753.6,106z M717.4,62.9c-2.6,3.6-4.1,8.1-9,9.5
			c-0.6,0.2-1.2,0.3-1.8,0.3c-2.5,0-3.7-1.8-4.7-3.7c-0.4-0.8-0.4-2,0.7-2.6c3.9-2.1,8.2-3.5,12-6c0.7-0.4,1.7-0.4,2.4,0.3
			C717.6,61.4,717.7,62.4,717.4,62.9z M695.2,30.8c0.3-1.9,1.8-3.6,3.5-3.6c4.2-0.1,8.1-2.2,11.8-1.4c1.1,0,1.6,0,2.2,0
			c5.5,0,5.6,0.1,3.2,5c-0.8,1.7-0.7,3.5-0.4,5c0.7,3.8,0.7,7.6,1.2,11.4c0.2,1.5-0.3,2.7-1.6,3.3c-5.4,2.3-10.1,6-15.8,7.6
			c-1.8,0.5-2.5,0.5-2.9-1.5C694.5,48,693.8,39.4,695.2,30.8z M726.6,29.5c0.2-0.9,1-1.4,2-1.1c0.9,0.2,1.4,0.9,1.2,2
			c-0.3,0.8-0.8,1.3-1.8,1.2C726.8,31.3,726.4,30.5,726.6,29.5z M731.3,49.6c-0.9-0.7-1.2-1.6-0.3-2.5s1.6-0.5,2.5,0.2
			c2.1,1.4,4,2.8,4.2,5.1c0,1.1,0,1.7-0.5,2.2c-2.1,2.2-4,4.5-6,6.7c-1,1.1-2.2,1.6-3.4,0.4c-1-1-0.9-2.2,0.2-3.1
			c1.6-1.5,2.1-3.7,3.7-5.2C732.7,52.3,732.9,50.8,731.3,49.6z"/>
		<path fill="#02A93D" d="M421.3,135.8c-3.7-3-7.4-6-11.3-8.7c-1.6-1.1-3-2.9-5.2-2.8c-1.7,0.1-2.4-0.5-2.4-2.1s-0.1-3.2,2.2-3.1
			c0.8,0,1.7-0.1,2.5-0.3c4.4-1.3,8.9-2.5,13.3-3.7c-2.6-1-3.1-4.7-7-4c-3.4,0.6-6.6,1.4-9.7,2.6c-2.2,0.8-2.7-0.9-3.6-1.8
			c-0.8-0.8-0.3-2,0.7-2.4c2.5-1,2.9-3.5,4.3-5.3c3.3-4.6,5.3-10.3,10.8-13.3c1.1-0.6,2.8-2.7,2-3.4c-3.1-2.8-0.9-5.8-0.3-8.2
			c1.3-5.8,0.6-11.6,0.4-17.4c-0.3-5.9-2.1-11.7-4.8-17.2c-3.8-7.8-8.1-14.8-17.1-17.3c-4.3-1.2-8.7-1.4-12.8,0.9
			c-2,1.1-3.9,3.1-3.1,5c0.7,1.7,0.7,3.3,0.8,4.9c0.4,4-0.7,8,0.6,11.9c0.2,0.7,0.1,1.6-0.7,2c-0.9,0.5-1.8,0.5-2.7-0.1
			c-2-1.4-4-3-6.3-3.3c-3.6-0.5-7.1-1.3-10.6-2c-3.4-0.8-6.1,2.2-5.3,5.6c0.9,3.8,0.1,5.8-3.2,7.1c-8.3,3.5-16.9,5.6-25.6,7.5
			c-1.6,0.4-2.3,2-3,3.3c-0.5,1,0.3,1.9,1.1,2.8c2.6,2.9,6.5,3.7,9.7,5.7c2.7,1.8,5.6,3.3,8.9,2.4c0.5-3.8-2.3-4.7-5-5.6
			c-1-0.4-2-0.7-1.7-1.8c0.2-1.1,0.5-2.6,1.9-2.7c5.7-0.6,10.8-3.3,16.1-5.2c1.7-0.6,3.1-0.4,3.7,2.2c1.3,5.7,2.6,11.5,3.7,17.3
			c0.4,2-0.6,3.4-2.1,4.3c-1.1,0.7-2.4,1.3-3.7,1.7c-1.2,0.4-2.9,1.4-2.5,2.9c0.4,1.4,0.7,3.3,3,3.6c3.4,0.6,9-2,11.3-5.7
			c4-6.4,9.4-11.9,12.8-18.8c0.5-1,1-2.1,2.3-1.7c1,0.3,1.5,1.3,1.9,2.4c1.1,2.5,0,5.3,1.1,7.8c2.2,5.2,4,10.5,6.2,15.7
			c0.5,1.2,0.9,2.5-0.3,3.1c-1.9,1-3,3-5.2,3.7c-1.6,0.5-3.2,1.9-3,3.5c0.3,1.8,1.6,3.5,3.8,4.1c3.9,1.1,3.9,1.2,1.6,4.7
			c-0.4,0.6-0.7,1.3-1.1,1.9c-1.2,1.8-2.1,4.6-3.6,5c-3.9,0.9-4.9,3.2-6,6.7c-0.8,2.4-1.4,4.5,0.3,6.1c1.9,1.8,4.3,0.6,6.1-0.5
			c1.6-1,2.6-0.8,3.9,0.3c8.8,7.4,18.7,10.8,30.2,7.5c2.1-0.6,3.5-1.8,4.2-3.5C424.7,137.9,422.6,136.8,421.3,135.8z M381.6,60
			c-0.5,3.1-1.9,6.5-4.3,9.3c-2,2.3-3.9,4.8-5.8,7.2c-0.9,1.1-1.9,1.9-3.3,1.3c-1.2-0.5-0.9-1.8-1-2.8c-0.5-3-1.1-6-1.7-9
			c-0.4-2.2,0-3.7,2.5-4.5c3.2-1.1,6.3-2.8,9.2-4.5c1.2-0.7,2.3-0.8,3.3-0.5C381.9,57,381.5,58.3,381.6,60z M410.9,79
			c-0.7,1.3,0.2,3.9-2.8,4.2c-1.1,0.1-1.2,1.4-1.7,2.2c-1.1,1.8-2.5,3.2-4,4.6c-1.4,1.3-3.1,2.8-5,0.9c-2.2-2.3-2.3-5-0.8-6.9
			c2.8-3.6,7.2-4.9,10.5-7.7C409,74.8,411,76.2,410.9,79z M389.4,52.4c0.1-0.9-0.4-1.9,0.5-2.7c3.6-3.3,1.5-7,0.8-10.6
			c-0.3-1.6-2.7-3.5-0.3-4.7c2-1,4.4-0.5,6.7,1c4,2.7,6.6,6.4,8.6,10.7c1,2.2,2,4.4,2.7,6.7c0.6,2-0.4,3.3-2.5,2.8
			c-4.4-1-8.6-1.4-13,0C390.3,56.4,388.9,55.2,389.4,52.4z M391.3,70.4c-0.8-5.5,0.4-6.9,6.7-7.4c0.5,0,1.1,0,1.6,0
			c1.1,0.1,2.5-0.4,3.2,0.9c0.7,1.2-0.8,1.8-1.1,2.8c-1,3-3.4,4.6-5.8,6.1C393.6,74.3,391.8,73.3,391.3,70.4z M410.9,136.5
			c-0.4,1-1.5,1.2-2.2,1c-6.3-0.5-11.2-2.9-14.9-7.6c-0.9-1.1-1.8-2.1-0.9-3.4c1-1.5,2.7-1.1,3.9-0.6c3.3,1.4,6.8,2.8,9.5,5.3
			c1.1,1,2.3,1.9,3.4,2.8C410.6,134.6,411.3,135.4,410.9,136.5z"/>
		<path fill="#02A93D" d="M521.5,118.7c-1.1-1.6-2.4-3.4-4-3.2c-1.4,0.1-1.2,2.2-0.9,3.9c0.2,1.2-0.1,3.2-1.8,3.7
			c-1.8,0.5-2-1.3-2.5-2.3c-0.9-1.9-1.4-4-2.2-5.9c-1-2.2-0.4-3.4,1.8-4.2c3.4-1.2,6.5-2.9,9.3-5.2c2.3-1.9,1.7-3.1-0.1-4.4
			c-5.2-3.9-10.5-7.7-16.4-10.6c-1.5-0.7-2.7-2.1-4.6-0.6c-2.1,1.6-2.9,3.6-2.2,5.9c1.1,3.3,1.1,6.9,2.4,10.1c0.5,1.4,0.1,2.4-1.8,3
			c-5.1,1.5-10.2,3.1-15.5,4.1c-2.8,0.5-6.1,0-7.6,3.5c-0.1,0.3-1.3,0.3-1.8,0.1c-1.2-0.3-5.1-6-5.1-7.3c0.2-9.2,2.2-18,4.5-26.9
			c0.3-1.1,1-2.1,1.7-2.1c3.2-0.3,5.6-2.3,8.4-3.5c7.7-3.2,15-7.5,22.5-11.3c2.1-1.1,1.9-2.5,0.4-3.7c-2-1.6-4.2-3.5-6.8-3.9
			c-3.5-0.5-6.8-1.6-10.1-2.6c-5.2-1.6-9.2-0.2-13,3.5c-3.9,3.8-5.4,8.8-6.9,13.6c-0.9,2.8-2.1,3.7-4.5,4.4
			c-4.1,1.1-8.2,1.2-12.4,1.3c-2.2,0.1-4.4,1.2-4.8,3.8c-0.2,1.8,4.1,5.1,5.8,4.6c3-1,6.2-0.8,9.3-1.8c2.5-0.8,3.7,0.8,2.7,3.3
			c-0.4,1.1-0.8,2.1-1,3.3c-0.5,4.3-1.3,8.6-1.9,12.9c-0.6,4.6-1,9.1-1.5,13.7h0.1c0,0.2,0,0.4,0,0.7c0,4.7,0,4.7,4.6,4
			c1.2-0.2,1.9,0.4,2.8,1.2c2.6,2.3,3.9,5.6,6.5,7.9c3.8,3.5,8.1,5.4,13.3,4.6c1.7-0.2,3.2-0.9,3.4-2.6c0.1-1.7-3.1-3.1-4.9-2.8
			c-1.5,0.2-3.3,0.8-4.6-0.7c-1.7-1.9-3.7-3.5-5.2-5.7c-0.8-1.3-1.1-2.4-0.7-3.6c0.5-1.5,2-1,3.1-1c6.5,0,12.6-2.2,18.7-4.2
			c3.9-1.3,4.6-1.6,6.1,2.2c1.8,4.6,4.5,8.6,7.6,12.3c2.6,3.1,6.2,4.8,10.5,4.1c1.3-0.2,2.6-1.2,2.1-2.3
			C522.9,127.6,524.4,122.7,521.5,118.7z M479,67.5c0.8-3.6,6.7-7,10.1-5.7c0.9,0.3,2.2,0.5,2.3,2c0,0.9-0.6,1.4-1.5,1.8
			c-2.8,1.3-5.5,2.6-8.1,4.1c-0.9,0.5-1.5,0.7-2.3,0C478.7,69.1,478.8,68.2,479,67.5z M507,101.5c0-1.1,0.4-2.1,1.6-1.9
			s2.9,0.4,2.9,2.3c0,1.4-1.1,1.6-2.3,1.6C507.9,103.5,507,103.1,507,101.5z"/>
		<path fill="#02A93D" d="M630.9,132.7c-2.2,0.4-4.2,1-6.8,0.1c-4.7-1.8-9.3-3.9-14.4-4.6c-1.1-0.1-3-0.6-2.6-2.2
			c0.5-2.4,0.6-4.9,2.7-6.9c3.2-3,5.4-6.8,6.9-10.9c0.5-1.4,1.2-3.4-0.5-4.2c-2.3-1.1-3.3-4.6-6.9-3.4c-2.8,0.9-5.6,1.6-8,3.5
			c-1.2,0.9-2.5,1.1-3.6-0.4c-2.7-3.5-2.4-10.5,0.8-13.5c4.8-4.5,9.7-8.8,14.5-13.3c0.6-0.6,1.5-0.9,0.8-2.3c-1.6-3.2-6-4.7-8.1-1.9
			c-3.8,4.9-9.1,8.2-13.1,12.9c-2.6,3-5.8,5.4-9,7.7c-1.2,0.8-2.4,1.5-4.1,0.8c-1.8-0.7-5.5,2.4-5.6,4.3c-0.1,2.3,2.2,4.6,4.7,4.4
			c2.9-0.2,5.5-1.1,7.9-2.7c2.9-1.9,3.9-1.7,4.5,1.7c1,5.8,4.9,10.9,4.2,17.1c0,0.3,0.1,0.7,0.3,0.9c1.4,1.2,1.5,2.8,0.5,4
			c-1.1,1.3-2.9,0.7-4.3,0.5c-2.5-0.5-5-1.1-7.5-1.2c-5.5-0.2-11.1-0.8-16.4-2c-1.9-0.4-4.5-0.8-5-2.9c-0.5-2.2-1.5-4.2-2.4-6.1
			c-1.5-3.4-1.4-7.8-5.4-10c-1-0.6-1.5-2.4-3.1-1.3c-1.7,1.2-3.2,2.4-2.5,4.9c0.5,1.6,1.8,2.6,2.6,3.9c2,3,1.8,4.1-1.7,5
			c-3.2,0.8-3.9,3.5-1.7,6c2.7,3.1,5.3,6.2,8,9.3c1.9,2.1,3.7,4.3,6.2,5.7c2.1,1.2,3.5,0.2,4.8-1.1c1.5-1.4,0.8-2.7-0.4-3.9
			c-0.5-0.5-0.9-1.2-1.2-1.8c-0.6-1.7,0.1-2.8,1.8-2.4c7.7,1.9,15.7,1.4,23.5,2.4c9.2,1.1,17.8,3.9,26.5,6.8
			c4.5,1.5,8.9,3.2,13.6,3.9c1.8,0.2,3.3-0.7,5-1c0.7-0.2,1.7-0.5,1.3-1.7C637,134.5,633.1,132.3,630.9,132.7z M608.3,108.8
			c-1.2,3.7-2.3,7-3.6,10.8C602.7,113.1,602.7,113.1,608.3,108.8z"/>
		<path fill="#02A93D" d="M691,98.4c-3.4-2.4-2.3-8-7.2-9.6c-1.2-0.4-1.9-0.8-3-0.3c-1.2,0.5-1.6,1.6-2.3,2.6
			c-1.1,1.6-2.7,1.8-4.2,0.9c-1.7-1-1.7-2.3-0.2-3.7c0.5-0.5,0.7-1.3,0.9-2c2.5-7.6,5.8-14.8,9.2-22c0.4-0.9,0.2-1.6-0.1-2.2
			c-1.2-2.3-5.8-3.5-7.8-1.9c-1.8,1.5-3.8,2.6-5.8,3.8c-10,6.4-18.9,14.5-30,19.3c-1.3,0.5-2.2,1.3-2.1,3.3c0.2,1.3,0.6,3,2.3,4
			c2.1,1.3,4,0.6,5.9-0.8c7.4-5.7,14.9-11.3,22.3-17c0.9-0.7,1.8-0.8,2.7-0.3c1,0.6,0.9,1.4,0.5,2.5c-1.5,3.9-2.7,7.9-4.1,11.9
			c-3,8.8-5.6,17.7-10,26c-0.6,1.2-2.3,2-1.6,3.8c0.4,1.1,0.9,2,2.5,2c1.8,0,3.6,0.1,4.3-1.9c1.5-3.9,3.4-7.6,4.7-11.6
			c0.4-1.2,0.1-3.2,2.1-3.5c2.1-0.3,2.7,1.4,3.5,2.8c0.3,0.5,0.5,1.1,0.9,1.7c2.6,4.7,5.7,6.1,10,4.7c1.5-0.5,2.1-1.4,0.7-2.6
			c-2.3-1.9-3.6-4.5-5.3-6.8c-0.8-1.1-1.8-2.8-0.1-4c1.6-1,2.9,0.3,3.7,1.4c1.8,2.4,4.1,2.5,6.7,1.7C691.3,100.1,691.9,99,691,98.4z
			"/>
		<path fill="#02A93D" d="M561.4,98.6c5.3-2.4,6.4-5.1,3.8-9.8c-1.7-3-1.7-3,1.9-3.1c0.4,0,0.7-0.4,1.1-0.6c8-4.1,15-9.8,22.2-15
			c4.7-3.4,9.9-6.2,15.4-8.2c2.7-1,5-2.6,7.3-4.2c0.4-0.3,1.1-0.5,0.7-1.4c-0.8-2.2-4.3-3.9-6.6-3.3c-4.1,1.2-7.6,3.5-11.2,5.5
			c-8.7,4.8-16.5,10.9-24.8,16.3c-1.7,1.1-3.5,2.5-5.7,2.4c-1.4-0.1-2.4,0.4-3.4,1.4c-2,2-4,1.8-6.3,0.1c-2.8-2.1-5.6-4.1-9-5.1
			c-1.2-0.4-1.5-0.1-2.2,0.9c-2.5,3.6-2.2,4.5,1.9,6.1C554.8,83.8,560.4,89.4,561.4,98.6z"/>
		<path fill="#02A93D" d="M599.5,34.9c-3.6,1.7-7.3,3.1-10.9,4.9c-7.6,3.7-15.4,6.9-23.2,10.2c-3.3,1.4-6.4,3.2-10.1,3.2
			c-2.1,0-3.4,1.7-3.2,4c0,3.3,2.5,5.1,5.8,4.1c3.7-1.1,7-3.2,10.5-4.8c12.2-5.7,24.2-11.7,36.8-16.6c1.1-0.4,2.4-1.5,1.5-3
			C605.5,34.6,602,33.8,599.5,34.9z"/>
		<path fill="#02A93D" d="M556.3,17.8c3.6,0.3,7.2-0.2,10.9,0.5c4.4,0.9,8.9,1.6,13.1,3.2c5.2,2.1,11.8,1.2,15.2,7.2
			c0.1,0.1,0.4,0.1,0.6,0.1c2.3,0.2,5,0.4,6-1.8c1.1-2.3-0.8-3.8-2.9-5c-0.8-0.5-1.6-0.8-2.5-1.2c-5.9-2.5-12.1-3.9-18.2-5.8
			c-7.1-2.2-14.2-4-21.7-4.5c-0.9,0.2-2-0.3-3,0.5c-1.6,1.2-2.3,2.8-1.7,4.5C552.8,17.3,554.6,17.7,556.3,17.8z"/>
		<path fill="#02A93D" d="M645.9,53.4c8.3,1.2,16.6-0.8,24.8,1c1.1,0,2.3,0.3,3.2-0.1c1.1-0.4,2.7-0.9,2.7-2.2c0-1-1.1-1.8-2.1-2.5
			c-2.1-1.4-4.2-1.7-6.6-1.7c-4,0-8-0.1-11.9-0.7c-3.3-0.4-6.8-0.7-9.8-2.3c-2.3-1.2-3.7-0.3-5.1,1.2c-1.4,1.6-2,3.4-0.3,5.3
			C642.3,52.8,643.8,53,645.9,53.4z"/>
		<path fill="#02A93D" d="M227.6,119.3c-0.1-6.1-0.5-12.2-1.9-18.2c-1.9-8.3-3.9-16.7-7.5-24.6c-5.9-12.8-12.4-24.9-27.1-30.1
			c-4.9-1.7-9.8-3-14.9-3.7c-10.6-1.4-19.3,3.4-27.7,9c-2.4,1.6-2.8,3.8-2.1,5.7c2.4,6.8,0.6,13.9,1.7,20.8c1.1,7,0.7,14.2,1.6,21.2
			c0.3,2.6,0.1,5.3,0.8,8c1.8,7,1.8,14.2,3.5,21.3c1.5,6,2.6,12.1,5.4,17.7c1.4,2.9,3.6,4.8,7.2,4.1c0.7-0.1,1.7,0.5,1.9-0.6
			c0.1-0.6-0.6-1-1.2-1.3c-1.6-1-3.3-2.2-3.9-4.1c-2.3-7-4-14.2-5.1-21.5c-0.9-5.6-1.2-11.2-1.2-16.9c0-2.4-0.9-4.8,1.6-5.1
			c1-0.1,1.8,0.7,3,0.3c1-0.3,1.8-1.3,2.5-2.1c3.5-3.8,8-6.3,12.2-9.3c2.5-1.7,3.8-0.8,4.8,2.1c0.9,2.4,0.9,5.1,2.1,7.2
			c1.7,2.9,1.4,5.4,0.1,8.2c-1.2,2.6-1.6,5.5-1.4,8c0.2,4.1,1.3,8.3,2.5,12.3c0.8,2.4,1.6,4.9,3.6,6.9c1.6,1.6,3.2,1.7,4.8,1.4
			c1.7-0.3,1.9-2,2-3.6c0.1-1.7-0.6-3.2-0.8-4.7c-0.6-4.2,1.5-7.6,2.7-11.2c3-9.2,0.6-10.8-5.5-13.1c-0.9-0.3-1.6-1.2-1.9-2.4
			c-1-4.9-2.1-9.7-3.2-14.5c-0.4-1.7,0.2-3,2-3.9c3.2-1.6,6.3-3.4,9.3-5.2c1.8-1.1,2.5-2.4,0.9-4.5c-2.1-2.8-5.1-3-7.9-2.6
			c-3.2,0.4-6.3,0.9-9.5,1.2c-3.1,0.3-5.5,3.3-4.2,5.3c1.7,2.5,1,3.9-1.5,5.4c-4.4,2.6-8.7,5.5-13,8.4c-1.7,1.1-3.2,2.3-5.2,3
			c-1.5,0.5-2.4-0.1-2.4-1.6c0-5.1,0-10.2,0-15.3c0-6.8-1.5-14.8,2.7-20.7c6.7-9.3,21.5-7.7,31.1-5c8.6,2.5,14.3,9.4,18.8,17.1
			c5.2,9,9.1,18.3,11.2,28.6c2.5,12.3,3.9,24.5,2.2,36.9c-0.6,4.5-2.7,8.5-6,11.6c-2.4,2.2-4.3,1.9-5.4-0.4c-1-2,0.5-2.3,1.7-3.1
			s1.8-2,1.1-3.4c-0.8-1.6-1.9-0.4-2.7-0.1c-2.1,0.9-4.2,1.7-6.3,2.8c-7,3.8-13.9,7.9-21.6,10.1c-2.1,0.6-3.8,1.3-3.8,3.5
			c0.1,2.3,2.1,2.8,4.1,3.1c3.8,0.7,6.8-1.5,9.9-2.9c4.3-1.9,8.3-4.6,12.4-6.8c1.3-0.7,3.1-1.6,4.2-0.3c3.5,3.8,7.4,1.8,10.5,0.3
			c7.1-3.5,8.7-11,8.8-18.4C227.6,126.1,227.7,122.7,227.6,119.3z M189.4,112.6c0.2-0.6,0.2-1.7,1.3-1.3c0.8,0.3,1.4,0.9,1,2
			c-0.9,2.6-1.7,5.2-2.5,7.8C188.7,118.3,188.6,115.4,189.4,112.6z"/>
		<path fill="#02A93D" d="M136,136.2c-1.3-5-3.3-9.7-4.8-14.6c-1.8-5.9-4.2-11.6-6.2-17.5c-0.6-1.8-0.6-3.4,0.9-5
			c2.1-2.3,3.7-5.2,5.8-7.6c2-2.2,0.3-4.1-1-4.8c-1.5-0.9-3.2-1.8-5.4-1.7c-2.4,0.2-4.5,1.2-6.8,1.4c-4.9,0.4-5.8,4-4.1,7.8
			c1.3,2.7,0.6,4.5-2.4,5.3c-3.3,0.9-4.4,2.3-3.7,5.5c0.6,2.5,1.8,4.6,5,4.4c1.9-0.1,3.9,0,5.9,0c1,0,1.7,0.2,2.1,1.1
			c1.8,4.3,3.8,8.6,5.2,13.1c1.4,4.3,3.5,8.3,5.5,12.4c2.1,4.2,3.4,8.6,5.5,12.8c0.6,1.1,1.3,2.4,2.6,2.7c-0.3-2.6-0.4-5.3-1.3-7.7
			C137.9,141.2,136.7,138.8,136,136.2z"/>
		<g>
			<path fill="#02A93D" d="M414.6,258.4c-1.5-1.3-1.7-2.5,0.5-3.3c1.2-0.4,2.2-1.1,0.9-2.4c-3.8-4-8-7.4-13.9-7.4
				c-4,0-7.7,1.4-11.6,1.7c-6.6,0.5-7.2,0.9-5.5-5.2c0.3-1,0.5-2.1,0.7-3.1c0.4-1.9,1.2-3.3,2.9-4.1c4.2-2,7.8-5,11.5-7.7
				c4.5-3.2,4.5-6.8,0-9.9c-1.1-0.8-2.8-1.2-3.5-2c-1.4-1.5-4.5-0.1-4.6-2.7c0-2.1,0.5-4.7,2.2-6c1.4-1.1,2-2.6,1.9-3.7
				c-0.6-5.4,2-9.3,5.3-13c0.6-0.7,0.6-1.8,0.2-2.1c-1.4-1.2-3-2.5-4.7-3c-1.5-0.4-2.4,1.3-3,2.5c-1.3,2.4-2.7,4.8-3.3,7.5
				c-0.5,2-1.3,2.8-3.6,3.1c-4.5,0.7-9.1,0.5-13.6,1.7c-3.1,0.8-6.9,2-9.6-1c-1.7-2-4-2.9-6.1-3.7c-1.3-0.5-3.3-1.9-4.9-0.1
				c-1,1.2-2.3,2.8-1,4.3s0.7,2.2-0.2,3.5c-1.4,1.9-1.7,4.5,0.1,6.1c2.7,2.3,6.4,4,9.7,3.7c2.9-0.2,3.6,1.1,4.2,2.7
				c2.2,6.3,4.1,12.8,6.4,19.1c0.6,1.7,0,2.7-1,3.2c-5.1,2-9.5,5.1-14.3,7.7c-3.2,1.7-7.1,1.6-9.7,4.4c0,0.9,0,1.7,0,2.6
				c1.9,0.2,0.7,2.9,2.9,3.4c2.5,0.5,4.5,0.2,6.4-1.3c5.2-3.9,11.3-6.1,16.6-9.7c1-0.7,3.1-2,4.3-0.2c0.9,1.3,0.8,2.9-0.3,4.5
				c-0.9,1.3-2,3.5-1.5,4.4c2.2,4.1-0.3,7.7-0.8,11.4c-0.7,5-1.9,10-2.1,15.1c-0.1,1.2,0.2,3.5,1.3,2.8c1.5-0.9,4.4-0.1,4.5-3.1
				c0.4-6.4,1.6-12.6,2.6-18.9c0.3-2.2,1.6-2.5,3.1-1c2,2.2,2.9,5.1,4.1,7.7c0.1,0.3-0.1,0.8-0.3,1.2c-1.7,3.8-0.3,6.2,4,6.5
				c1.1,0.1,1.8,0.5,2.4,1.3c1.5,2,3.1,4.1,5.4,5.4c0.8,0.5,1.3,1.3,0.7,2.5c-1.2,2.5,0.1,4.2,2.3,5c2.4,0.9,4.9,0.3,6.2-2
				c3-5.4,5.8-10.9,8.6-16.4C420.1,264.8,419.5,262.7,414.6,258.4z M402.2,273.9c-0.3-1.4-3-2.2-1.1-4.1c3-2.9,6.1-5.7,9.2-8.6
				c0.5-0.5,1.2-0.5,1.8-0.2c0.8,0.4,1.1,1.3,0.8,1.9c-2.4,4.1-4.5,8.5-7.5,12.3c-0.2,0.3-0.7,0.5-0.8,0.6
				C402.7,276.1,402.3,274.8,402.2,273.9z M395.5,261.6c-0.8,0-1.2-0.5-1.5-1.1c-0.7-1.3-1-2.7-1.8-4c-0.7-1.1-0.4-2.5,1.5-2.8
				c3-0.5,5.9-1.3,8.9-1.9c0.9-0.2,1.8-0.1,2.3,0.8c0.3,0.6,0.3,1.2-0.1,1.8c-2.4,2.9-5.8,4.7-8.6,7.1
				C396,261.6,395.7,261.6,395.5,261.6z M378.9,228.9c-1,0-1.7-0.4-1.9-1.4c-0.8-3.7-1.6-7.3-3.1-10.8c-0.7-1.6,0-3,2.8-2.8
				c1.3,0.3,3.2,0.8,5.1,1.4c1,0.3,1.1,1.2,1,2.2c-0.5,3.4-1.9,6.7-2,10.2C380.8,228.6,379.9,229,378.9,228.9z M371.1,208.8
				c0.1-1.2,1.1-1.3,2.1-1.5c2.4-0.4,4.7-1.1,7.1-1.4c1.7-0.2,3.6-1.2,4.7,0.3c1,1.4-0.3,3.1-0.7,4.7c-0.5,2.1-2.2,1.7-3.8,1.7
				c-2.5,0.2-5-0.8-7.6-1.4C372,210.9,371,210.1,371.1,208.8z M390.7,220.6c0.1-1,0.7-1.6,1.7-1.5c1.1,0.1,1.4,0.8,1.5,1.6
				c-0.2,1.1-0.8,1.7-1.8,1.6C391.2,222.3,390.6,221.6,390.7,220.6z"/>
			<path fill="#02A93D" d="M1076.2,191.9c-1.4-1.8-2.7-3.6-4-5.5c-0.4-0.2-0.8-0.5-1.2-1c-2.3-3-4.9-5.7-7.5-8.4
				c-5.7-6.1-10.8-12.7-16.2-19c-3.6-4.2-6.9-8.6-10-13.1c-1.8-2.6-2.2-6.4-6-7.6c-0.9-0.3-1.9-0.7-2.4-0.3
				c-0.5,0.5-0.7,1.6-0.7,2.5c0,1.8,1.3,3,2.6,3.9c1.6,1,2.7,2.4,3.5,3.9c4.1,7.2,10.6,12.3,15,19.4c2.4,3.9,6.4,6.9,9.2,10.9
				c4.2,5.8,9.3,10.8,13,17c2.4,4,2.3,7.4-0.7,10.7c-2.3,2.6-4.9,4.9-7.8,6.7c-6.7,4.2-13.9,7.3-21.3,10.1
				c-8.4,3.1-16.4,4.2-23.8-2.2c-5.6-4.8-7.8-11-8.3-18.1c0-0.3,0.3-0.8,0.6-1.1c4.6-3.6,6.6-9.1,10-13.5c3.1-4,5.5-8.3,9.8-11.3
				c0.5-0.4,2.1-1.1,1.9-2.9c-0.2-1.9-1-3.4-2.4-3.9c-1.9-0.7-4-0.5-5.8,0.9c-4.6,3.6-10.2,5.3-15.6,7.3c-1,0.4-2.8,0.6-3-1
				c-0.4-2.7-0.7-5.7,1.3-7.9c3.4-3.7,5.5-8.2,8.3-12.3c2.3-3.3,1.8-3.7-2.2-4.4c-1-0.2-1.3,0.2-1.8,0.6c-1.8,1.3-2.8,3.2-3.7,5.1
				c-0.4,1-0.9,1.8-2.1,1.5c-1-0.3-1.9-1-2-2.3c0-0.8,0.1-1.6,0.4-2.5c0.6-2.1,0.3-4.1-0.6-6.2c-0.8-1.8-2.4-1.6-3.6-1.6
				c-1.2-0.1-3,0.5-3.3,2c-0.5,2.4-1.4,5.2-0.6,7.2c1.6,3.9,0.8,7.6,1.1,11.5c0.4,4-1.7,6.7-3.6,10.1c-1.4,2.6-3,5.4-5.8,6.6
				c-2.5-2.4-4.8-5.3-5.4-8.8c-0.7-4.1-0.7-8.2-1.2-12.3c-0.8-6.9-0.8-13.6,1.9-20.1c1.1-2.7,1.3-4.7-1.1-6.5h-3.9
				c-1.3,0.7-2.9,1.2-3.2,3c-0.5,3.3-1.5,6.4-1.4,9.8c0.3,9.1,0.8,18.2,2.7,27c0.7,3.2,1.6,6.6,4.1,9c2.3,2.2,2.3,3.6-0.3,5.4
				c-3.4,2.3-6.9,4.4-10.2,6.8c-3.2,2.4-7,3.3-10.3,5.4c-1.5,0.9-1.4,2.1-1.2,3.6c0.2,1.9,1.4,1.9,2.7,1.9c1.9,0,3.7-0.3,5.5-1.2
				c4.9-2.4,9-5.8,13.5-8.7c10-6.4,21.2-10.4,31.9-15.4c1.6-0.8,2.5-0.1,2.6,1.6c0.2,2.8-3.9,9.2-6.5,9.8c-3.5,0.8-4.2,3.4-4.5,6.3
				c-0.2,1.4,0,2.8-0.9,4c-4.9,6.6-8.9,13.9-14.2,20.2c-1.9,2.2-0.2,4.1,0.4,5.9c0.3,1,2.4-0.1,3.8-0.2c1.3-0.2,1.6-1.3,1.8-1.9
				c1.7-4.1,3.9-7.9,6.5-11.5c1.1-1.5,1.4-4.1,3.5-4.2c2.3-0.1,2.6,2.7,3.7,4.3c7.3,11.5,15.8,14.3,28.4,12c4.9-0.9,9.2-3.2,13.7-5
				c7.4-3.1,14.3-6.8,20.7-11.5c3.5-2.5,6.4-5.8,8.3-9.6c1.5-3,0.5-5.9-1.4-8.5C1076.8,193.7,1076,192.9,1076.2,191.9z"/>
			<path fill="#02A93D" d="M472.8,225.2c-4.4-3.2-9.3-3.9-14.7-2.9c-2.7,0.5-5.6,0.1-8.3,0.8c-0.9,0.2-1.9,0-2.2-1
				c-0.3-0.8-0.3-1.6,0.3-2.4c5.4-6.5,8.8-14,11.4-21.9c0.7-2.2,2.2-4.7-0.4-6.6c-2.5-1.9-5.1-3.6-8.4-4.1
				c-8.9-1.3-17.9-0.2-26.7-2.5c-2.1-0.5-4.9,3.9-3.6,5.6c1.7,2.2,4,3.8,6.9,3.4c7.1-0.9,14.1-0.7,21.2-0.1c3.8,0.3,3.3,2.3,2.8,4.6
				c-1.1,4.9-3.3,9.4-6.2,13.6c-0.6,0.9-0.9,1.8-2.1,1.5c-1-0.2-1.9-1-1.9-2c-0.1-1.6-1-3-0.7-4.7c0.5-3.4-3-2.3-4.4-3.7
				c-0.9-0.9-2.3-1.1-3.5-0.1c-1.6,1.5-1.5,3.3-1,5.2c1,3.5,2.4,7,2.8,10.6c0.9,7.5,2.4,14.8,3.9,22.2c1.2,6.3,2,12.7,3.3,19
				c1,4.8,1.7,9.8,2.7,14.6c1.2,5.6,1.4,11.5,3.6,16.6c3,7.2,4.5,14.5,5.6,22c1,7.1,2.7,14.1,4.4,21.1c0.2,1,0.4,1.7-0.4,2.3
				c-0.8,0.6-1.6,0.4-2.3-0.4c-0.8-0.8-1.6-1.6-2.8-1.6c1.2,5.3,4.3,11.8,9.7,14.1c0.4,0,0.9,0,1.3,0c0.3-1.1,1.2-0.6,1.9-0.7
				c3.1-0.5,3.6-1.6,2-4.3c-0.2-0.4-0.5-0.7-0.6-1.1c-2.4-8.4-4.9-16.7-7.1-25.1c-1.4-5.6-2.9-11.2-3.9-16.9
				c-1.6-8.8-3.9-17.5-5.4-26.3c-1.3-7.6-2.6-15.2-3.9-22.8c-0.4-2.5,0.6-3.1,3.1-2.3c1.8,0.6,3.5,1.3,5.7,0.9
				c10.3-1.7,15.8-8.7,19.9-17.4C476.4,229.6,475.6,227.2,472.8,225.2z M455.9,243.7c-0.6,0.4-1.5,0.2-2.2,0.3
				c-1.6,0.2-2.6-0.4-3.2-2c-0.8-2-2.2-3.8-2.9-5.9c-1.6-4.4-1-5.2,3.4-5.9c4.1-0.7,8.3-0.5,12.4-1.2c3.2-0.6,4.3,1.6,2.8,4.5
				C463.8,237.9,460.2,241.1,455.9,243.7z"/>
			<path fill="#02A93D" d="M946,239.1c-4.6-2.1-9.3-4.3-14.3-5.6c-7.6-1.9-15.2-4-22.6-6.5c-2.7-0.9-3.4-2-2.3-4.6
				c0.9-2,1.6-4.2,1.9-6.3c0.5-3.9,0.4-7.8-3.3-10.6c-2-1.5-1.3-3.1,0.3-4.5c2.9-2.4,5-5.3,5.7-9.1c0.2-1.2,1-1.8,2.1-1.5
				c5.1,1.5,10.2,3,15.3,4.7c4.9,1.6,9.7,3.3,14.4,5.3c2.3,1,3.1-0.6,3.9-1.8c1.1-1.5-0.5-2.2-1.7-2.7c-3.4-1.4-6.6-3.1-10.1-4.2
				c-8.4-2.8-16.8-5.3-25.2-7.8c-1.4-0.4-2.3-1-2.6-2.4c-0.2-1.3,0.5-1.9,1.6-2.4c0.7-0.3,1.2-1.1,1.7-1.9
				c5.6-8.7,10.5-17.6,14-27.4c0.5-1.3,0.8-2.8-0.2-4c-0.9-1.1-2.3-1.5-3.8-1.2c-2.4,0.5-2.6,2.7-2.8,4.5c-0.4,3.7-1.7,7.2-3.3,10.4
				c-3.3,6.4-6.3,13-9.7,19.3c-1.1,2-2.2,1.7-3.6,1.6c-1.4-0.1-2.3-1-2.4-2.5c-0.4-5.2,0.4-10.3,0.9-15.5c0.5-6.3,1.8-12.5,1.7-18.8
				c0-1.8-3.5-4.8-5.1-4.2c-1.9,0.8-1.9,3.1-1.2,4.4c0.8,1.6-0.3,2.7-0.1,4c1.3,6.7-1,13.1-0.7,19.7c0.1,1.4-0.9,1.6-2,2
				c-1.3,0.4-3.3,0.5-3.7,2.2c-0.7,3.2-2.5,2.5-4.5,1.6c-8.7-3.8-17.6-7.3-25.8-12.2c-2.5-1.5-5.2-2.3-8.3-1.7
				c-1.8,0.4-3.3,0.6-3.3,2.7c0,1.8,2.8,4.2,4.4,3.9c1.2-0.3,2.7-1.4,3.2,0.4c0.5,1.6-0.5,2.9-2.1,3.7c-2.9,1.5-5.5,3.6-8.5,4.9
				c-3.5,1.5-6.6,4.2-10.7,4.2c-5.6-0.1-7.1,2.2-4.6,6.8c1.1,2,2.9,3.1,5,2.1c6.4-3.1,13-6,18.5-10.6c1-0.9,2-1.3,3.2-0.6
				c1.1,0.7,0.8,1.8,0.5,2.9c-1.6,6.8-4,13.2-7.1,19.4c-2.8,5.6-3.8,5.5-8.6,1.2c-2-1.8-3.8-4.4-7.4-3.7c-1.6,0.3-2.1,1.3-2.6,2.4
				c-0.5,1.2-0.2,2.4,1,3.1c3.5,2.4,6.9,4.9,10.6,6.9c1.1,0.6,2.3,0.9,2,2.3c-0.5,2-1.1,4.1-3.1,4.9c-1.6,0.6-2.3-1.1-3-2.3
				c-1.2,2.4-0.1,6.5,2.2,7.9c0.4,0.2,0.7,0.4,1.2,0.3c2.5-0.8,4.9-1.5,6.2-4.3c1.5-3.2,1.5-7.4,5.4-9.3c0.3-0.1,0.5-0.9,0.4-1.1
				c-1.7-3.6,0.8-6.2,2-9.2c0.4-1,1-1.9,1.9-2.1c4.5-0.8,9-1.7,13.5-2c4.6-0.2,6.6,2.5,4.3,5.6c-4.4,5.9-8.7,12-16.5,13.9
				c-2.1,0.5-2.2,2.4-1.9,4.2c0.2,1.7,0.7,2.8,3,2.4c2-0.3,3.9-0.6,5.9-1.2c4.4-1.4,7.5,0.9,6.9,5.1c-1,6.8-3.2,13.3-5.3,19.7
				c-0.7,2-0.5,3.5,0.5,5.1c1.1,1.5,2.5,0.1,3.4-0.2c1.6-0.4,2.8-1.7,2.7-3.8c-0.2-5.4,1.9-10.4,3.5-15.3c2.1-6.4,1.5-12-3.1-16.5
				c-1.5-1.4-1.3-2.4,0.1-3.7c2.5-2.3,4.6-5.1,6.4-7.9c0.8-1.2,1.5-1.6,2.8-1.6c2.7-0.1,5.1-0.6,6.6-3.4c1.9-3.7,5.3-6,9.2-7.3
				c1.8-0.6,3.9-1.1,5.3,0.8c1.3,1.7,0.4,3.3-0.5,4.7c-4,5.7-8.4,11.1-14.8,14.4c-1.8,0.9-1.6,3.1-1.3,4.4c0.2,1.1,1.6,2.5,3.8,1.5
				c2.1-0.9,4.4-1.5,6.1-3.1c0.9-0.8,1.9-0.9,2.8-1.3c1.9-0.8,2.9,0.3,2.4,2c-0.8,2.9-0.7,5.8-1.7,8.7c-0.6,1.8-1.3,2.1-2.9,2.1
				c-2.2,0-4.5-0.2-6.7,0.6c-1.2,0.5-2.7,0.8-2.9,2.4c-0.2,1.4,0.1,2.5,1.5,3.8c2.7,2.4,6,4.5,6.4,8.9c0.2,1.5,1.7,3.4,4.4,2.1
				c2.4-1.2,2.7-2.9,2.6-5.1c0-2.8,1.6-4.2,4.1-3.4c8.9,3,18.2,4.4,27.3,6.6c2.5,0.6,5.9,0.7,7,4c0.7,2.2,2.3,2.5,4.3,2.4
				c2.1-0.1,2.3-1.7,2.7-3.2C949,240.5,947,239.6,946,239.1z M886.5,184.2c-0.4,1.2-1.1,3.3-2,5.3c-0.6,1.2-1.5,1.1-2.7,0.3
				c-4.9-3.5-10.5-3-16-2.3c-0.9,0.1-1.9,0.2-2.8,0.3c-2.3,0.1-2.7-0.7-1.9-3c1-3.1,2.5-6,2.9-9.3c0.2-1.8,1.9-2.7,3.7-1.8
				c5.5,2.7,11,5.1,16.7,7.1C885.4,181.1,887,181.4,886.5,184.2z"/>
			<path fill="#02A93D" d="M827.3,271.3c-1.7-8.7-3.1-17.5-5.1-26.1c-2.2-9.3-5-18.4-7.4-27.7c-2.7-10.5-5.3-21-7.8-31.5
				c-2.4-10.3-4-20.8-5.3-31.3c-0.4-3.2-1.1-6.4-2-9.6c-0.8-2.9-4-4.8-6.6-4.3c-2.4,0.4-6.3,4.1-6.3,6.1c0,6.8-2.2,13.2-2.8,19.9
				c-0.3,3.8-1.4,7.4-6.6,7.9c-3.9,0.3-5,0.1-5-3.8c0-1.5-0.6-2.9-0.5-4.5c0.1-2.2-2.2-2.9-4.2-3.1c-1.5-0.1-2.9,0.5-3.2,2.1
				c-1.3,6.2-4.3,11.7-6.7,17.5c-1.4,3.4-2.8,7-5.3,9.9c-1.1,1.2-2.5,1.5-3.5,0c-0.8-1.1-1.9-2.7,0.4-3.7c1.4-0.6,2.2-2,1.8-2.9
				c-1-2.1-2.2-4.5-4.9-4.8c-7.1-1-14.2-1.6-21.3-0.7c-2.4,0.3-4.6,2.2-4.6,4.2c0,1.2,1.8,4.2,4.7,3.6c2-0.4,3.8,1.2,3.7,2.3
				c-0.2,2.6,2.5,5.6-0.4,7.7c-3,2.3-5.6,5.1-9.3,6.4c-1.1,0.4-2.1,1.4-1.7,2.8c0.3,1.1,0.6,1.8,1.9,2.4c4.3,2,6.5-1.2,9.1-3.4
				c0.7-0.6,1.2-1.6,2.2-1.3c0.9,0.3,1,1.2,1.2,2.1c1.6,9.7,5.4,18.7,9.8,27.5c3.3,6.5,6.6,8.9,12,8c-1.1-2.1-2-3.8-3.4-5.3
				c-2.9-3.3-5.1-7.2-6.9-11.3c-0.6-1.4-0.8-2.9,0-4c2.5-3.5,4-7.3,5.9-11.1c4.7-9.7,9.7-19.2,14.6-28.8c0.5-1,1.1-1.9,2.4-1.9
				c1,0,1.3,0.9,1.7,1.7c1.6,3.1,2.5,6.6,5.4,8.9c0.7,0.6,0.7,2.2-0.5,2.8c-2,1.1-1.9,2.6-0.9,4.1c1.1,1.6,2.4,2.8,4.8,1.5
				c3-1.7,5.9-3.6,8.7-5.7c4.5-3.5,10.4-4.8,14.3-9.6c1.2-1.5,2.6-0.2,2.6,1.6c0,2.5,0.7,4.8,1.2,7.2c0.6,2.9,2.6,5.6,3,8.1
				c2.3,14,6.4,28.1,10.1,41.9c3.8,14.2,6.4,28.4,9.1,42.7c1.1,5.6-0.1,7-4.7,5.7c1.7,1.1,2,3.1,3.1,4.6c0.9,1.3,2,2.7,3.5,1.7
				c1.6-1,4.1-1.7,3.4-4.7C829.3,286,828.8,278.6,827.3,271.3z M737.1,190c0-1.2,0.9-1.6,2-1.6c1.2,0,1.8,0.5,1.9,1.7
				c-0.2,1.2-0.9,1.6-2.1,1.6C737.8,191.6,737,191.2,737.1,190z M743.5,202.1c-0.3,2.9-2.4,5.4-4.2,5.2c-2.4-0.3-1.7-2.1-1.7-3.5
				c0-2.2,2-3.8,4.5-3.7C743.1,200.3,743.7,201,743.5,202.1z M788.7,167.9c0.8-3.7,1.6-7.3,2.6-10.9c0.3-1,0.5-2.5,2-2.6
				c1.7-0.1,1.7,1.2,1.9,2.4c0.8,4.4,1.6,8.9,2.5,13.8c0,1.3-1.2,1.6-2.6,1.4c-1.7-0.3-3.4-0.9-5.2-1.3
				C788.4,170.3,788.5,169.1,788.7,167.9z M798.9,181c-3.8,0.2-7.4,1.2-10.5,2.8c-1.3,0.1-2.2-0.3-2.2-1.3c-0.1-1.7,1.3-2.9,2.4-3.1
				c3-0.5,6-0.8,8.9-2.1c0.9-0.4,2,0,2.3,1.2C799.9,179.4,800,180.9,798.9,181z"/>
			<path fill="#02A93D" d="M719.9,257.5c-3.1-7.5-5.1-15.2-8.1-22.6c-3.2-8.2-5.5-16.7-7.9-25.2c-4.5-15.6-8.6-31.4-10.1-47.7
				c-0.2-1.9-1.3-4.1-4.2-3.8c-2.2,0.2-3.7,0.5-4.3,3.4c-1.4,6.8-2.8,13.6-4.6,20.3c-1.9,7.4-3,7.9-9.1,7.7
				c-1.9-0.1-2.7-0.9-3.3-2.7c-1.4-4.1-2-8.4-3.1-12.5c-0.6-2.4-2.6-2-4-2.3c-1.3-0.3-2.7,0.4-3.2,2c-1.2,4-3.2,7.7-5.1,11.3
				c-3.7,6.9-8.2,13.3-13.4,19.2c-1.2,1.3-2.2,1.8-3.9,0.8c-1.7-1.1-1.4-2.5-0.8-3.9c0.6-1.5,1.5-2.8,2.2-4.2
				c1.6-3.4,1.9-8.8-3.2-10.6c-2.1-0.7-4.1-1.1-6-0.9c-4.4-0.2-8.2,0.9-12.2,1.9c-1.4,0.3-3.4-0.5-3.3,2c0,1.5-0.7,3.3,0.6,4.3
				c2.4,1.8,2.4,4.3,2.8,6.9c0.4,2.4,0.2,4.8,1,7.2c1,2.9,1.4,6-1.6,8.4c-1.9,1.5-1.7,1.9,0.4,2.6c1.7,0.6,4,0.8,4.4,2.6
				c0.6,2.5,1.5,4.8,2.1,7.2c2.1,7.8,3.9,15.7,9.2,22.2c2.8,3.4,5.6,6.7,9.6,8.8c1.7,0.9,3.1,0.4,4.5-0.4c0.9-0.5,1.1-1.3,0.7-2.2
				c-0.7-1.5-1.8-2.3-3.5-2.1c-2.8,0.2-4.4-1.5-5.8-3.4c-2.7-3.6-5.4-7.2-6.6-11.7c-1-3.6-2.8-7.1-2.9-11c0-1.1-0.2-2.4,1.2-2.6
				c2.3-0.5,3.5-2.3,4.8-3.8c4.7-5.6,8.2-12.1,12.9-17.7c4.6-5.6,8.5-11.8,12-18.2c1.1-2.1,3.6-2.2,4.3-0.3c1.2,3,2.1,6.1,3.4,9.1
				c1.3,3,3.4,5.6,6.7,6.3c2.1,0.5,4.9-1,5.6-2.7c1.6-4.3,4.7-4.4,8.3-4.1c1,0.1,1.5-0.2,1.9-1.2c0.5-1.1,0.6-2-0.2-3
				c-0.8-0.9-1.8-1.5-3-1.7c-1.4-0.2-2.2-1.2-1.6-2.2c1.6-2.8,1.8-5.8,2.5-8.8c0.3-1.2,1.1-2.2,2.5-2.1c1.2,0.1,1.2,1.1,1.5,2.1
				c1.9,7.7,3.9,15.4,6,23.1c3.4,11.9,7.6,23.5,11.3,35.2c3.8,12,7.1,24.3,11.1,36.3c0.8,2.3,1.7,5.4,0.1,8.4
				c-0.7,1.4,0.3,3.3,1.5,4.3c1.4,1.1,3.3,0.1,4.1-0.7c2.7-2.5,2.4-7.5,1.1-12.6C723.9,266.5,721.1,260.6,719.9,257.5z M624.9,205.8
				c-3,0.8-2.1-1.8-2.2-2.7c-0.2-3,0-5.1,3.2-4.9c1.5,0.1,1.6-0.8,1.1-1.8c-0.8-1.6-0.4-2.5,1.3-2.7s2.9,0,2.9,2.3
				C631.2,199.5,628.1,205,624.9,205.8z"/>
			<path fill="#02A93D" d="M550.6,236c3.9-3.4,7.4-7,5.5-12.9c-0.9,0.6-2.1,1.4-3.2,2.2c-1.1,0.8-1.9,1.9-3.2,2.6
				c-2.5,1.4-4.1,0.9-4.1-2c0.1-4.5-1.5-8.6-2.1-12.8c-1-6.9-9.1-10.7-14.1-8.2c-2.8,1.4-5.5,3.2-7.8,5.3c-6.3,6-5.5,10.6,2.2,14.5
				c1.3,0.7,1.4,0.9,2.2-0.5c1-1.9,2.2-1.7,3.3,0.3c1.8,3.4,0.6,6.2-3.1,7.1c-1.3,0.3-2.7,0.5-4,0.9c-2.5,0.9-2.7,3.6-2.4,5.2
				c0.2,1.5,2.4,2.2,4.5,1.3c1.5-0.6,2.9-1.1,4.1-2.2c1.3-1.2,2.9-0.6,2.7,0.9c-0.4,2.8,1,5.5,0,8.1c-0.9,2.5,0.2,4.3,1.2,6.1
				c0.5,0.9,0.6,1.7,0.9,2.6c1.5,5.3,2.2,10.9,5.8,15.5c1.7,2.2,4.7,3,6.9,1.4c2.5-1.8,3.6-5.2,6.6-6.7c0.7-0.4,0.4-1.9,0.2-2.8
				c-1.9-5.8-2.2-12-3.8-17.9C548,240.9,548,238.2,550.6,236z M534.6,222.1c-0.1-1.9-1.4-4.9,0.6-5.4c1.6-0.4,1.7,2.9,2.5,4.6
				c0.7,1.5,1.2,3.2,2,5.1C534.4,226.5,535,227.5,534.6,222.1z M543.7,257.3c-0.5,0.5-1.2,0.6-1.8,0.3c-0.7-0.4-1.1-1-0.9-1.9
				c0.2-0.6,0.7-1,0-1.6c-0.9-0.7-0.9-1.6-0.1-2.5c0.5-0.5,1.2-0.6,1.8-0.3c0.9,0.5,1.2,1.2,0.8,2.2c-0.8,0.7,0,1.1,0.4,1.5
				C544.5,255.8,544.4,256.5,543.7,257.3z"/>
			<path fill="#02A93D" d="M535.9,187.9c3.2-2.5,5.1-2,5.7,1.9c0.7,4.7,3.5,8.5,5.4,12.6c0.2,0.4,0.4,0.9,1.1,0.7
				c2.6-0.6,4.2-2.8,3.2-5.1c-2.2-5.4-3.3-10.8-2.3-17.5c0.6-1.9-1.4-2.9-3.3-4.1c-1.9-1.2-3.8-1.1-5.4,0.2c-3.3,2.6-6.6,5.1-9.6,8
				c-6.5,6.2-12.7,12.7-19.7,18.4c-1.1,0.9-2.2,1.6-3.4,0.6c-1.1-0.9-0.6-2-0.1-3.2c1.9-5.1,4.4-9.8,6.6-14.7
				c1.4-3.2,3.1-5.7,6.5-7.3c3.5-1.6,3.5-4.1,0.3-5.8c-0.7-0.4-1.2-0.9-1.8-1.4c-0.9-0.9-2.1-1.1-2.9-0.3c-2.2,2.1-4.6,3.8-6.2,6.7
				c-5.1,8.9-7.9,18.7-11.9,28c-2,4.6,1.9,9.2,6.5,8.1c5.5-1.3,10.2-4.4,13.8-8.5C523.8,199,529.4,193,535.9,187.9z"/>
			<path fill="#02A93D" d="M697.1,246c-3.5,0-6.9-0.4-10.2-1.1c-6.8-1.4-13.6-3-20.4-4.2c-4.2-0.7-5.5-2.5-4.6-6.6
				c1.1-4.8,1.9-9.6,3.9-14.2c0.8-1.9,1.6-3.7,3.7-4.8c1.5-0.8,2.3-2.6,0.7-4.4c-3-3.4-9.1-1.6-10.9,3.4c-2,5.6-2.8,11.4-4,17.2
				c-0.6,3.2-0.7,6.6-4.7,8.2c-2.3,0.9-2.1,2.6,0.2,3.8c0.7,0.4,1.3,0.8,1.2,1.7c-0.1,1.8,0,3.6-0.2,5.5c-0.3,3.2-2.4,6-1.6,9.6
				c1.9-1.1,3.7-2.3,3.8,1.3c0,0.7,0.4,1.9,1.1,1.8c1-0.1,2.2-0.6,2.1-2c-0.4-2.8,0.7-5.5,0.7-8.3c-0.1-5.9,1.3-7.2,6.9-6.2
				c6.5,1.1,13,1.8,19.4,3.2c5.1,1.1,10.3,1.8,15.6,1.4c1.7-0.1,2.3-0.3,1.9-2.3C701.4,245.7,698.9,246,697.1,246z"/>
			<path fill="#02A93D" d="M594.7,250.7c-0.9,0.1-2.3,1.5-2.7,2.9c-0.8,2.5-2.2,4.4-4.9,4.7c-2.3,0.3-6.8-2.4-7.4-4.3
				c-0.3-1.2-0.2-2.1,1.2-2.9c4.2-2.3,8.3-4.8,12.8-6.6c2.1-0.9,2.2-2.4,0.9-4c-1.2-1.6-2.6-2.4-4.9-2.4c-5.5-0.1-10.7-1.7-15.2-5.3
				c-3.4-2.7-5-2.4-6.8,1c-0.7,1.2-0.5,2.3-0.4,3.7c0.5,3.9,2.9,7.7,0.6,12c-1,1.8,0.2,4.5,2.7,5c2.1,0.4,3,1.7,3.9,3.3
				c2.8,4.6,6.7,7.3,13.8,7.4c4.2-0.2,7.9-3.4,10.7-8.1c0.7-1.2,1-2.1,0.2-3.2C598.1,252,596.6,250.6,594.7,250.7z"/>
			<path fill="#02A93D" d="M569.7,218.8c2-3,4.3-5.8,7-8.1c3-2.6,6.4-4.9,9.5-7.5c4.2-3.6,4.3-5.1-0.2-8.3c-4.4-3.1-9-5.9-13.2-9.2
				c-2.4-1.9-4.1-2.2-6.2,0.1c-1.2,1.3-1.3,2.7-1.4,4.3c-0.3,5.7,0.9,11.3,1.3,16.9c0.6,3-1,4.7-3.3,6.4c-1.7,1.2-4.1,2.1-4.8,4.4
				c-0.4,1.4-1.1,3,0.4,3.9C561.1,222.9,568.3,221,569.7,218.8z M574.6,194.3c0.8-0.2,5.6,3.6,5.6,4.2c0,1.1-4.2,4.4-5.6,4.2
				c-2.8-0.5-1.1-2.8-1.7-4.2C573.5,197.1,571.9,194.8,574.6,194.3z"/>
			<path fill="#02A93D" d="M800.6,236.5c-1.2-0.4-2.4-0.8-3.6-1.1c-6.3-1.5-12.7-2.7-19-4.6c-3.3-1-4.1-2.6-2.8-5.8
				c0.7-1.7,1.2-3.6,1.7-5.4c0.4-1.5,0.6-3.1,2-4.2c1.8-1.4,2-3.5,0.8-4.8c-1.2-1.4-3.4-2.1-5.5-0.7c-2.6,1.8-4,4.3-4.5,7.3
				c-0.8,4.5-0.8,9.4-4.7,12.8c-0.5,0.4-0.6,0.9-0.5,1.4c1.2,4.1,0.7,8.2-0.1,12.4c-0.1,2-0.3,3.5,2.8,2.8c2.2-0.4,3.1-0.7,3.3-3.2
				c0.1-1.3,0.4-2.9,0.8-4.3c0.7-2.2,1.4-3,3.8-2c5.3,2.2,11.2,2.2,16.8,2.9c2.6,0.3,5.3,2.2,8.4,0.7c1.5-0.7,1.7-1.6,2-2.7
				C802.8,236.5,801.3,236.8,800.6,236.5z"/>
			<path fill="#02A93D" d="M680.5,210c3.5-0.5,6.2-2.3,8-5.4c0.7-1.2,2.5-2.4,1-3.8c-1.4-1.3-3.3-1-5-0.1c-1.7,1-3.5,1.8-5.3,2.7
				c-1.5,0.7-3.4,1.7-2.7,3.3C677,208.1,677.9,210.5,680.5,210z"/>
		</g>
	</g>
</g>
</svg>
